%TF.GenerationSoftware,KiCad,Pcbnew,9.99.0-1490-gab75263b91*%
%TF.CreationDate,2025-06-04T22:15:06+10:00*%
%TF.ProjectId,energy_harvesting_board,656e6572-6779-45f6-9861-727665737469,rev?*%
%TF.SameCoordinates,Original*%
%TF.FileFunction,Legend,Top*%
%TF.FilePolarity,Positive*%
%FSLAX46Y46*%
G04 Gerber Fmt 4.6, Leading zero omitted, Abs format (unit mm)*
G04 Created by KiCad (PCBNEW 9.99.0-1490-gab75263b91) date 2025-06-04 22:15:06*
%MOMM*%
%LPD*%
G01*
G04 APERTURE LIST*
%ADD10C,0.125000*%
%ADD11C,0.200000*%
%ADD12C,0.187500*%
%ADD13C,0.127000*%
%ADD14C,0.150000*%
%ADD15C,0.250000*%
%ADD16C,0.400000*%
%ADD17C,0.100000*%
%ADD18C,0.120000*%
G04 APERTURE END LIST*
D10*
G36*
X152413349Y-83009872D02*
G01*
X152468642Y-83014953D01*
X152521464Y-83024401D01*
X152566278Y-83038034D01*
X152605730Y-83057898D01*
X152634559Y-83082685D01*
X152648365Y-83102847D01*
X152656798Y-83126341D01*
X152659747Y-83154080D01*
X152656798Y-83181819D01*
X152648365Y-83205313D01*
X152634559Y-83225475D01*
X152605728Y-83250252D01*
X152566278Y-83270080D01*
X152521461Y-83283747D01*
X152468642Y-83293207D01*
X152413349Y-83298288D01*
X152354199Y-83300030D01*
X152295914Y-83298300D01*
X152240259Y-83293207D01*
X152186995Y-83283733D01*
X152142120Y-83270080D01*
X152102700Y-83250258D01*
X152073839Y-83225475D01*
X152060033Y-83205313D01*
X152051600Y-83181819D01*
X152048875Y-83156187D01*
X152293291Y-83156187D01*
X152295877Y-83175417D01*
X152303330Y-83191426D01*
X152315868Y-83205005D01*
X152340118Y-83218766D01*
X152367846Y-83223369D01*
X152395656Y-83218781D01*
X152420328Y-83205005D01*
X152433199Y-83191385D01*
X152440817Y-83175376D01*
X152443454Y-83156187D01*
X152440873Y-83137650D01*
X152433299Y-83121585D01*
X152420328Y-83107323D01*
X152395582Y-83092728D01*
X152367846Y-83087905D01*
X152340193Y-83092744D01*
X152315868Y-83107323D01*
X152303231Y-83121544D01*
X152295822Y-83137611D01*
X152293291Y-83156187D01*
X152048875Y-83156187D01*
X152048651Y-83154080D01*
X152051600Y-83126341D01*
X152060033Y-83102847D01*
X152073839Y-83082685D01*
X152102699Y-83057893D01*
X152142120Y-83038034D01*
X152186993Y-83024416D01*
X152240259Y-83014953D01*
X152295914Y-83009859D01*
X152354199Y-83008130D01*
X152413349Y-83009872D01*
G37*
G36*
X152403017Y-81891085D02*
G01*
X152540037Y-81937293D01*
X152650313Y-81977730D01*
X152542647Y-82018168D01*
X152405123Y-82063826D01*
X152255509Y-82107927D01*
X152255509Y-81845427D01*
X152403017Y-81891085D01*
G37*
G36*
X152817635Y-83472619D02*
G01*
X151890763Y-83472619D01*
X151890763Y-83154080D01*
X151974096Y-83154080D01*
X151978187Y-83197493D01*
X151990010Y-83235699D01*
X152009418Y-83269746D01*
X152036959Y-83300349D01*
X152073839Y-83327828D01*
X152123990Y-83352844D01*
X152185861Y-83372117D01*
X152261728Y-83384718D01*
X152354199Y-83389286D01*
X152446669Y-83384718D01*
X152522537Y-83372117D01*
X152584408Y-83352844D01*
X152634559Y-83327828D01*
X152671438Y-83300349D01*
X152698980Y-83269746D01*
X152718387Y-83235699D01*
X152730211Y-83197493D01*
X152734302Y-83154080D01*
X152730232Y-83111118D01*
X152718448Y-83073158D01*
X152699066Y-83039181D01*
X152671510Y-83008495D01*
X152634559Y-82980790D01*
X152584379Y-82955576D01*
X152522498Y-82936162D01*
X152446640Y-82923473D01*
X152354199Y-82918874D01*
X152261793Y-82923510D01*
X152185948Y-82936304D01*
X152124054Y-82955887D01*
X152073839Y-82981339D01*
X152036813Y-83009254D01*
X152009242Y-83040006D01*
X151989887Y-83073893D01*
X151978144Y-83111588D01*
X151974096Y-83154080D01*
X151890763Y-83154080D01*
X151890763Y-82525490D01*
X151989850Y-82525490D01*
X151989850Y-82607373D01*
X152647153Y-82607373D01*
X152647153Y-82808965D01*
X152717495Y-82808965D01*
X152717495Y-82323853D01*
X152647153Y-82323853D01*
X152647153Y-82525490D01*
X151989850Y-82525490D01*
X151890763Y-82525490D01*
X151890763Y-81778245D01*
X151989850Y-81778245D01*
X152186221Y-81823353D01*
X152186221Y-82107927D01*
X152186221Y-82128947D01*
X151989850Y-82175109D01*
X151989850Y-82262258D01*
X152147340Y-82219210D01*
X152333179Y-82166179D01*
X152529550Y-82104767D01*
X152626790Y-82070829D01*
X152717495Y-82035478D01*
X152717495Y-81926256D01*
X152626777Y-81889857D01*
X152529550Y-81854861D01*
X152332675Y-81791892D01*
X152146287Y-81738311D01*
X151989850Y-81695263D01*
X151989850Y-81778245D01*
X151890763Y-81778245D01*
X151890763Y-81350194D01*
X151989850Y-81350194D01*
X151989850Y-81432076D01*
X152647153Y-81432076D01*
X152647153Y-81633668D01*
X152717495Y-81633668D01*
X152717495Y-81148556D01*
X152647153Y-81148556D01*
X152647153Y-81350194D01*
X151989850Y-81350194D01*
X151890763Y-81350194D01*
X151890763Y-80785627D01*
X151974096Y-80785627D01*
X151977767Y-80843407D01*
X151987986Y-80891276D01*
X152003878Y-80930882D01*
X152025020Y-80963588D01*
X152052707Y-80991109D01*
X152085120Y-81010724D01*
X152123201Y-81022874D01*
X152168360Y-81027152D01*
X152214569Y-81023626D01*
X152250747Y-81014009D01*
X152282665Y-80997765D01*
X152309548Y-80975678D01*
X152332568Y-80948265D01*
X152354199Y-80913717D01*
X152394087Y-80829728D01*
X152432921Y-80752562D01*
X152454395Y-80721714D01*
X152479129Y-80699531D01*
X152509364Y-80685697D01*
X152550570Y-80680617D01*
X152584856Y-80685796D01*
X152611982Y-80700584D01*
X152633525Y-80723138D01*
X152649259Y-80751509D01*
X152658677Y-80783248D01*
X152661853Y-80817134D01*
X152658076Y-80866194D01*
X152647153Y-80910053D01*
X152631774Y-80949893D01*
X152618805Y-80975678D01*
X152690201Y-81002972D01*
X152705593Y-80976663D01*
X152721158Y-80930020D01*
X152730924Y-80877884D01*
X152734302Y-80820294D01*
X152730575Y-80767667D01*
X152720151Y-80723871D01*
X152703801Y-80687382D01*
X152681774Y-80656987D01*
X152653696Y-80632007D01*
X152620731Y-80613976D01*
X152581908Y-80602714D01*
X152535870Y-80598735D01*
X152497447Y-80602290D01*
X152464978Y-80612382D01*
X152435939Y-80628679D01*
X152410894Y-80650163D01*
X152389235Y-80675956D01*
X152369403Y-80706355D01*
X152336339Y-80774086D01*
X152298511Y-80856518D01*
X152274684Y-80892796D01*
X152246579Y-80921090D01*
X152224665Y-80934680D01*
X152197951Y-80943224D01*
X152165201Y-80946277D01*
X152138560Y-80943875D01*
X152116448Y-80937111D01*
X152097973Y-80926310D01*
X152075485Y-80902925D01*
X152059138Y-80870669D01*
X152049914Y-80833034D01*
X152046544Y-80785627D01*
X152051195Y-80722276D01*
X152063855Y-80672741D01*
X152092752Y-80606062D01*
X152024517Y-80579821D01*
X152004000Y-80622869D01*
X151993137Y-80653941D01*
X151983026Y-80693761D01*
X151976428Y-80736457D01*
X151974096Y-80785627D01*
X151890763Y-80785627D01*
X151890763Y-80496488D01*
X152817635Y-80496488D01*
X152817635Y-83472619D01*
G37*
G36*
X142203017Y-82016085D02*
G01*
X142340037Y-82062293D01*
X142450313Y-82102730D01*
X142342647Y-82143168D01*
X142205123Y-82188826D01*
X142055509Y-82232927D01*
X142055509Y-81970427D01*
X142203017Y-82016085D01*
G37*
G36*
X142136339Y-81449961D02*
G01*
X142136339Y-81472034D01*
X142133252Y-81520415D01*
X142124248Y-81564953D01*
X142107554Y-81605004D01*
X142082804Y-81635845D01*
X142061635Y-81650458D01*
X142034553Y-81659760D01*
X141999868Y-81663139D01*
X141962404Y-81659560D01*
X141933065Y-81649706D01*
X141910063Y-81634242D01*
X141891128Y-81613415D01*
X141876273Y-81588612D01*
X141865458Y-81559183D01*
X141856100Y-81511830D01*
X141852864Y-81459440D01*
X141854925Y-81391709D01*
X141857032Y-81367025D01*
X142136339Y-81367025D01*
X142136339Y-81449961D01*
G37*
G36*
X142454480Y-81401143D02*
G01*
X142455533Y-81459440D01*
X142452159Y-81503438D01*
X142442390Y-81542880D01*
X142425365Y-81578027D01*
X142401449Y-81605345D01*
X142381659Y-81618453D01*
X142357710Y-81626621D01*
X142328497Y-81629525D01*
X142296734Y-81626121D01*
X142271874Y-81616693D01*
X142252339Y-81601681D01*
X142229899Y-81570906D01*
X142215107Y-81532393D01*
X142207215Y-81490853D01*
X142204620Y-81449961D01*
X142204620Y-81367025D01*
X142451366Y-81367025D01*
X142454480Y-81401143D01*
G37*
G36*
X142608201Y-83604946D02*
G01*
X141701250Y-83604946D01*
X141701250Y-83238139D01*
X141789850Y-83238139D01*
X141789850Y-83320021D01*
X142447153Y-83320021D01*
X142447153Y-83521613D01*
X142517495Y-83521613D01*
X142517495Y-83036501D01*
X142447153Y-83036501D01*
X142447153Y-83238139D01*
X141789850Y-83238139D01*
X141701250Y-83238139D01*
X141701250Y-82650490D01*
X141789850Y-82650490D01*
X141789850Y-82732373D01*
X142447153Y-82732373D01*
X142447153Y-82933965D01*
X142517495Y-82933965D01*
X142517495Y-82448853D01*
X142447153Y-82448853D01*
X142447153Y-82650490D01*
X141789850Y-82650490D01*
X141701250Y-82650490D01*
X141701250Y-81903245D01*
X141789850Y-81903245D01*
X141986221Y-81948353D01*
X141986221Y-82232927D01*
X141986221Y-82253947D01*
X141789850Y-82300109D01*
X141789850Y-82387258D01*
X141947340Y-82344210D01*
X142133179Y-82291179D01*
X142329550Y-82229767D01*
X142426790Y-82195829D01*
X142517495Y-82160478D01*
X142517495Y-82051256D01*
X142426777Y-82014857D01*
X142329550Y-81979861D01*
X142132675Y-81916892D01*
X141946287Y-81863311D01*
X141789850Y-81820263D01*
X141789850Y-81903245D01*
X141701250Y-81903245D01*
X141701250Y-81454174D01*
X141784583Y-81454174D01*
X141784827Y-81459440D01*
X141787932Y-81526404D01*
X141796945Y-81582661D01*
X141810320Y-81625861D01*
X141830872Y-81665573D01*
X141855688Y-81695689D01*
X141884875Y-81717727D01*
X141918492Y-81733138D01*
X141956855Y-81742721D01*
X142000921Y-81746074D01*
X142034695Y-81743613D01*
X142063448Y-81736654D01*
X142088024Y-81725604D01*
X142120555Y-81701885D01*
X142146322Y-81672023D01*
X142165667Y-81637661D01*
X142178333Y-81601177D01*
X142191292Y-81630008D01*
X142211947Y-81656819D01*
X142238086Y-81679438D01*
X142268642Y-81697211D01*
X142301738Y-81708711D01*
X142334816Y-81712461D01*
X142374246Y-81709711D01*
X142406146Y-81702122D01*
X142431903Y-81690387D01*
X142464973Y-81664549D01*
X142489147Y-81631586D01*
X142505916Y-81593144D01*
X142516991Y-81549199D01*
X142522900Y-81503389D01*
X142524868Y-81457334D01*
X142523265Y-81403753D01*
X142517998Y-81340234D01*
X142513210Y-81309418D01*
X142507008Y-81285142D01*
X141801390Y-81285142D01*
X141791407Y-81338677D01*
X141786186Y-81401692D01*
X141784583Y-81454174D01*
X141701250Y-81454174D01*
X141701250Y-80871792D01*
X141789850Y-80871792D01*
X141789850Y-80983075D01*
X142011912Y-81060744D01*
X142224541Y-81127972D01*
X142401998Y-81179401D01*
X142517495Y-81208847D01*
X142517495Y-81121698D01*
X142438433Y-81105176D01*
X142349471Y-81083367D01*
X142168350Y-81031893D01*
X141996158Y-80977305D01*
X141854971Y-80930593D01*
X141995105Y-80883836D01*
X142165739Y-80831355D01*
X142346861Y-80780430D01*
X142517495Y-80739489D01*
X142517495Y-80650233D01*
X142425629Y-80673314D01*
X142297493Y-80709538D01*
X142142612Y-80756799D01*
X141969918Y-80811388D01*
X141789850Y-80871792D01*
X141701250Y-80871792D01*
X141701250Y-80566900D01*
X142608201Y-80566900D01*
X142608201Y-83604946D01*
G37*
G36*
X162915844Y-93195707D02*
G01*
X162947886Y-93207065D01*
X162976432Y-93225910D01*
X163000144Y-93250992D01*
X163020891Y-93284671D01*
X163038393Y-93328813D01*
X163049750Y-93375170D01*
X163057211Y-93431815D01*
X163059917Y-93500500D01*
X163057220Y-93568458D01*
X163049769Y-93624781D01*
X163038393Y-93671134D01*
X163020915Y-93715295D01*
X163000170Y-93749177D01*
X162976432Y-93774587D01*
X162947851Y-93793728D01*
X162915812Y-93805243D01*
X162879300Y-93809208D01*
X162844242Y-93805250D01*
X162813612Y-93793753D01*
X162786380Y-93774587D01*
X162764018Y-93749310D01*
X162744474Y-93715458D01*
X162728083Y-93671134D01*
X162717567Y-93624854D01*
X162710663Y-93568526D01*
X162708162Y-93500500D01*
X162710686Y-93431012D01*
X162717612Y-93374243D01*
X162728083Y-93328309D01*
X162744476Y-93284342D01*
X162764018Y-93250844D01*
X162786380Y-93225910D01*
X162813577Y-93207041D01*
X162844210Y-93195701D01*
X162879300Y-93191793D01*
X162915844Y-93195707D01*
G37*
G36*
X163503492Y-93195707D02*
G01*
X163535534Y-93207065D01*
X163564080Y-93225910D01*
X163587792Y-93250992D01*
X163608539Y-93284671D01*
X163626041Y-93328813D01*
X163637399Y-93375170D01*
X163644859Y-93431815D01*
X163647565Y-93500500D01*
X163644869Y-93568458D01*
X163637417Y-93624781D01*
X163626041Y-93671134D01*
X163608564Y-93715295D01*
X163587818Y-93749177D01*
X163564080Y-93774587D01*
X163535500Y-93793728D01*
X163503460Y-93805243D01*
X163466948Y-93809208D01*
X163431891Y-93805250D01*
X163401261Y-93793753D01*
X163374029Y-93774587D01*
X163351666Y-93749310D01*
X163332122Y-93715458D01*
X163315731Y-93671134D01*
X163305215Y-93624854D01*
X163298311Y-93568526D01*
X163295810Y-93500500D01*
X163298334Y-93431012D01*
X163305261Y-93374243D01*
X163315731Y-93328309D01*
X163332124Y-93284342D01*
X163351666Y-93250844D01*
X163374029Y-93225910D01*
X163401226Y-93207041D01*
X163431858Y-93195701D01*
X163466948Y-93191793D01*
X163503492Y-93195707D01*
G37*
G36*
X162299091Y-93521447D02*
G01*
X162343629Y-93530451D01*
X162383680Y-93547145D01*
X162414521Y-93571895D01*
X162429134Y-93593064D01*
X162438436Y-93620146D01*
X162441815Y-93654831D01*
X162438236Y-93692295D01*
X162428382Y-93721634D01*
X162412918Y-93744636D01*
X162392091Y-93763571D01*
X162367288Y-93778426D01*
X162337859Y-93789241D01*
X162290506Y-93798599D01*
X162238116Y-93801835D01*
X162170385Y-93799774D01*
X162145701Y-93797667D01*
X162145701Y-93518360D01*
X162250710Y-93518360D01*
X162299091Y-93521447D01*
G37*
G36*
X162282114Y-93202540D02*
G01*
X162321556Y-93212309D01*
X162356703Y-93229334D01*
X162384021Y-93253250D01*
X162397129Y-93273040D01*
X162405297Y-93296989D01*
X162408201Y-93326202D01*
X162404797Y-93357965D01*
X162395369Y-93382825D01*
X162380357Y-93402360D01*
X162349582Y-93424800D01*
X162311069Y-93439592D01*
X162269529Y-93447484D01*
X162228637Y-93450079D01*
X162145701Y-93450079D01*
X162145701Y-93203333D01*
X162179819Y-93200219D01*
X162238116Y-93199166D01*
X162282114Y-93202540D01*
G37*
G36*
X164971270Y-93963936D02*
G01*
X161345576Y-93963936D01*
X161345576Y-93137204D01*
X161428909Y-93137204D01*
X161451990Y-93229070D01*
X161488214Y-93357206D01*
X161535475Y-93512087D01*
X161590064Y-93684781D01*
X161650468Y-93864850D01*
X161761751Y-93864850D01*
X161839420Y-93642787D01*
X161906648Y-93430158D01*
X161958077Y-93252701D01*
X161984849Y-93147691D01*
X162063818Y-93147691D01*
X162063818Y-93203333D01*
X162063818Y-93797667D01*
X162063818Y-93853309D01*
X162117353Y-93863292D01*
X162180368Y-93868513D01*
X162232850Y-93870116D01*
X162305080Y-93866767D01*
X162361337Y-93857754D01*
X162404537Y-93844379D01*
X162444249Y-93823827D01*
X162474365Y-93799011D01*
X162496403Y-93769824D01*
X162511814Y-93736207D01*
X162521397Y-93697844D01*
X162524750Y-93653778D01*
X162522289Y-93620004D01*
X162515330Y-93591251D01*
X162504280Y-93566675D01*
X162480561Y-93534144D01*
X162450699Y-93508377D01*
X162436707Y-93500500D01*
X162623119Y-93500500D01*
X162627376Y-93588602D01*
X162639029Y-93659769D01*
X162656687Y-93716793D01*
X162683108Y-93769981D01*
X162713756Y-93810605D01*
X162748553Y-93840715D01*
X162789000Y-93862733D01*
X162833298Y-93876041D01*
X162882459Y-93880603D01*
X162931639Y-93876059D01*
X162976290Y-93862766D01*
X163017373Y-93840715D01*
X163052838Y-93810519D01*
X163083827Y-93769881D01*
X163110292Y-93716793D01*
X163127975Y-93659767D01*
X163139644Y-93588599D01*
X163143906Y-93500500D01*
X163210768Y-93500500D01*
X163215024Y-93588602D01*
X163226678Y-93659769D01*
X163244336Y-93716793D01*
X163270756Y-93769981D01*
X163301404Y-93810605D01*
X163336202Y-93840715D01*
X163376648Y-93862733D01*
X163420947Y-93876041D01*
X163470108Y-93880603D01*
X163519288Y-93876059D01*
X163563938Y-93862766D01*
X163605021Y-93840715D01*
X163617392Y-93830182D01*
X163834091Y-93830182D01*
X163877138Y-93850699D01*
X163908210Y-93861562D01*
X163948030Y-93871673D01*
X163990727Y-93878271D01*
X164039896Y-93880603D01*
X164097677Y-93876932D01*
X164145545Y-93866713D01*
X164185151Y-93850821D01*
X164217857Y-93829679D01*
X164245378Y-93801992D01*
X164264993Y-93769579D01*
X164277143Y-93731498D01*
X164281421Y-93686339D01*
X164277895Y-93640130D01*
X164268278Y-93603952D01*
X164252035Y-93572034D01*
X164229947Y-93545151D01*
X164202534Y-93522131D01*
X164167986Y-93500500D01*
X164083997Y-93460612D01*
X164006831Y-93421778D01*
X163975983Y-93400304D01*
X163953800Y-93375570D01*
X163939966Y-93345335D01*
X163934887Y-93304129D01*
X163940065Y-93269843D01*
X163954853Y-93242717D01*
X163977407Y-93221174D01*
X164005778Y-93205440D01*
X164037518Y-93196022D01*
X164071403Y-93192846D01*
X164120464Y-93196623D01*
X164164322Y-93207546D01*
X164204162Y-93222925D01*
X164229947Y-93235894D01*
X164240784Y-93207546D01*
X164402825Y-93207546D01*
X164604463Y-93207546D01*
X164604463Y-93864850D01*
X164686345Y-93864850D01*
X164686345Y-93207546D01*
X164887937Y-93207546D01*
X164887937Y-93137204D01*
X164402825Y-93137204D01*
X164402825Y-93207546D01*
X164240784Y-93207546D01*
X164257241Y-93164498D01*
X164230932Y-93149106D01*
X164184289Y-93133541D01*
X164132153Y-93123775D01*
X164074563Y-93120397D01*
X164021936Y-93124124D01*
X163978141Y-93134548D01*
X163941651Y-93150898D01*
X163911256Y-93172925D01*
X163886276Y-93201003D01*
X163868245Y-93233968D01*
X163856983Y-93272791D01*
X163853004Y-93318829D01*
X163856559Y-93357252D01*
X163866651Y-93389721D01*
X163882948Y-93418760D01*
X163904433Y-93443805D01*
X163930226Y-93465464D01*
X163960624Y-93485296D01*
X164028355Y-93518360D01*
X164110787Y-93556188D01*
X164147065Y-93580015D01*
X164175359Y-93608120D01*
X164188950Y-93630034D01*
X164197493Y-93656748D01*
X164200546Y-93689498D01*
X164198144Y-93716139D01*
X164191380Y-93738251D01*
X164180580Y-93756726D01*
X164157195Y-93779214D01*
X164124938Y-93795561D01*
X164087303Y-93804785D01*
X164039896Y-93808155D01*
X163976546Y-93803504D01*
X163927010Y-93790844D01*
X163860331Y-93761947D01*
X163834091Y-93830182D01*
X163617392Y-93830182D01*
X163640486Y-93810519D01*
X163671475Y-93769881D01*
X163697940Y-93716793D01*
X163715623Y-93659767D01*
X163727292Y-93588599D01*
X163731554Y-93500500D01*
X163727231Y-93412430D01*
X163715392Y-93341263D01*
X163697437Y-93284208D01*
X163670680Y-93231058D01*
X163639686Y-93190442D01*
X163604518Y-93160331D01*
X163563750Y-93138270D01*
X163519276Y-93124955D01*
X163470108Y-93120397D01*
X163420248Y-93124985D01*
X163375614Y-93138328D01*
X163335148Y-93160331D01*
X163300395Y-93190431D01*
X163269929Y-93231036D01*
X163243832Y-93284208D01*
X163226446Y-93341202D01*
X163214963Y-93412370D01*
X163210768Y-93500500D01*
X163143906Y-93500500D01*
X163139583Y-93412430D01*
X163127743Y-93341263D01*
X163109788Y-93284208D01*
X163083032Y-93231058D01*
X163052038Y-93190442D01*
X163016869Y-93160331D01*
X162976102Y-93138270D01*
X162931627Y-93124955D01*
X162882459Y-93120397D01*
X162832600Y-93124985D01*
X162787965Y-93138328D01*
X162747500Y-93160331D01*
X162712746Y-93190431D01*
X162682281Y-93231036D01*
X162656184Y-93284208D01*
X162638797Y-93341202D01*
X162627315Y-93412370D01*
X162623119Y-93500500D01*
X162436707Y-93500500D01*
X162416337Y-93489032D01*
X162379853Y-93476366D01*
X162408684Y-93463407D01*
X162435495Y-93442752D01*
X162458114Y-93416613D01*
X162475887Y-93386057D01*
X162487387Y-93352961D01*
X162491137Y-93319883D01*
X162488387Y-93280453D01*
X162480798Y-93248553D01*
X162469063Y-93222796D01*
X162443225Y-93189726D01*
X162410262Y-93165552D01*
X162371820Y-93148783D01*
X162327875Y-93137708D01*
X162282065Y-93131799D01*
X162236010Y-93129831D01*
X162182429Y-93131434D01*
X162118910Y-93136701D01*
X162088094Y-93141489D01*
X162063818Y-93147691D01*
X161984849Y-93147691D01*
X161987523Y-93137204D01*
X161900374Y-93137204D01*
X161883852Y-93216266D01*
X161862043Y-93305228D01*
X161810569Y-93486349D01*
X161755981Y-93658541D01*
X161709269Y-93799728D01*
X161662512Y-93659594D01*
X161610031Y-93488960D01*
X161559106Y-93307838D01*
X161518165Y-93137204D01*
X161428909Y-93137204D01*
X161345576Y-93137204D01*
X161345576Y-93037064D01*
X164971270Y-93037064D01*
X164971270Y-93963936D01*
G37*
G36*
X164126856Y-101004809D02*
G01*
X164170555Y-101014812D01*
X164208033Y-101030673D01*
X164240975Y-101053692D01*
X164268887Y-101084898D01*
X164292022Y-101125653D01*
X164307401Y-101170437D01*
X164317644Y-101227797D01*
X164321422Y-101300500D01*
X164317682Y-101374664D01*
X164307587Y-101432641D01*
X164292525Y-101477408D01*
X164269745Y-101518185D01*
X164242520Y-101548822D01*
X164210643Y-101570877D01*
X164174306Y-101585976D01*
X164132801Y-101595413D01*
X164085163Y-101598721D01*
X164051045Y-101597667D01*
X164014821Y-101594508D01*
X164014821Y-101004386D01*
X164075729Y-101001272D01*
X164126856Y-101004809D01*
G37*
G36*
X164489798Y-101763936D02*
G01*
X162673256Y-101763936D01*
X162673256Y-101300500D01*
X162756589Y-101300500D01*
X162761049Y-101379724D01*
X162773608Y-101447414D01*
X162793317Y-101505252D01*
X162821876Y-101558902D01*
X162855794Y-101601820D01*
X162895166Y-101635449D01*
X162940409Y-101660324D01*
X162990411Y-101675412D01*
X163046383Y-101680603D01*
X163107443Y-101677127D01*
X163158216Y-101667460D01*
X163167114Y-101664850D01*
X163350511Y-101664850D01*
X163426120Y-101664850D01*
X163426120Y-101054807D01*
X163489638Y-101180287D01*
X163555263Y-101313644D01*
X163626658Y-101470081D01*
X163708586Y-101664850D01*
X163802009Y-101664850D01*
X163802009Y-100947691D01*
X163932939Y-100947691D01*
X163932939Y-101004386D01*
X163932939Y-101652256D01*
X164006395Y-101665353D01*
X164077836Y-101670116D01*
X164139274Y-101665916D01*
X164194974Y-101653728D01*
X164245814Y-101633892D01*
X164280671Y-101613279D01*
X164311714Y-101587154D01*
X164339262Y-101555063D01*
X164363417Y-101516289D01*
X164381105Y-101475587D01*
X164394609Y-101426970D01*
X164403337Y-101369107D01*
X164406465Y-101300500D01*
X164403220Y-101231396D01*
X164394169Y-101173224D01*
X164380167Y-101124435D01*
X164361814Y-101083658D01*
X164336916Y-101044914D01*
X164308690Y-101012820D01*
X164277024Y-100986680D01*
X164241601Y-100966055D01*
X164190100Y-100946222D01*
X164133697Y-100934032D01*
X164071516Y-100929831D01*
X164002227Y-100934594D01*
X163932939Y-100947691D01*
X163802009Y-100947691D01*
X163802009Y-100937204D01*
X163726447Y-100937204D01*
X163726447Y-101530440D01*
X163670256Y-101392916D01*
X163622445Y-101284243D01*
X163574177Y-101184500D01*
X163517985Y-101075278D01*
X163443980Y-100937204D01*
X163350511Y-100937204D01*
X163350511Y-101664850D01*
X163167114Y-101664850D01*
X163228008Y-101646989D01*
X163228008Y-101312041D01*
X163146126Y-101312041D01*
X163146126Y-101590294D01*
X163118282Y-101601881D01*
X163095242Y-101606311D01*
X163056870Y-101608155D01*
X163011452Y-101603451D01*
X162972346Y-101589927D01*
X162938214Y-101567717D01*
X162909313Y-101538311D01*
X162884984Y-101501938D01*
X162865262Y-101457487D01*
X162851836Y-101410316D01*
X162843478Y-101358206D01*
X162840578Y-101300500D01*
X162843992Y-101237933D01*
X162853662Y-101183713D01*
X162868925Y-101136690D01*
X162890883Y-101092586D01*
X162916440Y-101057311D01*
X162945541Y-101029620D01*
X162979288Y-101008368D01*
X163014392Y-100995945D01*
X163051649Y-100991793D01*
X163091674Y-100995251D01*
X163128815Y-101005440D01*
X163163435Y-101021126D01*
X163193387Y-101040107D01*
X163222787Y-100969765D01*
X163193341Y-100950851D01*
X163170359Y-100940419D01*
X163137196Y-100929877D01*
X163099808Y-100923002D01*
X163049543Y-100920397D01*
X162996978Y-100925403D01*
X162948108Y-100940205D01*
X162901990Y-100965048D01*
X162861461Y-100998383D01*
X162826148Y-101041126D01*
X162795927Y-101094695D01*
X162774804Y-101152690D01*
X162761363Y-101220697D01*
X162756589Y-101300500D01*
X162673256Y-101300500D01*
X162673256Y-100837064D01*
X164489798Y-100837064D01*
X164489798Y-101763936D01*
G37*
G36*
X136493270Y-86271072D02*
G01*
X136522403Y-86277741D01*
X136547388Y-86288315D01*
X136569350Y-86303661D01*
X136587958Y-86324465D01*
X136603381Y-86351635D01*
X136613634Y-86381491D01*
X136620463Y-86419731D01*
X136622981Y-86468200D01*
X136620488Y-86517642D01*
X136613758Y-86556294D01*
X136603717Y-86586139D01*
X136588530Y-86613323D01*
X136570380Y-86633748D01*
X136549128Y-86648451D01*
X136524904Y-86658517D01*
X136497234Y-86664808D01*
X136465475Y-86667014D01*
X136442730Y-86666311D01*
X136418581Y-86664205D01*
X136418581Y-86270791D01*
X136459186Y-86268715D01*
X136493270Y-86271072D01*
G37*
G36*
X136742176Y-86784102D02*
G01*
X135517259Y-86784102D01*
X135517259Y-86468200D01*
X135579759Y-86468200D01*
X135582733Y-86521016D01*
X135591105Y-86566142D01*
X135604244Y-86604701D01*
X135623284Y-86640468D01*
X135645896Y-86669080D01*
X135672144Y-86691499D01*
X135702306Y-86708083D01*
X135735641Y-86718141D01*
X135772955Y-86721602D01*
X135813662Y-86719284D01*
X135847510Y-86712840D01*
X135853442Y-86711100D01*
X135975707Y-86711100D01*
X136026113Y-86711100D01*
X136026113Y-86304405D01*
X136068458Y-86388058D01*
X136112208Y-86476962D01*
X136159805Y-86581254D01*
X136214424Y-86711100D01*
X136276706Y-86711100D01*
X136276706Y-86232994D01*
X136363992Y-86232994D01*
X136363992Y-86270791D01*
X136363992Y-86702704D01*
X136412963Y-86711435D01*
X136460590Y-86714610D01*
X136501549Y-86711810D01*
X136538682Y-86703685D01*
X136572576Y-86690461D01*
X136595814Y-86676719D01*
X136616509Y-86659302D01*
X136634875Y-86637908D01*
X136650978Y-86612059D01*
X136662770Y-86584925D01*
X136671772Y-86552513D01*
X136677591Y-86513938D01*
X136679676Y-86468200D01*
X136677513Y-86422131D01*
X136671479Y-86383349D01*
X136662145Y-86350823D01*
X136649909Y-86323639D01*
X136633311Y-86297809D01*
X136614493Y-86276413D01*
X136593382Y-86258987D01*
X136569767Y-86245237D01*
X136535433Y-86232014D01*
X136497831Y-86223888D01*
X136456377Y-86221087D01*
X136410185Y-86224262D01*
X136363992Y-86232994D01*
X136276706Y-86232994D01*
X136276706Y-86226003D01*
X136226331Y-86226003D01*
X136226331Y-86621493D01*
X136188870Y-86529810D01*
X136156997Y-86457362D01*
X136124818Y-86390867D01*
X136087357Y-86318052D01*
X136038020Y-86226003D01*
X135975707Y-86226003D01*
X135975707Y-86711100D01*
X135853442Y-86711100D01*
X135894039Y-86699193D01*
X135894039Y-86475894D01*
X135839450Y-86475894D01*
X135839450Y-86661396D01*
X135820888Y-86669120D01*
X135805528Y-86672074D01*
X135779947Y-86673303D01*
X135749668Y-86670167D01*
X135723597Y-86661151D01*
X135700842Y-86646345D01*
X135681575Y-86626741D01*
X135665356Y-86602492D01*
X135652208Y-86572858D01*
X135643257Y-86541410D01*
X135637685Y-86506671D01*
X135635752Y-86468200D01*
X135638028Y-86426488D01*
X135644475Y-86390342D01*
X135654650Y-86358993D01*
X135669288Y-86329591D01*
X135686326Y-86306074D01*
X135705727Y-86287613D01*
X135728225Y-86273445D01*
X135751628Y-86265163D01*
X135776466Y-86262395D01*
X135803149Y-86264700D01*
X135827910Y-86271493D01*
X135850990Y-86281951D01*
X135870958Y-86294604D01*
X135890558Y-86247710D01*
X135870927Y-86235101D01*
X135855606Y-86228146D01*
X135833497Y-86221118D01*
X135808572Y-86216535D01*
X135775062Y-86214798D01*
X135740018Y-86218135D01*
X135707439Y-86228003D01*
X135676693Y-86244565D01*
X135649674Y-86266788D01*
X135626132Y-86295284D01*
X135605985Y-86330997D01*
X135591902Y-86369660D01*
X135582942Y-86414998D01*
X135579759Y-86468200D01*
X135517259Y-86468200D01*
X135517259Y-86152298D01*
X136742176Y-86152298D01*
X136742176Y-86784102D01*
G37*
D11*
X162461380Y-111608987D02*
X161747095Y-111608987D01*
X161747095Y-111608987D02*
X161604238Y-111561368D01*
X161604238Y-111561368D02*
X161509000Y-111466130D01*
X161509000Y-111466130D02*
X161461380Y-111323273D01*
X161461380Y-111323273D02*
X161461380Y-111228035D01*
X161461380Y-112561368D02*
X161461380Y-112085178D01*
X161461380Y-112085178D02*
X162461380Y-112085178D01*
X161556619Y-113466130D02*
X161509000Y-113418511D01*
X161509000Y-113418511D02*
X161461380Y-113275654D01*
X161461380Y-113275654D02*
X161461380Y-113180416D01*
X161461380Y-113180416D02*
X161509000Y-113037559D01*
X161509000Y-113037559D02*
X161604238Y-112942321D01*
X161604238Y-112942321D02*
X161699476Y-112894702D01*
X161699476Y-112894702D02*
X161889952Y-112847083D01*
X161889952Y-112847083D02*
X162032809Y-112847083D01*
X162032809Y-112847083D02*
X162223285Y-112894702D01*
X162223285Y-112894702D02*
X162318523Y-112942321D01*
X162318523Y-112942321D02*
X162413761Y-113037559D01*
X162413761Y-113037559D02*
X162461380Y-113180416D01*
X162461380Y-113180416D02*
X162461380Y-113275654D01*
X162461380Y-113275654D02*
X162413761Y-113418511D01*
X162413761Y-113418511D02*
X162366142Y-113466130D01*
X162461380Y-114180416D02*
X161747095Y-114180416D01*
X161747095Y-114180416D02*
X161604238Y-114132797D01*
X161604238Y-114132797D02*
X161509000Y-114037559D01*
X161509000Y-114037559D02*
X161461380Y-113894702D01*
X161461380Y-113894702D02*
X161461380Y-113799464D01*
X161461380Y-115132797D02*
X161461380Y-114656607D01*
X161461380Y-114656607D02*
X162461380Y-114656607D01*
X161556619Y-116037559D02*
X161509000Y-115989940D01*
X161509000Y-115989940D02*
X161461380Y-115847083D01*
X161461380Y-115847083D02*
X161461380Y-115751845D01*
X161461380Y-115751845D02*
X161509000Y-115608988D01*
X161509000Y-115608988D02*
X161604238Y-115513750D01*
X161604238Y-115513750D02*
X161699476Y-115466131D01*
X161699476Y-115466131D02*
X161889952Y-115418512D01*
X161889952Y-115418512D02*
X162032809Y-115418512D01*
X162032809Y-115418512D02*
X162223285Y-115466131D01*
X162223285Y-115466131D02*
X162318523Y-115513750D01*
X162318523Y-115513750D02*
X162413761Y-115608988D01*
X162413761Y-115608988D02*
X162461380Y-115751845D01*
X162461380Y-115751845D02*
X162461380Y-115847083D01*
X162461380Y-115847083D02*
X162413761Y-115989940D01*
X162413761Y-115989940D02*
X162366142Y-116037559D01*
X162461380Y-116751845D02*
X161747095Y-116751845D01*
X161747095Y-116751845D02*
X161604238Y-116704226D01*
X161604238Y-116704226D02*
X161509000Y-116608988D01*
X161509000Y-116608988D02*
X161461380Y-116466131D01*
X161461380Y-116466131D02*
X161461380Y-116370893D01*
X161461380Y-117704226D02*
X161461380Y-117228036D01*
X161461380Y-117228036D02*
X162461380Y-117228036D01*
X161556619Y-118608988D02*
X161509000Y-118561369D01*
X161509000Y-118561369D02*
X161461380Y-118418512D01*
X161461380Y-118418512D02*
X161461380Y-118323274D01*
X161461380Y-118323274D02*
X161509000Y-118180417D01*
X161509000Y-118180417D02*
X161604238Y-118085179D01*
X161604238Y-118085179D02*
X161699476Y-118037560D01*
X161699476Y-118037560D02*
X161889952Y-117989941D01*
X161889952Y-117989941D02*
X162032809Y-117989941D01*
X162032809Y-117989941D02*
X162223285Y-118037560D01*
X162223285Y-118037560D02*
X162318523Y-118085179D01*
X162318523Y-118085179D02*
X162413761Y-118180417D01*
X162413761Y-118180417D02*
X162461380Y-118323274D01*
X162461380Y-118323274D02*
X162461380Y-118418512D01*
X162461380Y-118418512D02*
X162413761Y-118561369D01*
X162413761Y-118561369D02*
X162366142Y-118608988D01*
X162461380Y-119323274D02*
X161747095Y-119323274D01*
X161747095Y-119323274D02*
X161604238Y-119275655D01*
X161604238Y-119275655D02*
X161509000Y-119180417D01*
X161509000Y-119180417D02*
X161461380Y-119037560D01*
X161461380Y-119037560D02*
X161461380Y-118942322D01*
X161461380Y-120275655D02*
X161461380Y-119799465D01*
X161461380Y-119799465D02*
X162461380Y-119799465D01*
X161556619Y-121180417D02*
X161509000Y-121132798D01*
X161509000Y-121132798D02*
X161461380Y-120989941D01*
X161461380Y-120989941D02*
X161461380Y-120894703D01*
X161461380Y-120894703D02*
X161509000Y-120751846D01*
X161509000Y-120751846D02*
X161604238Y-120656608D01*
X161604238Y-120656608D02*
X161699476Y-120608989D01*
X161699476Y-120608989D02*
X161889952Y-120561370D01*
X161889952Y-120561370D02*
X162032809Y-120561370D01*
X162032809Y-120561370D02*
X162223285Y-120608989D01*
X162223285Y-120608989D02*
X162318523Y-120656608D01*
X162318523Y-120656608D02*
X162413761Y-120751846D01*
X162413761Y-120751846D02*
X162461380Y-120894703D01*
X162461380Y-120894703D02*
X162461380Y-120989941D01*
X162461380Y-120989941D02*
X162413761Y-121132798D01*
X162413761Y-121132798D02*
X162366142Y-121180417D01*
D10*
G36*
X145913573Y-92373600D02*
G01*
X143896699Y-92373600D01*
X143896699Y-91958291D01*
X143959199Y-91958291D01*
X143959199Y-92311100D01*
X144013787Y-92311100D01*
X144013787Y-91998194D01*
X144051614Y-91992607D01*
X144088709Y-91990500D01*
X144114428Y-91992677D01*
X144136641Y-91998896D01*
X144149565Y-92006063D01*
X144160833Y-92016915D01*
X144170591Y-92032144D01*
X144177005Y-92049292D01*
X144181482Y-92073673D01*
X144183200Y-92107401D01*
X144183200Y-92311100D01*
X144237788Y-92311100D01*
X144370565Y-92311100D01*
X144653367Y-92311100D01*
X144730121Y-92311100D01*
X144780526Y-92311100D01*
X144780526Y-91904405D01*
X144822872Y-91988058D01*
X144866622Y-92076962D01*
X144914219Y-92181254D01*
X144968838Y-92311100D01*
X145031120Y-92311100D01*
X145111384Y-92311100D01*
X145166003Y-92311100D01*
X145166003Y-92081511D01*
X145378799Y-92081511D01*
X145378799Y-92311100D01*
X145433388Y-92311100D01*
X145433388Y-91826003D01*
X145478664Y-91826003D01*
X145494051Y-91887247D01*
X145518201Y-91972671D01*
X145549708Y-92075924D01*
X145586100Y-92191054D01*
X145626370Y-92311100D01*
X145700559Y-92311100D01*
X145752338Y-92163058D01*
X145797157Y-92021305D01*
X145831442Y-91903000D01*
X145851073Y-91826003D01*
X145792974Y-91826003D01*
X145781959Y-91878710D01*
X145767420Y-91938019D01*
X145733104Y-92058766D01*
X145696712Y-92173560D01*
X145665571Y-92267685D01*
X145634399Y-92174262D01*
X145599412Y-92060506D01*
X145565462Y-91939759D01*
X145538168Y-91826003D01*
X145478664Y-91826003D01*
X145433388Y-91826003D01*
X145378799Y-91826003D01*
X145378799Y-92034586D01*
X145166003Y-92034586D01*
X145166003Y-91826003D01*
X145111384Y-91826003D01*
X145111384Y-92311100D01*
X145031120Y-92311100D01*
X145031120Y-91826003D01*
X144980744Y-91826003D01*
X144980744Y-92221493D01*
X144943284Y-92129810D01*
X144911410Y-92057362D01*
X144879231Y-91990867D01*
X144841770Y-91918052D01*
X144792433Y-91826003D01*
X144730121Y-91826003D01*
X144730121Y-92311100D01*
X144653367Y-92311100D01*
X144653367Y-92264205D01*
X144425855Y-92264205D01*
X144425855Y-92080809D01*
X144610656Y-92080809D01*
X144610656Y-92033914D01*
X144425855Y-92033914D01*
X144425855Y-91872897D01*
X144636576Y-91872897D01*
X144636576Y-91826003D01*
X144370565Y-91826003D01*
X144370565Y-92311100D01*
X144237788Y-92311100D01*
X144237788Y-92096196D01*
X144235504Y-92058139D01*
X144229300Y-92028201D01*
X144219928Y-92004850D01*
X144206157Y-91984064D01*
X144189345Y-91967901D01*
X144169187Y-91955848D01*
X144146779Y-91947737D01*
X144120848Y-91942608D01*
X144090785Y-91940797D01*
X144030579Y-91944644D01*
X143996075Y-91949887D01*
X143959199Y-91958291D01*
X143896699Y-91958291D01*
X143896699Y-91763503D01*
X145913573Y-91763503D01*
X145913573Y-92373600D01*
G37*
G36*
X157944269Y-89795609D02*
G01*
X156014895Y-89795609D01*
X156014895Y-89733109D01*
X156790920Y-89733109D01*
X157170321Y-89733109D01*
X157170321Y-89686215D01*
X156790920Y-89686215D01*
X156790920Y-89733109D01*
X156014895Y-89733109D01*
X156014895Y-89603600D01*
X156077395Y-89603600D01*
X156361602Y-89603600D01*
X156361602Y-89556705D01*
X156132014Y-89556705D01*
X156132014Y-89218612D01*
X156457956Y-89218612D01*
X156474778Y-89257813D01*
X156507251Y-89244577D01*
X156539502Y-89228412D01*
X156568832Y-89210312D01*
X156586763Y-89195500D01*
X156586763Y-89556705D01*
X156481067Y-89556705D01*
X156481067Y-89603600D01*
X156731660Y-89603600D01*
X157211384Y-89603600D01*
X157266003Y-89603600D01*
X157266003Y-89374011D01*
X157478799Y-89374011D01*
X157478799Y-89603600D01*
X157533388Y-89603600D01*
X157533388Y-89165397D01*
X157646564Y-89165397D01*
X157736872Y-89165397D01*
X157736872Y-89556705D01*
X157646564Y-89556705D01*
X157646564Y-89603600D01*
X157881769Y-89603600D01*
X157881769Y-89556705D01*
X157791461Y-89556705D01*
X157791461Y-89165397D01*
X157881769Y-89165397D01*
X157881769Y-89118503D01*
X157646564Y-89118503D01*
X157646564Y-89165397D01*
X157533388Y-89165397D01*
X157533388Y-89118503D01*
X157478799Y-89118503D01*
X157478799Y-89327086D01*
X157266003Y-89327086D01*
X157266003Y-89118503D01*
X157211384Y-89118503D01*
X157211384Y-89603600D01*
X156731660Y-89603600D01*
X156731660Y-89556705D01*
X156641352Y-89556705D01*
X156641352Y-89118503D01*
X156602151Y-89118503D01*
X156579792Y-89142349D01*
X156557363Y-89162253D01*
X156533744Y-89179676D01*
X156509735Y-89194462D01*
X156484681Y-89207261D01*
X156457956Y-89218612D01*
X156132014Y-89218612D01*
X156132014Y-89118503D01*
X156077395Y-89118503D01*
X156077395Y-89603600D01*
X156014895Y-89603600D01*
X156014895Y-89056003D01*
X157944269Y-89056003D01*
X157944269Y-89795609D01*
G37*
G36*
X156607362Y-87158967D02*
G01*
X156623025Y-87164589D01*
X156636467Y-87173793D01*
X156652985Y-87193014D01*
X156666203Y-87219314D01*
X156675315Y-87249192D01*
X156681621Y-87284405D01*
X156685008Y-87321266D01*
X156686170Y-87360700D01*
X156685017Y-87399556D01*
X156681621Y-87436660D01*
X156675305Y-87472169D01*
X156666203Y-87502086D01*
X156652988Y-87528366D01*
X156636467Y-87547607D01*
X156623025Y-87556810D01*
X156607362Y-87562432D01*
X156588870Y-87564399D01*
X156570378Y-87562432D01*
X156554715Y-87556810D01*
X156541273Y-87547607D01*
X156524745Y-87528367D01*
X156511506Y-87502086D01*
X156502427Y-87472171D01*
X156496119Y-87436660D01*
X156492723Y-87399556D01*
X156491570Y-87360700D01*
X156491838Y-87351602D01*
X156544754Y-87351602D01*
X156547979Y-87370037D01*
X156557698Y-87386254D01*
X156567180Y-87394678D01*
X156577891Y-87399618D01*
X156590274Y-87401305D01*
X156603095Y-87399581D01*
X156613767Y-87394613D01*
X156622820Y-87386254D01*
X156631994Y-87370087D01*
X156635062Y-87351602D01*
X156632004Y-87333062D01*
X156622820Y-87316614D01*
X156613740Y-87308033D01*
X156603067Y-87302955D01*
X156590274Y-87301196D01*
X156577916Y-87302917D01*
X156567206Y-87307967D01*
X156557698Y-87316614D01*
X156547969Y-87333111D01*
X156544754Y-87351602D01*
X156491838Y-87351602D01*
X156492731Y-87321266D01*
X156496119Y-87284405D01*
X156502417Y-87249190D01*
X156511506Y-87219314D01*
X156524748Y-87193013D01*
X156541273Y-87173793D01*
X156554715Y-87164589D01*
X156570378Y-87158967D01*
X156588870Y-87157001D01*
X156607362Y-87158967D01*
G37*
G36*
X157944269Y-87795609D02*
G01*
X156014895Y-87795609D01*
X156014895Y-87733109D01*
X156790920Y-87733109D01*
X157170321Y-87733109D01*
X157170321Y-87686215D01*
X156790920Y-87686215D01*
X156790920Y-87733109D01*
X156014895Y-87733109D01*
X156014895Y-87603600D01*
X156077395Y-87603600D01*
X156361602Y-87603600D01*
X156361602Y-87556705D01*
X156132014Y-87556705D01*
X156132014Y-87360700D01*
X156432066Y-87360700D01*
X156435156Y-87422304D01*
X156443686Y-87472867D01*
X156456741Y-87514130D01*
X156473709Y-87547607D01*
X156492319Y-87572291D01*
X156512821Y-87590671D01*
X156535412Y-87603574D01*
X156560542Y-87611403D01*
X156588870Y-87614102D01*
X156617812Y-87611375D01*
X156642934Y-87603600D01*
X157211384Y-87603600D01*
X157266003Y-87603600D01*
X157266003Y-87374011D01*
X157478799Y-87374011D01*
X157478799Y-87603600D01*
X157533388Y-87603600D01*
X157533388Y-87165397D01*
X157646564Y-87165397D01*
X157736872Y-87165397D01*
X157736872Y-87556705D01*
X157646564Y-87556705D01*
X157646564Y-87603600D01*
X157881769Y-87603600D01*
X157881769Y-87556705D01*
X157791461Y-87556705D01*
X157791461Y-87165397D01*
X157881769Y-87165397D01*
X157881769Y-87118503D01*
X157646564Y-87118503D01*
X157646564Y-87165397D01*
X157533388Y-87165397D01*
X157533388Y-87118503D01*
X157478799Y-87118503D01*
X157478799Y-87327086D01*
X157266003Y-87327086D01*
X157266003Y-87118503D01*
X157211384Y-87118503D01*
X157211384Y-87603600D01*
X156642934Y-87603600D01*
X156643283Y-87603492D01*
X156665981Y-87590554D01*
X156686383Y-87572193D01*
X156704702Y-87547607D01*
X156721379Y-87514173D01*
X156734228Y-87472925D01*
X156742629Y-87422347D01*
X156745674Y-87360700D01*
X156742629Y-87299053D01*
X156734228Y-87248475D01*
X156721379Y-87207227D01*
X156704702Y-87173793D01*
X156686383Y-87149207D01*
X156665981Y-87130846D01*
X156643283Y-87117908D01*
X156617812Y-87110025D01*
X156588870Y-87107298D01*
X156560229Y-87110011D01*
X156534922Y-87117867D01*
X156512271Y-87130788D01*
X156491813Y-87149159D01*
X156473343Y-87173793D01*
X156456534Y-87207247D01*
X156443591Y-87248501D01*
X156435132Y-87299073D01*
X156432066Y-87360700D01*
X156132014Y-87360700D01*
X156132014Y-87118503D01*
X156077395Y-87118503D01*
X156077395Y-87603600D01*
X156014895Y-87603600D01*
X156014895Y-87044798D01*
X157944269Y-87044798D01*
X157944269Y-87795609D01*
G37*
G36*
X144798687Y-81882010D02*
G01*
X144855456Y-81888936D01*
X144901390Y-81899407D01*
X144945357Y-81915800D01*
X144978855Y-81935342D01*
X145003789Y-81957704D01*
X145022658Y-81984901D01*
X145033998Y-82015534D01*
X145037906Y-82050624D01*
X145033992Y-82087168D01*
X145022634Y-82119210D01*
X145003789Y-82147756D01*
X144978707Y-82171468D01*
X144945028Y-82192215D01*
X144900886Y-82209717D01*
X144854529Y-82221074D01*
X144797884Y-82228535D01*
X144729199Y-82231241D01*
X144661241Y-82228544D01*
X144604918Y-82221093D01*
X144558565Y-82209717D01*
X144514404Y-82192239D01*
X144480522Y-82171494D01*
X144455112Y-82147756D01*
X144435971Y-82119175D01*
X144424456Y-82087136D01*
X144420491Y-82050624D01*
X144424449Y-82015566D01*
X144435946Y-81984936D01*
X144455112Y-81957704D01*
X144480389Y-81935342D01*
X144514241Y-81915798D01*
X144558565Y-81899407D01*
X144604845Y-81888891D01*
X144661173Y-81881987D01*
X144729199Y-81879486D01*
X144798687Y-81882010D01*
G37*
G36*
X145192635Y-83554946D02*
G01*
X144265763Y-83554946D01*
X144265763Y-83188139D01*
X144364850Y-83188139D01*
X144364850Y-83270021D01*
X145022153Y-83270021D01*
X145022153Y-83471613D01*
X145092495Y-83471613D01*
X145092495Y-82986501D01*
X145022153Y-82986501D01*
X145022153Y-83188139D01*
X144364850Y-83188139D01*
X144265763Y-83188139D01*
X144265763Y-82642485D01*
X144349096Y-82642485D01*
X144353098Y-82697749D01*
X144364111Y-82742020D01*
X144381107Y-82777399D01*
X144405335Y-82808142D01*
X144435509Y-82832872D01*
X144472469Y-82851954D01*
X144512709Y-82864697D01*
X144558783Y-82872749D01*
X144611596Y-82875584D01*
X145092495Y-82875584D01*
X145092495Y-82793656D01*
X144622083Y-82793656D01*
X144570241Y-82791111D01*
X144530421Y-82784298D01*
X144500313Y-82774239D01*
X144472828Y-82758967D01*
X144452574Y-82741151D01*
X144438351Y-82720704D01*
X144425135Y-82684614D01*
X144420491Y-82641432D01*
X144425216Y-82599119D01*
X144438855Y-82562663D01*
X144453428Y-82541879D01*
X144473892Y-82523885D01*
X144501366Y-82508579D01*
X144531475Y-82498520D01*
X144571294Y-82491707D01*
X144623136Y-82489162D01*
X145092495Y-82489162D01*
X145092495Y-82407279D01*
X144611596Y-82407279D01*
X144558808Y-82410172D01*
X144512735Y-82418392D01*
X144472469Y-82431413D01*
X144435569Y-82450878D01*
X144405385Y-82476113D01*
X144381107Y-82507526D01*
X144364041Y-82543561D01*
X144353061Y-82587918D01*
X144349096Y-82642485D01*
X144265763Y-82642485D01*
X144265763Y-82053783D01*
X144349096Y-82053783D01*
X144353640Y-82102963D01*
X144366933Y-82147614D01*
X144388984Y-82188697D01*
X144419180Y-82224162D01*
X144459818Y-82255151D01*
X144512906Y-82281616D01*
X144569932Y-82299299D01*
X144641100Y-82310968D01*
X144729199Y-82315230D01*
X144817269Y-82310907D01*
X144888436Y-82299067D01*
X144945491Y-82281112D01*
X144998641Y-82254356D01*
X145039257Y-82223362D01*
X145069368Y-82188193D01*
X145091429Y-82147426D01*
X145104744Y-82102951D01*
X145109302Y-82053783D01*
X145104714Y-82003924D01*
X145091371Y-81959289D01*
X145069368Y-81918824D01*
X145039268Y-81884070D01*
X144998663Y-81853605D01*
X144945491Y-81827508D01*
X144888497Y-81810121D01*
X144817329Y-81798639D01*
X144729199Y-81794443D01*
X144641097Y-81798700D01*
X144569930Y-81810353D01*
X144512906Y-81828011D01*
X144459718Y-81854432D01*
X144419094Y-81885080D01*
X144388984Y-81919877D01*
X144366966Y-81960324D01*
X144353658Y-82004622D01*
X144349389Y-82050624D01*
X144349096Y-82053783D01*
X144265763Y-82053783D01*
X144265763Y-81409440D01*
X144364850Y-81409440D01*
X144364850Y-81520723D01*
X144586912Y-81598393D01*
X144799541Y-81665620D01*
X144976998Y-81717049D01*
X145092495Y-81746495D01*
X145092495Y-81659346D01*
X145013433Y-81642824D01*
X144924471Y-81621016D01*
X144743350Y-81569541D01*
X144571158Y-81514953D01*
X144429971Y-81468242D01*
X144570105Y-81421484D01*
X144740739Y-81369003D01*
X144921861Y-81318078D01*
X145092495Y-81277137D01*
X145092495Y-81187881D01*
X145000629Y-81210962D01*
X144872493Y-81247187D01*
X144717612Y-81294448D01*
X144544918Y-81349036D01*
X144364850Y-81409440D01*
X144265763Y-81409440D01*
X144265763Y-80718889D01*
X144364850Y-80718889D01*
X144709232Y-80718889D01*
X144709232Y-81038084D01*
X144364850Y-81038084D01*
X144364850Y-81119967D01*
X145092495Y-81119967D01*
X145092495Y-81038084D01*
X144779620Y-81038084D01*
X144779620Y-80718889D01*
X145092495Y-80718889D01*
X145092495Y-80636961D01*
X144364850Y-80636961D01*
X144364850Y-80718889D01*
X144265763Y-80718889D01*
X144265763Y-80553628D01*
X145192635Y-80553628D01*
X145192635Y-83554946D01*
G37*
G36*
X164729185Y-89181025D02*
G01*
X164750546Y-89188596D01*
X164769577Y-89201160D01*
X164785385Y-89217881D01*
X164799216Y-89240334D01*
X164810884Y-89269762D01*
X164818456Y-89300667D01*
X164823430Y-89338430D01*
X164825234Y-89384220D01*
X164823436Y-89429525D01*
X164818468Y-89467074D01*
X164810884Y-89497976D01*
X164799232Y-89527416D01*
X164785402Y-89550005D01*
X164769577Y-89566944D01*
X164750523Y-89579705D01*
X164729163Y-89587382D01*
X164704822Y-89590025D01*
X164681450Y-89587386D01*
X164661030Y-89579722D01*
X164642876Y-89566944D01*
X164627967Y-89550093D01*
X164614938Y-89527525D01*
X164604011Y-89497976D01*
X164597000Y-89467123D01*
X164592397Y-89429570D01*
X164590730Y-89384220D01*
X164592413Y-89337895D01*
X164597030Y-89300048D01*
X164604011Y-89269426D01*
X164614939Y-89240115D01*
X164627967Y-89217783D01*
X164642876Y-89201160D01*
X164661007Y-89188580D01*
X164681429Y-89181020D01*
X164704822Y-89178415D01*
X164729185Y-89181025D01*
G37*
G36*
X164943726Y-89819129D02*
G01*
X162957657Y-89819129D01*
X162957657Y-89756629D01*
X163733682Y-89756629D01*
X164113083Y-89756629D01*
X164113083Y-89709735D01*
X163733682Y-89709735D01*
X163733682Y-89756629D01*
X162957657Y-89756629D01*
X162957657Y-89627120D01*
X163020157Y-89627120D01*
X163304364Y-89627120D01*
X163304364Y-89580225D01*
X163074776Y-89580225D01*
X163074776Y-89242132D01*
X163400718Y-89242132D01*
X163417540Y-89281333D01*
X163450013Y-89268097D01*
X163482264Y-89251932D01*
X163511594Y-89233832D01*
X163529525Y-89219020D01*
X163529525Y-89580225D01*
X163423829Y-89580225D01*
X163423829Y-89627120D01*
X163674422Y-89627120D01*
X164195453Y-89627120D01*
X164479661Y-89627120D01*
X164479661Y-89580225D01*
X164250072Y-89580225D01*
X164250072Y-89384220D01*
X164534035Y-89384220D01*
X164536873Y-89442954D01*
X164544642Y-89490399D01*
X164556414Y-89528415D01*
X164574028Y-89563874D01*
X164594460Y-89590956D01*
X164617658Y-89611030D01*
X164644622Y-89625708D01*
X164674154Y-89634580D01*
X164706928Y-89637622D01*
X164739715Y-89634593D01*
X164769482Y-89625731D01*
X164796871Y-89611030D01*
X164820514Y-89590899D01*
X164841173Y-89563807D01*
X164858817Y-89528415D01*
X164870606Y-89490398D01*
X164878385Y-89442953D01*
X164881226Y-89384220D01*
X164878344Y-89325506D01*
X164870451Y-89278062D01*
X164858481Y-89240025D01*
X164840643Y-89204592D01*
X164819981Y-89177515D01*
X164796535Y-89157441D01*
X164769357Y-89142733D01*
X164739707Y-89133856D01*
X164706928Y-89130818D01*
X164673689Y-89133877D01*
X164643932Y-89142772D01*
X164616956Y-89157441D01*
X164593787Y-89177507D01*
X164573476Y-89204577D01*
X164556078Y-89240025D01*
X164544487Y-89278021D01*
X164536832Y-89325467D01*
X164534035Y-89384220D01*
X164250072Y-89384220D01*
X164250072Y-89142023D01*
X164195453Y-89142023D01*
X164195453Y-89627120D01*
X163674422Y-89627120D01*
X163674422Y-89580225D01*
X163584114Y-89580225D01*
X163584114Y-89142023D01*
X163544913Y-89142023D01*
X163522554Y-89165869D01*
X163500125Y-89185773D01*
X163476506Y-89203196D01*
X163452497Y-89217982D01*
X163427443Y-89230781D01*
X163400718Y-89242132D01*
X163074776Y-89242132D01*
X163074776Y-89142023D01*
X163020157Y-89142023D01*
X163020157Y-89627120D01*
X162957657Y-89627120D01*
X162957657Y-89068318D01*
X164943726Y-89068318D01*
X164943726Y-89819129D01*
G37*
G36*
X136162310Y-84082165D02*
G01*
X136192002Y-84088167D01*
X136218703Y-84099296D01*
X136239263Y-84115797D01*
X136249006Y-84129909D01*
X136255207Y-84147964D01*
X136257459Y-84171087D01*
X136255073Y-84196063D01*
X136248504Y-84215623D01*
X136238195Y-84230957D01*
X136224310Y-84243581D01*
X136207775Y-84253484D01*
X136188155Y-84260694D01*
X136156587Y-84266933D01*
X136121660Y-84269090D01*
X136076506Y-84267716D01*
X136060050Y-84266311D01*
X136060050Y-84080107D01*
X136130056Y-84080107D01*
X136162310Y-84082165D01*
G37*
G36*
X136150992Y-83869560D02*
G01*
X136177287Y-83876072D01*
X136200718Y-83887422D01*
X136218930Y-83903367D01*
X136227669Y-83916560D01*
X136233114Y-83932526D01*
X136235050Y-83952001D01*
X136232781Y-83973177D01*
X136226495Y-83989750D01*
X136216488Y-84002773D01*
X136195971Y-84017733D01*
X136170295Y-84027595D01*
X136142602Y-84032856D01*
X136115341Y-84034586D01*
X136060050Y-84034586D01*
X136060050Y-83870089D01*
X136082795Y-83868012D01*
X136121660Y-83867310D01*
X136150992Y-83869560D01*
G37*
G36*
X136577479Y-83942568D02*
G01*
X136607917Y-84034250D01*
X136637318Y-84133993D01*
X136462318Y-84133993D01*
X136492757Y-84035655D01*
X136523562Y-83944308D01*
X136550520Y-83870791D01*
X136577479Y-83942568D01*
G37*
G36*
X137558942Y-84377110D02*
G01*
X135519689Y-84377110D01*
X135519689Y-83826003D01*
X135582189Y-83826003D01*
X135597576Y-83887247D01*
X135621726Y-83972671D01*
X135653233Y-84075924D01*
X135689625Y-84191054D01*
X135729895Y-84311100D01*
X135804084Y-84311100D01*
X135855863Y-84163058D01*
X135900682Y-84021305D01*
X135934967Y-83903000D01*
X135952816Y-83832994D01*
X136005462Y-83832994D01*
X136005462Y-83870089D01*
X136005462Y-84266311D01*
X136005462Y-84303406D01*
X136041152Y-84310061D01*
X136083162Y-84313542D01*
X136118149Y-84314610D01*
X136166303Y-84312378D01*
X136174280Y-84311100D01*
X136362209Y-84311100D01*
X136417530Y-84311100D01*
X136447602Y-84180185D01*
X136651331Y-84180185D01*
X136682106Y-84311100D01*
X136740205Y-84311100D01*
X136711507Y-84206106D01*
X136676153Y-84082213D01*
X136635211Y-83951299D01*
X136612586Y-83886473D01*
X136607295Y-83872897D01*
X136781269Y-83872897D01*
X136915694Y-83872897D01*
X136915694Y-84311100D01*
X136970282Y-84311100D01*
X136970282Y-83872897D01*
X137104677Y-83872897D01*
X137173034Y-83872897D01*
X137307459Y-83872897D01*
X137307459Y-84311100D01*
X137362048Y-84311100D01*
X137362048Y-83872897D01*
X137496442Y-83872897D01*
X137496442Y-83826003D01*
X137173034Y-83826003D01*
X137173034Y-83872897D01*
X137104677Y-83872897D01*
X137104677Y-83826003D01*
X136781269Y-83826003D01*
X136781269Y-83872897D01*
X136607295Y-83872897D01*
X136589019Y-83826003D01*
X136516204Y-83826003D01*
X136491938Y-83886481D01*
X136468607Y-83951299D01*
X136426628Y-84082549D01*
X136411840Y-84133993D01*
X136390908Y-84206808D01*
X136362209Y-84311100D01*
X136174280Y-84311100D01*
X136203808Y-84306369D01*
X136232608Y-84297452D01*
X136259082Y-84283751D01*
X136279159Y-84267207D01*
X136293852Y-84247749D01*
X136304125Y-84225338D01*
X136310514Y-84199763D01*
X136312750Y-84170385D01*
X136311109Y-84147869D01*
X136306469Y-84128701D01*
X136299103Y-84112316D01*
X136283290Y-84090629D01*
X136263382Y-84073451D01*
X136240474Y-84060555D01*
X136216152Y-84052110D01*
X136235372Y-84043471D01*
X136253246Y-84029701D01*
X136268326Y-84012275D01*
X136280174Y-83991905D01*
X136287841Y-83969840D01*
X136290341Y-83947788D01*
X136288508Y-83921502D01*
X136283448Y-83900235D01*
X136275625Y-83883064D01*
X136258399Y-83861017D01*
X136236424Y-83844901D01*
X136210796Y-83833722D01*
X136181500Y-83826339D01*
X136150960Y-83822399D01*
X136120256Y-83821087D01*
X136084535Y-83822156D01*
X136042190Y-83825667D01*
X136021645Y-83828859D01*
X136005462Y-83832994D01*
X135952816Y-83832994D01*
X135954598Y-83826003D01*
X135896499Y-83826003D01*
X135885484Y-83878710D01*
X135870945Y-83938019D01*
X135836629Y-84058766D01*
X135800237Y-84173560D01*
X135769096Y-84267685D01*
X135737924Y-84174262D01*
X135702937Y-84060506D01*
X135668987Y-83939759D01*
X135641693Y-83826003D01*
X135582189Y-83826003D01*
X135519689Y-83826003D01*
X135519689Y-83758587D01*
X137558942Y-83758587D01*
X137558942Y-84377110D01*
G37*
G36*
X143796808Y-94348600D02*
G01*
X142191299Y-94348600D01*
X142191299Y-94286100D01*
X142253799Y-94286100D01*
X142536602Y-94286100D01*
X142613355Y-94286100D01*
X142663761Y-94286100D01*
X142663761Y-93879405D01*
X142706106Y-93963058D01*
X142749856Y-94051962D01*
X142797453Y-94156254D01*
X142852072Y-94286100D01*
X142914354Y-94286100D01*
X143035926Y-94286100D01*
X143320133Y-94286100D01*
X143320133Y-94239205D01*
X143090545Y-94239205D01*
X143090545Y-93801003D01*
X143361899Y-93801003D01*
X143377286Y-93862247D01*
X143401435Y-93947671D01*
X143432943Y-94050924D01*
X143469335Y-94166054D01*
X143509604Y-94286100D01*
X143583793Y-94286100D01*
X143635573Y-94138058D01*
X143680391Y-93996305D01*
X143714677Y-93878000D01*
X143734308Y-93801003D01*
X143676209Y-93801003D01*
X143665194Y-93853710D01*
X143650655Y-93913019D01*
X143616339Y-94033766D01*
X143579946Y-94148560D01*
X143548805Y-94242685D01*
X143517634Y-94149262D01*
X143482646Y-94035506D01*
X143448696Y-93914759D01*
X143421402Y-93801003D01*
X143361899Y-93801003D01*
X143090545Y-93801003D01*
X143035926Y-93801003D01*
X143035926Y-94286100D01*
X142914354Y-94286100D01*
X142914354Y-93801003D01*
X142863979Y-93801003D01*
X142863979Y-94196493D01*
X142826518Y-94104810D01*
X142794645Y-94032362D01*
X142762466Y-93965867D01*
X142725005Y-93893052D01*
X142675668Y-93801003D01*
X142613355Y-93801003D01*
X142613355Y-94286100D01*
X142536602Y-94286100D01*
X142536602Y-94239205D01*
X142309090Y-94239205D01*
X142309090Y-94055809D01*
X142493890Y-94055809D01*
X142493890Y-94008914D01*
X142309090Y-94008914D01*
X142309090Y-93847897D01*
X142519810Y-93847897D01*
X142519810Y-93801003D01*
X142253799Y-93801003D01*
X142253799Y-94286100D01*
X142191299Y-94286100D01*
X142191299Y-93738503D01*
X143796808Y-93738503D01*
X143796808Y-94348600D01*
G37*
G36*
X147398687Y-81807010D02*
G01*
X147455456Y-81813936D01*
X147501390Y-81824407D01*
X147545357Y-81840800D01*
X147578855Y-81860342D01*
X147603789Y-81882704D01*
X147622658Y-81909901D01*
X147633998Y-81940534D01*
X147637906Y-81975624D01*
X147633992Y-82012168D01*
X147622634Y-82044210D01*
X147603789Y-82072756D01*
X147578707Y-82096468D01*
X147545028Y-82117215D01*
X147500886Y-82134717D01*
X147454529Y-82146074D01*
X147397884Y-82153535D01*
X147329199Y-82156241D01*
X147261241Y-82153544D01*
X147204918Y-82146093D01*
X147158565Y-82134717D01*
X147114404Y-82117239D01*
X147080522Y-82096494D01*
X147055112Y-82072756D01*
X147035971Y-82044175D01*
X147024456Y-82012136D01*
X147020491Y-81975624D01*
X147024449Y-81940566D01*
X147035946Y-81909936D01*
X147055112Y-81882704D01*
X147080389Y-81860342D01*
X147114241Y-81840798D01*
X147158565Y-81824407D01*
X147204845Y-81813891D01*
X147261173Y-81806987D01*
X147329199Y-81804486D01*
X147398687Y-81807010D01*
G37*
G36*
X147792635Y-83479946D02*
G01*
X146865763Y-83479946D01*
X146865763Y-83113139D01*
X146964850Y-83113139D01*
X146964850Y-83195021D01*
X147622153Y-83195021D01*
X147622153Y-83396613D01*
X147692495Y-83396613D01*
X147692495Y-82911501D01*
X147622153Y-82911501D01*
X147622153Y-83113139D01*
X146964850Y-83113139D01*
X146865763Y-83113139D01*
X146865763Y-82567485D01*
X146949096Y-82567485D01*
X146953098Y-82622749D01*
X146964111Y-82667020D01*
X146981107Y-82702399D01*
X147005335Y-82733142D01*
X147035509Y-82757872D01*
X147072469Y-82776954D01*
X147112709Y-82789697D01*
X147158783Y-82797749D01*
X147211596Y-82800584D01*
X147692495Y-82800584D01*
X147692495Y-82718656D01*
X147222083Y-82718656D01*
X147170241Y-82716111D01*
X147130421Y-82709298D01*
X147100313Y-82699239D01*
X147072828Y-82683967D01*
X147052574Y-82666151D01*
X147038351Y-82645704D01*
X147025135Y-82609614D01*
X147020491Y-82566432D01*
X147025216Y-82524119D01*
X147038855Y-82487663D01*
X147053428Y-82466879D01*
X147073892Y-82448885D01*
X147101366Y-82433579D01*
X147131475Y-82423520D01*
X147171294Y-82416707D01*
X147223136Y-82414162D01*
X147692495Y-82414162D01*
X147692495Y-82332279D01*
X147211596Y-82332279D01*
X147158808Y-82335172D01*
X147112735Y-82343392D01*
X147072469Y-82356413D01*
X147035569Y-82375878D01*
X147005385Y-82401113D01*
X146981107Y-82432526D01*
X146964041Y-82468561D01*
X146953061Y-82512918D01*
X146949096Y-82567485D01*
X146865763Y-82567485D01*
X146865763Y-81978783D01*
X146949096Y-81978783D01*
X146953640Y-82027963D01*
X146966933Y-82072614D01*
X146988984Y-82113697D01*
X147019180Y-82149162D01*
X147059818Y-82180151D01*
X147112906Y-82206616D01*
X147169932Y-82224299D01*
X147241100Y-82235968D01*
X147329199Y-82240230D01*
X147417269Y-82235907D01*
X147488436Y-82224067D01*
X147545491Y-82206112D01*
X147598641Y-82179356D01*
X147639257Y-82148362D01*
X147669368Y-82113193D01*
X147691429Y-82072426D01*
X147704744Y-82027951D01*
X147709302Y-81978783D01*
X147704714Y-81928924D01*
X147691371Y-81884289D01*
X147669368Y-81843824D01*
X147639268Y-81809070D01*
X147598663Y-81778605D01*
X147545491Y-81752508D01*
X147488497Y-81735121D01*
X147417329Y-81723639D01*
X147329199Y-81719443D01*
X147241097Y-81723700D01*
X147169930Y-81735353D01*
X147112906Y-81753011D01*
X147059718Y-81779432D01*
X147019094Y-81810080D01*
X146988984Y-81844877D01*
X146966966Y-81885324D01*
X146953658Y-81929622D01*
X146949389Y-81975624D01*
X146949096Y-81978783D01*
X146865763Y-81978783D01*
X146865763Y-81334440D01*
X146964850Y-81334440D01*
X146964850Y-81445723D01*
X147186912Y-81523393D01*
X147399541Y-81590620D01*
X147576998Y-81642049D01*
X147692495Y-81671495D01*
X147692495Y-81584346D01*
X147613433Y-81567824D01*
X147524471Y-81546016D01*
X147343350Y-81494541D01*
X147171158Y-81439953D01*
X147029971Y-81393242D01*
X147170105Y-81346484D01*
X147340739Y-81294003D01*
X147521861Y-81243078D01*
X147692495Y-81202137D01*
X147692495Y-81112881D01*
X147600629Y-81135962D01*
X147472493Y-81172187D01*
X147317612Y-81219448D01*
X147144918Y-81274036D01*
X146964850Y-81334440D01*
X146865763Y-81334440D01*
X146865763Y-81050233D01*
X146964850Y-81050233D01*
X147035191Y-81050233D01*
X147035191Y-80705851D01*
X147692495Y-80705851D01*
X147692495Y-80623923D01*
X146964850Y-80623923D01*
X146964850Y-81050233D01*
X146865763Y-81050233D01*
X146865763Y-80540590D01*
X147792635Y-80540590D01*
X147792635Y-83479946D01*
G37*
G36*
X155203427Y-81903229D02*
G01*
X155199890Y-81954356D01*
X155189887Y-81998055D01*
X155174026Y-82035533D01*
X155151007Y-82068475D01*
X155119801Y-82096387D01*
X155079046Y-82119522D01*
X155034262Y-82134901D01*
X154976902Y-82145144D01*
X154904199Y-82148922D01*
X154830035Y-82145182D01*
X154772058Y-82135087D01*
X154727291Y-82120025D01*
X154686514Y-82097245D01*
X154655877Y-82070020D01*
X154633822Y-82038143D01*
X154618723Y-82001806D01*
X154609286Y-81960301D01*
X154605978Y-81912663D01*
X154607032Y-81878545D01*
X154610191Y-81842321D01*
X155200313Y-81842321D01*
X155203427Y-81903229D01*
G37*
G36*
X155367635Y-82317298D02*
G01*
X154440763Y-82317298D01*
X154440763Y-81905336D01*
X154534583Y-81905336D01*
X154535084Y-81912663D01*
X154538783Y-81966774D01*
X154550971Y-82022474D01*
X154570807Y-82073314D01*
X154591420Y-82108171D01*
X154617545Y-82139214D01*
X154649636Y-82166762D01*
X154688410Y-82190917D01*
X154729112Y-82208605D01*
X154777729Y-82222109D01*
X154835592Y-82230837D01*
X154904199Y-82233965D01*
X154973303Y-82230720D01*
X155031475Y-82221669D01*
X155080264Y-82207667D01*
X155121041Y-82189314D01*
X155159785Y-82164416D01*
X155191879Y-82136190D01*
X155218019Y-82104524D01*
X155238644Y-82069101D01*
X155258477Y-82017600D01*
X155270667Y-81961197D01*
X155274868Y-81899016D01*
X155270105Y-81829727D01*
X155257008Y-81760439D01*
X154552443Y-81760439D01*
X154539346Y-81833895D01*
X154534583Y-81905336D01*
X154440763Y-81905336D01*
X154440763Y-81253620D01*
X154539850Y-81253620D01*
X155149892Y-81253620D01*
X155024412Y-81317138D01*
X154891055Y-81382763D01*
X154734618Y-81454158D01*
X154539850Y-81536086D01*
X154539850Y-81629509D01*
X155267495Y-81629509D01*
X155267495Y-81553947D01*
X154674259Y-81553947D01*
X154811783Y-81497756D01*
X154920456Y-81449945D01*
X155020199Y-81401677D01*
X155129421Y-81345485D01*
X155267495Y-81271480D01*
X155267495Y-81178011D01*
X154539850Y-81178011D01*
X154539850Y-81253620D01*
X154440763Y-81253620D01*
X154440763Y-80873883D01*
X154524096Y-80873883D01*
X154527572Y-80934943D01*
X154537239Y-80985716D01*
X154557710Y-81055508D01*
X154892658Y-81055508D01*
X154892658Y-80973626D01*
X154614405Y-80973626D01*
X154602818Y-80945782D01*
X154598388Y-80922742D01*
X154596544Y-80884370D01*
X154601248Y-80838952D01*
X154614772Y-80799846D01*
X154636982Y-80765714D01*
X154666388Y-80736813D01*
X154702761Y-80712484D01*
X154747212Y-80692762D01*
X154794383Y-80679336D01*
X154846493Y-80670978D01*
X154904199Y-80668078D01*
X154966766Y-80671492D01*
X155020986Y-80681162D01*
X155068009Y-80696425D01*
X155112113Y-80718383D01*
X155147388Y-80743940D01*
X155175079Y-80773041D01*
X155196331Y-80806788D01*
X155208754Y-80841892D01*
X155212906Y-80879149D01*
X155209448Y-80919174D01*
X155199259Y-80956315D01*
X155183573Y-80990935D01*
X155164592Y-81020887D01*
X155234934Y-81050287D01*
X155253848Y-81020841D01*
X155264280Y-80997859D01*
X155274822Y-80964696D01*
X155281697Y-80927308D01*
X155284302Y-80877043D01*
X155279296Y-80824478D01*
X155264494Y-80775608D01*
X155239651Y-80729490D01*
X155206316Y-80688961D01*
X155163573Y-80653648D01*
X155110004Y-80623427D01*
X155052009Y-80602304D01*
X154984002Y-80588863D01*
X154904199Y-80584089D01*
X154824975Y-80588549D01*
X154757285Y-80601108D01*
X154699447Y-80620817D01*
X154645797Y-80649376D01*
X154602879Y-80683294D01*
X154569250Y-80722666D01*
X154544375Y-80767909D01*
X154529287Y-80817911D01*
X154524096Y-80873883D01*
X154440763Y-80873883D01*
X154440763Y-80500756D01*
X155367635Y-80500756D01*
X155367635Y-82317298D01*
G37*
G36*
X161611442Y-95421447D02*
G01*
X161655981Y-95430451D01*
X161696032Y-95447145D01*
X161726872Y-95471895D01*
X161741486Y-95493064D01*
X161750787Y-95520146D01*
X161754166Y-95554831D01*
X161750588Y-95592295D01*
X161740733Y-95621634D01*
X161725270Y-95644636D01*
X161704442Y-95663571D01*
X161679640Y-95678426D01*
X161650211Y-95689241D01*
X161602857Y-95698599D01*
X161550468Y-95701835D01*
X161482736Y-95699774D01*
X161458053Y-95697667D01*
X161458053Y-95418360D01*
X161563062Y-95418360D01*
X161611442Y-95421447D01*
G37*
G36*
X161594465Y-95102540D02*
G01*
X161633907Y-95112309D01*
X161669055Y-95129334D01*
X161696373Y-95153250D01*
X161709481Y-95173040D01*
X161717648Y-95196989D01*
X161720553Y-95226202D01*
X161717148Y-95257965D01*
X161707721Y-95282825D01*
X161692709Y-95302360D01*
X161661933Y-95324800D01*
X161623420Y-95339592D01*
X161581881Y-95347484D01*
X161540988Y-95350079D01*
X161458053Y-95350079D01*
X161458053Y-95103333D01*
X161492170Y-95100219D01*
X161550468Y-95099166D01*
X161594465Y-95102540D01*
G37*
G36*
X163956863Y-95104218D02*
G01*
X163995537Y-95112813D01*
X164019232Y-95122819D01*
X164039553Y-95137238D01*
X164056949Y-95156410D01*
X164069254Y-95179040D01*
X164077489Y-95209892D01*
X164080580Y-95251390D01*
X164077295Y-95294242D01*
X164068531Y-95326136D01*
X164055392Y-95349576D01*
X164036727Y-95368984D01*
X164013888Y-95383634D01*
X163986103Y-95393677D01*
X163940183Y-95401779D01*
X163884254Y-95404713D01*
X163812859Y-95404713D01*
X163812859Y-95104386D01*
X163852197Y-95101776D01*
X163914708Y-95101272D01*
X163956863Y-95104218D01*
G37*
G36*
X164872324Y-95863936D02*
G01*
X161292837Y-95863936D01*
X161292837Y-95047691D01*
X161376170Y-95047691D01*
X161376170Y-95103333D01*
X161376170Y-95697667D01*
X161376170Y-95753309D01*
X161429705Y-95763292D01*
X161492720Y-95768513D01*
X161545201Y-95770116D01*
X161617431Y-95766767D01*
X161673689Y-95757754D01*
X161716889Y-95744379D01*
X161756601Y-95723827D01*
X161786717Y-95699011D01*
X161808755Y-95669824D01*
X161824166Y-95636207D01*
X161833749Y-95597844D01*
X161837102Y-95553778D01*
X161834641Y-95520004D01*
X161834181Y-95518103D01*
X161960659Y-95518103D01*
X161963551Y-95570891D01*
X161971771Y-95616964D01*
X161984793Y-95657230D01*
X162004257Y-95694130D01*
X162029493Y-95724314D01*
X162060905Y-95748592D01*
X162096940Y-95765658D01*
X162141297Y-95776638D01*
X162195864Y-95780603D01*
X162251128Y-95776601D01*
X162295399Y-95765588D01*
X162296935Y-95764850D01*
X162605002Y-95764850D01*
X162687937Y-95764850D01*
X162687937Y-95730182D01*
X163146442Y-95730182D01*
X163189490Y-95750699D01*
X163220562Y-95761562D01*
X163260382Y-95771673D01*
X163303078Y-95778271D01*
X163352247Y-95780603D01*
X163410028Y-95776932D01*
X163457897Y-95766713D01*
X163497503Y-95750821D01*
X163530209Y-95729679D01*
X163557730Y-95701992D01*
X163577345Y-95669579D01*
X163589495Y-95631498D01*
X163593773Y-95586339D01*
X163590247Y-95540130D01*
X163580630Y-95503952D01*
X163564386Y-95472034D01*
X163542299Y-95445151D01*
X163514885Y-95422131D01*
X163480338Y-95400500D01*
X163396349Y-95360612D01*
X163319183Y-95321778D01*
X163288335Y-95300304D01*
X163266152Y-95275570D01*
X163252317Y-95245335D01*
X163247238Y-95204129D01*
X163252417Y-95169843D01*
X163267205Y-95142717D01*
X163289759Y-95121174D01*
X163318130Y-95105440D01*
X163349869Y-95096022D01*
X163383755Y-95092846D01*
X163432815Y-95096623D01*
X163476674Y-95107546D01*
X163516514Y-95122925D01*
X163542299Y-95135894D01*
X163569593Y-95064498D01*
X163543283Y-95049106D01*
X163539043Y-95047691D01*
X163729877Y-95047691D01*
X163729877Y-95104386D01*
X163729877Y-95764850D01*
X163812859Y-95764850D01*
X163812859Y-95472949D01*
X163901061Y-95472949D01*
X163923089Y-95472445D01*
X163947269Y-95470842D01*
X163971966Y-95502004D01*
X164000804Y-95545947D01*
X164056949Y-95649353D01*
X164109980Y-95764850D01*
X164199236Y-95764850D01*
X164141991Y-95649903D01*
X164081083Y-95542283D01*
X164028098Y-95456142D01*
X164065293Y-95434000D01*
X164097698Y-95407305D01*
X164103757Y-95400500D01*
X164313358Y-95400500D01*
X164318370Y-95488225D01*
X164332156Y-95559378D01*
X164353246Y-95616793D01*
X164383905Y-95669427D01*
X164419376Y-95710175D01*
X164459812Y-95740715D01*
X164505653Y-95762805D01*
X164554559Y-95776089D01*
X164607366Y-95780603D01*
X164655024Y-95778074D01*
X164700239Y-95770620D01*
X164744183Y-95757060D01*
X164788991Y-95735449D01*
X164766963Y-95666160D01*
X164722110Y-95686816D01*
X164683982Y-95698171D01*
X164647212Y-95704236D01*
X164617853Y-95706048D01*
X164578903Y-95702412D01*
X164542362Y-95691626D01*
X164507577Y-95673487D01*
X164477174Y-95648850D01*
X164450412Y-95616075D01*
X164427252Y-95573745D01*
X164411453Y-95527951D01*
X164401109Y-95471280D01*
X164397347Y-95401554D01*
X164400254Y-95343844D01*
X164408619Y-95291928D01*
X164422031Y-95245116D01*
X164441733Y-95200969D01*
X164466058Y-95164753D01*
X164494983Y-95135390D01*
X164529096Y-95113134D01*
X164567871Y-95099632D01*
X164612586Y-95094952D01*
X164642522Y-95097310D01*
X164677158Y-95104936D01*
X164713041Y-95117704D01*
X164757483Y-95139054D01*
X164782717Y-95069765D01*
X164747981Y-95050971D01*
X164716542Y-95038258D01*
X164685306Y-95029323D01*
X164657191Y-95024107D01*
X164607366Y-95020397D01*
X164556099Y-95025187D01*
X164507714Y-95039431D01*
X164461369Y-95063445D01*
X164420488Y-95095845D01*
X164384661Y-95137884D01*
X164353750Y-95191031D01*
X164332172Y-95248789D01*
X164318319Y-95317895D01*
X164313358Y-95400500D01*
X164103757Y-95400500D01*
X164125734Y-95375816D01*
X164147219Y-95340195D01*
X164160169Y-95300825D01*
X164164614Y-95256656D01*
X164160041Y-95201415D01*
X164147256Y-95155983D01*
X164127076Y-95118493D01*
X164099493Y-95087579D01*
X164065756Y-95063903D01*
X164023175Y-95045885D01*
X163969783Y-95034119D01*
X163903168Y-95029831D01*
X163845923Y-95031434D01*
X163783458Y-95036701D01*
X163729877Y-95047691D01*
X163539043Y-95047691D01*
X163496641Y-95033541D01*
X163444505Y-95023775D01*
X163386915Y-95020397D01*
X163334288Y-95024124D01*
X163290492Y-95034548D01*
X163254003Y-95050898D01*
X163223608Y-95072925D01*
X163198628Y-95101003D01*
X163180597Y-95133968D01*
X163169335Y-95172791D01*
X163165356Y-95218829D01*
X163168910Y-95257252D01*
X163179003Y-95289721D01*
X163195299Y-95318760D01*
X163216784Y-95343805D01*
X163242577Y-95365464D01*
X163272975Y-95385296D01*
X163340707Y-95418360D01*
X163423139Y-95456188D01*
X163459417Y-95480015D01*
X163487711Y-95508120D01*
X163501301Y-95530034D01*
X163509845Y-95556748D01*
X163512898Y-95589498D01*
X163510496Y-95616139D01*
X163503732Y-95638251D01*
X163492931Y-95656726D01*
X163469546Y-95679214D01*
X163437290Y-95695561D01*
X163399655Y-95704785D01*
X163352247Y-95708155D01*
X163288897Y-95703504D01*
X163239361Y-95690844D01*
X163172683Y-95661947D01*
X163146442Y-95730182D01*
X162687937Y-95730182D01*
X162687937Y-95420467D01*
X162970404Y-95420467D01*
X162970404Y-95350079D01*
X162687937Y-95350079D01*
X162687937Y-95107546D01*
X163008186Y-95107546D01*
X163008186Y-95037204D01*
X162605002Y-95037204D01*
X162605002Y-95764850D01*
X162296935Y-95764850D01*
X162330778Y-95748592D01*
X162361521Y-95724364D01*
X162386252Y-95694190D01*
X162405333Y-95657230D01*
X162418077Y-95616990D01*
X162426129Y-95570916D01*
X162428964Y-95518103D01*
X162428964Y-95037204D01*
X162347035Y-95037204D01*
X162347035Y-95507616D01*
X162344490Y-95559458D01*
X162337677Y-95599278D01*
X162327618Y-95629386D01*
X162312346Y-95656871D01*
X162294530Y-95677125D01*
X162274083Y-95691348D01*
X162237993Y-95704564D01*
X162194811Y-95709208D01*
X162152498Y-95704483D01*
X162116043Y-95690844D01*
X162095259Y-95676271D01*
X162077264Y-95655807D01*
X162061958Y-95628333D01*
X162051899Y-95598224D01*
X162045086Y-95558405D01*
X162042541Y-95506563D01*
X162042541Y-95037204D01*
X161960659Y-95037204D01*
X161960659Y-95518103D01*
X161834181Y-95518103D01*
X161827681Y-95491251D01*
X161816632Y-95466675D01*
X161792913Y-95434144D01*
X161763051Y-95408377D01*
X161728688Y-95389032D01*
X161692205Y-95376366D01*
X161721036Y-95363407D01*
X161747847Y-95342752D01*
X161770466Y-95316613D01*
X161788238Y-95286057D01*
X161799738Y-95252961D01*
X161803488Y-95219883D01*
X161800739Y-95180453D01*
X161793150Y-95148553D01*
X161781415Y-95122796D01*
X161755577Y-95089726D01*
X161722613Y-95065552D01*
X161684172Y-95048783D01*
X161640227Y-95037708D01*
X161594417Y-95031799D01*
X161548361Y-95029831D01*
X161494781Y-95031434D01*
X161431262Y-95036701D01*
X161400445Y-95041489D01*
X161376170Y-95047691D01*
X161292837Y-95047691D01*
X161292837Y-94937064D01*
X164872324Y-94937064D01*
X164872324Y-95863936D01*
G37*
G36*
X146913573Y-94398600D02*
G01*
X144896699Y-94398600D01*
X144896699Y-93983291D01*
X144959199Y-93983291D01*
X144959199Y-94336100D01*
X145013787Y-94336100D01*
X145013787Y-94023194D01*
X145051614Y-94017607D01*
X145088709Y-94015500D01*
X145114428Y-94017677D01*
X145136641Y-94023896D01*
X145149565Y-94031063D01*
X145160833Y-94041915D01*
X145170591Y-94057144D01*
X145177005Y-94074292D01*
X145181482Y-94098673D01*
X145183200Y-94132401D01*
X145183200Y-94336100D01*
X145237788Y-94336100D01*
X145370565Y-94336100D01*
X145653367Y-94336100D01*
X145730121Y-94336100D01*
X145780526Y-94336100D01*
X145780526Y-93929405D01*
X145822872Y-94013058D01*
X145866622Y-94101962D01*
X145914219Y-94206254D01*
X145968838Y-94336100D01*
X146031120Y-94336100D01*
X146152691Y-94336100D01*
X146436899Y-94336100D01*
X146436899Y-94289205D01*
X146207310Y-94289205D01*
X146207310Y-93851003D01*
X146478664Y-93851003D01*
X146494051Y-93912247D01*
X146518201Y-93997671D01*
X146549708Y-94100924D01*
X146586100Y-94216054D01*
X146626370Y-94336100D01*
X146700559Y-94336100D01*
X146752338Y-94188058D01*
X146797157Y-94046305D01*
X146831442Y-93928000D01*
X146851073Y-93851003D01*
X146792974Y-93851003D01*
X146781959Y-93903710D01*
X146767420Y-93963019D01*
X146733104Y-94083766D01*
X146696712Y-94198560D01*
X146665571Y-94292685D01*
X146634399Y-94199262D01*
X146599412Y-94085506D01*
X146565462Y-93964759D01*
X146538168Y-93851003D01*
X146478664Y-93851003D01*
X146207310Y-93851003D01*
X146152691Y-93851003D01*
X146152691Y-94336100D01*
X146031120Y-94336100D01*
X146031120Y-93851003D01*
X145980744Y-93851003D01*
X145980744Y-94246493D01*
X145943284Y-94154810D01*
X145911410Y-94082362D01*
X145879231Y-94015867D01*
X145841770Y-93943052D01*
X145792433Y-93851003D01*
X145730121Y-93851003D01*
X145730121Y-94336100D01*
X145653367Y-94336100D01*
X145653367Y-94289205D01*
X145425855Y-94289205D01*
X145425855Y-94105809D01*
X145610656Y-94105809D01*
X145610656Y-94058914D01*
X145425855Y-94058914D01*
X145425855Y-93897897D01*
X145636576Y-93897897D01*
X145636576Y-93851003D01*
X145370565Y-93851003D01*
X145370565Y-94336100D01*
X145237788Y-94336100D01*
X145237788Y-94121196D01*
X145235504Y-94083139D01*
X145229300Y-94053201D01*
X145219928Y-94029850D01*
X145206157Y-94009064D01*
X145189345Y-93992901D01*
X145169187Y-93980848D01*
X145146779Y-93972737D01*
X145120848Y-93967608D01*
X145090785Y-93965797D01*
X145030579Y-93969644D01*
X144996075Y-93974887D01*
X144959199Y-93983291D01*
X144896699Y-93983291D01*
X144896699Y-93788503D01*
X146913573Y-93788503D01*
X146913573Y-94398600D01*
G37*
G36*
X163474864Y-87123267D02*
G01*
X163490527Y-87128889D01*
X163503969Y-87138093D01*
X163520487Y-87157314D01*
X163533705Y-87183614D01*
X163542817Y-87213492D01*
X163549123Y-87248705D01*
X163552510Y-87285566D01*
X163553672Y-87325000D01*
X163552519Y-87363856D01*
X163549123Y-87400960D01*
X163542807Y-87436469D01*
X163533705Y-87466386D01*
X163520490Y-87492666D01*
X163503969Y-87511907D01*
X163490527Y-87521110D01*
X163474864Y-87526732D01*
X163456372Y-87528699D01*
X163437880Y-87526732D01*
X163422217Y-87521110D01*
X163408775Y-87511907D01*
X163392247Y-87492667D01*
X163379008Y-87466386D01*
X163369929Y-87436471D01*
X163363621Y-87400960D01*
X163360225Y-87363856D01*
X163359072Y-87325000D01*
X163359340Y-87315902D01*
X163412256Y-87315902D01*
X163415481Y-87334337D01*
X163425200Y-87350554D01*
X163434682Y-87358978D01*
X163445393Y-87363918D01*
X163457776Y-87365605D01*
X163470597Y-87363881D01*
X163481269Y-87358913D01*
X163490322Y-87350554D01*
X163499496Y-87334387D01*
X163502564Y-87315902D01*
X163499506Y-87297362D01*
X163490322Y-87280914D01*
X163481242Y-87272333D01*
X163470569Y-87267255D01*
X163457776Y-87265496D01*
X163445418Y-87267217D01*
X163434708Y-87272267D01*
X163425200Y-87280914D01*
X163415471Y-87297411D01*
X163412256Y-87315902D01*
X163359340Y-87315902D01*
X163360233Y-87285566D01*
X163363621Y-87248705D01*
X163369919Y-87213490D01*
X163379008Y-87183614D01*
X163392250Y-87157313D01*
X163408775Y-87138093D01*
X163422217Y-87128889D01*
X163437880Y-87123267D01*
X163456372Y-87121301D01*
X163474864Y-87123267D01*
G37*
G36*
X164653925Y-87121805D02*
G01*
X164675286Y-87129376D01*
X164694317Y-87141940D01*
X164710125Y-87158661D01*
X164723956Y-87181114D01*
X164735624Y-87210542D01*
X164743196Y-87241447D01*
X164748170Y-87279210D01*
X164749974Y-87325000D01*
X164748176Y-87370305D01*
X164743208Y-87407854D01*
X164735624Y-87438756D01*
X164723972Y-87468196D01*
X164710142Y-87490785D01*
X164694317Y-87507724D01*
X164675263Y-87520485D01*
X164653903Y-87528162D01*
X164629562Y-87530805D01*
X164606190Y-87528166D01*
X164585770Y-87520502D01*
X164567616Y-87507724D01*
X164552707Y-87490873D01*
X164539678Y-87468305D01*
X164528751Y-87438756D01*
X164521740Y-87407903D01*
X164517137Y-87370350D01*
X164515470Y-87325000D01*
X164517153Y-87278675D01*
X164521770Y-87240828D01*
X164528751Y-87210206D01*
X164539679Y-87180895D01*
X164552707Y-87158563D01*
X164567616Y-87141940D01*
X164585747Y-87129360D01*
X164606169Y-87121800D01*
X164629562Y-87119195D01*
X164653925Y-87121805D01*
G37*
G36*
X164868466Y-87759909D02*
G01*
X162882397Y-87759909D01*
X162882397Y-87697409D01*
X163658422Y-87697409D01*
X164037823Y-87697409D01*
X164037823Y-87650515D01*
X163658422Y-87650515D01*
X163658422Y-87697409D01*
X162882397Y-87697409D01*
X162882397Y-87567900D01*
X162944897Y-87567900D01*
X163229104Y-87567900D01*
X163229104Y-87521005D01*
X162999516Y-87521005D01*
X162999516Y-87325000D01*
X163299568Y-87325000D01*
X163302658Y-87386604D01*
X163311188Y-87437167D01*
X163324243Y-87478430D01*
X163341211Y-87511907D01*
X163359821Y-87536591D01*
X163380323Y-87554971D01*
X163402914Y-87567874D01*
X163428044Y-87575703D01*
X163456372Y-87578402D01*
X163485314Y-87575675D01*
X163510436Y-87567900D01*
X164120193Y-87567900D01*
X164404401Y-87567900D01*
X164404401Y-87521005D01*
X164174812Y-87521005D01*
X164174812Y-87325000D01*
X164458775Y-87325000D01*
X164461613Y-87383734D01*
X164469382Y-87431179D01*
X164481154Y-87469195D01*
X164498768Y-87504654D01*
X164519200Y-87531736D01*
X164542398Y-87551810D01*
X164569362Y-87566488D01*
X164598894Y-87575360D01*
X164631668Y-87578402D01*
X164664455Y-87575373D01*
X164694222Y-87566511D01*
X164721611Y-87551810D01*
X164745254Y-87531679D01*
X164765913Y-87504587D01*
X164783557Y-87469195D01*
X164795346Y-87431178D01*
X164803125Y-87383733D01*
X164805966Y-87325000D01*
X164803084Y-87266286D01*
X164795191Y-87218842D01*
X164783221Y-87180805D01*
X164765383Y-87145372D01*
X164744721Y-87118295D01*
X164721275Y-87098221D01*
X164694097Y-87083513D01*
X164664447Y-87074636D01*
X164631668Y-87071598D01*
X164598429Y-87074657D01*
X164568672Y-87083552D01*
X164541696Y-87098221D01*
X164518527Y-87118287D01*
X164498216Y-87145357D01*
X164480818Y-87180805D01*
X164469227Y-87218801D01*
X164461572Y-87266247D01*
X164458775Y-87325000D01*
X164174812Y-87325000D01*
X164174812Y-87082803D01*
X164120193Y-87082803D01*
X164120193Y-87567900D01*
X163510436Y-87567900D01*
X163510785Y-87567792D01*
X163533483Y-87554854D01*
X163553885Y-87536493D01*
X163572204Y-87511907D01*
X163588881Y-87478473D01*
X163601730Y-87437225D01*
X163610131Y-87386647D01*
X163613176Y-87325000D01*
X163610131Y-87263353D01*
X163601730Y-87212775D01*
X163588881Y-87171527D01*
X163572204Y-87138093D01*
X163553885Y-87113507D01*
X163533483Y-87095146D01*
X163510785Y-87082208D01*
X163485314Y-87074325D01*
X163456372Y-87071598D01*
X163427731Y-87074311D01*
X163402424Y-87082167D01*
X163379773Y-87095088D01*
X163359315Y-87113459D01*
X163340845Y-87138093D01*
X163324036Y-87171547D01*
X163311093Y-87212801D01*
X163302634Y-87263373D01*
X163299568Y-87325000D01*
X162999516Y-87325000D01*
X162999516Y-87082803D01*
X162944897Y-87082803D01*
X162944897Y-87567900D01*
X162882397Y-87567900D01*
X162882397Y-87009098D01*
X164868466Y-87009098D01*
X164868466Y-87759909D01*
G37*
G36*
X164497991Y-99198183D02*
G01*
X162652048Y-99198183D01*
X162652048Y-98387204D01*
X162735381Y-98387204D01*
X162758462Y-98479070D01*
X162794686Y-98607206D01*
X162841947Y-98762087D01*
X162896536Y-98934781D01*
X162956940Y-99114850D01*
X163068223Y-99114850D01*
X163145892Y-98892787D01*
X163213120Y-98680158D01*
X163264549Y-98502701D01*
X163276061Y-98457546D01*
X163424879Y-98457546D01*
X163560342Y-98457546D01*
X163560342Y-99044508D01*
X163424879Y-99044508D01*
X163424879Y-99114850D01*
X163777688Y-99114850D01*
X163963159Y-99114850D01*
X164038768Y-99114850D01*
X164038768Y-98504807D01*
X164102286Y-98630287D01*
X164167911Y-98763644D01*
X164239306Y-98920081D01*
X164321235Y-99114850D01*
X164414658Y-99114850D01*
X164414658Y-98387204D01*
X164339095Y-98387204D01*
X164339095Y-98980440D01*
X164282904Y-98842916D01*
X164235093Y-98734243D01*
X164186825Y-98634500D01*
X164130634Y-98525278D01*
X164056628Y-98387204D01*
X163963159Y-98387204D01*
X163963159Y-99114850D01*
X163777688Y-99114850D01*
X163777688Y-99044508D01*
X163642224Y-99044508D01*
X163642224Y-98457546D01*
X163777688Y-98457546D01*
X163777688Y-98387204D01*
X163424879Y-98387204D01*
X163424879Y-98457546D01*
X163276061Y-98457546D01*
X163293995Y-98387204D01*
X163206846Y-98387204D01*
X163190324Y-98466266D01*
X163168515Y-98555228D01*
X163117041Y-98736349D01*
X163062453Y-98908541D01*
X163015741Y-99049728D01*
X162968984Y-98909594D01*
X162916503Y-98738960D01*
X162865578Y-98557838D01*
X162824637Y-98387204D01*
X162735381Y-98387204D01*
X162652048Y-98387204D01*
X162652048Y-98303871D01*
X164497991Y-98303871D01*
X164497991Y-99198183D01*
G37*
G36*
X153876559Y-131254809D02*
G01*
X153920258Y-131264812D01*
X153957736Y-131280673D01*
X153990678Y-131303692D01*
X154018590Y-131334898D01*
X154041725Y-131375653D01*
X154057104Y-131420437D01*
X154067347Y-131477797D01*
X154071125Y-131550500D01*
X154067385Y-131624664D01*
X154057290Y-131682641D01*
X154042228Y-131727408D01*
X154019448Y-131768185D01*
X153992223Y-131798822D01*
X153960346Y-131820877D01*
X153924009Y-131835976D01*
X153882504Y-131845413D01*
X153834866Y-131848721D01*
X153800748Y-131847667D01*
X153764524Y-131844508D01*
X153764524Y-131254386D01*
X153825432Y-131251272D01*
X153876559Y-131254809D01*
G37*
G36*
X155093210Y-131571447D02*
G01*
X155137749Y-131580451D01*
X155177800Y-131597145D01*
X155208641Y-131621895D01*
X155223254Y-131643064D01*
X155232555Y-131670146D01*
X155235935Y-131704831D01*
X155232356Y-131742295D01*
X155222502Y-131771634D01*
X155207038Y-131794636D01*
X155186211Y-131813571D01*
X155161408Y-131828426D01*
X155131979Y-131839241D01*
X155084625Y-131848599D01*
X155032236Y-131851835D01*
X154964505Y-131849774D01*
X154939821Y-131847667D01*
X154939821Y-131568360D01*
X155044830Y-131568360D01*
X155093210Y-131571447D01*
G37*
G36*
X155076234Y-131252540D02*
G01*
X155115676Y-131262309D01*
X155150823Y-131279334D01*
X155178141Y-131303250D01*
X155191249Y-131323040D01*
X155199416Y-131346989D01*
X155202321Y-131376202D01*
X155198917Y-131407965D01*
X155189489Y-131432825D01*
X155174477Y-131452360D01*
X155143701Y-131474800D01*
X155105188Y-131489592D01*
X155063649Y-131497484D01*
X155022756Y-131500079D01*
X154939821Y-131500079D01*
X154939821Y-131253333D01*
X154973938Y-131250219D01*
X155032236Y-131249166D01*
X155076234Y-131252540D01*
G37*
G36*
X156570173Y-132192447D02*
G01*
X152422959Y-132192447D01*
X152422959Y-132109114D01*
X154216709Y-132109114D01*
X154785810Y-132109114D01*
X154785810Y-132038772D01*
X154216709Y-132038772D01*
X154216709Y-132109114D01*
X152422959Y-132109114D01*
X152422959Y-131550500D01*
X152506292Y-131550500D01*
X152510752Y-131629724D01*
X152523311Y-131697414D01*
X152543020Y-131755252D01*
X152571579Y-131808902D01*
X152605497Y-131851820D01*
X152644869Y-131885449D01*
X152690112Y-131910324D01*
X152740114Y-131925412D01*
X152796086Y-131930603D01*
X152857146Y-131927127D01*
X152907919Y-131917460D01*
X152916817Y-131914850D01*
X153100214Y-131914850D01*
X153175823Y-131914850D01*
X153175823Y-131304807D01*
X153239341Y-131430287D01*
X153304966Y-131563644D01*
X153376361Y-131720081D01*
X153458289Y-131914850D01*
X153551712Y-131914850D01*
X153551712Y-131197691D01*
X153682642Y-131197691D01*
X153682642Y-131254386D01*
X153682642Y-131902256D01*
X153756098Y-131915353D01*
X153827539Y-131920116D01*
X153888977Y-131915916D01*
X153944677Y-131903728D01*
X153995517Y-131883892D01*
X154030374Y-131863279D01*
X154061417Y-131837154D01*
X154088965Y-131805063D01*
X154113120Y-131766289D01*
X154130808Y-131725587D01*
X154144312Y-131676970D01*
X154153040Y-131619107D01*
X154156168Y-131550500D01*
X154152923Y-131481396D01*
X154143872Y-131423224D01*
X154129870Y-131374435D01*
X154111517Y-131333658D01*
X154086619Y-131294914D01*
X154058393Y-131262820D01*
X154026727Y-131236680D01*
X153991304Y-131216055D01*
X153943618Y-131197691D01*
X154857938Y-131197691D01*
X154857938Y-131253333D01*
X154857938Y-131847667D01*
X154857938Y-131903309D01*
X154911473Y-131913292D01*
X154974488Y-131918513D01*
X155026970Y-131920116D01*
X155099199Y-131916767D01*
X155155457Y-131907754D01*
X155198657Y-131894379D01*
X155238369Y-131873827D01*
X155268485Y-131849011D01*
X155290523Y-131819824D01*
X155305934Y-131786207D01*
X155315517Y-131747844D01*
X155318870Y-131703778D01*
X155316409Y-131670004D01*
X155309450Y-131641251D01*
X155298400Y-131616675D01*
X155274681Y-131584144D01*
X155244819Y-131558377D01*
X155210457Y-131539032D01*
X155173973Y-131526366D01*
X155202804Y-131513407D01*
X155229615Y-131492752D01*
X155252234Y-131466613D01*
X155270007Y-131436057D01*
X155281506Y-131402961D01*
X155285256Y-131369883D01*
X155282507Y-131330453D01*
X155274918Y-131298553D01*
X155263183Y-131272796D01*
X155251268Y-131257546D01*
X155434000Y-131257546D01*
X155635638Y-131257546D01*
X155635638Y-131914850D01*
X155717520Y-131914850D01*
X155717520Y-131257546D01*
X155919112Y-131257546D01*
X155919112Y-131254386D01*
X156042669Y-131254386D01*
X156083610Y-131313188D01*
X156109347Y-131292763D01*
X156130983Y-131277407D01*
X156162378Y-131260706D01*
X156198030Y-131249111D01*
X156242154Y-131244952D01*
X156277583Y-131248372D01*
X156308430Y-131258222D01*
X156335623Y-131274353D01*
X156356284Y-131296805D01*
X156369528Y-131328296D01*
X156374457Y-131371989D01*
X156369577Y-131412644D01*
X156355040Y-131450208D01*
X156333088Y-131485412D01*
X156304619Y-131520596D01*
X156237987Y-131590388D01*
X156152395Y-131679644D01*
X156113480Y-131727957D01*
X156082557Y-131779432D01*
X156067527Y-131815982D01*
X156058387Y-131855327D01*
X156055263Y-131898043D01*
X156055766Y-131906973D01*
X156056316Y-131914850D01*
X156486840Y-131914850D01*
X156486840Y-131844508D01*
X156145571Y-131844508D01*
X156148784Y-131826209D01*
X156160272Y-131801460D01*
X156197000Y-131748429D01*
X156243757Y-131694344D01*
X156287309Y-131649190D01*
X156369740Y-131559934D01*
X156405918Y-131513588D01*
X156433808Y-131467565D01*
X156447682Y-131435353D01*
X156455807Y-131403272D01*
X156458492Y-131370936D01*
X156455872Y-131328665D01*
X156448502Y-131292787D01*
X156436923Y-131262309D01*
X156419792Y-131235119D01*
X156396784Y-131212482D01*
X156367084Y-131194028D01*
X156334010Y-131181643D01*
X156291676Y-131173424D01*
X156237987Y-131170397D01*
X156186357Y-131174791D01*
X156142915Y-131187204D01*
X156104042Y-131205684D01*
X156075733Y-131224482D01*
X156042669Y-131254386D01*
X155919112Y-131254386D01*
X155919112Y-131187204D01*
X155434000Y-131187204D01*
X155434000Y-131257546D01*
X155251268Y-131257546D01*
X155237345Y-131239726D01*
X155204382Y-131215552D01*
X155165940Y-131198783D01*
X155121995Y-131187708D01*
X155076185Y-131181799D01*
X155030130Y-131179831D01*
X154976549Y-131181434D01*
X154913030Y-131186701D01*
X154882213Y-131191489D01*
X154857938Y-131197691D01*
X153943618Y-131197691D01*
X153939803Y-131196222D01*
X153883400Y-131184032D01*
X153821219Y-131179831D01*
X153751930Y-131184594D01*
X153682642Y-131197691D01*
X153551712Y-131197691D01*
X153551712Y-131187204D01*
X153476150Y-131187204D01*
X153476150Y-131780440D01*
X153419959Y-131642916D01*
X153372148Y-131534243D01*
X153323880Y-131434500D01*
X153267688Y-131325278D01*
X153193683Y-131187204D01*
X153100214Y-131187204D01*
X153100214Y-131914850D01*
X152916817Y-131914850D01*
X152977711Y-131896989D01*
X152977711Y-131562041D01*
X152895829Y-131562041D01*
X152895829Y-131840294D01*
X152867985Y-131851881D01*
X152844945Y-131856311D01*
X152806573Y-131858155D01*
X152761155Y-131853451D01*
X152722049Y-131839927D01*
X152687917Y-131817717D01*
X152659016Y-131788311D01*
X152634687Y-131751938D01*
X152614965Y-131707487D01*
X152601539Y-131660316D01*
X152593181Y-131608206D01*
X152590281Y-131550500D01*
X152593695Y-131487933D01*
X152603365Y-131433713D01*
X152618628Y-131386690D01*
X152640586Y-131342586D01*
X152666143Y-131307311D01*
X152695244Y-131279620D01*
X152728991Y-131258368D01*
X152764095Y-131245945D01*
X152801352Y-131241793D01*
X152841377Y-131245251D01*
X152878518Y-131255440D01*
X152913138Y-131271126D01*
X152943090Y-131290107D01*
X152972490Y-131219765D01*
X152943044Y-131200851D01*
X152920062Y-131190419D01*
X152886899Y-131179877D01*
X152849511Y-131173002D01*
X152799246Y-131170397D01*
X152746681Y-131175403D01*
X152697811Y-131190205D01*
X152651693Y-131215048D01*
X152611164Y-131248383D01*
X152575851Y-131291126D01*
X152545630Y-131344695D01*
X152524507Y-131402690D01*
X152511066Y-131470697D01*
X152506292Y-131550500D01*
X152422959Y-131550500D01*
X152422959Y-131087064D01*
X156570173Y-131087064D01*
X156570173Y-132192447D01*
G37*
G36*
X162642915Y-91246447D02*
G01*
X162687453Y-91255451D01*
X162727504Y-91272145D01*
X162758345Y-91296895D01*
X162772958Y-91318064D01*
X162782260Y-91345146D01*
X162785639Y-91379831D01*
X162782060Y-91417295D01*
X162772206Y-91446634D01*
X162756742Y-91469636D01*
X162735915Y-91488571D01*
X162711112Y-91503426D01*
X162681683Y-91514241D01*
X162634330Y-91523599D01*
X162581940Y-91526835D01*
X162514209Y-91524774D01*
X162489525Y-91522667D01*
X162489525Y-91243360D01*
X162594534Y-91243360D01*
X162642915Y-91246447D01*
G37*
G36*
X162625938Y-90927540D02*
G01*
X162665380Y-90937309D01*
X162700527Y-90954334D01*
X162727845Y-90978250D01*
X162740953Y-90998040D01*
X162749121Y-91021989D01*
X162752025Y-91051202D01*
X162748621Y-91082965D01*
X162739193Y-91107825D01*
X162724181Y-91127360D01*
X162693406Y-91149800D01*
X162654893Y-91164592D01*
X162613353Y-91172484D01*
X162572461Y-91175079D01*
X162489525Y-91175079D01*
X162489525Y-90928333D01*
X162523643Y-90925219D01*
X162581940Y-90924166D01*
X162625938Y-90927540D01*
G37*
G36*
X164769441Y-91688936D02*
G01*
X161689400Y-91688936D01*
X161689400Y-90862204D01*
X161772733Y-90862204D01*
X161795814Y-90954070D01*
X161832038Y-91082206D01*
X161879299Y-91237087D01*
X161933888Y-91409781D01*
X161994292Y-91589850D01*
X162105575Y-91589850D01*
X162183244Y-91367787D01*
X162250472Y-91155158D01*
X162301901Y-90977701D01*
X162328673Y-90872691D01*
X162407642Y-90872691D01*
X162407642Y-90928333D01*
X162407642Y-91522667D01*
X162407642Y-91578309D01*
X162461177Y-91588292D01*
X162524192Y-91593513D01*
X162576674Y-91595116D01*
X162648904Y-91591767D01*
X162705161Y-91582754D01*
X162748361Y-91569379D01*
X162788073Y-91548827D01*
X162818189Y-91524011D01*
X162840227Y-91494824D01*
X162855638Y-91461207D01*
X162865221Y-91422844D01*
X162868574Y-91378778D01*
X162866113Y-91345004D01*
X162865653Y-91343103D01*
X162992131Y-91343103D01*
X162995023Y-91395891D01*
X163003243Y-91441964D01*
X163016265Y-91482230D01*
X163035729Y-91519130D01*
X163060965Y-91549314D01*
X163092377Y-91573592D01*
X163128413Y-91590658D01*
X163172770Y-91601638D01*
X163227337Y-91605603D01*
X163282600Y-91601601D01*
X163326871Y-91590588D01*
X163362250Y-91573592D01*
X163392993Y-91549364D01*
X163417724Y-91519190D01*
X163436805Y-91482230D01*
X163449549Y-91441990D01*
X163457601Y-91395916D01*
X163460436Y-91343103D01*
X163460436Y-91225500D01*
X163581886Y-91225500D01*
X163586898Y-91313225D01*
X163600683Y-91384378D01*
X163621774Y-91441793D01*
X163652432Y-91494427D01*
X163687903Y-91535175D01*
X163728340Y-91565715D01*
X163774181Y-91587805D01*
X163823086Y-91601089D01*
X163875893Y-91605603D01*
X163923551Y-91603074D01*
X163968766Y-91595620D01*
X163987465Y-91589850D01*
X164190508Y-91589850D01*
X164272437Y-91589850D01*
X164272437Y-91235987D01*
X164316681Y-91265374D01*
X164360639Y-91300055D01*
X164402609Y-91338482D01*
X164443574Y-91381434D01*
X164482548Y-91427535D01*
X164521244Y-91478566D01*
X164557816Y-91532314D01*
X164592685Y-91589850D01*
X164686108Y-91589850D01*
X164644988Y-91510343D01*
X164594746Y-91435015D01*
X164538374Y-91364753D01*
X164480806Y-91302712D01*
X164421709Y-91246371D01*
X164370073Y-91202419D01*
X164475036Y-91091090D01*
X164571665Y-90979807D01*
X164660920Y-90862204D01*
X164565391Y-90862204D01*
X164478196Y-90969320D01*
X164379507Y-91081656D01*
X164272437Y-91192940D01*
X164272437Y-90862204D01*
X164190508Y-90862204D01*
X164190508Y-91589850D01*
X163987465Y-91589850D01*
X164012711Y-91582060D01*
X164057518Y-91560449D01*
X164035490Y-91491160D01*
X163990638Y-91511816D01*
X163952509Y-91523171D01*
X163915739Y-91529236D01*
X163886380Y-91531048D01*
X163847430Y-91527412D01*
X163810889Y-91516626D01*
X163776105Y-91498487D01*
X163745702Y-91473850D01*
X163718940Y-91441075D01*
X163695779Y-91398745D01*
X163679981Y-91352951D01*
X163669636Y-91296280D01*
X163665875Y-91226554D01*
X163668782Y-91168844D01*
X163677146Y-91116928D01*
X163690559Y-91070116D01*
X163710260Y-91025969D01*
X163734586Y-90989753D01*
X163763511Y-90960390D01*
X163797624Y-90938134D01*
X163836398Y-90924632D01*
X163881114Y-90919952D01*
X163911049Y-90922310D01*
X163945685Y-90929936D01*
X163981568Y-90942704D01*
X164026011Y-90964054D01*
X164051244Y-90894765D01*
X164016508Y-90875971D01*
X163985070Y-90863258D01*
X163953833Y-90854323D01*
X163925719Y-90849107D01*
X163875893Y-90845397D01*
X163824627Y-90850187D01*
X163776242Y-90864431D01*
X163729897Y-90888445D01*
X163689016Y-90920845D01*
X163653189Y-90962884D01*
X163622277Y-91016031D01*
X163600699Y-91073789D01*
X163586847Y-91142895D01*
X163581886Y-91225500D01*
X163460436Y-91225500D01*
X163460436Y-90862204D01*
X163378508Y-90862204D01*
X163378508Y-91332616D01*
X163375962Y-91384458D01*
X163369150Y-91424278D01*
X163359090Y-91454386D01*
X163343818Y-91481871D01*
X163326003Y-91502125D01*
X163305555Y-91516348D01*
X163269465Y-91529564D01*
X163226283Y-91534208D01*
X163183970Y-91529483D01*
X163147515Y-91515844D01*
X163126731Y-91501271D01*
X163108736Y-91480807D01*
X163093431Y-91453333D01*
X163083371Y-91423224D01*
X163076559Y-91383405D01*
X163074013Y-91331563D01*
X163074013Y-90862204D01*
X162992131Y-90862204D01*
X162992131Y-91343103D01*
X162865653Y-91343103D01*
X162859154Y-91316251D01*
X162848104Y-91291675D01*
X162824385Y-91259144D01*
X162794523Y-91233377D01*
X162760161Y-91214032D01*
X162723677Y-91201366D01*
X162752508Y-91188407D01*
X162779319Y-91167752D01*
X162801938Y-91141613D01*
X162819711Y-91111057D01*
X162831211Y-91077961D01*
X162834961Y-91044883D01*
X162832211Y-91005453D01*
X162824622Y-90973553D01*
X162812887Y-90947796D01*
X162787049Y-90914726D01*
X162754086Y-90890552D01*
X162715644Y-90873783D01*
X162671699Y-90862708D01*
X162625889Y-90856799D01*
X162579834Y-90854831D01*
X162526253Y-90856434D01*
X162462734Y-90861701D01*
X162431918Y-90866489D01*
X162407642Y-90872691D01*
X162328673Y-90872691D01*
X162331347Y-90862204D01*
X162244198Y-90862204D01*
X162227676Y-90941266D01*
X162205867Y-91030228D01*
X162154393Y-91211349D01*
X162099805Y-91383541D01*
X162053093Y-91524728D01*
X162006336Y-91384594D01*
X161953855Y-91213960D01*
X161902930Y-91032838D01*
X161861989Y-90862204D01*
X161772733Y-90862204D01*
X161689400Y-90862204D01*
X161689400Y-90762064D01*
X164769441Y-90762064D01*
X164769441Y-91688936D01*
G37*
G36*
X149828017Y-81916085D02*
G01*
X149965037Y-81962293D01*
X150075313Y-82002730D01*
X149967647Y-82043168D01*
X149830123Y-82088826D01*
X149680509Y-82132927D01*
X149680509Y-81870427D01*
X149828017Y-81916085D01*
G37*
G36*
X150242635Y-83476599D02*
G01*
X149315763Y-83476599D01*
X149315763Y-83017376D01*
X149414850Y-83017376D01*
X149414850Y-83393266D01*
X149485191Y-83393266D01*
X149485191Y-83257803D01*
X150142495Y-83257803D01*
X150142495Y-83199001D01*
X150106725Y-83165463D01*
X150076870Y-83131819D01*
X150050734Y-83096392D01*
X150028555Y-83060378D01*
X150009357Y-83022796D01*
X149992331Y-82982709D01*
X149933530Y-83007942D01*
X149953384Y-83056651D01*
X149977631Y-83105029D01*
X150004780Y-83149023D01*
X150026998Y-83175920D01*
X149485191Y-83175920D01*
X149485191Y-83017376D01*
X149414850Y-83017376D01*
X149315763Y-83017376D01*
X149315763Y-82550490D01*
X149414850Y-82550490D01*
X149414850Y-82632373D01*
X150072153Y-82632373D01*
X150072153Y-82833965D01*
X150142495Y-82833965D01*
X150142495Y-82348853D01*
X150072153Y-82348853D01*
X150072153Y-82550490D01*
X149414850Y-82550490D01*
X149315763Y-82550490D01*
X149315763Y-81803245D01*
X149414850Y-81803245D01*
X149611221Y-81848353D01*
X149611221Y-82132927D01*
X149611221Y-82153947D01*
X149414850Y-82200109D01*
X149414850Y-82287258D01*
X149572340Y-82244210D01*
X149758179Y-82191179D01*
X149954550Y-82129767D01*
X150051790Y-82095829D01*
X150142495Y-82060478D01*
X150142495Y-81951256D01*
X150051777Y-81914857D01*
X149954550Y-81879861D01*
X149757675Y-81816892D01*
X149571287Y-81763311D01*
X149414850Y-81720263D01*
X149414850Y-81803245D01*
X149315763Y-81803245D01*
X149315763Y-81375194D01*
X149414850Y-81375194D01*
X149414850Y-81457076D01*
X150072153Y-81457076D01*
X150072153Y-81658668D01*
X150142495Y-81658668D01*
X150142495Y-81173556D01*
X150072153Y-81173556D01*
X150072153Y-81375194D01*
X149414850Y-81375194D01*
X149315763Y-81375194D01*
X149315763Y-80810627D01*
X149399096Y-80810627D01*
X149402767Y-80868407D01*
X149412986Y-80916276D01*
X149428878Y-80955882D01*
X149450020Y-80988588D01*
X149477707Y-81016109D01*
X149510120Y-81035724D01*
X149548201Y-81047874D01*
X149593360Y-81052152D01*
X149639569Y-81048626D01*
X149675747Y-81039009D01*
X149707665Y-81022765D01*
X149734548Y-81000678D01*
X149757568Y-80973265D01*
X149779199Y-80938717D01*
X149819087Y-80854728D01*
X149857921Y-80777562D01*
X149879395Y-80746714D01*
X149904129Y-80724531D01*
X149934364Y-80710697D01*
X149975570Y-80705617D01*
X150009856Y-80710796D01*
X150036982Y-80725584D01*
X150058525Y-80748138D01*
X150074259Y-80776509D01*
X150083677Y-80808248D01*
X150086853Y-80842134D01*
X150083076Y-80891194D01*
X150072153Y-80935053D01*
X150056774Y-80974893D01*
X150043805Y-81000678D01*
X150115201Y-81027972D01*
X150130593Y-81001663D01*
X150146158Y-80955020D01*
X150155924Y-80902884D01*
X150159302Y-80845294D01*
X150155575Y-80792667D01*
X150145151Y-80748871D01*
X150128801Y-80712382D01*
X150106774Y-80681987D01*
X150078696Y-80657007D01*
X150045731Y-80638976D01*
X150006908Y-80627714D01*
X149960870Y-80623735D01*
X149922447Y-80627290D01*
X149889978Y-80637382D01*
X149860939Y-80653679D01*
X149835894Y-80675163D01*
X149814235Y-80700956D01*
X149794403Y-80731355D01*
X149761339Y-80799086D01*
X149723511Y-80881518D01*
X149699684Y-80917796D01*
X149671579Y-80946090D01*
X149649665Y-80959680D01*
X149622951Y-80968224D01*
X149590201Y-80971277D01*
X149563560Y-80968875D01*
X149541448Y-80962111D01*
X149522973Y-80951310D01*
X149500485Y-80927925D01*
X149484138Y-80895669D01*
X149474914Y-80858034D01*
X149471544Y-80810627D01*
X149476195Y-80747276D01*
X149488855Y-80697741D01*
X149517752Y-80631062D01*
X149449517Y-80604821D01*
X149429000Y-80647869D01*
X149418137Y-80678941D01*
X149408026Y-80718761D01*
X149401428Y-80761457D01*
X149399096Y-80810627D01*
X149315763Y-80810627D01*
X149315763Y-80521488D01*
X150242635Y-80521488D01*
X150242635Y-83476599D01*
G37*
D12*
G36*
X159901559Y-131229809D02*
G01*
X159945258Y-131239812D01*
X159982736Y-131255673D01*
X160015678Y-131278692D01*
X160043590Y-131309898D01*
X160066725Y-131350653D01*
X160082104Y-131395437D01*
X160092347Y-131452797D01*
X160096125Y-131525500D01*
X160092385Y-131599664D01*
X160082290Y-131657641D01*
X160067228Y-131702408D01*
X160044448Y-131743185D01*
X160017223Y-131773822D01*
X159985346Y-131795877D01*
X159949009Y-131810976D01*
X159907504Y-131820413D01*
X159859866Y-131823721D01*
X159825748Y-131822667D01*
X159789524Y-131819508D01*
X159789524Y-131229386D01*
X159850432Y-131226272D01*
X159901559Y-131229809D01*
G37*
G36*
X161118210Y-131546447D02*
G01*
X161162749Y-131555451D01*
X161202800Y-131572145D01*
X161233641Y-131596895D01*
X161248254Y-131618064D01*
X161257555Y-131645146D01*
X161260935Y-131679831D01*
X161257356Y-131717295D01*
X161247502Y-131746634D01*
X161232038Y-131769636D01*
X161211211Y-131788571D01*
X161186408Y-131803426D01*
X161156979Y-131814241D01*
X161109625Y-131823599D01*
X161057236Y-131826835D01*
X160989505Y-131824774D01*
X160964821Y-131822667D01*
X160964821Y-131543360D01*
X161069830Y-131543360D01*
X161118210Y-131546447D01*
G37*
G36*
X161101234Y-131227540D02*
G01*
X161140676Y-131237309D01*
X161175823Y-131254334D01*
X161203141Y-131278250D01*
X161216249Y-131298040D01*
X161224416Y-131321989D01*
X161227321Y-131351202D01*
X161223917Y-131382965D01*
X161214489Y-131407825D01*
X161199477Y-131427360D01*
X161168701Y-131449800D01*
X161130188Y-131464592D01*
X161088649Y-131472484D01*
X161047756Y-131475079D01*
X160964821Y-131475079D01*
X160964821Y-131228333D01*
X160998938Y-131225219D01*
X161057236Y-131224166D01*
X161101234Y-131227540D01*
G37*
G36*
X162597163Y-132177864D02*
G01*
X158437542Y-132177864D01*
X158437542Y-132084114D01*
X160241709Y-132084114D01*
X160810810Y-132084114D01*
X160810810Y-132013772D01*
X160241709Y-132013772D01*
X160241709Y-132084114D01*
X158437542Y-132084114D01*
X158437542Y-131525500D01*
X158531292Y-131525500D01*
X158535752Y-131604724D01*
X158548311Y-131672414D01*
X158568020Y-131730252D01*
X158596579Y-131783902D01*
X158630497Y-131826820D01*
X158669869Y-131860449D01*
X158715112Y-131885324D01*
X158765114Y-131900412D01*
X158821086Y-131905603D01*
X158882146Y-131902127D01*
X158932919Y-131892460D01*
X158941817Y-131889850D01*
X159125214Y-131889850D01*
X159200823Y-131889850D01*
X159200823Y-131279807D01*
X159264341Y-131405287D01*
X159329966Y-131538644D01*
X159401361Y-131695081D01*
X159483289Y-131889850D01*
X159576712Y-131889850D01*
X159576712Y-131172691D01*
X159707642Y-131172691D01*
X159707642Y-131229386D01*
X159707642Y-131877256D01*
X159781098Y-131890353D01*
X159852539Y-131895116D01*
X159913977Y-131890916D01*
X159969677Y-131878728D01*
X160020517Y-131858892D01*
X160055374Y-131838279D01*
X160086417Y-131812154D01*
X160113965Y-131780063D01*
X160138120Y-131741289D01*
X160155808Y-131700587D01*
X160169312Y-131651970D01*
X160178040Y-131594107D01*
X160181168Y-131525500D01*
X160177923Y-131456396D01*
X160168872Y-131398224D01*
X160154870Y-131349435D01*
X160136517Y-131308658D01*
X160111619Y-131269914D01*
X160083393Y-131237820D01*
X160051727Y-131211680D01*
X160016304Y-131191055D01*
X159968618Y-131172691D01*
X160882938Y-131172691D01*
X160882938Y-131228333D01*
X160882938Y-131822667D01*
X160882938Y-131878309D01*
X160936473Y-131888292D01*
X160999488Y-131893513D01*
X161051970Y-131895116D01*
X161124199Y-131891767D01*
X161180457Y-131882754D01*
X161223657Y-131869379D01*
X161263369Y-131848827D01*
X161293485Y-131824011D01*
X161315523Y-131794824D01*
X161330934Y-131761207D01*
X161340517Y-131722844D01*
X161343870Y-131678778D01*
X161341409Y-131645004D01*
X161334450Y-131616251D01*
X161323400Y-131591675D01*
X161299681Y-131559144D01*
X161269819Y-131533377D01*
X161235457Y-131514032D01*
X161198973Y-131501366D01*
X161227804Y-131488407D01*
X161254615Y-131467752D01*
X161277234Y-131441613D01*
X161295007Y-131411057D01*
X161306506Y-131377961D01*
X161310256Y-131344883D01*
X161307507Y-131305453D01*
X161299918Y-131273553D01*
X161288183Y-131247796D01*
X161276268Y-131232546D01*
X161459000Y-131232546D01*
X161660638Y-131232546D01*
X161660638Y-131889850D01*
X161742520Y-131889850D01*
X161742520Y-131312368D01*
X162092856Y-131312368D01*
X162118090Y-131371169D01*
X162166799Y-131351315D01*
X162215176Y-131327068D01*
X162259171Y-131299919D01*
X162286068Y-131277701D01*
X162286068Y-131819508D01*
X162127524Y-131819508D01*
X162127524Y-131889850D01*
X162503413Y-131889850D01*
X162503413Y-131819508D01*
X162367950Y-131819508D01*
X162367950Y-131162204D01*
X162309149Y-131162204D01*
X162275611Y-131197974D01*
X162241967Y-131227829D01*
X162206539Y-131253965D01*
X162170526Y-131276144D01*
X162132943Y-131295342D01*
X162092856Y-131312368D01*
X161742520Y-131312368D01*
X161742520Y-131232546D01*
X161944112Y-131232546D01*
X161944112Y-131162204D01*
X161459000Y-131162204D01*
X161459000Y-131232546D01*
X161276268Y-131232546D01*
X161262345Y-131214726D01*
X161229382Y-131190552D01*
X161190940Y-131173783D01*
X161146995Y-131162708D01*
X161101185Y-131156799D01*
X161055130Y-131154831D01*
X161001549Y-131156434D01*
X160938030Y-131161701D01*
X160907213Y-131166489D01*
X160882938Y-131172691D01*
X159968618Y-131172691D01*
X159964803Y-131171222D01*
X159908400Y-131159032D01*
X159846219Y-131154831D01*
X159776930Y-131159594D01*
X159707642Y-131172691D01*
X159576712Y-131172691D01*
X159576712Y-131162204D01*
X159501150Y-131162204D01*
X159501150Y-131755440D01*
X159444959Y-131617916D01*
X159397148Y-131509243D01*
X159348880Y-131409500D01*
X159292688Y-131300278D01*
X159218683Y-131162204D01*
X159125214Y-131162204D01*
X159125214Y-131889850D01*
X158941817Y-131889850D01*
X159002711Y-131871989D01*
X159002711Y-131537041D01*
X158920829Y-131537041D01*
X158920829Y-131815294D01*
X158892985Y-131826881D01*
X158869945Y-131831311D01*
X158831573Y-131833155D01*
X158786155Y-131828451D01*
X158747049Y-131814927D01*
X158712917Y-131792717D01*
X158684016Y-131763311D01*
X158659687Y-131726938D01*
X158639965Y-131682487D01*
X158626539Y-131635316D01*
X158618181Y-131583206D01*
X158615281Y-131525500D01*
X158618695Y-131462933D01*
X158628365Y-131408713D01*
X158643628Y-131361690D01*
X158665586Y-131317586D01*
X158691143Y-131282311D01*
X158720244Y-131254620D01*
X158753991Y-131233368D01*
X158789095Y-131220945D01*
X158826352Y-131216793D01*
X158866377Y-131220251D01*
X158903518Y-131230440D01*
X158938138Y-131246126D01*
X158968090Y-131265107D01*
X158997490Y-131194765D01*
X158968044Y-131175851D01*
X158945062Y-131165419D01*
X158911899Y-131154877D01*
X158874511Y-131148002D01*
X158824246Y-131145397D01*
X158771681Y-131150403D01*
X158722811Y-131165205D01*
X158676693Y-131190048D01*
X158636164Y-131223383D01*
X158600851Y-131266126D01*
X158570630Y-131319695D01*
X158549507Y-131377690D01*
X158536066Y-131445697D01*
X158531292Y-131525500D01*
X158437542Y-131525500D01*
X158437542Y-131051647D01*
X162597163Y-131051647D01*
X162597163Y-132177864D01*
G37*
D10*
G36*
X141821808Y-91573600D02*
G01*
X140216299Y-91573600D01*
X140216299Y-91511100D01*
X140278799Y-91511100D01*
X140561602Y-91511100D01*
X140638355Y-91511100D01*
X140688761Y-91511100D01*
X140688761Y-91104405D01*
X140731106Y-91188058D01*
X140774856Y-91276962D01*
X140822453Y-91381254D01*
X140877072Y-91511100D01*
X140939354Y-91511100D01*
X141019618Y-91511100D01*
X141074237Y-91511100D01*
X141074237Y-91281511D01*
X141287034Y-91281511D01*
X141287034Y-91511100D01*
X141341622Y-91511100D01*
X141341622Y-91026003D01*
X141386899Y-91026003D01*
X141402286Y-91087247D01*
X141426435Y-91172671D01*
X141457943Y-91275924D01*
X141494335Y-91391054D01*
X141534604Y-91511100D01*
X141608793Y-91511100D01*
X141660573Y-91363058D01*
X141705391Y-91221305D01*
X141739677Y-91103000D01*
X141759308Y-91026003D01*
X141701209Y-91026003D01*
X141690194Y-91078710D01*
X141675655Y-91138019D01*
X141641339Y-91258766D01*
X141604946Y-91373560D01*
X141573805Y-91467685D01*
X141542634Y-91374262D01*
X141507646Y-91260506D01*
X141473696Y-91139759D01*
X141446402Y-91026003D01*
X141386899Y-91026003D01*
X141341622Y-91026003D01*
X141287034Y-91026003D01*
X141287034Y-91234586D01*
X141074237Y-91234586D01*
X141074237Y-91026003D01*
X141019618Y-91026003D01*
X141019618Y-91511100D01*
X140939354Y-91511100D01*
X140939354Y-91026003D01*
X140888979Y-91026003D01*
X140888979Y-91421493D01*
X140851518Y-91329810D01*
X140819645Y-91257362D01*
X140787466Y-91190867D01*
X140750005Y-91118052D01*
X140700668Y-91026003D01*
X140638355Y-91026003D01*
X140638355Y-91511100D01*
X140561602Y-91511100D01*
X140561602Y-91464205D01*
X140334090Y-91464205D01*
X140334090Y-91280809D01*
X140518890Y-91280809D01*
X140518890Y-91233914D01*
X140334090Y-91233914D01*
X140334090Y-91072897D01*
X140544810Y-91072897D01*
X140544810Y-91026003D01*
X140278799Y-91026003D01*
X140278799Y-91511100D01*
X140216299Y-91511100D01*
X140216299Y-90963503D01*
X141821808Y-90963503D01*
X141821808Y-91573600D01*
G37*
D13*
X157062145Y-81877903D02*
X157304050Y-81877903D01*
X157013764Y-82023046D02*
X157183098Y-81515046D01*
X157183098Y-81515046D02*
X157352431Y-82023046D01*
X157521765Y-81756951D02*
X157691098Y-81756951D01*
X157763670Y-82023046D02*
X157521765Y-82023046D01*
X157521765Y-82023046D02*
X157521765Y-81515046D01*
X157521765Y-81515046D02*
X157763670Y-81515046D01*
X157981384Y-82023046D02*
X157981384Y-81515046D01*
X157981384Y-81515046D02*
X158150717Y-81877903D01*
X158150717Y-81877903D02*
X158320051Y-81515046D01*
X158320051Y-81515046D02*
X158320051Y-82023046D01*
X158658717Y-81515046D02*
X158707098Y-81515046D01*
X158707098Y-81515046D02*
X158755479Y-81539236D01*
X158755479Y-81539236D02*
X158779669Y-81563427D01*
X158779669Y-81563427D02*
X158803860Y-81611808D01*
X158803860Y-81611808D02*
X158828050Y-81708570D01*
X158828050Y-81708570D02*
X158828050Y-81829522D01*
X158828050Y-81829522D02*
X158803860Y-81926284D01*
X158803860Y-81926284D02*
X158779669Y-81974665D01*
X158779669Y-81974665D02*
X158755479Y-81998856D01*
X158755479Y-81998856D02*
X158707098Y-82023046D01*
X158707098Y-82023046D02*
X158658717Y-82023046D01*
X158658717Y-82023046D02*
X158610336Y-81998856D01*
X158610336Y-81998856D02*
X158586145Y-81974665D01*
X158586145Y-81974665D02*
X158561955Y-81926284D01*
X158561955Y-81926284D02*
X158537764Y-81829522D01*
X158537764Y-81829522D02*
X158537764Y-81708570D01*
X158537764Y-81708570D02*
X158561955Y-81611808D01*
X158561955Y-81611808D02*
X158586145Y-81563427D01*
X158586145Y-81563427D02*
X158610336Y-81539236D01*
X158610336Y-81539236D02*
X158658717Y-81515046D01*
X159142527Y-81515046D02*
X159190908Y-81515046D01*
X159190908Y-81515046D02*
X159239289Y-81539236D01*
X159239289Y-81539236D02*
X159263479Y-81563427D01*
X159263479Y-81563427D02*
X159287670Y-81611808D01*
X159287670Y-81611808D02*
X159311860Y-81708570D01*
X159311860Y-81708570D02*
X159311860Y-81829522D01*
X159311860Y-81829522D02*
X159287670Y-81926284D01*
X159287670Y-81926284D02*
X159263479Y-81974665D01*
X159263479Y-81974665D02*
X159239289Y-81998856D01*
X159239289Y-81998856D02*
X159190908Y-82023046D01*
X159190908Y-82023046D02*
X159142527Y-82023046D01*
X159142527Y-82023046D02*
X159094146Y-81998856D01*
X159094146Y-81998856D02*
X159069955Y-81974665D01*
X159069955Y-81974665D02*
X159045765Y-81926284D01*
X159045765Y-81926284D02*
X159021574Y-81829522D01*
X159021574Y-81829522D02*
X159021574Y-81708570D01*
X159021574Y-81708570D02*
X159045765Y-81611808D01*
X159045765Y-81611808D02*
X159069955Y-81563427D01*
X159069955Y-81563427D02*
X159094146Y-81539236D01*
X159094146Y-81539236D02*
X159142527Y-81515046D01*
X159553765Y-82023046D02*
X159650527Y-82023046D01*
X159650527Y-82023046D02*
X159698908Y-81998856D01*
X159698908Y-81998856D02*
X159723099Y-81974665D01*
X159723099Y-81974665D02*
X159771480Y-81902094D01*
X159771480Y-81902094D02*
X159795670Y-81805332D01*
X159795670Y-81805332D02*
X159795670Y-81611808D01*
X159795670Y-81611808D02*
X159771480Y-81563427D01*
X159771480Y-81563427D02*
X159747289Y-81539236D01*
X159747289Y-81539236D02*
X159698908Y-81515046D01*
X159698908Y-81515046D02*
X159602146Y-81515046D01*
X159602146Y-81515046D02*
X159553765Y-81539236D01*
X159553765Y-81539236D02*
X159529575Y-81563427D01*
X159529575Y-81563427D02*
X159505384Y-81611808D01*
X159505384Y-81611808D02*
X159505384Y-81732760D01*
X159505384Y-81732760D02*
X159529575Y-81781141D01*
X159529575Y-81781141D02*
X159553765Y-81805332D01*
X159553765Y-81805332D02*
X159602146Y-81829522D01*
X159602146Y-81829522D02*
X159698908Y-81829522D01*
X159698908Y-81829522D02*
X159747289Y-81805332D01*
X159747289Y-81805332D02*
X159771480Y-81781141D01*
X159771480Y-81781141D02*
X159795670Y-81732760D01*
X160231099Y-81684379D02*
X160231099Y-82023046D01*
X160110147Y-81490856D02*
X159989194Y-81853713D01*
X159989194Y-81853713D02*
X160303671Y-81853713D01*
X160593957Y-81515046D02*
X160642338Y-81515046D01*
X160642338Y-81515046D02*
X160690719Y-81539236D01*
X160690719Y-81539236D02*
X160714909Y-81563427D01*
X160714909Y-81563427D02*
X160739100Y-81611808D01*
X160739100Y-81611808D02*
X160763290Y-81708570D01*
X160763290Y-81708570D02*
X160763290Y-81829522D01*
X160763290Y-81829522D02*
X160739100Y-81926284D01*
X160739100Y-81926284D02*
X160714909Y-81974665D01*
X160714909Y-81974665D02*
X160690719Y-81998856D01*
X160690719Y-81998856D02*
X160642338Y-82023046D01*
X160642338Y-82023046D02*
X160593957Y-82023046D01*
X160593957Y-82023046D02*
X160545576Y-81998856D01*
X160545576Y-81998856D02*
X160521385Y-81974665D01*
X160521385Y-81974665D02*
X160497195Y-81926284D01*
X160497195Y-81926284D02*
X160473004Y-81829522D01*
X160473004Y-81829522D02*
X160473004Y-81708570D01*
X160473004Y-81708570D02*
X160497195Y-81611808D01*
X160497195Y-81611808D02*
X160521385Y-81563427D01*
X160521385Y-81563427D02*
X160545576Y-81539236D01*
X160545576Y-81539236D02*
X160593957Y-81515046D01*
X161343862Y-81998856D02*
X161392243Y-82023046D01*
X161392243Y-82023046D02*
X161489005Y-82023046D01*
X161489005Y-82023046D02*
X161537386Y-81998856D01*
X161537386Y-81998856D02*
X161561577Y-81950475D01*
X161561577Y-81950475D02*
X161561577Y-81926284D01*
X161561577Y-81926284D02*
X161537386Y-81877903D01*
X161537386Y-81877903D02*
X161489005Y-81853713D01*
X161489005Y-81853713D02*
X161416434Y-81853713D01*
X161416434Y-81853713D02*
X161368053Y-81829522D01*
X161368053Y-81829522D02*
X161343862Y-81781141D01*
X161343862Y-81781141D02*
X161343862Y-81756951D01*
X161343862Y-81756951D02*
X161368053Y-81708570D01*
X161368053Y-81708570D02*
X161416434Y-81684379D01*
X161416434Y-81684379D02*
X161489005Y-81684379D01*
X161489005Y-81684379D02*
X161537386Y-81708570D01*
X161851862Y-82023046D02*
X161803481Y-81998856D01*
X161803481Y-81998856D02*
X161779291Y-81974665D01*
X161779291Y-81974665D02*
X161755100Y-81926284D01*
X161755100Y-81926284D02*
X161755100Y-81781141D01*
X161755100Y-81781141D02*
X161779291Y-81732760D01*
X161779291Y-81732760D02*
X161803481Y-81708570D01*
X161803481Y-81708570D02*
X161851862Y-81684379D01*
X161851862Y-81684379D02*
X161924434Y-81684379D01*
X161924434Y-81684379D02*
X161972815Y-81708570D01*
X161972815Y-81708570D02*
X161997005Y-81732760D01*
X161997005Y-81732760D02*
X162021196Y-81781141D01*
X162021196Y-81781141D02*
X162021196Y-81926284D01*
X162021196Y-81926284D02*
X161997005Y-81974665D01*
X161997005Y-81974665D02*
X161972815Y-81998856D01*
X161972815Y-81998856D02*
X161924434Y-82023046D01*
X161924434Y-82023046D02*
X161851862Y-82023046D01*
X162311481Y-82023046D02*
X162263100Y-81998856D01*
X162263100Y-81998856D02*
X162238910Y-81950475D01*
X162238910Y-81950475D02*
X162238910Y-81515046D01*
X162722719Y-82023046D02*
X162722719Y-81756951D01*
X162722719Y-81756951D02*
X162698529Y-81708570D01*
X162698529Y-81708570D02*
X162650148Y-81684379D01*
X162650148Y-81684379D02*
X162553386Y-81684379D01*
X162553386Y-81684379D02*
X162505005Y-81708570D01*
X162722719Y-81998856D02*
X162674338Y-82023046D01*
X162674338Y-82023046D02*
X162553386Y-82023046D01*
X162553386Y-82023046D02*
X162505005Y-81998856D01*
X162505005Y-81998856D02*
X162480814Y-81950475D01*
X162480814Y-81950475D02*
X162480814Y-81902094D01*
X162480814Y-81902094D02*
X162505005Y-81853713D01*
X162505005Y-81853713D02*
X162553386Y-81829522D01*
X162553386Y-81829522D02*
X162674338Y-81829522D01*
X162674338Y-81829522D02*
X162722719Y-81805332D01*
X162964624Y-82023046D02*
X162964624Y-81684379D01*
X162964624Y-81781141D02*
X162988814Y-81732760D01*
X162988814Y-81732760D02*
X163013005Y-81708570D01*
X163013005Y-81708570D02*
X163061386Y-81684379D01*
X163061386Y-81684379D02*
X163109767Y-81684379D01*
X163859672Y-81998856D02*
X163811291Y-82023046D01*
X163811291Y-82023046D02*
X163714529Y-82023046D01*
X163714529Y-82023046D02*
X163666148Y-81998856D01*
X163666148Y-81998856D02*
X163641957Y-81950475D01*
X163641957Y-81950475D02*
X163641957Y-81756951D01*
X163641957Y-81756951D02*
X163666148Y-81708570D01*
X163666148Y-81708570D02*
X163714529Y-81684379D01*
X163714529Y-81684379D02*
X163811291Y-81684379D01*
X163811291Y-81684379D02*
X163859672Y-81708570D01*
X163859672Y-81708570D02*
X163883862Y-81756951D01*
X163883862Y-81756951D02*
X163883862Y-81805332D01*
X163883862Y-81805332D02*
X163641957Y-81853713D01*
X164101577Y-81684379D02*
X164101577Y-82023046D01*
X164101577Y-81732760D02*
X164125767Y-81708570D01*
X164125767Y-81708570D02*
X164174148Y-81684379D01*
X164174148Y-81684379D02*
X164246720Y-81684379D01*
X164246720Y-81684379D02*
X164295101Y-81708570D01*
X164295101Y-81708570D02*
X164319291Y-81756951D01*
X164319291Y-81756951D02*
X164319291Y-82023046D01*
X164754720Y-81998856D02*
X164706339Y-82023046D01*
X164706339Y-82023046D02*
X164609577Y-82023046D01*
X164609577Y-82023046D02*
X164561196Y-81998856D01*
X164561196Y-81998856D02*
X164537005Y-81950475D01*
X164537005Y-81950475D02*
X164537005Y-81756951D01*
X164537005Y-81756951D02*
X164561196Y-81708570D01*
X164561196Y-81708570D02*
X164609577Y-81684379D01*
X164609577Y-81684379D02*
X164706339Y-81684379D01*
X164706339Y-81684379D02*
X164754720Y-81708570D01*
X164754720Y-81708570D02*
X164778910Y-81756951D01*
X164778910Y-81756951D02*
X164778910Y-81805332D01*
X164778910Y-81805332D02*
X164537005Y-81853713D01*
X164996625Y-82023046D02*
X164996625Y-81684379D01*
X164996625Y-81781141D02*
X165020815Y-81732760D01*
X165020815Y-81732760D02*
X165045006Y-81708570D01*
X165045006Y-81708570D02*
X165093387Y-81684379D01*
X165093387Y-81684379D02*
X165141768Y-81684379D01*
X165528815Y-81684379D02*
X165528815Y-82095617D01*
X165528815Y-82095617D02*
X165504625Y-82143998D01*
X165504625Y-82143998D02*
X165480434Y-82168189D01*
X165480434Y-82168189D02*
X165432053Y-82192379D01*
X165432053Y-82192379D02*
X165359482Y-82192379D01*
X165359482Y-82192379D02*
X165311101Y-82168189D01*
X165528815Y-81998856D02*
X165480434Y-82023046D01*
X165480434Y-82023046D02*
X165383672Y-82023046D01*
X165383672Y-82023046D02*
X165335291Y-81998856D01*
X165335291Y-81998856D02*
X165311101Y-81974665D01*
X165311101Y-81974665D02*
X165286910Y-81926284D01*
X165286910Y-81926284D02*
X165286910Y-81781141D01*
X165286910Y-81781141D02*
X165311101Y-81732760D01*
X165311101Y-81732760D02*
X165335291Y-81708570D01*
X165335291Y-81708570D02*
X165383672Y-81684379D01*
X165383672Y-81684379D02*
X165480434Y-81684379D01*
X165480434Y-81684379D02*
X165528815Y-81708570D01*
X165722339Y-81684379D02*
X165843291Y-82023046D01*
X165964244Y-81684379D02*
X165843291Y-82023046D01*
X165843291Y-82023046D02*
X165794910Y-82143998D01*
X165794910Y-82143998D02*
X165770720Y-82168189D01*
X165770720Y-82168189D02*
X165722339Y-82192379D01*
X157400813Y-82840898D02*
X157400813Y-82332898D01*
X157618527Y-82840898D02*
X157618527Y-82574803D01*
X157618527Y-82574803D02*
X157594337Y-82526422D01*
X157594337Y-82526422D02*
X157545956Y-82502231D01*
X157545956Y-82502231D02*
X157473384Y-82502231D01*
X157473384Y-82502231D02*
X157425003Y-82526422D01*
X157425003Y-82526422D02*
X157400813Y-82550612D01*
X158078146Y-82840898D02*
X158078146Y-82574803D01*
X158078146Y-82574803D02*
X158053956Y-82526422D01*
X158053956Y-82526422D02*
X158005575Y-82502231D01*
X158005575Y-82502231D02*
X157908813Y-82502231D01*
X157908813Y-82502231D02*
X157860432Y-82526422D01*
X158078146Y-82816708D02*
X158029765Y-82840898D01*
X158029765Y-82840898D02*
X157908813Y-82840898D01*
X157908813Y-82840898D02*
X157860432Y-82816708D01*
X157860432Y-82816708D02*
X157836241Y-82768327D01*
X157836241Y-82768327D02*
X157836241Y-82719946D01*
X157836241Y-82719946D02*
X157860432Y-82671565D01*
X157860432Y-82671565D02*
X157908813Y-82647374D01*
X157908813Y-82647374D02*
X158029765Y-82647374D01*
X158029765Y-82647374D02*
X158078146Y-82623184D01*
X158320051Y-82840898D02*
X158320051Y-82502231D01*
X158320051Y-82598993D02*
X158344241Y-82550612D01*
X158344241Y-82550612D02*
X158368432Y-82526422D01*
X158368432Y-82526422D02*
X158416813Y-82502231D01*
X158416813Y-82502231D02*
X158465194Y-82502231D01*
X158586146Y-82502231D02*
X158707098Y-82840898D01*
X158707098Y-82840898D02*
X158828051Y-82502231D01*
X159215099Y-82816708D02*
X159166718Y-82840898D01*
X159166718Y-82840898D02*
X159069956Y-82840898D01*
X159069956Y-82840898D02*
X159021575Y-82816708D01*
X159021575Y-82816708D02*
X158997384Y-82768327D01*
X158997384Y-82768327D02*
X158997384Y-82574803D01*
X158997384Y-82574803D02*
X159021575Y-82526422D01*
X159021575Y-82526422D02*
X159069956Y-82502231D01*
X159069956Y-82502231D02*
X159166718Y-82502231D01*
X159166718Y-82502231D02*
X159215099Y-82526422D01*
X159215099Y-82526422D02*
X159239289Y-82574803D01*
X159239289Y-82574803D02*
X159239289Y-82623184D01*
X159239289Y-82623184D02*
X158997384Y-82671565D01*
X159432813Y-82816708D02*
X159481194Y-82840898D01*
X159481194Y-82840898D02*
X159577956Y-82840898D01*
X159577956Y-82840898D02*
X159626337Y-82816708D01*
X159626337Y-82816708D02*
X159650528Y-82768327D01*
X159650528Y-82768327D02*
X159650528Y-82744136D01*
X159650528Y-82744136D02*
X159626337Y-82695755D01*
X159626337Y-82695755D02*
X159577956Y-82671565D01*
X159577956Y-82671565D02*
X159505385Y-82671565D01*
X159505385Y-82671565D02*
X159457004Y-82647374D01*
X159457004Y-82647374D02*
X159432813Y-82598993D01*
X159432813Y-82598993D02*
X159432813Y-82574803D01*
X159432813Y-82574803D02*
X159457004Y-82526422D01*
X159457004Y-82526422D02*
X159505385Y-82502231D01*
X159505385Y-82502231D02*
X159577956Y-82502231D01*
X159577956Y-82502231D02*
X159626337Y-82526422D01*
X159795670Y-82502231D02*
X159989194Y-82502231D01*
X159868242Y-82332898D02*
X159868242Y-82768327D01*
X159868242Y-82768327D02*
X159892432Y-82816708D01*
X159892432Y-82816708D02*
X159940813Y-82840898D01*
X159940813Y-82840898D02*
X159989194Y-82840898D01*
X160158528Y-82840898D02*
X160158528Y-82502231D01*
X160158528Y-82332898D02*
X160134337Y-82357088D01*
X160134337Y-82357088D02*
X160158528Y-82381279D01*
X160158528Y-82381279D02*
X160182718Y-82357088D01*
X160182718Y-82357088D02*
X160158528Y-82332898D01*
X160158528Y-82332898D02*
X160158528Y-82381279D01*
X160400433Y-82502231D02*
X160400433Y-82840898D01*
X160400433Y-82550612D02*
X160424623Y-82526422D01*
X160424623Y-82526422D02*
X160473004Y-82502231D01*
X160473004Y-82502231D02*
X160545576Y-82502231D01*
X160545576Y-82502231D02*
X160593957Y-82526422D01*
X160593957Y-82526422D02*
X160618147Y-82574803D01*
X160618147Y-82574803D02*
X160618147Y-82840898D01*
X161077766Y-82502231D02*
X161077766Y-82913469D01*
X161077766Y-82913469D02*
X161053576Y-82961850D01*
X161053576Y-82961850D02*
X161029385Y-82986041D01*
X161029385Y-82986041D02*
X160981004Y-83010231D01*
X160981004Y-83010231D02*
X160908433Y-83010231D01*
X160908433Y-83010231D02*
X160860052Y-82986041D01*
X161077766Y-82816708D02*
X161029385Y-82840898D01*
X161029385Y-82840898D02*
X160932623Y-82840898D01*
X160932623Y-82840898D02*
X160884242Y-82816708D01*
X160884242Y-82816708D02*
X160860052Y-82792517D01*
X160860052Y-82792517D02*
X160835861Y-82744136D01*
X160835861Y-82744136D02*
X160835861Y-82598993D01*
X160835861Y-82598993D02*
X160860052Y-82550612D01*
X160860052Y-82550612D02*
X160884242Y-82526422D01*
X160884242Y-82526422D02*
X160932623Y-82502231D01*
X160932623Y-82502231D02*
X161029385Y-82502231D01*
X161029385Y-82502231D02*
X161077766Y-82526422D01*
X161706719Y-82840898D02*
X161706719Y-82332898D01*
X161706719Y-82526422D02*
X161755100Y-82502231D01*
X161755100Y-82502231D02*
X161851862Y-82502231D01*
X161851862Y-82502231D02*
X161900243Y-82526422D01*
X161900243Y-82526422D02*
X161924433Y-82550612D01*
X161924433Y-82550612D02*
X161948624Y-82598993D01*
X161948624Y-82598993D02*
X161948624Y-82744136D01*
X161948624Y-82744136D02*
X161924433Y-82792517D01*
X161924433Y-82792517D02*
X161900243Y-82816708D01*
X161900243Y-82816708D02*
X161851862Y-82840898D01*
X161851862Y-82840898D02*
X161755100Y-82840898D01*
X161755100Y-82840898D02*
X161706719Y-82816708D01*
X162238909Y-82840898D02*
X162190528Y-82816708D01*
X162190528Y-82816708D02*
X162166338Y-82792517D01*
X162166338Y-82792517D02*
X162142147Y-82744136D01*
X162142147Y-82744136D02*
X162142147Y-82598993D01*
X162142147Y-82598993D02*
X162166338Y-82550612D01*
X162166338Y-82550612D02*
X162190528Y-82526422D01*
X162190528Y-82526422D02*
X162238909Y-82502231D01*
X162238909Y-82502231D02*
X162311481Y-82502231D01*
X162311481Y-82502231D02*
X162359862Y-82526422D01*
X162359862Y-82526422D02*
X162384052Y-82550612D01*
X162384052Y-82550612D02*
X162408243Y-82598993D01*
X162408243Y-82598993D02*
X162408243Y-82744136D01*
X162408243Y-82744136D02*
X162384052Y-82792517D01*
X162384052Y-82792517D02*
X162359862Y-82816708D01*
X162359862Y-82816708D02*
X162311481Y-82840898D01*
X162311481Y-82840898D02*
X162238909Y-82840898D01*
X162843671Y-82840898D02*
X162843671Y-82574803D01*
X162843671Y-82574803D02*
X162819481Y-82526422D01*
X162819481Y-82526422D02*
X162771100Y-82502231D01*
X162771100Y-82502231D02*
X162674338Y-82502231D01*
X162674338Y-82502231D02*
X162625957Y-82526422D01*
X162843671Y-82816708D02*
X162795290Y-82840898D01*
X162795290Y-82840898D02*
X162674338Y-82840898D01*
X162674338Y-82840898D02*
X162625957Y-82816708D01*
X162625957Y-82816708D02*
X162601766Y-82768327D01*
X162601766Y-82768327D02*
X162601766Y-82719946D01*
X162601766Y-82719946D02*
X162625957Y-82671565D01*
X162625957Y-82671565D02*
X162674338Y-82647374D01*
X162674338Y-82647374D02*
X162795290Y-82647374D01*
X162795290Y-82647374D02*
X162843671Y-82623184D01*
X163085576Y-82840898D02*
X163085576Y-82502231D01*
X163085576Y-82598993D02*
X163109766Y-82550612D01*
X163109766Y-82550612D02*
X163133957Y-82526422D01*
X163133957Y-82526422D02*
X163182338Y-82502231D01*
X163182338Y-82502231D02*
X163230719Y-82502231D01*
X163617766Y-82840898D02*
X163617766Y-82332898D01*
X163617766Y-82816708D02*
X163569385Y-82840898D01*
X163569385Y-82840898D02*
X163472623Y-82840898D01*
X163472623Y-82840898D02*
X163424242Y-82816708D01*
X163424242Y-82816708D02*
X163400052Y-82792517D01*
X163400052Y-82792517D02*
X163375861Y-82744136D01*
X163375861Y-82744136D02*
X163375861Y-82598993D01*
X163375861Y-82598993D02*
X163400052Y-82550612D01*
X163400052Y-82550612D02*
X163424242Y-82526422D01*
X163424242Y-82526422D02*
X163472623Y-82502231D01*
X163472623Y-82502231D02*
X163569385Y-82502231D01*
X163569385Y-82502231D02*
X163617766Y-82526422D01*
X164198338Y-82502231D02*
X164319290Y-82840898D01*
X164319290Y-82840898D02*
X164440243Y-82502231D01*
X164899862Y-82840898D02*
X164609576Y-82840898D01*
X164754719Y-82840898D02*
X164754719Y-82332898D01*
X164754719Y-82332898D02*
X164706338Y-82405469D01*
X164706338Y-82405469D02*
X164657957Y-82453850D01*
X164657957Y-82453850D02*
X164609576Y-82478041D01*
X165117577Y-82792517D02*
X165141767Y-82816708D01*
X165141767Y-82816708D02*
X165117577Y-82840898D01*
X165117577Y-82840898D02*
X165093386Y-82816708D01*
X165093386Y-82816708D02*
X165117577Y-82792517D01*
X165117577Y-82792517D02*
X165117577Y-82840898D01*
X165625577Y-82840898D02*
X165335291Y-82840898D01*
X165480434Y-82840898D02*
X165480434Y-82332898D01*
X165480434Y-82332898D02*
X165432053Y-82405469D01*
X165432053Y-82405469D02*
X165383672Y-82453850D01*
X165383672Y-82453850D02*
X165335291Y-82478041D01*
X158912718Y-84331459D02*
X159154623Y-84331459D01*
X158864337Y-84476602D02*
X159033671Y-83968602D01*
X159033671Y-83968602D02*
X159203004Y-84476602D01*
X159372338Y-84476602D02*
X159372338Y-84137935D01*
X159372338Y-84234697D02*
X159396528Y-84186316D01*
X159396528Y-84186316D02*
X159420719Y-84162126D01*
X159420719Y-84162126D02*
X159469100Y-84137935D01*
X159469100Y-84137935D02*
X159517481Y-84137935D01*
X159638433Y-84137935D02*
X159759385Y-84476602D01*
X159880338Y-84137935D02*
X159759385Y-84476602D01*
X159759385Y-84476602D02*
X159711004Y-84597554D01*
X159711004Y-84597554D02*
X159686814Y-84621745D01*
X159686814Y-84621745D02*
X159638433Y-84645935D01*
X160291576Y-84476602D02*
X160291576Y-84210507D01*
X160291576Y-84210507D02*
X160267386Y-84162126D01*
X160267386Y-84162126D02*
X160219005Y-84137935D01*
X160219005Y-84137935D02*
X160122243Y-84137935D01*
X160122243Y-84137935D02*
X160073862Y-84162126D01*
X160291576Y-84452412D02*
X160243195Y-84476602D01*
X160243195Y-84476602D02*
X160122243Y-84476602D01*
X160122243Y-84476602D02*
X160073862Y-84452412D01*
X160073862Y-84452412D02*
X160049671Y-84404031D01*
X160049671Y-84404031D02*
X160049671Y-84355650D01*
X160049671Y-84355650D02*
X160073862Y-84307269D01*
X160073862Y-84307269D02*
X160122243Y-84283078D01*
X160122243Y-84283078D02*
X160243195Y-84283078D01*
X160243195Y-84283078D02*
X160291576Y-84258888D01*
X160533481Y-84137935D02*
X160533481Y-84476602D01*
X160533481Y-84186316D02*
X160557671Y-84162126D01*
X160557671Y-84162126D02*
X160606052Y-84137935D01*
X160606052Y-84137935D02*
X160678624Y-84137935D01*
X160678624Y-84137935D02*
X160727005Y-84162126D01*
X160727005Y-84162126D02*
X160751195Y-84210507D01*
X160751195Y-84210507D02*
X160751195Y-84476602D01*
X161355957Y-84331459D02*
X161597862Y-84331459D01*
X161307576Y-84476602D02*
X161476910Y-83968602D01*
X161476910Y-83968602D02*
X161646243Y-84476602D01*
X162033291Y-84137935D02*
X162033291Y-84549173D01*
X162033291Y-84549173D02*
X162009101Y-84597554D01*
X162009101Y-84597554D02*
X161984910Y-84621745D01*
X161984910Y-84621745D02*
X161936529Y-84645935D01*
X161936529Y-84645935D02*
X161863958Y-84645935D01*
X161863958Y-84645935D02*
X161815577Y-84621745D01*
X162033291Y-84452412D02*
X161984910Y-84476602D01*
X161984910Y-84476602D02*
X161888148Y-84476602D01*
X161888148Y-84476602D02*
X161839767Y-84452412D01*
X161839767Y-84452412D02*
X161815577Y-84428221D01*
X161815577Y-84428221D02*
X161791386Y-84379840D01*
X161791386Y-84379840D02*
X161791386Y-84234697D01*
X161791386Y-84234697D02*
X161815577Y-84186316D01*
X161815577Y-84186316D02*
X161839767Y-84162126D01*
X161839767Y-84162126D02*
X161888148Y-84137935D01*
X161888148Y-84137935D02*
X161984910Y-84137935D01*
X161984910Y-84137935D02*
X162033291Y-84162126D01*
X162492910Y-84476602D02*
X162492910Y-84210507D01*
X162492910Y-84210507D02*
X162468720Y-84162126D01*
X162468720Y-84162126D02*
X162420339Y-84137935D01*
X162420339Y-84137935D02*
X162323577Y-84137935D01*
X162323577Y-84137935D02*
X162275196Y-84162126D01*
X162492910Y-84452412D02*
X162444529Y-84476602D01*
X162444529Y-84476602D02*
X162323577Y-84476602D01*
X162323577Y-84476602D02*
X162275196Y-84452412D01*
X162275196Y-84452412D02*
X162251005Y-84404031D01*
X162251005Y-84404031D02*
X162251005Y-84355650D01*
X162251005Y-84355650D02*
X162275196Y-84307269D01*
X162275196Y-84307269D02*
X162323577Y-84283078D01*
X162323577Y-84283078D02*
X162444529Y-84283078D01*
X162444529Y-84283078D02*
X162492910Y-84258888D01*
X162734815Y-84476602D02*
X162734815Y-84137935D01*
X162734815Y-84234697D02*
X162759005Y-84186316D01*
X162759005Y-84186316D02*
X162783196Y-84162126D01*
X162783196Y-84162126D02*
X162831577Y-84137935D01*
X162831577Y-84137935D02*
X162879958Y-84137935D01*
X163000910Y-84137935D02*
X163097672Y-84476602D01*
X163097672Y-84476602D02*
X163194434Y-84234697D01*
X163194434Y-84234697D02*
X163291196Y-84476602D01*
X163291196Y-84476602D02*
X163387958Y-84137935D01*
X163799195Y-84476602D02*
X163799195Y-84210507D01*
X163799195Y-84210507D02*
X163775005Y-84162126D01*
X163775005Y-84162126D02*
X163726624Y-84137935D01*
X163726624Y-84137935D02*
X163629862Y-84137935D01*
X163629862Y-84137935D02*
X163581481Y-84162126D01*
X163799195Y-84452412D02*
X163750814Y-84476602D01*
X163750814Y-84476602D02*
X163629862Y-84476602D01*
X163629862Y-84476602D02*
X163581481Y-84452412D01*
X163581481Y-84452412D02*
X163557290Y-84404031D01*
X163557290Y-84404031D02*
X163557290Y-84355650D01*
X163557290Y-84355650D02*
X163581481Y-84307269D01*
X163581481Y-84307269D02*
X163629862Y-84283078D01*
X163629862Y-84283078D02*
X163750814Y-84283078D01*
X163750814Y-84283078D02*
X163799195Y-84258888D01*
X164113671Y-84476602D02*
X164065290Y-84452412D01*
X164065290Y-84452412D02*
X164041100Y-84404031D01*
X164041100Y-84404031D02*
X164041100Y-83968602D01*
D11*
X134784433Y-94741159D02*
X134451100Y-94264968D01*
X134213005Y-94741159D02*
X134213005Y-93741159D01*
X134213005Y-93741159D02*
X134593957Y-93741159D01*
X134593957Y-93741159D02*
X134689195Y-93788778D01*
X134689195Y-93788778D02*
X134736814Y-93836397D01*
X134736814Y-93836397D02*
X134784433Y-93931635D01*
X134784433Y-93931635D02*
X134784433Y-94074492D01*
X134784433Y-94074492D02*
X134736814Y-94169730D01*
X134736814Y-94169730D02*
X134689195Y-94217349D01*
X134689195Y-94217349D02*
X134593957Y-94264968D01*
X134593957Y-94264968D02*
X134213005Y-94264968D01*
X135736814Y-94741159D02*
X135165386Y-94741159D01*
X135451100Y-94741159D02*
X135451100Y-93741159D01*
X135451100Y-93741159D02*
X135355862Y-93884016D01*
X135355862Y-93884016D02*
X135260624Y-93979254D01*
X135260624Y-93979254D02*
X135165386Y-94026873D01*
X154915390Y-103967349D02*
X155058247Y-104014968D01*
X155058247Y-104014968D02*
X155105866Y-104062587D01*
X155105866Y-104062587D02*
X155153485Y-104157825D01*
X155153485Y-104157825D02*
X155153485Y-104300682D01*
X155153485Y-104300682D02*
X155105866Y-104395920D01*
X155105866Y-104395920D02*
X155058247Y-104443540D01*
X155058247Y-104443540D02*
X154963009Y-104491159D01*
X154963009Y-104491159D02*
X154582057Y-104491159D01*
X154582057Y-104491159D02*
X154582057Y-103491159D01*
X154582057Y-103491159D02*
X154915390Y-103491159D01*
X154915390Y-103491159D02*
X155010628Y-103538778D01*
X155010628Y-103538778D02*
X155058247Y-103586397D01*
X155058247Y-103586397D02*
X155105866Y-103681635D01*
X155105866Y-103681635D02*
X155105866Y-103776873D01*
X155105866Y-103776873D02*
X155058247Y-103872111D01*
X155058247Y-103872111D02*
X155010628Y-103919730D01*
X155010628Y-103919730D02*
X154915390Y-103967349D01*
X154915390Y-103967349D02*
X154582057Y-103967349D01*
X155439200Y-103491159D02*
X156010628Y-103491159D01*
X155724914Y-104491159D02*
X155724914Y-103491159D01*
X156296343Y-103586397D02*
X156343962Y-103538778D01*
X156343962Y-103538778D02*
X156439200Y-103491159D01*
X156439200Y-103491159D02*
X156677295Y-103491159D01*
X156677295Y-103491159D02*
X156772533Y-103538778D01*
X156772533Y-103538778D02*
X156820152Y-103586397D01*
X156820152Y-103586397D02*
X156867771Y-103681635D01*
X156867771Y-103681635D02*
X156867771Y-103776873D01*
X156867771Y-103776873D02*
X156820152Y-103919730D01*
X156820152Y-103919730D02*
X156248724Y-104491159D01*
X156248724Y-104491159D02*
X156867771Y-104491159D01*
X151784438Y-86395920D02*
X151736819Y-86443540D01*
X151736819Y-86443540D02*
X151593962Y-86491159D01*
X151593962Y-86491159D02*
X151498724Y-86491159D01*
X151498724Y-86491159D02*
X151355867Y-86443540D01*
X151355867Y-86443540D02*
X151260629Y-86348301D01*
X151260629Y-86348301D02*
X151213010Y-86253063D01*
X151213010Y-86253063D02*
X151165391Y-86062587D01*
X151165391Y-86062587D02*
X151165391Y-85919730D01*
X151165391Y-85919730D02*
X151213010Y-85729254D01*
X151213010Y-85729254D02*
X151260629Y-85634016D01*
X151260629Y-85634016D02*
X151355867Y-85538778D01*
X151355867Y-85538778D02*
X151498724Y-85491159D01*
X151498724Y-85491159D02*
X151593962Y-85491159D01*
X151593962Y-85491159D02*
X151736819Y-85538778D01*
X151736819Y-85538778D02*
X151784438Y-85586397D01*
X152689200Y-85491159D02*
X152213010Y-85491159D01*
X152213010Y-85491159D02*
X152165391Y-85967349D01*
X152165391Y-85967349D02*
X152213010Y-85919730D01*
X152213010Y-85919730D02*
X152308248Y-85872111D01*
X152308248Y-85872111D02*
X152546343Y-85872111D01*
X152546343Y-85872111D02*
X152641581Y-85919730D01*
X152641581Y-85919730D02*
X152689200Y-85967349D01*
X152689200Y-85967349D02*
X152736819Y-86062587D01*
X152736819Y-86062587D02*
X152736819Y-86300682D01*
X152736819Y-86300682D02*
X152689200Y-86395920D01*
X152689200Y-86395920D02*
X152641581Y-86443540D01*
X152641581Y-86443540D02*
X152546343Y-86491159D01*
X152546343Y-86491159D02*
X152308248Y-86491159D01*
X152308248Y-86491159D02*
X152213010Y-86443540D01*
X152213010Y-86443540D02*
X152165391Y-86395920D01*
X159165385Y-103967349D02*
X159308242Y-104014968D01*
X159308242Y-104014968D02*
X159355861Y-104062587D01*
X159355861Y-104062587D02*
X159403480Y-104157825D01*
X159403480Y-104157825D02*
X159403480Y-104300682D01*
X159403480Y-104300682D02*
X159355861Y-104395920D01*
X159355861Y-104395920D02*
X159308242Y-104443540D01*
X159308242Y-104443540D02*
X159213004Y-104491159D01*
X159213004Y-104491159D02*
X158832052Y-104491159D01*
X158832052Y-104491159D02*
X158832052Y-103491159D01*
X158832052Y-103491159D02*
X159165385Y-103491159D01*
X159165385Y-103491159D02*
X159260623Y-103538778D01*
X159260623Y-103538778D02*
X159308242Y-103586397D01*
X159308242Y-103586397D02*
X159355861Y-103681635D01*
X159355861Y-103681635D02*
X159355861Y-103776873D01*
X159355861Y-103776873D02*
X159308242Y-103872111D01*
X159308242Y-103872111D02*
X159260623Y-103919730D01*
X159260623Y-103919730D02*
X159165385Y-103967349D01*
X159165385Y-103967349D02*
X158832052Y-103967349D01*
X159689195Y-103491159D02*
X160260623Y-103491159D01*
X159974909Y-104491159D02*
X159974909Y-103491159D01*
X161117766Y-104491159D02*
X160546338Y-104491159D01*
X160832052Y-104491159D02*
X160832052Y-103491159D01*
X160832052Y-103491159D02*
X160736814Y-103634016D01*
X160736814Y-103634016D02*
X160641576Y-103729254D01*
X160641576Y-103729254D02*
X160546338Y-103776873D01*
X148884428Y-86170920D02*
X148836809Y-86218540D01*
X148836809Y-86218540D02*
X148693952Y-86266159D01*
X148693952Y-86266159D02*
X148598714Y-86266159D01*
X148598714Y-86266159D02*
X148455857Y-86218540D01*
X148455857Y-86218540D02*
X148360619Y-86123301D01*
X148360619Y-86123301D02*
X148313000Y-86028063D01*
X148313000Y-86028063D02*
X148265381Y-85837587D01*
X148265381Y-85837587D02*
X148265381Y-85694730D01*
X148265381Y-85694730D02*
X148313000Y-85504254D01*
X148313000Y-85504254D02*
X148360619Y-85409016D01*
X148360619Y-85409016D02*
X148455857Y-85313778D01*
X148455857Y-85313778D02*
X148598714Y-85266159D01*
X148598714Y-85266159D02*
X148693952Y-85266159D01*
X148693952Y-85266159D02*
X148836809Y-85313778D01*
X148836809Y-85313778D02*
X148884428Y-85361397D01*
X149741571Y-85599492D02*
X149741571Y-86266159D01*
X149503476Y-85218540D02*
X149265381Y-85932825D01*
X149265381Y-85932825D02*
X149884428Y-85932825D01*
X142284438Y-87895920D02*
X142236819Y-87943540D01*
X142236819Y-87943540D02*
X142093962Y-87991159D01*
X142093962Y-87991159D02*
X141998724Y-87991159D01*
X141998724Y-87991159D02*
X141855867Y-87943540D01*
X141855867Y-87943540D02*
X141760629Y-87848301D01*
X141760629Y-87848301D02*
X141713010Y-87753063D01*
X141713010Y-87753063D02*
X141665391Y-87562587D01*
X141665391Y-87562587D02*
X141665391Y-87419730D01*
X141665391Y-87419730D02*
X141713010Y-87229254D01*
X141713010Y-87229254D02*
X141760629Y-87134016D01*
X141760629Y-87134016D02*
X141855867Y-87038778D01*
X141855867Y-87038778D02*
X141998724Y-86991159D01*
X141998724Y-86991159D02*
X142093962Y-86991159D01*
X142093962Y-86991159D02*
X142236819Y-87038778D01*
X142236819Y-87038778D02*
X142284438Y-87086397D01*
X142617772Y-86991159D02*
X143236819Y-86991159D01*
X143236819Y-86991159D02*
X142903486Y-87372111D01*
X142903486Y-87372111D02*
X143046343Y-87372111D01*
X143046343Y-87372111D02*
X143141581Y-87419730D01*
X143141581Y-87419730D02*
X143189200Y-87467349D01*
X143189200Y-87467349D02*
X143236819Y-87562587D01*
X143236819Y-87562587D02*
X143236819Y-87800682D01*
X143236819Y-87800682D02*
X143189200Y-87895920D01*
X143189200Y-87895920D02*
X143141581Y-87943540D01*
X143141581Y-87943540D02*
X143046343Y-87991159D01*
X143046343Y-87991159D02*
X142760629Y-87991159D01*
X142760629Y-87991159D02*
X142665391Y-87943540D01*
X142665391Y-87943540D02*
X142617772Y-87895920D01*
X143034438Y-96241159D02*
X142701105Y-95764968D01*
X142463010Y-96241159D02*
X142463010Y-95241159D01*
X142463010Y-95241159D02*
X142843962Y-95241159D01*
X142843962Y-95241159D02*
X142939200Y-95288778D01*
X142939200Y-95288778D02*
X142986819Y-95336397D01*
X142986819Y-95336397D02*
X143034438Y-95431635D01*
X143034438Y-95431635D02*
X143034438Y-95574492D01*
X143034438Y-95574492D02*
X142986819Y-95669730D01*
X142986819Y-95669730D02*
X142939200Y-95717349D01*
X142939200Y-95717349D02*
X142843962Y-95764968D01*
X142843962Y-95764968D02*
X142463010Y-95764968D01*
X143891581Y-95241159D02*
X143701105Y-95241159D01*
X143701105Y-95241159D02*
X143605867Y-95288778D01*
X143605867Y-95288778D02*
X143558248Y-95336397D01*
X143558248Y-95336397D02*
X143463010Y-95479254D01*
X143463010Y-95479254D02*
X143415391Y-95669730D01*
X143415391Y-95669730D02*
X143415391Y-96050682D01*
X143415391Y-96050682D02*
X143463010Y-96145920D01*
X143463010Y-96145920D02*
X143510629Y-96193540D01*
X143510629Y-96193540D02*
X143605867Y-96241159D01*
X143605867Y-96241159D02*
X143796343Y-96241159D01*
X143796343Y-96241159D02*
X143891581Y-96193540D01*
X143891581Y-96193540D02*
X143939200Y-96145920D01*
X143939200Y-96145920D02*
X143986819Y-96050682D01*
X143986819Y-96050682D02*
X143986819Y-95812587D01*
X143986819Y-95812587D02*
X143939200Y-95717349D01*
X143939200Y-95717349D02*
X143891581Y-95669730D01*
X143891581Y-95669730D02*
X143796343Y-95622111D01*
X143796343Y-95622111D02*
X143605867Y-95622111D01*
X143605867Y-95622111D02*
X143510629Y-95669730D01*
X143510629Y-95669730D02*
X143463010Y-95717349D01*
X143463010Y-95717349D02*
X143415391Y-95812587D01*
X159784438Y-94895920D02*
X159736819Y-94943540D01*
X159736819Y-94943540D02*
X159593962Y-94991159D01*
X159593962Y-94991159D02*
X159498724Y-94991159D01*
X159498724Y-94991159D02*
X159355867Y-94943540D01*
X159355867Y-94943540D02*
X159260629Y-94848301D01*
X159260629Y-94848301D02*
X159213010Y-94753063D01*
X159213010Y-94753063D02*
X159165391Y-94562587D01*
X159165391Y-94562587D02*
X159165391Y-94419730D01*
X159165391Y-94419730D02*
X159213010Y-94229254D01*
X159213010Y-94229254D02*
X159260629Y-94134016D01*
X159260629Y-94134016D02*
X159355867Y-94038778D01*
X159355867Y-94038778D02*
X159498724Y-93991159D01*
X159498724Y-93991159D02*
X159593962Y-93991159D01*
X159593962Y-93991159D02*
X159736819Y-94038778D01*
X159736819Y-94038778D02*
X159784438Y-94086397D01*
X160165391Y-94086397D02*
X160213010Y-94038778D01*
X160213010Y-94038778D02*
X160308248Y-93991159D01*
X160308248Y-93991159D02*
X160546343Y-93991159D01*
X160546343Y-93991159D02*
X160641581Y-94038778D01*
X160641581Y-94038778D02*
X160689200Y-94086397D01*
X160689200Y-94086397D02*
X160736819Y-94181635D01*
X160736819Y-94181635D02*
X160736819Y-94276873D01*
X160736819Y-94276873D02*
X160689200Y-94419730D01*
X160689200Y-94419730D02*
X160117772Y-94991159D01*
X160117772Y-94991159D02*
X160736819Y-94991159D01*
X158784433Y-96991159D02*
X158308243Y-96991159D01*
X158308243Y-96991159D02*
X158308243Y-95991159D01*
X159641576Y-96991159D02*
X159070148Y-96991159D01*
X159355862Y-96991159D02*
X159355862Y-95991159D01*
X159355862Y-95991159D02*
X159260624Y-96134016D01*
X159260624Y-96134016D02*
X159165386Y-96229254D01*
X159165386Y-96229254D02*
X159070148Y-96276873D01*
X150784433Y-99395920D02*
X150736814Y-99443540D01*
X150736814Y-99443540D02*
X150593957Y-99491159D01*
X150593957Y-99491159D02*
X150498719Y-99491159D01*
X150498719Y-99491159D02*
X150355862Y-99443540D01*
X150355862Y-99443540D02*
X150260624Y-99348301D01*
X150260624Y-99348301D02*
X150213005Y-99253063D01*
X150213005Y-99253063D02*
X150165386Y-99062587D01*
X150165386Y-99062587D02*
X150165386Y-98919730D01*
X150165386Y-98919730D02*
X150213005Y-98729254D01*
X150213005Y-98729254D02*
X150260624Y-98634016D01*
X150260624Y-98634016D02*
X150355862Y-98538778D01*
X150355862Y-98538778D02*
X150498719Y-98491159D01*
X150498719Y-98491159D02*
X150593957Y-98491159D01*
X150593957Y-98491159D02*
X150736814Y-98538778D01*
X150736814Y-98538778D02*
X150784433Y-98586397D01*
X151736814Y-99491159D02*
X151165386Y-99491159D01*
X151451100Y-99491159D02*
X151451100Y-98491159D01*
X151451100Y-98491159D02*
X151355862Y-98634016D01*
X151355862Y-98634016D02*
X151260624Y-98729254D01*
X151260624Y-98729254D02*
X151165386Y-98776873D01*
X159784438Y-93395920D02*
X159736819Y-93443540D01*
X159736819Y-93443540D02*
X159593962Y-93491159D01*
X159593962Y-93491159D02*
X159498724Y-93491159D01*
X159498724Y-93491159D02*
X159355867Y-93443540D01*
X159355867Y-93443540D02*
X159260629Y-93348301D01*
X159260629Y-93348301D02*
X159213010Y-93253063D01*
X159213010Y-93253063D02*
X159165391Y-93062587D01*
X159165391Y-93062587D02*
X159165391Y-92919730D01*
X159165391Y-92919730D02*
X159213010Y-92729254D01*
X159213010Y-92729254D02*
X159260629Y-92634016D01*
X159260629Y-92634016D02*
X159355867Y-92538778D01*
X159355867Y-92538778D02*
X159498724Y-92491159D01*
X159498724Y-92491159D02*
X159593962Y-92491159D01*
X159593962Y-92491159D02*
X159736819Y-92538778D01*
X159736819Y-92538778D02*
X159784438Y-92586397D01*
X160641581Y-92491159D02*
X160451105Y-92491159D01*
X160451105Y-92491159D02*
X160355867Y-92538778D01*
X160355867Y-92538778D02*
X160308248Y-92586397D01*
X160308248Y-92586397D02*
X160213010Y-92729254D01*
X160213010Y-92729254D02*
X160165391Y-92919730D01*
X160165391Y-92919730D02*
X160165391Y-93300682D01*
X160165391Y-93300682D02*
X160213010Y-93395920D01*
X160213010Y-93395920D02*
X160260629Y-93443540D01*
X160260629Y-93443540D02*
X160355867Y-93491159D01*
X160355867Y-93491159D02*
X160546343Y-93491159D01*
X160546343Y-93491159D02*
X160641581Y-93443540D01*
X160641581Y-93443540D02*
X160689200Y-93395920D01*
X160689200Y-93395920D02*
X160736819Y-93300682D01*
X160736819Y-93300682D02*
X160736819Y-93062587D01*
X160736819Y-93062587D02*
X160689200Y-92967349D01*
X160689200Y-92967349D02*
X160641581Y-92919730D01*
X160641581Y-92919730D02*
X160546343Y-92872111D01*
X160546343Y-92872111D02*
X160355867Y-92872111D01*
X160355867Y-92872111D02*
X160260629Y-92919730D01*
X160260629Y-92919730D02*
X160213010Y-92967349D01*
X160213010Y-92967349D02*
X160165391Y-93062587D01*
X145915390Y-103967349D02*
X146058247Y-104014968D01*
X146058247Y-104014968D02*
X146105866Y-104062587D01*
X146105866Y-104062587D02*
X146153485Y-104157825D01*
X146153485Y-104157825D02*
X146153485Y-104300682D01*
X146153485Y-104300682D02*
X146105866Y-104395920D01*
X146105866Y-104395920D02*
X146058247Y-104443540D01*
X146058247Y-104443540D02*
X145963009Y-104491159D01*
X145963009Y-104491159D02*
X145582057Y-104491159D01*
X145582057Y-104491159D02*
X145582057Y-103491159D01*
X145582057Y-103491159D02*
X145915390Y-103491159D01*
X145915390Y-103491159D02*
X146010628Y-103538778D01*
X146010628Y-103538778D02*
X146058247Y-103586397D01*
X146058247Y-103586397D02*
X146105866Y-103681635D01*
X146105866Y-103681635D02*
X146105866Y-103776873D01*
X146105866Y-103776873D02*
X146058247Y-103872111D01*
X146058247Y-103872111D02*
X146010628Y-103919730D01*
X146010628Y-103919730D02*
X145915390Y-103967349D01*
X145915390Y-103967349D02*
X145582057Y-103967349D01*
X146439200Y-103491159D02*
X147010628Y-103491159D01*
X146724914Y-104491159D02*
X146724914Y-103491159D01*
X147248724Y-103491159D02*
X147867771Y-103491159D01*
X147867771Y-103491159D02*
X147534438Y-103872111D01*
X147534438Y-103872111D02*
X147677295Y-103872111D01*
X147677295Y-103872111D02*
X147772533Y-103919730D01*
X147772533Y-103919730D02*
X147820152Y-103967349D01*
X147820152Y-103967349D02*
X147867771Y-104062587D01*
X147867771Y-104062587D02*
X147867771Y-104300682D01*
X147867771Y-104300682D02*
X147820152Y-104395920D01*
X147820152Y-104395920D02*
X147772533Y-104443540D01*
X147772533Y-104443540D02*
X147677295Y-104491159D01*
X147677295Y-104491159D02*
X147391581Y-104491159D01*
X147391581Y-104491159D02*
X147296343Y-104443540D01*
X147296343Y-104443540D02*
X147248724Y-104395920D01*
D14*
X150288095Y-95134819D02*
X150288095Y-95944342D01*
X150288095Y-95944342D02*
X150335714Y-96039580D01*
X150335714Y-96039580D02*
X150383333Y-96087200D01*
X150383333Y-96087200D02*
X150478571Y-96134819D01*
X150478571Y-96134819D02*
X150669047Y-96134819D01*
X150669047Y-96134819D02*
X150764285Y-96087200D01*
X150764285Y-96087200D02*
X150811904Y-96039580D01*
X150811904Y-96039580D02*
X150859523Y-95944342D01*
X150859523Y-95944342D02*
X150859523Y-95134819D01*
X151859523Y-96134819D02*
X151288095Y-96134819D01*
X151573809Y-96134819D02*
X151573809Y-95134819D01*
X151573809Y-95134819D02*
X151478571Y-95277676D01*
X151478571Y-95277676D02*
X151383333Y-95372914D01*
X151383333Y-95372914D02*
X151288095Y-95420533D01*
D11*
X131915390Y-104217349D02*
X132058247Y-104264968D01*
X132058247Y-104264968D02*
X132105866Y-104312587D01*
X132105866Y-104312587D02*
X132153485Y-104407825D01*
X132153485Y-104407825D02*
X132153485Y-104550682D01*
X132153485Y-104550682D02*
X132105866Y-104645920D01*
X132105866Y-104645920D02*
X132058247Y-104693540D01*
X132058247Y-104693540D02*
X131963009Y-104741159D01*
X131963009Y-104741159D02*
X131582057Y-104741159D01*
X131582057Y-104741159D02*
X131582057Y-103741159D01*
X131582057Y-103741159D02*
X131915390Y-103741159D01*
X131915390Y-103741159D02*
X132010628Y-103788778D01*
X132010628Y-103788778D02*
X132058247Y-103836397D01*
X132058247Y-103836397D02*
X132105866Y-103931635D01*
X132105866Y-103931635D02*
X132105866Y-104026873D01*
X132105866Y-104026873D02*
X132058247Y-104122111D01*
X132058247Y-104122111D02*
X132010628Y-104169730D01*
X132010628Y-104169730D02*
X131915390Y-104217349D01*
X131915390Y-104217349D02*
X131582057Y-104217349D01*
X132439200Y-103741159D02*
X133010628Y-103741159D01*
X132724914Y-104741159D02*
X132724914Y-103741159D01*
X133772533Y-104074492D02*
X133772533Y-104741159D01*
X133534438Y-103693540D02*
X133296343Y-104407825D01*
X133296343Y-104407825D02*
X133915390Y-104407825D01*
X146534428Y-102491159D02*
X146201095Y-102014968D01*
X145963000Y-102491159D02*
X145963000Y-101491159D01*
X145963000Y-101491159D02*
X146343952Y-101491159D01*
X146343952Y-101491159D02*
X146439190Y-101538778D01*
X146439190Y-101538778D02*
X146486809Y-101586397D01*
X146486809Y-101586397D02*
X146534428Y-101681635D01*
X146534428Y-101681635D02*
X146534428Y-101824492D01*
X146534428Y-101824492D02*
X146486809Y-101919730D01*
X146486809Y-101919730D02*
X146439190Y-101967349D01*
X146439190Y-101967349D02*
X146343952Y-102014968D01*
X146343952Y-102014968D02*
X145963000Y-102014968D01*
X146867762Y-101491159D02*
X147534428Y-101491159D01*
X147534428Y-101491159D02*
X147105857Y-102491159D01*
X145558237Y-100991159D02*
X145224904Y-100514968D01*
X144986809Y-100991159D02*
X144986809Y-99991159D01*
X144986809Y-99991159D02*
X145367761Y-99991159D01*
X145367761Y-99991159D02*
X145462999Y-100038778D01*
X145462999Y-100038778D02*
X145510618Y-100086397D01*
X145510618Y-100086397D02*
X145558237Y-100181635D01*
X145558237Y-100181635D02*
X145558237Y-100324492D01*
X145558237Y-100324492D02*
X145510618Y-100419730D01*
X145510618Y-100419730D02*
X145462999Y-100467349D01*
X145462999Y-100467349D02*
X145367761Y-100514968D01*
X145367761Y-100514968D02*
X144986809Y-100514968D01*
X146510618Y-100991159D02*
X145939190Y-100991159D01*
X146224904Y-100991159D02*
X146224904Y-99991159D01*
X146224904Y-99991159D02*
X146129666Y-100134016D01*
X146129666Y-100134016D02*
X146034428Y-100229254D01*
X146034428Y-100229254D02*
X145939190Y-100276873D01*
X146891571Y-100086397D02*
X146939190Y-100038778D01*
X146939190Y-100038778D02*
X147034428Y-99991159D01*
X147034428Y-99991159D02*
X147272523Y-99991159D01*
X147272523Y-99991159D02*
X147367761Y-100038778D01*
X147367761Y-100038778D02*
X147415380Y-100086397D01*
X147415380Y-100086397D02*
X147462999Y-100181635D01*
X147462999Y-100181635D02*
X147462999Y-100276873D01*
X147462999Y-100276873D02*
X147415380Y-100419730D01*
X147415380Y-100419730D02*
X146843952Y-100991159D01*
X146843952Y-100991159D02*
X147462999Y-100991159D01*
X154784438Y-90491159D02*
X154308248Y-90491159D01*
X154308248Y-90491159D02*
X154308248Y-89491159D01*
X155070153Y-89586397D02*
X155117772Y-89538778D01*
X155117772Y-89538778D02*
X155213010Y-89491159D01*
X155213010Y-89491159D02*
X155451105Y-89491159D01*
X155451105Y-89491159D02*
X155546343Y-89538778D01*
X155546343Y-89538778D02*
X155593962Y-89586397D01*
X155593962Y-89586397D02*
X155641581Y-89681635D01*
X155641581Y-89681635D02*
X155641581Y-89776873D01*
X155641581Y-89776873D02*
X155593962Y-89919730D01*
X155593962Y-89919730D02*
X155022534Y-90491159D01*
X155022534Y-90491159D02*
X155641581Y-90491159D01*
%TO.C,R1*%
X136021100Y-93613600D02*
X140981100Y-93613600D01*
X136021100Y-103393600D02*
X136021100Y-93613600D01*
X136021100Y-103393600D02*
X140981100Y-103393600D01*
X140981100Y-103393600D02*
X140981100Y-93613600D01*
D15*
X138626100Y-92903600D02*
G75*
G02*
X138376100Y-92903600I-125000J0D01*
G01*
X138376100Y-92903600D02*
G75*
G02*
X138626100Y-92903600I125000J0D01*
G01*
%TO.C,BT2*%
D13*
X149001100Y-125938600D02*
X149001100Y-107568600D01*
X152501100Y-104253600D02*
X153501100Y-104253600D01*
X153001100Y-104753600D02*
X153001100Y-103753600D01*
X153001100Y-129753600D02*
X153001100Y-128753600D01*
X157001100Y-125938600D02*
X157001100Y-107568600D01*
%TO.C,C5*%
D11*
X151751100Y-87553600D02*
X151751100Y-86953600D01*
%TO.C,BT1*%
D13*
X158001100Y-125938600D02*
X158001100Y-107568600D01*
X161501100Y-104253600D02*
X162501100Y-104253600D01*
X162001100Y-104753600D02*
X162001100Y-103753600D01*
X162001100Y-129753600D02*
X162001100Y-128753600D01*
X166001100Y-125938600D02*
X166001100Y-107568600D01*
%TO.C,C4*%
D11*
X148851100Y-87578600D02*
X148851100Y-86978600D01*
%TO.C,C3*%
X144251100Y-89603600D02*
X144251100Y-85903600D01*
D16*
X144251100Y-90278600D02*
X147251100Y-90278600D01*
D11*
X147251100Y-89603600D02*
X147251100Y-85903600D01*
%TO.C,C2*%
X156751100Y-94803600D02*
X156751100Y-94203600D01*
%TO.C,L1*%
D17*
X153551100Y-98453600D02*
X153551100Y-97553600D01*
X157451100Y-98453600D02*
X157451100Y-97553600D01*
%TO.C,C1*%
D11*
X151951100Y-98753600D02*
X152551100Y-98753600D01*
%TO.C,C6*%
X157201100Y-92253600D02*
X157801100Y-92253600D01*
%TO.C,BT3*%
D13*
X140001100Y-125938600D02*
X140001100Y-107568600D01*
X143501100Y-104253600D02*
X144501100Y-104253600D01*
X144001100Y-104753600D02*
X144001100Y-103753600D01*
X144001100Y-129753600D02*
X144001100Y-128753600D01*
X148001100Y-125938600D02*
X148001100Y-107568600D01*
%TO.C,U1*%
D18*
X148440000Y-89270000D02*
X148440000Y-89995000D01*
X148440000Y-94490000D02*
X148440000Y-93765000D01*
X149165000Y-89270000D02*
X148440000Y-89270000D01*
X149165000Y-94490000D02*
X148440000Y-94490000D01*
X152935000Y-89270000D02*
X153660000Y-89270000D01*
X152935000Y-94490000D02*
X153360000Y-94490000D01*
X153660000Y-89270000D02*
X153660000Y-89995000D01*
X153660000Y-93765000D02*
X153660000Y-94250000D01*
X153900000Y-94820000D02*
X153420000Y-94820000D01*
X153660000Y-94490000D01*
X153900000Y-94820000D01*
G36*
X153900000Y-94820000D02*
G01*
X153420000Y-94820000D01*
X153660000Y-94490000D01*
X153900000Y-94820000D01*
G37*
%TO.C,BT4*%
D13*
X131001100Y-125938600D02*
X131001100Y-107568600D01*
X134501100Y-104253600D02*
X135501100Y-104253600D01*
X135001100Y-104753600D02*
X135001100Y-103753600D01*
X135001100Y-129753600D02*
X135001100Y-128753600D01*
X139001100Y-125938600D02*
X139001100Y-107568600D01*
%TD*%
M02*
