%TF.GenerationSoftware,KiCad,Pcbnew,9.99.0-1490-gab75263b91*%
%TF.CreationDate,2025-06-04T22:15:06+10:00*%
%TF.ProjectId,energy_harvesting_board,656e6572-6779-45f6-9861-727665737469,rev?*%
%TF.SameCoordinates,Original*%
%TF.FileFunction,Copper,L2,Bot*%
%TF.FilePolarity,Positive*%
%FSLAX46Y46*%
G04 Gerber Fmt 4.6, Leading zero omitted, Abs format (unit mm)*
G04 Created by KiCad (PCBNEW 9.99.0-1490-gab75263b91) date 2025-06-04 22:15:06*
%MOMM*%
%LPD*%
G01*
G04 APERTURE LIST*
%TA.AperFunction,ComponentPad*%
%ADD10R,1.400000X1.400000*%
%TD*%
%TA.AperFunction,ComponentPad*%
%ADD11C,1.400000*%
%TD*%
%TA.AperFunction,HeatsinkPad*%
%ADD12C,0.500000*%
%TD*%
%TA.AperFunction,HeatsinkPad*%
%ADD13R,2.600000X2.600000*%
%TD*%
%TA.AperFunction,ComponentPad*%
%ADD14C,4.000000*%
%TD*%
%TA.AperFunction,ComponentPad*%
%ADD15R,1.650000X1.650000*%
%TD*%
%TA.AperFunction,ComponentPad*%
%ADD16C,1.650000*%
%TD*%
%TA.AperFunction,ComponentPad*%
%ADD17R,1.570000X1.570000*%
%TD*%
%TA.AperFunction,ComponentPad*%
%ADD18C,1.570000*%
%TD*%
%TA.AperFunction,ViaPad*%
%ADD19C,1.270000*%
%TD*%
%TA.AperFunction,ViaPad*%
%ADD20C,0.500000*%
%TD*%
%TA.AperFunction,Conductor*%
%ADD21C,0.300000*%
%TD*%
%TA.AperFunction,Conductor*%
%ADD22C,0.250000*%
%TD*%
%TA.AperFunction,Conductor*%
%ADD23C,0.200000*%
%TD*%
G04 APERTURE END LIST*
D10*
%TO.P,R1,1*%
%TO.N,VBUCK*%
X138501100Y-96003600D03*
D11*
%TO.P,R1,2*%
%TO.N,NetR1_2*%
X138501100Y-98503600D03*
%TO.P,R1,3*%
%TO.N,N/C*%
X138501100Y-101003600D03*
%TD*%
D12*
%TO.P,U1,29,GND*%
%TO.N,GND*%
X152100000Y-92930000D03*
X152100000Y-92230000D03*
X152100000Y-91530000D03*
X152100000Y-90830000D03*
X151400000Y-92930000D03*
X151400000Y-92230000D03*
X151400000Y-91530000D03*
X151400000Y-90830000D03*
D13*
X151050000Y-91880000D03*
D12*
X150700000Y-92930000D03*
X150700000Y-92230000D03*
X150700000Y-91530000D03*
X150700000Y-90830000D03*
X150000000Y-92930000D03*
X150000000Y-92230000D03*
X150000000Y-91530000D03*
X150000000Y-90830000D03*
%TD*%
D14*
%TO.P,,3*%
%TO.N,GND*%
X131751100Y-78753600D03*
%TD*%
%TO.P,,4*%
%TO.N,GND*%
X165251100Y-78753600D03*
%TD*%
%TO.P,,2*%
%TO.N,GND*%
X165251100Y-131253600D03*
%TD*%
%TO.P,,1*%
%TO.N,GND*%
X131751100Y-131253600D03*
%TD*%
D15*
%TO.P,J2,1*%
%TO.N,VBATT*%
X134251100Y-84003600D03*
D16*
%TO.P,J2,2*%
%TO.N,GND*%
X134251100Y-86503600D03*
%TO.P,J2,3*%
%TO.N,N/C*%
X134251100Y-89003600D03*
%TD*%
D17*
%TO.P,J1,1*%
%TO.N,VBATT*%
X142151100Y-78753600D03*
D18*
%TO.P,J1,2*%
%TO.N,HVOUT*%
X144691100Y-78753600D03*
%TO.P,J1,3*%
%TO.N,LVOUT*%
X147231100Y-78753600D03*
%TO.P,J1,4*%
%TO.N,STATUS1*%
X149771100Y-78753600D03*
%TO.P,J1,5*%
%TO.N,STATUS0*%
X152311100Y-78753600D03*
%TO.P,J1,6*%
%TO.N,GND*%
X154851100Y-78753600D03*
%TD*%
D19*
%TO.N,VBUCK*%
X160501100Y-91503600D03*
X148251100Y-100753600D03*
D20*
X160501100Y-88503600D03*
X142501100Y-92253600D03*
%TO.N,SRC_LVL_D*%
X147526100Y-92430000D03*
X147501100Y-95253600D03*
%TO.N,GND*%
X148176100Y-86278600D03*
X144751100Y-85253600D03*
X161001100Y-101003600D03*
X137751100Y-92503600D03*
X158251100Y-94503600D03*
X141501100Y-90503600D03*
X146501100Y-92626600D03*
X159751100Y-102003600D03*
X156501100Y-102503600D03*
X161251100Y-92753600D03*
X161251100Y-94253600D03*
X149751100Y-101503600D03*
X147128100Y-91253600D03*
X161251100Y-99253600D03*
X158501100Y-93003600D03*
X152251100Y-100253600D03*
X153251100Y-130253600D03*
X156501100Y-101003600D03*
X158001100Y-101003600D03*
X153251100Y-87253600D03*
X152076100Y-88428600D03*
X154751100Y-98003600D03*
X135001100Y-92503600D03*
X143001100Y-89503600D03*
X159001100Y-98253600D03*
X153501100Y-102503600D03*
X159001100Y-100253600D03*
X158001100Y-102503600D03*
X155001100Y-102503600D03*
X155501100Y-130253600D03*
X161501100Y-130253600D03*
X153501100Y-101003600D03*
X150001100Y-100003600D03*
X157001100Y-98003600D03*
X162251100Y-88503600D03*
X141251100Y-93003600D03*
X159251100Y-130253600D03*
X145751100Y-85253600D03*
X132129400Y-89209690D03*
X155001100Y-101003600D03*
X132134680Y-84000930D03*
X161251100Y-96253600D03*
X146751100Y-85253600D03*
X152251100Y-102503600D03*
X159751100Y-96253600D03*
%TO.N,ENHV*%
X143501100Y-90003600D03*
X150551100Y-88453600D03*
%TD*%
%TO.N,VBUCK*%
D21*
X150501100Y-100753600D02*
X151501100Y-101753600D01*
D22*
X138251100Y-93478600D02*
X138276100Y-93478600D01*
D21*
X160501100Y-91503600D02*
X160501100Y-88503600D01*
X160501100Y-100253600D02*
X160501100Y-91503600D01*
D22*
X139501100Y-92253600D02*
X142501100Y-92253600D01*
X138251100Y-95753600D02*
X138251100Y-93478600D01*
D21*
X148251100Y-100753600D02*
X150501100Y-100753600D01*
X151501100Y-101753600D02*
X159001100Y-101753600D01*
X159001100Y-101753600D02*
X160501100Y-100253600D01*
D22*
X138276100Y-93478600D02*
X139501100Y-92253600D01*
%TO.N,SRC_LVL_D*%
D23*
X147512970Y-92444038D02*
X147512970Y-95241730D01*
X147512970Y-95241730D02*
X147501100Y-95253600D01*
X147526100Y-92430000D02*
X147526100Y-92430908D01*
X147526100Y-92430908D02*
X147512970Y-92444038D01*
%TO.N,ENHV*%
X143501100Y-90003600D02*
X145076100Y-88428600D01*
X149976100Y-88428600D02*
X150551100Y-88428600D01*
X145076100Y-88428600D02*
X149976100Y-88428600D01*
%TD*%
%TA.AperFunction,Conductor*%
%TO.N,GND*%
G36*
X163729814Y-77017952D02*
G01*
X163744166Y-77052600D01*
X163729814Y-77087248D01*
X163552822Y-77264239D01*
X163552812Y-77264251D01*
X163372955Y-77498645D01*
X163372945Y-77498660D01*
X163225212Y-77754540D01*
X163112141Y-78027517D01*
X163112137Y-78027527D01*
X163035669Y-78312911D01*
X162997100Y-78605868D01*
X162997100Y-78626600D01*
X164005633Y-78626600D01*
X164001100Y-78655223D01*
X164001100Y-78851977D01*
X164005633Y-78880600D01*
X162997100Y-78880600D01*
X162997100Y-78901331D01*
X162997099Y-78901331D01*
X163035669Y-79194288D01*
X163112137Y-79479672D01*
X163112141Y-79479682D01*
X163225212Y-79752659D01*
X163372945Y-80008539D01*
X163372955Y-80008554D01*
X163552812Y-80242948D01*
X163552822Y-80242960D01*
X163761739Y-80451877D01*
X163761751Y-80451887D01*
X163996145Y-80631744D01*
X163996160Y-80631754D01*
X164252040Y-80779487D01*
X164525017Y-80892558D01*
X164525027Y-80892562D01*
X164810411Y-80969030D01*
X165103368Y-81007600D01*
X165124100Y-81007600D01*
X165124100Y-79999066D01*
X165152723Y-80003600D01*
X165349477Y-80003600D01*
X165378100Y-79999066D01*
X165378100Y-81007600D01*
X165398831Y-81007600D01*
X165691788Y-80969030D01*
X165977172Y-80892562D01*
X165977182Y-80892558D01*
X166250159Y-80779487D01*
X166506039Y-80631754D01*
X166506054Y-80631744D01*
X166740448Y-80451887D01*
X166740460Y-80451877D01*
X166932452Y-80259886D01*
X166967100Y-80245534D01*
X167001748Y-80259886D01*
X167016100Y-80294534D01*
X167016100Y-129712666D01*
X167001748Y-129747314D01*
X166967100Y-129761666D01*
X166932452Y-129747314D01*
X166740460Y-129555322D01*
X166740448Y-129555312D01*
X166506054Y-129375455D01*
X166506039Y-129375445D01*
X166250159Y-129227712D01*
X165977182Y-129114641D01*
X165977172Y-129114637D01*
X165691788Y-129038169D01*
X165398831Y-128999600D01*
X165378100Y-128999600D01*
X165378100Y-130008133D01*
X165349477Y-130003600D01*
X165152723Y-130003600D01*
X165124100Y-130008133D01*
X165124100Y-128999600D01*
X165103369Y-128999600D01*
X164810411Y-129038169D01*
X164525027Y-129114637D01*
X164525017Y-129114641D01*
X164252040Y-129227712D01*
X163996160Y-129375445D01*
X163996145Y-129375455D01*
X163761751Y-129555312D01*
X163761739Y-129555322D01*
X163552822Y-129764239D01*
X163552812Y-129764251D01*
X163372955Y-129998645D01*
X163372945Y-129998660D01*
X163225212Y-130254540D01*
X163112141Y-130527517D01*
X163112137Y-130527527D01*
X163035669Y-130812911D01*
X162997100Y-131105868D01*
X162997100Y-131126600D01*
X164005633Y-131126600D01*
X164001100Y-131155223D01*
X164001100Y-131351977D01*
X164005633Y-131380600D01*
X162997100Y-131380600D01*
X162997100Y-131401331D01*
X162997099Y-131401331D01*
X163035669Y-131694288D01*
X163112137Y-131979672D01*
X163112141Y-131979682D01*
X163225212Y-132252659D01*
X163372945Y-132508539D01*
X163372955Y-132508554D01*
X163552812Y-132742948D01*
X163552822Y-132742960D01*
X163729814Y-132919952D01*
X163744166Y-132954600D01*
X163729814Y-132989248D01*
X163695166Y-133003600D01*
X133307034Y-133003600D01*
X133272386Y-132989248D01*
X133258034Y-132954600D01*
X133272386Y-132919952D01*
X133449377Y-132742960D01*
X133449387Y-132742948D01*
X133629244Y-132508554D01*
X133629254Y-132508539D01*
X133776987Y-132252659D01*
X133890058Y-131979682D01*
X133890062Y-131979672D01*
X133966530Y-131694288D01*
X134005100Y-131401331D01*
X134005100Y-131380600D01*
X132996567Y-131380600D01*
X133001100Y-131351977D01*
X133001100Y-131155223D01*
X132996567Y-131126600D01*
X134005100Y-131126600D01*
X134005100Y-131105868D01*
X133966530Y-130812911D01*
X133890062Y-130527527D01*
X133890058Y-130527517D01*
X133776987Y-130254540D01*
X133629254Y-129998660D01*
X133629244Y-129998645D01*
X133449387Y-129764251D01*
X133449377Y-129764239D01*
X133240460Y-129555322D01*
X133240448Y-129555312D01*
X133006054Y-129375455D01*
X133006039Y-129375445D01*
X132750159Y-129227712D01*
X132477182Y-129114641D01*
X132477172Y-129114637D01*
X132191788Y-129038169D01*
X131898831Y-128999600D01*
X131878100Y-128999600D01*
X131878100Y-130008133D01*
X131849477Y-130003600D01*
X131652723Y-130003600D01*
X131624100Y-130008133D01*
X131624100Y-128999600D01*
X131603369Y-128999600D01*
X131310411Y-129038169D01*
X131025027Y-129114637D01*
X131025017Y-129114641D01*
X130752040Y-129227712D01*
X130496160Y-129375445D01*
X130496145Y-129375455D01*
X130261751Y-129555312D01*
X130261739Y-129555322D01*
X130099748Y-129717314D01*
X130065100Y-129731666D01*
X130030452Y-129717314D01*
X130016100Y-129682666D01*
X130016100Y-100922098D01*
X137673600Y-100922098D01*
X137673600Y-101085102D01*
X137705400Y-101244973D01*
X137767779Y-101395568D01*
X137811999Y-101461748D01*
X137848315Y-101516100D01*
X137858339Y-101531101D01*
X137973599Y-101646361D01*
X138109132Y-101736921D01*
X138259727Y-101799300D01*
X138419598Y-101831100D01*
X138419601Y-101831100D01*
X138582599Y-101831100D01*
X138582602Y-101831100D01*
X138742473Y-101799300D01*
X138893068Y-101736921D01*
X139028601Y-101646361D01*
X139143861Y-101531101D01*
X139234421Y-101395568D01*
X139296800Y-101244973D01*
X139328600Y-101085102D01*
X139328600Y-100922098D01*
X139296800Y-100762227D01*
X139262117Y-100678496D01*
X147488600Y-100678496D01*
X147488600Y-100828703D01*
X147517901Y-100976006D01*
X147517903Y-100976015D01*
X147575379Y-101114773D01*
X147575380Y-101114775D01*
X147575382Y-101114779D01*
X147658828Y-101239665D01*
X147765035Y-101345872D01*
X147889921Y-101429318D01*
X147889926Y-101429320D01*
X148028684Y-101486796D01*
X148028685Y-101486796D01*
X148028687Y-101486797D01*
X148176000Y-101516100D01*
X148326200Y-101516100D01*
X148473513Y-101486797D01*
X148612279Y-101429318D01*
X148737165Y-101345872D01*
X148843372Y-101239665D01*
X148926818Y-101114779D01*
X148948950Y-101061348D01*
X148975469Y-101034830D01*
X148994220Y-101031100D01*
X150365859Y-101031100D01*
X150400507Y-101045452D01*
X151277328Y-101922272D01*
X151277333Y-101922278D01*
X151279044Y-101923989D01*
X151330711Y-101975656D01*
X151330714Y-101975657D01*
X151330717Y-101975660D01*
X151372896Y-102000011D01*
X151393989Y-102012189D01*
X151417514Y-102018493D01*
X151464564Y-102031101D01*
X151464566Y-102031101D01*
X151540631Y-102031101D01*
X151540647Y-102031100D01*
X158961553Y-102031100D01*
X158961569Y-102031101D01*
X158964566Y-102031101D01*
X159037636Y-102031101D01*
X159072922Y-102021645D01*
X159108211Y-102012189D01*
X159171489Y-101975656D01*
X160667454Y-100479688D01*
X160667459Y-100479685D01*
X160671487Y-100475656D01*
X160671489Y-100475656D01*
X160723156Y-100423989D01*
X160759689Y-100360711D01*
X160767026Y-100333325D01*
X160778600Y-100290136D01*
X160778600Y-92246719D01*
X160792952Y-92212071D01*
X160808847Y-92201450D01*
X160862279Y-92179318D01*
X160987165Y-92095872D01*
X161093372Y-91989665D01*
X161176818Y-91864779D01*
X161234297Y-91726013D01*
X161263600Y-91578700D01*
X161263600Y-91428500D01*
X161234297Y-91281187D01*
X161231697Y-91274911D01*
X161176820Y-91142426D01*
X161176818Y-91142421D01*
X161093372Y-91017535D01*
X160987165Y-90911328D01*
X160964756Y-90896355D01*
X160945909Y-90883762D01*
X160862279Y-90827882D01*
X160862276Y-90827880D01*
X160862275Y-90827880D01*
X160808848Y-90805749D01*
X160782330Y-90779230D01*
X160778600Y-90760479D01*
X160778600Y-88780261D01*
X160792952Y-88745613D01*
X160803174Y-88735391D01*
X160803175Y-88735390D01*
X160852874Y-88649309D01*
X160866272Y-88599307D01*
X160878600Y-88553301D01*
X160878600Y-88453898D01*
X160852874Y-88357892D01*
X160852873Y-88357888D01*
X160803174Y-88271809D01*
X160732890Y-88201525D01*
X160646811Y-88151826D01*
X160646807Y-88151825D01*
X160550802Y-88126100D01*
X160550799Y-88126100D01*
X160451401Y-88126100D01*
X160451398Y-88126100D01*
X160355392Y-88151825D01*
X160355388Y-88151826D01*
X160269309Y-88201525D01*
X160269309Y-88201526D01*
X160199026Y-88271809D01*
X160199025Y-88271809D01*
X160149326Y-88357888D01*
X160149325Y-88357892D01*
X160123600Y-88453898D01*
X160123600Y-88553301D01*
X160149325Y-88649307D01*
X160149326Y-88649311D01*
X160199025Y-88735390D01*
X160209248Y-88745613D01*
X160223600Y-88780261D01*
X160223600Y-90760479D01*
X160209248Y-90795127D01*
X160193352Y-90805749D01*
X160139924Y-90827880D01*
X160015035Y-90911327D01*
X159908827Y-91017535D01*
X159825379Y-91142426D01*
X159767903Y-91281184D01*
X159767901Y-91281193D01*
X159738600Y-91428496D01*
X159738600Y-91578703D01*
X159767901Y-91726006D01*
X159767903Y-91726015D01*
X159825379Y-91864773D01*
X159825380Y-91864775D01*
X159825382Y-91864779D01*
X159908828Y-91989665D01*
X160015035Y-92095872D01*
X160139921Y-92179318D01*
X160193351Y-92201449D01*
X160219870Y-92227967D01*
X160223600Y-92246719D01*
X160223600Y-100118359D01*
X160209248Y-100153007D01*
X158900507Y-101461748D01*
X158865859Y-101476100D01*
X151636340Y-101476100D01*
X151601692Y-101461748D01*
X150671491Y-100531546D01*
X150671490Y-100531545D01*
X150671489Y-100531544D01*
X150671486Y-100531542D01*
X150671482Y-100531539D01*
X150608213Y-100495012D01*
X150608209Y-100495010D01*
X150537636Y-100476099D01*
X150537634Y-100476099D01*
X150464566Y-100476099D01*
X150461569Y-100476099D01*
X150461553Y-100476100D01*
X148994220Y-100476100D01*
X148959572Y-100461748D01*
X148948950Y-100445852D01*
X148926818Y-100392422D01*
X148926818Y-100392421D01*
X148843372Y-100267535D01*
X148737165Y-100161328D01*
X148612279Y-100077882D01*
X148612275Y-100077880D01*
X148612273Y-100077879D01*
X148473515Y-100020403D01*
X148473506Y-100020401D01*
X148326203Y-99991100D01*
X148326200Y-99991100D01*
X148176000Y-99991100D01*
X148175996Y-99991100D01*
X148028693Y-100020401D01*
X148028684Y-100020403D01*
X147889926Y-100077879D01*
X147889922Y-100077881D01*
X147889921Y-100077882D01*
X147858175Y-100099093D01*
X147765035Y-100161327D01*
X147658827Y-100267535D01*
X147575379Y-100392426D01*
X147517903Y-100531184D01*
X147517901Y-100531193D01*
X147488600Y-100678496D01*
X139262117Y-100678496D01*
X139234421Y-100611632D01*
X139143861Y-100476099D01*
X139028601Y-100360839D01*
X139028409Y-100360711D01*
X138922783Y-100290134D01*
X138893068Y-100270279D01*
X138893065Y-100270277D01*
X138893064Y-100270277D01*
X138742476Y-100207901D01*
X138742470Y-100207899D01*
X138677999Y-100195075D01*
X138582602Y-100176100D01*
X138419598Y-100176100D01*
X138340028Y-100191927D01*
X138259729Y-100207899D01*
X138259723Y-100207901D01*
X138109135Y-100270277D01*
X137973599Y-100360838D01*
X137858338Y-100476099D01*
X137767777Y-100611635D01*
X137705401Y-100762223D01*
X137705399Y-100762229D01*
X137692178Y-100828700D01*
X137673600Y-100922098D01*
X130016100Y-100922098D01*
X130016100Y-98422098D01*
X137673600Y-98422098D01*
X137673600Y-98585102D01*
X137705400Y-98744973D01*
X137767779Y-98895568D01*
X137858339Y-99031101D01*
X137973599Y-99146361D01*
X138109132Y-99236921D01*
X138259727Y-99299300D01*
X138419598Y-99331100D01*
X138419601Y-99331100D01*
X138582599Y-99331100D01*
X138582602Y-99331100D01*
X138742473Y-99299300D01*
X138893068Y-99236921D01*
X139028601Y-99146361D01*
X139143861Y-99031101D01*
X139234421Y-98895568D01*
X139296800Y-98744973D01*
X139328600Y-98585102D01*
X139328600Y-98422098D01*
X139296800Y-98262227D01*
X139234421Y-98111632D01*
X139143861Y-97976099D01*
X139028601Y-97860839D01*
X138893068Y-97770279D01*
X138893065Y-97770277D01*
X138893064Y-97770277D01*
X138742476Y-97707901D01*
X138742470Y-97707899D01*
X138677999Y-97695075D01*
X138582602Y-97676100D01*
X138419598Y-97676100D01*
X138340028Y-97691927D01*
X138259729Y-97707899D01*
X138259723Y-97707901D01*
X138109135Y-97770277D01*
X137973599Y-97860838D01*
X137858338Y-97976099D01*
X137767777Y-98111635D01*
X137705401Y-98262223D01*
X137705399Y-98262229D01*
X137689427Y-98342528D01*
X137673600Y-98422098D01*
X130016100Y-98422098D01*
X130016100Y-95291038D01*
X137673600Y-95291038D01*
X137673600Y-96716161D01*
X137680997Y-96753346D01*
X137709177Y-96795522D01*
X137730265Y-96809612D01*
X137751352Y-96823702D01*
X137788542Y-96831100D01*
X139213658Y-96831100D01*
X139250848Y-96823702D01*
X139293022Y-96795522D01*
X139321202Y-96753348D01*
X139328600Y-96716158D01*
X139328600Y-95291042D01*
X139321202Y-95253852D01*
X139293022Y-95211678D01*
X139281379Y-95203898D01*
X147123600Y-95203898D01*
X147123600Y-95303301D01*
X147149325Y-95399307D01*
X147149326Y-95399311D01*
X147199025Y-95485390D01*
X147269310Y-95555675D01*
X147300815Y-95573865D01*
X147355388Y-95605373D01*
X147355390Y-95605373D01*
X147355391Y-95605374D01*
X147379393Y-95611805D01*
X147451398Y-95631100D01*
X147451401Y-95631100D01*
X147550801Y-95631100D01*
X147598804Y-95618237D01*
X147646809Y-95605374D01*
X147732890Y-95555675D01*
X147803175Y-95485390D01*
X147852874Y-95399309D01*
X147865737Y-95351304D01*
X147878600Y-95303301D01*
X147878600Y-95203898D01*
X147852874Y-95107892D01*
X147852873Y-95107888D01*
X147803174Y-95021809D01*
X147754822Y-94973457D01*
X147740470Y-94938809D01*
X147740470Y-93364692D01*
X149744910Y-93364692D01*
X149744911Y-93364693D01*
X149805460Y-93399652D01*
X149805464Y-93399653D01*
X149933644Y-93434000D01*
X150066356Y-93434000D01*
X150066356Y-93433999D01*
X150194533Y-93399654D01*
X150194539Y-93399652D01*
X150255087Y-93364693D01*
X150255088Y-93364692D01*
X150444910Y-93364692D01*
X150444911Y-93364693D01*
X150505460Y-93399652D01*
X150505464Y-93399653D01*
X150633644Y-93434000D01*
X150766356Y-93434000D01*
X150766356Y-93433999D01*
X150894533Y-93399654D01*
X150894539Y-93399652D01*
X150955087Y-93364693D01*
X150955088Y-93364692D01*
X151144910Y-93364692D01*
X151144911Y-93364693D01*
X151205460Y-93399652D01*
X151205464Y-93399653D01*
X151333644Y-93434000D01*
X151466356Y-93434000D01*
X151466356Y-93433999D01*
X151594533Y-93399654D01*
X151594539Y-93399652D01*
X151655087Y-93364693D01*
X151655088Y-93364692D01*
X151844910Y-93364692D01*
X151844911Y-93364693D01*
X151905460Y-93399652D01*
X151905464Y-93399653D01*
X152033644Y-93434000D01*
X152166356Y-93434000D01*
X152166356Y-93433999D01*
X152294533Y-93399654D01*
X152294539Y-93399652D01*
X152355087Y-93364693D01*
X152355088Y-93364692D01*
X152100000Y-93109605D01*
X151844910Y-93364692D01*
X151655088Y-93364692D01*
X151400000Y-93109605D01*
X151144910Y-93364692D01*
X150955088Y-93364692D01*
X150700000Y-93109605D01*
X150444910Y-93364692D01*
X150255088Y-93364692D01*
X150000000Y-93109605D01*
X149744910Y-93364692D01*
X147740470Y-93364692D01*
X147740470Y-92863644D01*
X149496000Y-92863644D01*
X149496000Y-92996355D01*
X149530346Y-93124535D01*
X149530347Y-93124539D01*
X149565305Y-93185087D01*
X149565306Y-93185088D01*
X149820394Y-92930001D01*
X149820394Y-92929999D01*
X149800504Y-92910109D01*
X149900000Y-92910109D01*
X149900000Y-92949891D01*
X149915224Y-92986645D01*
X149943355Y-93014776D01*
X149980109Y-93030000D01*
X150019891Y-93030000D01*
X150056645Y-93014776D01*
X150084776Y-92986645D01*
X150100000Y-92949891D01*
X150100000Y-92930000D01*
X150179605Y-92930000D01*
X150349999Y-93100394D01*
X150520394Y-92930000D01*
X150520394Y-92929999D01*
X150500504Y-92910109D01*
X150600000Y-92910109D01*
X150600000Y-92949891D01*
X150615224Y-92986645D01*
X150643355Y-93014776D01*
X150680109Y-93030000D01*
X150719891Y-93030000D01*
X150756645Y-93014776D01*
X150784776Y-92986645D01*
X150800000Y-92949891D01*
X150800000Y-92930000D01*
X150879605Y-92930000D01*
X151049999Y-93100394D01*
X151220394Y-92930000D01*
X151220394Y-92929999D01*
X151200504Y-92910109D01*
X151300000Y-92910109D01*
X151300000Y-92949891D01*
X151315224Y-92986645D01*
X151343355Y-93014776D01*
X151380109Y-93030000D01*
X151419891Y-93030000D01*
X151456645Y-93014776D01*
X151484776Y-92986645D01*
X151500000Y-92949891D01*
X151500000Y-92930000D01*
X151579605Y-92930000D01*
X151749999Y-93100394D01*
X151920394Y-92930000D01*
X151920394Y-92929999D01*
X151900504Y-92910109D01*
X152000000Y-92910109D01*
X152000000Y-92949891D01*
X152015224Y-92986645D01*
X152043355Y-93014776D01*
X152080109Y-93030000D01*
X152119891Y-93030000D01*
X152156645Y-93014776D01*
X152184776Y-92986645D01*
X152200000Y-92949891D01*
X152200000Y-92929999D01*
X152279605Y-92929999D01*
X152279605Y-92930000D01*
X152534692Y-93185088D01*
X152534693Y-93185087D01*
X152569652Y-93124539D01*
X152569654Y-93124533D01*
X152603999Y-92996356D01*
X152604000Y-92996356D01*
X152604000Y-92863644D01*
X152569653Y-92735464D01*
X152569652Y-92735460D01*
X152534693Y-92674911D01*
X152534692Y-92674910D01*
X152279605Y-92929999D01*
X152200000Y-92929999D01*
X152200000Y-92910109D01*
X152184776Y-92873355D01*
X152156645Y-92845224D01*
X152119891Y-92830000D01*
X152080109Y-92830000D01*
X152043355Y-92845224D01*
X152015224Y-92873355D01*
X152000000Y-92910109D01*
X151900504Y-92910109D01*
X151750001Y-92759605D01*
X151750000Y-92759605D01*
X151579605Y-92930000D01*
X151500000Y-92930000D01*
X151500000Y-92910109D01*
X151484776Y-92873355D01*
X151456645Y-92845224D01*
X151419891Y-92830000D01*
X151380109Y-92830000D01*
X151343355Y-92845224D01*
X151315224Y-92873355D01*
X151300000Y-92910109D01*
X151200504Y-92910109D01*
X151050001Y-92759605D01*
X151050000Y-92759605D01*
X150879605Y-92930000D01*
X150800000Y-92930000D01*
X150800000Y-92910109D01*
X150784776Y-92873355D01*
X150756645Y-92845224D01*
X150719891Y-92830000D01*
X150680109Y-92830000D01*
X150643355Y-92845224D01*
X150615224Y-92873355D01*
X150600000Y-92910109D01*
X150500504Y-92910109D01*
X150350001Y-92759605D01*
X150350000Y-92759605D01*
X150179605Y-92930000D01*
X150100000Y-92930000D01*
X150100000Y-92910109D01*
X150084776Y-92873355D01*
X150056645Y-92845224D01*
X150019891Y-92830000D01*
X149980109Y-92830000D01*
X149943355Y-92845224D01*
X149915224Y-92873355D01*
X149900000Y-92910109D01*
X149800504Y-92910109D01*
X149565306Y-92674910D01*
X149565305Y-92674911D01*
X149530347Y-92735463D01*
X149530345Y-92735467D01*
X149496000Y-92863644D01*
X147740470Y-92863644D01*
X147740470Y-92769605D01*
X147754822Y-92734957D01*
X147756328Y-92733636D01*
X147757887Y-92732076D01*
X147757890Y-92732075D01*
X147828175Y-92661790D01*
X147875397Y-92580000D01*
X149829605Y-92580000D01*
X149999999Y-92750394D01*
X150170394Y-92580000D01*
X150529605Y-92580000D01*
X150699999Y-92750394D01*
X150870394Y-92580000D01*
X151229605Y-92580000D01*
X151399999Y-92750394D01*
X151570394Y-92580000D01*
X151929605Y-92580000D01*
X152099999Y-92750394D01*
X152270394Y-92580000D01*
X152270394Y-92579999D01*
X152100001Y-92409605D01*
X152100000Y-92409605D01*
X151929605Y-92580000D01*
X151570394Y-92580000D01*
X151570394Y-92579999D01*
X151400001Y-92409605D01*
X151400000Y-92409605D01*
X151229605Y-92580000D01*
X150870394Y-92580000D01*
X150870394Y-92579999D01*
X150700001Y-92409605D01*
X150700000Y-92409605D01*
X150529605Y-92580000D01*
X150170394Y-92580000D01*
X150170394Y-92579999D01*
X150000001Y-92409605D01*
X150000000Y-92409605D01*
X149829605Y-92580000D01*
X147875397Y-92580000D01*
X147877874Y-92575709D01*
X147902156Y-92485088D01*
X147903600Y-92479700D01*
X147903600Y-92380298D01*
X147881107Y-92296356D01*
X147877874Y-92284291D01*
X147877873Y-92284290D01*
X147877873Y-92284288D01*
X147837279Y-92213979D01*
X147828175Y-92198210D01*
X147793609Y-92163644D01*
X149496000Y-92163644D01*
X149496000Y-92296355D01*
X149530346Y-92424535D01*
X149530347Y-92424539D01*
X149565305Y-92485087D01*
X149565306Y-92485088D01*
X149820394Y-92230001D01*
X149820394Y-92229999D01*
X149800504Y-92210109D01*
X149900000Y-92210109D01*
X149900000Y-92249891D01*
X149915224Y-92286645D01*
X149943355Y-92314776D01*
X149980109Y-92330000D01*
X150019891Y-92330000D01*
X150056645Y-92314776D01*
X150084776Y-92286645D01*
X150100000Y-92249891D01*
X150100000Y-92230000D01*
X150179605Y-92230000D01*
X150349999Y-92400394D01*
X150520394Y-92230000D01*
X150520394Y-92229999D01*
X150500504Y-92210109D01*
X150600000Y-92210109D01*
X150600000Y-92249891D01*
X150615224Y-92286645D01*
X150643355Y-92314776D01*
X150680109Y-92330000D01*
X150719891Y-92330000D01*
X150756645Y-92314776D01*
X150784776Y-92286645D01*
X150800000Y-92249891D01*
X150800000Y-92230000D01*
X150879605Y-92230000D01*
X151049999Y-92400394D01*
X151220394Y-92230000D01*
X151220394Y-92229999D01*
X151200504Y-92210109D01*
X151300000Y-92210109D01*
X151300000Y-92249891D01*
X151315224Y-92286645D01*
X151343355Y-92314776D01*
X151380109Y-92330000D01*
X151419891Y-92330000D01*
X151456645Y-92314776D01*
X151484776Y-92286645D01*
X151500000Y-92249891D01*
X151500000Y-92230000D01*
X151579605Y-92230000D01*
X151749999Y-92400394D01*
X151920394Y-92230000D01*
X151920394Y-92229999D01*
X151900504Y-92210109D01*
X152000000Y-92210109D01*
X152000000Y-92249891D01*
X152015224Y-92286645D01*
X152043355Y-92314776D01*
X152080109Y-92330000D01*
X152119891Y-92330000D01*
X152156645Y-92314776D01*
X152184776Y-92286645D01*
X152200000Y-92249891D01*
X152200000Y-92229999D01*
X152279605Y-92229999D01*
X152279605Y-92230000D01*
X152534692Y-92485088D01*
X152534693Y-92485087D01*
X152569652Y-92424539D01*
X152569654Y-92424533D01*
X152603999Y-92296356D01*
X152604000Y-92296356D01*
X152604000Y-92163644D01*
X152569653Y-92035464D01*
X152569652Y-92035460D01*
X152534693Y-91974911D01*
X152534692Y-91974910D01*
X152279605Y-92229999D01*
X152200000Y-92229999D01*
X152200000Y-92210109D01*
X152184776Y-92173355D01*
X152156645Y-92145224D01*
X152119891Y-92130000D01*
X152080109Y-92130000D01*
X152043355Y-92145224D01*
X152015224Y-92173355D01*
X152000000Y-92210109D01*
X151900504Y-92210109D01*
X151750001Y-92059605D01*
X151750000Y-92059605D01*
X151579605Y-92230000D01*
X151500000Y-92230000D01*
X151500000Y-92210109D01*
X151484776Y-92173355D01*
X151456645Y-92145224D01*
X151419891Y-92130000D01*
X151380109Y-92130000D01*
X151343355Y-92145224D01*
X151315224Y-92173355D01*
X151300000Y-92210109D01*
X151200504Y-92210109D01*
X151050001Y-92059605D01*
X151050000Y-92059605D01*
X150879605Y-92230000D01*
X150800000Y-92230000D01*
X150800000Y-92210109D01*
X150784776Y-92173355D01*
X150756645Y-92145224D01*
X150719891Y-92130000D01*
X150680109Y-92130000D01*
X150643355Y-92145224D01*
X150615224Y-92173355D01*
X150600000Y-92210109D01*
X150500504Y-92210109D01*
X150350001Y-92059605D01*
X150350000Y-92059605D01*
X150179605Y-92230000D01*
X150100000Y-92230000D01*
X150100000Y-92210109D01*
X150084776Y-92173355D01*
X150056645Y-92145224D01*
X150019891Y-92130000D01*
X149980109Y-92130000D01*
X149943355Y-92145224D01*
X149915224Y-92173355D01*
X149900000Y-92210109D01*
X149800504Y-92210109D01*
X149565306Y-91974910D01*
X149565305Y-91974911D01*
X149530347Y-92035463D01*
X149530345Y-92035467D01*
X149496000Y-92163644D01*
X147793609Y-92163644D01*
X147757890Y-92127925D01*
X147671811Y-92078226D01*
X147671807Y-92078225D01*
X147575802Y-92052500D01*
X147575799Y-92052500D01*
X147476401Y-92052500D01*
X147476398Y-92052500D01*
X147380392Y-92078225D01*
X147380388Y-92078226D01*
X147294309Y-92127925D01*
X147294309Y-92127926D01*
X147224026Y-92198209D01*
X147224025Y-92198209D01*
X147174326Y-92284288D01*
X147174325Y-92284292D01*
X147148600Y-92380298D01*
X147148600Y-92479701D01*
X147174325Y-92575707D01*
X147174326Y-92575711D01*
X147224025Y-92661790D01*
X147271118Y-92708883D01*
X147285470Y-92743531D01*
X147285470Y-94915068D01*
X147271118Y-94949716D01*
X147199025Y-95021809D01*
X147149326Y-95107888D01*
X147149325Y-95107892D01*
X147123600Y-95203898D01*
X139281379Y-95203898D01*
X139250848Y-95183498D01*
X139250847Y-95183497D01*
X139250846Y-95183497D01*
X139213661Y-95176100D01*
X139213658Y-95176100D01*
X138552600Y-95176100D01*
X138517952Y-95161748D01*
X138503600Y-95127100D01*
X138503600Y-93628485D01*
X138517952Y-93593837D01*
X139591337Y-92520452D01*
X139625985Y-92506100D01*
X142199439Y-92506100D01*
X142234087Y-92520452D01*
X142269310Y-92555675D01*
X142300815Y-92573865D01*
X142355388Y-92605373D01*
X142355390Y-92605373D01*
X142355391Y-92605374D01*
X142379393Y-92611805D01*
X142451398Y-92631100D01*
X142451401Y-92631100D01*
X142550801Y-92631100D01*
X142598804Y-92618237D01*
X142646809Y-92605374D01*
X142732890Y-92555675D01*
X142803175Y-92485390D01*
X142852874Y-92399309D01*
X142865737Y-92351304D01*
X142878600Y-92303301D01*
X142878600Y-92203898D01*
X142852874Y-92107892D01*
X142852873Y-92107888D01*
X142813413Y-92039543D01*
X142803175Y-92021810D01*
X142732890Y-91951525D01*
X142647354Y-91902140D01*
X142647353Y-91902140D01*
X142646809Y-91901826D01*
X142646807Y-91901825D01*
X142565357Y-91880000D01*
X149829605Y-91880000D01*
X149999999Y-92050394D01*
X150170394Y-91880000D01*
X150529605Y-91880000D01*
X150699999Y-92050394D01*
X150870394Y-91880000D01*
X151229605Y-91880000D01*
X151399999Y-92050394D01*
X151570394Y-91880000D01*
X151929605Y-91880000D01*
X152099999Y-92050394D01*
X152270394Y-91880000D01*
X152270394Y-91879999D01*
X152100001Y-91709605D01*
X152100000Y-91709605D01*
X151929605Y-91880000D01*
X151570394Y-91880000D01*
X151570394Y-91879999D01*
X151400001Y-91709605D01*
X151400000Y-91709605D01*
X151229605Y-91880000D01*
X150870394Y-91880000D01*
X150870394Y-91879999D01*
X150700001Y-91709605D01*
X150700000Y-91709605D01*
X150529605Y-91880000D01*
X150170394Y-91880000D01*
X150170394Y-91879999D01*
X150000001Y-91709605D01*
X150000000Y-91709605D01*
X149829605Y-91880000D01*
X142565357Y-91880000D01*
X142550802Y-91876100D01*
X142550799Y-91876100D01*
X142451401Y-91876100D01*
X142451398Y-91876100D01*
X142355392Y-91901825D01*
X142355388Y-91901826D01*
X142269309Y-91951525D01*
X142269309Y-91951526D01*
X142234087Y-91986748D01*
X142199439Y-92001100D01*
X139450873Y-92001100D01*
X139373991Y-92032946D01*
X139367923Y-92035460D01*
X139358068Y-92039542D01*
X139358066Y-92039543D01*
X138157639Y-93239970D01*
X138141744Y-93250592D01*
X138108067Y-93264542D01*
X138037043Y-93335567D01*
X138037042Y-93335568D01*
X137998600Y-93428373D01*
X137998600Y-95127100D01*
X137984248Y-95161748D01*
X137949600Y-95176100D01*
X137788538Y-95176100D01*
X137751353Y-95183497D01*
X137709177Y-95211677D01*
X137680997Y-95253853D01*
X137673600Y-95291038D01*
X130016100Y-95291038D01*
X130016100Y-91463644D01*
X149496000Y-91463644D01*
X149496000Y-91596355D01*
X149530346Y-91724535D01*
X149530347Y-91724539D01*
X149565305Y-91785087D01*
X149565306Y-91785088D01*
X149820394Y-91530001D01*
X149820394Y-91529999D01*
X149800504Y-91510109D01*
X149900000Y-91510109D01*
X149900000Y-91549891D01*
X149915224Y-91586645D01*
X149943355Y-91614776D01*
X149980109Y-91630000D01*
X150019891Y-91630000D01*
X150056645Y-91614776D01*
X150084776Y-91586645D01*
X150100000Y-91549891D01*
X150100000Y-91530000D01*
X150179605Y-91530000D01*
X150349999Y-91700394D01*
X150520394Y-91530000D01*
X150520394Y-91529999D01*
X150500504Y-91510109D01*
X150600000Y-91510109D01*
X150600000Y-91549891D01*
X150615224Y-91586645D01*
X150643355Y-91614776D01*
X150680109Y-91630000D01*
X150719891Y-91630000D01*
X150756645Y-91614776D01*
X150784776Y-91586645D01*
X150800000Y-91549891D01*
X150800000Y-91530000D01*
X150879605Y-91530000D01*
X151049999Y-91700394D01*
X151220394Y-91530000D01*
X151220394Y-91529999D01*
X151200504Y-91510109D01*
X151300000Y-91510109D01*
X151300000Y-91549891D01*
X151315224Y-91586645D01*
X151343355Y-91614776D01*
X151380109Y-91630000D01*
X151419891Y-91630000D01*
X151456645Y-91614776D01*
X151484776Y-91586645D01*
X151500000Y-91549891D01*
X151500000Y-91530000D01*
X151579605Y-91530000D01*
X151749999Y-91700394D01*
X151920394Y-91530000D01*
X151920394Y-91529999D01*
X151900504Y-91510109D01*
X152000000Y-91510109D01*
X152000000Y-91549891D01*
X152015224Y-91586645D01*
X152043355Y-91614776D01*
X152080109Y-91630000D01*
X152119891Y-91630000D01*
X152156645Y-91614776D01*
X152184776Y-91586645D01*
X152200000Y-91549891D01*
X152200000Y-91529999D01*
X152279605Y-91529999D01*
X152279605Y-91530000D01*
X152534692Y-91785088D01*
X152534693Y-91785087D01*
X152569652Y-91724539D01*
X152569654Y-91724533D01*
X152603999Y-91596356D01*
X152604000Y-91596356D01*
X152604000Y-91463644D01*
X152569653Y-91335464D01*
X152569652Y-91335460D01*
X152534693Y-91274911D01*
X152534692Y-91274910D01*
X152279605Y-91529999D01*
X152200000Y-91529999D01*
X152200000Y-91510109D01*
X152184776Y-91473355D01*
X152156645Y-91445224D01*
X152119891Y-91430000D01*
X152080109Y-91430000D01*
X152043355Y-91445224D01*
X152015224Y-91473355D01*
X152000000Y-91510109D01*
X151900504Y-91510109D01*
X151750001Y-91359605D01*
X151750000Y-91359605D01*
X151579605Y-91530000D01*
X151500000Y-91530000D01*
X151500000Y-91510109D01*
X151484776Y-91473355D01*
X151456645Y-91445224D01*
X151419891Y-91430000D01*
X151380109Y-91430000D01*
X151343355Y-91445224D01*
X151315224Y-91473355D01*
X151300000Y-91510109D01*
X151200504Y-91510109D01*
X151050001Y-91359605D01*
X151050000Y-91359605D01*
X150879605Y-91530000D01*
X150800000Y-91530000D01*
X150800000Y-91510109D01*
X150784776Y-91473355D01*
X150756645Y-91445224D01*
X150719891Y-91430000D01*
X150680109Y-91430000D01*
X150643355Y-91445224D01*
X150615224Y-91473355D01*
X150600000Y-91510109D01*
X150500504Y-91510109D01*
X150350001Y-91359605D01*
X150350000Y-91359605D01*
X150179605Y-91530000D01*
X150100000Y-91530000D01*
X150100000Y-91510109D01*
X150084776Y-91473355D01*
X150056645Y-91445224D01*
X150019891Y-91430000D01*
X149980109Y-91430000D01*
X149943355Y-91445224D01*
X149915224Y-91473355D01*
X149900000Y-91510109D01*
X149800504Y-91510109D01*
X149565306Y-91274910D01*
X149565305Y-91274911D01*
X149530347Y-91335463D01*
X149530345Y-91335467D01*
X149496000Y-91463644D01*
X130016100Y-91463644D01*
X130016100Y-91180000D01*
X149829605Y-91180000D01*
X149999999Y-91350394D01*
X150170394Y-91180000D01*
X150529605Y-91180000D01*
X150699999Y-91350394D01*
X150870394Y-91180000D01*
X151229605Y-91180000D01*
X151399999Y-91350394D01*
X151570394Y-91180000D01*
X151929605Y-91180000D01*
X152099999Y-91350394D01*
X152270394Y-91180000D01*
X152270394Y-91179999D01*
X152100001Y-91009605D01*
X152100000Y-91009605D01*
X151929605Y-91180000D01*
X151570394Y-91180000D01*
X151570394Y-91179999D01*
X151400001Y-91009605D01*
X151400000Y-91009605D01*
X151229605Y-91180000D01*
X150870394Y-91180000D01*
X150870394Y-91179999D01*
X150700001Y-91009605D01*
X150700000Y-91009605D01*
X150529605Y-91180000D01*
X150170394Y-91180000D01*
X150170394Y-91179999D01*
X150000001Y-91009605D01*
X150000000Y-91009605D01*
X149829605Y-91180000D01*
X130016100Y-91180000D01*
X130016100Y-90763644D01*
X149496000Y-90763644D01*
X149496000Y-90896355D01*
X149530346Y-91024535D01*
X149530347Y-91024539D01*
X149565305Y-91085087D01*
X149565306Y-91085088D01*
X149820394Y-90830001D01*
X149820394Y-90829999D01*
X149800504Y-90810109D01*
X149900000Y-90810109D01*
X149900000Y-90849891D01*
X149915224Y-90886645D01*
X149943355Y-90914776D01*
X149980109Y-90930000D01*
X150019891Y-90930000D01*
X150056645Y-90914776D01*
X150084776Y-90886645D01*
X150100000Y-90849891D01*
X150100000Y-90830000D01*
X150179605Y-90830000D01*
X150349999Y-91000394D01*
X150520394Y-90830000D01*
X150520394Y-90829999D01*
X150500504Y-90810109D01*
X150600000Y-90810109D01*
X150600000Y-90849891D01*
X150615224Y-90886645D01*
X150643355Y-90914776D01*
X150680109Y-90930000D01*
X150719891Y-90930000D01*
X150756645Y-90914776D01*
X150784776Y-90886645D01*
X150800000Y-90849891D01*
X150800000Y-90830000D01*
X150879605Y-90830000D01*
X151049999Y-91000394D01*
X151220394Y-90830000D01*
X151220394Y-90829999D01*
X151200504Y-90810109D01*
X151300000Y-90810109D01*
X151300000Y-90849891D01*
X151315224Y-90886645D01*
X151343355Y-90914776D01*
X151380109Y-90930000D01*
X151419891Y-90930000D01*
X151456645Y-90914776D01*
X151484776Y-90886645D01*
X151500000Y-90849891D01*
X151500000Y-90830000D01*
X151579605Y-90830000D01*
X151749999Y-91000394D01*
X151920394Y-90830000D01*
X151920394Y-90829999D01*
X151900504Y-90810109D01*
X152000000Y-90810109D01*
X152000000Y-90849891D01*
X152015224Y-90886645D01*
X152043355Y-90914776D01*
X152080109Y-90930000D01*
X152119891Y-90930000D01*
X152156645Y-90914776D01*
X152184776Y-90886645D01*
X152200000Y-90849891D01*
X152200000Y-90829999D01*
X152279605Y-90829999D01*
X152279605Y-90830000D01*
X152534692Y-91085088D01*
X152534693Y-91085087D01*
X152569652Y-91024539D01*
X152569654Y-91024533D01*
X152603999Y-90896356D01*
X152604000Y-90896356D01*
X152604000Y-90763644D01*
X152569653Y-90635464D01*
X152569652Y-90635460D01*
X152534693Y-90574911D01*
X152534692Y-90574910D01*
X152279605Y-90829999D01*
X152200000Y-90829999D01*
X152200000Y-90810109D01*
X152184776Y-90773355D01*
X152156645Y-90745224D01*
X152119891Y-90730000D01*
X152080109Y-90730000D01*
X152043355Y-90745224D01*
X152015224Y-90773355D01*
X152000000Y-90810109D01*
X151900504Y-90810109D01*
X151750001Y-90659605D01*
X151750000Y-90659605D01*
X151579605Y-90830000D01*
X151500000Y-90830000D01*
X151500000Y-90810109D01*
X151484776Y-90773355D01*
X151456645Y-90745224D01*
X151419891Y-90730000D01*
X151380109Y-90730000D01*
X151343355Y-90745224D01*
X151315224Y-90773355D01*
X151300000Y-90810109D01*
X151200504Y-90810109D01*
X151050001Y-90659605D01*
X151050000Y-90659605D01*
X150879605Y-90830000D01*
X150800000Y-90830000D01*
X150800000Y-90810109D01*
X150784776Y-90773355D01*
X150756645Y-90745224D01*
X150719891Y-90730000D01*
X150680109Y-90730000D01*
X150643355Y-90745224D01*
X150615224Y-90773355D01*
X150600000Y-90810109D01*
X150500504Y-90810109D01*
X150350001Y-90659605D01*
X150350000Y-90659605D01*
X150179605Y-90830000D01*
X150100000Y-90830000D01*
X150100000Y-90810109D01*
X150084776Y-90773355D01*
X150056645Y-90745224D01*
X150019891Y-90730000D01*
X149980109Y-90730000D01*
X149943355Y-90745224D01*
X149915224Y-90773355D01*
X149900000Y-90810109D01*
X149800504Y-90810109D01*
X149565306Y-90574910D01*
X149565305Y-90574911D01*
X149530347Y-90635463D01*
X149530345Y-90635467D01*
X149496000Y-90763644D01*
X130016100Y-90763644D01*
X130016100Y-90395306D01*
X149744910Y-90395306D01*
X149999999Y-90650394D01*
X150255088Y-90395306D01*
X150444910Y-90395306D01*
X150699999Y-90650394D01*
X150955088Y-90395306D01*
X151144910Y-90395306D01*
X151399999Y-90650394D01*
X151655088Y-90395306D01*
X151844910Y-90395306D01*
X152099999Y-90650394D01*
X152355088Y-90395306D01*
X152355087Y-90395305D01*
X152294539Y-90360347D01*
X152294535Y-90360346D01*
X152166356Y-90326000D01*
X152033644Y-90326000D01*
X151905467Y-90360345D01*
X151905463Y-90360347D01*
X151844911Y-90395305D01*
X151844910Y-90395306D01*
X151655088Y-90395306D01*
X151655087Y-90395305D01*
X151594539Y-90360347D01*
X151594535Y-90360346D01*
X151466356Y-90326000D01*
X151333644Y-90326000D01*
X151205467Y-90360345D01*
X151205463Y-90360347D01*
X151144911Y-90395305D01*
X151144910Y-90395306D01*
X150955088Y-90395306D01*
X150955087Y-90395305D01*
X150894539Y-90360347D01*
X150894535Y-90360346D01*
X150766356Y-90326000D01*
X150633644Y-90326000D01*
X150505467Y-90360345D01*
X150505463Y-90360347D01*
X150444911Y-90395305D01*
X150444910Y-90395306D01*
X150255088Y-90395306D01*
X150255087Y-90395305D01*
X150194539Y-90360347D01*
X150194535Y-90360346D01*
X150066356Y-90326000D01*
X149933644Y-90326000D01*
X149805467Y-90360345D01*
X149805463Y-90360347D01*
X149744911Y-90395305D01*
X149744910Y-90395306D01*
X130016100Y-90395306D01*
X130016100Y-88909781D01*
X133298600Y-88909781D01*
X133298600Y-89097418D01*
X133335201Y-89281424D01*
X133335204Y-89281434D01*
X133407005Y-89454778D01*
X133511245Y-89610784D01*
X133643916Y-89743455D01*
X133799922Y-89847695D01*
X133973266Y-89919496D01*
X133973272Y-89919497D01*
X133973275Y-89919498D01*
X134157281Y-89956099D01*
X134157284Y-89956099D01*
X134157287Y-89956100D01*
X134157288Y-89956100D01*
X134344912Y-89956100D01*
X134344913Y-89956100D01*
X134355983Y-89953898D01*
X143123600Y-89953898D01*
X143123600Y-90053301D01*
X143149325Y-90149307D01*
X143149326Y-90149311D01*
X143199025Y-90235390D01*
X143269310Y-90305675D01*
X143300815Y-90323865D01*
X143355388Y-90355373D01*
X143355390Y-90355373D01*
X143355391Y-90355374D01*
X143379393Y-90361805D01*
X143451398Y-90381100D01*
X143451401Y-90381100D01*
X143550801Y-90381100D01*
X143608877Y-90365538D01*
X143608877Y-90365537D01*
X143646809Y-90355374D01*
X143732890Y-90305675D01*
X143803175Y-90235390D01*
X143852874Y-90149309D01*
X143865737Y-90101304D01*
X143878600Y-90053301D01*
X143878600Y-89968128D01*
X143892952Y-89933480D01*
X145155981Y-88670452D01*
X145190629Y-88656100D01*
X149930847Y-88656100D01*
X150203824Y-88656100D01*
X150238472Y-88670452D01*
X150246258Y-88680598D01*
X150249025Y-88685390D01*
X150319310Y-88755675D01*
X150350815Y-88773865D01*
X150405388Y-88805373D01*
X150405390Y-88805373D01*
X150405391Y-88805374D01*
X150429393Y-88811805D01*
X150501398Y-88831100D01*
X150501401Y-88831100D01*
X150600801Y-88831100D01*
X150648804Y-88818237D01*
X150696809Y-88805374D01*
X150782890Y-88755675D01*
X150853175Y-88685390D01*
X150902874Y-88599309D01*
X150915737Y-88551304D01*
X150928600Y-88503301D01*
X150928600Y-88403898D01*
X150902874Y-88307892D01*
X150902873Y-88307888D01*
X150861216Y-88235737D01*
X150853175Y-88221810D01*
X150782890Y-88151525D01*
X150696811Y-88101826D01*
X150696807Y-88101825D01*
X150600802Y-88076100D01*
X150600799Y-88076100D01*
X150501401Y-88076100D01*
X150501398Y-88076100D01*
X150405392Y-88101825D01*
X150405388Y-88101826D01*
X150319309Y-88151525D01*
X150319309Y-88151526D01*
X150284087Y-88186748D01*
X150249439Y-88201100D01*
X145030845Y-88201100D01*
X144970493Y-88226100D01*
X144947230Y-88235735D01*
X144947229Y-88235737D01*
X143571218Y-89611748D01*
X143536570Y-89626100D01*
X143451398Y-89626100D01*
X143355392Y-89651825D01*
X143355388Y-89651826D01*
X143269309Y-89701525D01*
X143269309Y-89701526D01*
X143199026Y-89771809D01*
X143199025Y-89771809D01*
X143149326Y-89857888D01*
X143149325Y-89857892D01*
X143123600Y-89953898D01*
X134355983Y-89953898D01*
X134528934Y-89919496D01*
X134702278Y-89847695D01*
X134858284Y-89743455D01*
X134990955Y-89610784D01*
X135095195Y-89454778D01*
X135166996Y-89281434D01*
X135203600Y-89097413D01*
X135203600Y-88909787D01*
X135168911Y-88735391D01*
X135166998Y-88725775D01*
X135166995Y-88725764D01*
X135144084Y-88670452D01*
X135095195Y-88552422D01*
X134990955Y-88396416D01*
X134858284Y-88263745D01*
X134702278Y-88159505D01*
X134702275Y-88159503D01*
X134702274Y-88159503D01*
X134528935Y-88087704D01*
X134528924Y-88087701D01*
X134344918Y-88051100D01*
X134344913Y-88051100D01*
X134157287Y-88051100D01*
X134157281Y-88051100D01*
X133973275Y-88087701D01*
X133973264Y-88087704D01*
X133799925Y-88159503D01*
X133643916Y-88263744D01*
X133511244Y-88396416D01*
X133407003Y-88552425D01*
X133335204Y-88725764D01*
X133335201Y-88725775D01*
X133298600Y-88909781D01*
X130016100Y-88909781D01*
X130016100Y-86376599D01*
X133178764Y-86376599D01*
X133178765Y-86376600D01*
X133715728Y-86376600D01*
X133701100Y-86431191D01*
X133701100Y-86576009D01*
X133715728Y-86630600D01*
X133178765Y-86630600D01*
X133198668Y-86756263D01*
X133198669Y-86756266D01*
X133251151Y-86917790D01*
X133328257Y-87069118D01*
X133428086Y-87206522D01*
X133428090Y-87206527D01*
X133548173Y-87326610D01*
X133548177Y-87326613D01*
X133685581Y-87426442D01*
X133836909Y-87503548D01*
X133998433Y-87556030D01*
X133998436Y-87556031D01*
X134124099Y-87575933D01*
X134124100Y-87575933D01*
X134124100Y-87038972D01*
X134178691Y-87053600D01*
X134323509Y-87053600D01*
X134378100Y-87038972D01*
X134378100Y-87575933D01*
X134503763Y-87556031D01*
X134503766Y-87556030D01*
X134665290Y-87503548D01*
X134816618Y-87426442D01*
X134954022Y-87326613D01*
X134954027Y-87326610D01*
X135074110Y-87206527D01*
X135074113Y-87206522D01*
X135173942Y-87069118D01*
X135251048Y-86917790D01*
X135303530Y-86756266D01*
X135303531Y-86756263D01*
X135323435Y-86630600D01*
X134786472Y-86630600D01*
X134801100Y-86576009D01*
X134801100Y-86431191D01*
X134786472Y-86376600D01*
X135323435Y-86376600D01*
X135323435Y-86376599D01*
X135303531Y-86250936D01*
X135303530Y-86250933D01*
X135251048Y-86089409D01*
X135173942Y-85938081D01*
X135074113Y-85800677D01*
X135074110Y-85800673D01*
X134954027Y-85680590D01*
X134954022Y-85680586D01*
X134816618Y-85580757D01*
X134665290Y-85503651D01*
X134503766Y-85451169D01*
X134503763Y-85451168D01*
X134378100Y-85431264D01*
X134378100Y-85968227D01*
X134323509Y-85953600D01*
X134178691Y-85953600D01*
X134124100Y-85968227D01*
X134124100Y-85431264D01*
X134124099Y-85431264D01*
X133998436Y-85451168D01*
X133998433Y-85451169D01*
X133836909Y-85503651D01*
X133685581Y-85580757D01*
X133548177Y-85680586D01*
X133428086Y-85800677D01*
X133328257Y-85938081D01*
X133251151Y-86089409D01*
X133198669Y-86250933D01*
X133198668Y-86250936D01*
X133178764Y-86376599D01*
X130016100Y-86376599D01*
X130016100Y-83166038D01*
X133298600Y-83166038D01*
X133298600Y-84841161D01*
X133305997Y-84878346D01*
X133334177Y-84920522D01*
X133355265Y-84934612D01*
X133376352Y-84948702D01*
X133413542Y-84956100D01*
X135088658Y-84956100D01*
X135125848Y-84948702D01*
X135168022Y-84920522D01*
X135196202Y-84878348D01*
X135203600Y-84841158D01*
X135203600Y-83166042D01*
X135196202Y-83128852D01*
X135182112Y-83107765D01*
X135168022Y-83086677D01*
X135136461Y-83065590D01*
X135125848Y-83058498D01*
X135125847Y-83058497D01*
X135125846Y-83058497D01*
X135088661Y-83051100D01*
X135088658Y-83051100D01*
X133413542Y-83051100D01*
X133413538Y-83051100D01*
X133376353Y-83058497D01*
X133334177Y-83086677D01*
X133305997Y-83128853D01*
X133298600Y-83166038D01*
X130016100Y-83166038D01*
X130016100Y-80324534D01*
X130030452Y-80289886D01*
X130065100Y-80275534D01*
X130099748Y-80289886D01*
X130261739Y-80451877D01*
X130261751Y-80451887D01*
X130496145Y-80631744D01*
X130496160Y-80631754D01*
X130752040Y-80779487D01*
X131025017Y-80892558D01*
X131025027Y-80892562D01*
X131310411Y-80969030D01*
X131603368Y-81007600D01*
X131624100Y-81007600D01*
X131624100Y-79999066D01*
X131652723Y-80003600D01*
X131849477Y-80003600D01*
X131878100Y-79999066D01*
X131878100Y-81007600D01*
X131898831Y-81007600D01*
X132191788Y-80969030D01*
X132477172Y-80892562D01*
X132477182Y-80892558D01*
X132750159Y-80779487D01*
X133006039Y-80631754D01*
X133006054Y-80631744D01*
X133240448Y-80451887D01*
X133240460Y-80451877D01*
X133449377Y-80242960D01*
X133449387Y-80242948D01*
X133629244Y-80008554D01*
X133629254Y-80008539D01*
X133776987Y-79752659D01*
X133890058Y-79479682D01*
X133890062Y-79479672D01*
X133966530Y-79194288D01*
X134005100Y-78901331D01*
X134005100Y-78880600D01*
X132996567Y-78880600D01*
X133001100Y-78851977D01*
X133001100Y-78655223D01*
X132996567Y-78626600D01*
X134005100Y-78626600D01*
X134005100Y-78605868D01*
X133966530Y-78312911D01*
X133890062Y-78027527D01*
X133890056Y-78027511D01*
X133867223Y-77972386D01*
X133860451Y-77956038D01*
X141238600Y-77956038D01*
X141238600Y-79551161D01*
X141245997Y-79588346D01*
X141274177Y-79630522D01*
X141295265Y-79644612D01*
X141316352Y-79658702D01*
X141353542Y-79666100D01*
X142948658Y-79666100D01*
X142985848Y-79658702D01*
X143028022Y-79630522D01*
X143056202Y-79588348D01*
X143063600Y-79551158D01*
X143063600Y-78663721D01*
X143778600Y-78663721D01*
X143778600Y-78843478D01*
X143813664Y-79019756D01*
X143813667Y-79019767D01*
X143828951Y-79056666D01*
X143882453Y-79185831D01*
X143982315Y-79335285D01*
X144109415Y-79462385D01*
X144258869Y-79562247D01*
X144424934Y-79631033D01*
X144424940Y-79631034D01*
X144424943Y-79631035D01*
X144601221Y-79666099D01*
X144601224Y-79666099D01*
X144601227Y-79666100D01*
X144601228Y-79666100D01*
X144780972Y-79666100D01*
X144780973Y-79666100D01*
X144957266Y-79631033D01*
X145123331Y-79562247D01*
X145272785Y-79462385D01*
X145399885Y-79335285D01*
X145499747Y-79185831D01*
X145568533Y-79019766D01*
X145603600Y-78843473D01*
X145603600Y-78663727D01*
X145603599Y-78663721D01*
X146318600Y-78663721D01*
X146318600Y-78843478D01*
X146353664Y-79019756D01*
X146353667Y-79019767D01*
X146368951Y-79056666D01*
X146422453Y-79185831D01*
X146522315Y-79335285D01*
X146649415Y-79462385D01*
X146798869Y-79562247D01*
X146964934Y-79631033D01*
X146964940Y-79631034D01*
X146964943Y-79631035D01*
X147141221Y-79666099D01*
X147141224Y-79666099D01*
X147141227Y-79666100D01*
X147141228Y-79666100D01*
X147320972Y-79666100D01*
X147320973Y-79666100D01*
X147497266Y-79631033D01*
X147663331Y-79562247D01*
X147812785Y-79462385D01*
X147939885Y-79335285D01*
X148039747Y-79185831D01*
X148108533Y-79019766D01*
X148143600Y-78843473D01*
X148143600Y-78663727D01*
X148143599Y-78663721D01*
X148858600Y-78663721D01*
X148858600Y-78843478D01*
X148893664Y-79019756D01*
X148893667Y-79019767D01*
X148908951Y-79056666D01*
X148962453Y-79185831D01*
X149062315Y-79335285D01*
X149189415Y-79462385D01*
X149338869Y-79562247D01*
X149504934Y-79631033D01*
X149504940Y-79631034D01*
X149504943Y-79631035D01*
X149681221Y-79666099D01*
X149681224Y-79666099D01*
X149681227Y-79666100D01*
X149681228Y-79666100D01*
X149860972Y-79666100D01*
X149860973Y-79666100D01*
X150037266Y-79631033D01*
X150203331Y-79562247D01*
X150352785Y-79462385D01*
X150479885Y-79335285D01*
X150579747Y-79185831D01*
X150648533Y-79019766D01*
X150683600Y-78843473D01*
X150683600Y-78663727D01*
X150683599Y-78663721D01*
X151398600Y-78663721D01*
X151398600Y-78843478D01*
X151433664Y-79019756D01*
X151433667Y-79019767D01*
X151448951Y-79056666D01*
X151502453Y-79185831D01*
X151602315Y-79335285D01*
X151729415Y-79462385D01*
X151878869Y-79562247D01*
X152044934Y-79631033D01*
X152044940Y-79631034D01*
X152044943Y-79631035D01*
X152221221Y-79666099D01*
X152221224Y-79666099D01*
X152221227Y-79666100D01*
X152221228Y-79666100D01*
X152400972Y-79666100D01*
X152400973Y-79666100D01*
X152577266Y-79631033D01*
X152743331Y-79562247D01*
X152892785Y-79462385D01*
X153019885Y-79335285D01*
X153119747Y-79185831D01*
X153188533Y-79019766D01*
X153207667Y-78923572D01*
X153220735Y-78857878D01*
X153220736Y-78857871D01*
X153223600Y-78843471D01*
X153223600Y-78663728D01*
X153220736Y-78649329D01*
X153220736Y-78649326D01*
X153216215Y-78626599D01*
X153817006Y-78626599D01*
X153817007Y-78626600D01*
X154357138Y-78626600D01*
X154341100Y-78686457D01*
X154341100Y-78820743D01*
X154357138Y-78880600D01*
X153817006Y-78880600D01*
X153852025Y-79056655D01*
X153852028Y-79056666D01*
X153930348Y-79245747D01*
X154044055Y-79415923D01*
X154188776Y-79560644D01*
X154358952Y-79674351D01*
X154548033Y-79752671D01*
X154548044Y-79752674D01*
X154724099Y-79787693D01*
X154724100Y-79787693D01*
X154724100Y-79247561D01*
X154783957Y-79263600D01*
X154918243Y-79263600D01*
X154978100Y-79247561D01*
X154978100Y-79787693D01*
X155154155Y-79752674D01*
X155154166Y-79752671D01*
X155343247Y-79674351D01*
X155513423Y-79560644D01*
X155658144Y-79415923D01*
X155771851Y-79245747D01*
X155850171Y-79056666D01*
X155850174Y-79056655D01*
X155885194Y-78880600D01*
X155345062Y-78880600D01*
X155361100Y-78820743D01*
X155361100Y-78686457D01*
X155345062Y-78626600D01*
X155885193Y-78626600D01*
X155885193Y-78626599D01*
X155850174Y-78450544D01*
X155850171Y-78450533D01*
X155771851Y-78261452D01*
X155658144Y-78091276D01*
X155513423Y-77946555D01*
X155343247Y-77832848D01*
X155154172Y-77754530D01*
X155154154Y-77754525D01*
X154978100Y-77719505D01*
X154978100Y-78259638D01*
X154918243Y-78243600D01*
X154783957Y-78243600D01*
X154724100Y-78259638D01*
X154724100Y-77719505D01*
X154724099Y-77719505D01*
X154548045Y-77754525D01*
X154548027Y-77754530D01*
X154358952Y-77832848D01*
X154188776Y-77946555D01*
X154044055Y-78091276D01*
X153930348Y-78261452D01*
X153852028Y-78450533D01*
X153852025Y-78450544D01*
X153817006Y-78626599D01*
X153216215Y-78626599D01*
X153188535Y-78487443D01*
X153188532Y-78487432D01*
X153187973Y-78486083D01*
X153119747Y-78321369D01*
X153019885Y-78171915D01*
X152892785Y-78044815D01*
X152743331Y-77944953D01*
X152743328Y-77944951D01*
X152743327Y-77944951D01*
X152577267Y-77876167D01*
X152577256Y-77876164D01*
X152400978Y-77841100D01*
X152400973Y-77841100D01*
X152221227Y-77841100D01*
X152221221Y-77841100D01*
X152044943Y-77876164D01*
X152044932Y-77876167D01*
X151878872Y-77944951D01*
X151729415Y-78044814D01*
X151602314Y-78171915D01*
X151502451Y-78321372D01*
X151433667Y-78487432D01*
X151433664Y-78487443D01*
X151398600Y-78663721D01*
X150683599Y-78663721D01*
X150648535Y-78487443D01*
X150648532Y-78487432D01*
X150647973Y-78486083D01*
X150579747Y-78321369D01*
X150479885Y-78171915D01*
X150352785Y-78044815D01*
X150203331Y-77944953D01*
X150203328Y-77944951D01*
X150203327Y-77944951D01*
X150037267Y-77876167D01*
X150037256Y-77876164D01*
X149860978Y-77841100D01*
X149860973Y-77841100D01*
X149681227Y-77841100D01*
X149681221Y-77841100D01*
X149504943Y-77876164D01*
X149504932Y-77876167D01*
X149338872Y-77944951D01*
X149189415Y-78044814D01*
X149062314Y-78171915D01*
X148962451Y-78321372D01*
X148893667Y-78487432D01*
X148893664Y-78487443D01*
X148858600Y-78663721D01*
X148143599Y-78663721D01*
X148108535Y-78487443D01*
X148108532Y-78487432D01*
X148107973Y-78486083D01*
X148039747Y-78321369D01*
X147939885Y-78171915D01*
X147812785Y-78044815D01*
X147663331Y-77944953D01*
X147663328Y-77944951D01*
X147663327Y-77944951D01*
X147497267Y-77876167D01*
X147497256Y-77876164D01*
X147320978Y-77841100D01*
X147320973Y-77841100D01*
X147141227Y-77841100D01*
X147141221Y-77841100D01*
X146964943Y-77876164D01*
X146964932Y-77876167D01*
X146798872Y-77944951D01*
X146649415Y-78044814D01*
X146522314Y-78171915D01*
X146422451Y-78321372D01*
X146353667Y-78487432D01*
X146353664Y-78487443D01*
X146318600Y-78663721D01*
X145603599Y-78663721D01*
X145568535Y-78487443D01*
X145568532Y-78487432D01*
X145567973Y-78486083D01*
X145499747Y-78321369D01*
X145399885Y-78171915D01*
X145272785Y-78044815D01*
X145123331Y-77944953D01*
X145123328Y-77944951D01*
X145123327Y-77944951D01*
X144957267Y-77876167D01*
X144957256Y-77876164D01*
X144780978Y-77841100D01*
X144780973Y-77841100D01*
X144601227Y-77841100D01*
X144601221Y-77841100D01*
X144424943Y-77876164D01*
X144424932Y-77876167D01*
X144258872Y-77944951D01*
X144109415Y-78044814D01*
X143982314Y-78171915D01*
X143882451Y-78321372D01*
X143813667Y-78487432D01*
X143813664Y-78487443D01*
X143778600Y-78663721D01*
X143063600Y-78663721D01*
X143063600Y-77956042D01*
X143056202Y-77918852D01*
X143042112Y-77897765D01*
X143028022Y-77876677D01*
X142996461Y-77855590D01*
X142985848Y-77848498D01*
X142985847Y-77848497D01*
X142985846Y-77848497D01*
X142948661Y-77841100D01*
X142948658Y-77841100D01*
X141353542Y-77841100D01*
X141353538Y-77841100D01*
X141316353Y-77848497D01*
X141274177Y-77876677D01*
X141245997Y-77918853D01*
X141238600Y-77956038D01*
X133860451Y-77956038D01*
X133776987Y-77754540D01*
X133629254Y-77498660D01*
X133629244Y-77498645D01*
X133449387Y-77264251D01*
X133449377Y-77264239D01*
X133272386Y-77087248D01*
X133258034Y-77052600D01*
X133272386Y-77017952D01*
X133307034Y-77003600D01*
X163695166Y-77003600D01*
X163729814Y-77017952D01*
G37*
%TD.AperFunction*%
%TD*%
M02*
