%TF.GenerationSoftware,KiCad,Pcbnew,9.99.0-1490-gab75263b91*%
%TF.CreationDate,2025-06-04T22:15:06+10:00*%
%TF.ProjectId,energy_harvesting_board,656e6572-6779-45f6-9861-727665737469,rev?*%
%TF.SameCoordinates,Original*%
%TF.FileFunction,Paste,Top*%
%TF.FilePolarity,Positive*%
%FSLAX46Y46*%
G04 Gerber Fmt 4.6, Leading zero omitted, Abs format (unit mm)*
G04 Created by KiCad (PCBNEW 9.99.0-1490-gab75263b91) date 2025-06-04 22:15:06*
%MOMM*%
%LPD*%
G01*
G04 APERTURE LIST*
G04 Aperture macros list*
%AMRoundRect*
0 Rectangle with rounded corners*
0 $1 Rounding radius*
0 $2 $3 $4 $5 $6 $7 $8 $9 X,Y pos of 4 corners*
0 Add a 4 corners polygon primitive as box body*
4,1,4,$2,$3,$4,$5,$6,$7,$8,$9,$2,$3,0*
0 Add four circle primitives for the rounded corners*
1,1,$1+$1,$2,$3*
1,1,$1+$1,$4,$5*
1,1,$1+$1,$6,$7*
1,1,$1+$1,$8,$9*
0 Add four rect primitives between the rounded corners*
20,1,$1+$1,$2,$3,$4,$5,0*
20,1,$1+$1,$4,$5,$6,$7,0*
20,1,$1+$1,$6,$7,$8,$9,0*
20,1,$1+$1,$8,$9,$2,$3,0*%
G04 Aperture macros list end*
%ADD10R,7.400000X2.000000*%
%ADD11RoundRect,0.082550X-0.247650X0.297450X-0.247650X-0.297450X0.247650X-0.297450X0.247650X0.297450X0*%
%ADD12R,0.700000X0.650000*%
%ADD13R,2.200000X1.550000*%
%ADD14R,1.000000X0.800000*%
%ADD15RoundRect,0.082550X0.247650X-0.297450X0.247650X0.297450X-0.247650X0.297450X-0.247650X-0.297450X0*%
%ADD16R,3.890000X1.450000*%
%ADD17RoundRect,0.082550X-0.297450X-0.247650X0.297450X-0.247650X0.297450X0.247650X-0.297450X0.247650X0*%
%ADD18RoundRect,0.082550X0.297450X0.247650X-0.297450X0.247650X-0.297450X-0.247650X0.297450X-0.247650X0*%
%ADD19RoundRect,0.207500X0.207500X0.207500X-0.207500X0.207500X-0.207500X-0.207500X0.207500X-0.207500X0*%
%ADD20RoundRect,0.075000X0.337500X0.075000X-0.337500X0.075000X-0.337500X-0.075000X0.337500X-0.075000X0*%
%ADD21RoundRect,0.075000X0.075000X0.337500X-0.075000X0.337500X-0.075000X-0.337500X0.075000X-0.337500X0*%
%ADD22R,0.650000X0.700000*%
%ADD23R,0.800000X1.000000*%
%ADD24R,0.700000X0.950000*%
G04 APERTURE END LIST*
D10*
%TO.C,BT2*%
X153001100Y-127253600D03*
X153001100Y-106253600D03*
%TD*%
D11*
%TO.C,C5*%
X152451100Y-87253600D03*
X151051100Y-87253600D03*
%TD*%
D10*
%TO.C,BT1*%
X162001100Y-127253600D03*
X162001100Y-106253600D03*
%TD*%
D12*
%TO.C,R4*%
X143476100Y-91253600D03*
X142526100Y-91253600D03*
%TD*%
D11*
%TO.C,C4*%
X149551100Y-87278600D03*
X148151100Y-87278600D03*
%TD*%
D13*
%TO.C,C3*%
X145751100Y-89003600D03*
X145751100Y-86503600D03*
%TD*%
D14*
%TO.C,R6*%
X145251100Y-97503600D03*
X145251100Y-96003600D03*
%TD*%
D12*
%TO.C,R2*%
X159751100Y-87503600D03*
X158801100Y-87503600D03*
%TD*%
D15*
%TO.C,C2*%
X156051100Y-94503600D03*
X157451100Y-94503600D03*
%TD*%
D12*
%TO.C,R3*%
X159751100Y-89503600D03*
X158801100Y-89503600D03*
%TD*%
D16*
%TO.C,L1*%
X155501100Y-96528600D03*
X155501100Y-99478600D03*
%TD*%
D17*
%TO.C,C1*%
X152251100Y-98053600D03*
X152251100Y-99453600D03*
%TD*%
D18*
%TO.C,C6*%
X157501100Y-92953600D03*
X157501100Y-91553600D03*
%TD*%
D10*
%TO.C,BT3*%
X144001100Y-127253600D03*
X144001100Y-106253600D03*
%TD*%
D19*
%TO.C,U1*%
X152080000Y-92910000D03*
X152080000Y-91880000D03*
X152080000Y-90850000D03*
X151050000Y-92910000D03*
X151050000Y-91880000D03*
X151050000Y-90850000D03*
X150020000Y-92910000D03*
X150020000Y-91880000D03*
X150020000Y-90850000D03*
D20*
X153512500Y-93380000D03*
X153512500Y-92880000D03*
X153512500Y-92380000D03*
X153512500Y-91880000D03*
X153512500Y-91380000D03*
X153512500Y-90880000D03*
X153512500Y-90380000D03*
D21*
X152550000Y-89417500D03*
X152050000Y-89417500D03*
X151550000Y-89417500D03*
X151050000Y-89417500D03*
X150550000Y-89417500D03*
X150050000Y-89417500D03*
X149550000Y-89417500D03*
D20*
X148587500Y-90380000D03*
X148587500Y-90880000D03*
X148587500Y-91380000D03*
X148587500Y-91880000D03*
X148587500Y-92380000D03*
X148587500Y-92880000D03*
X148587500Y-93380000D03*
D21*
X149550000Y-94342500D03*
X150050000Y-94342500D03*
X150550000Y-94342500D03*
X151050000Y-94342500D03*
X151550000Y-94342500D03*
X152050000Y-94342500D03*
X152550000Y-94342500D03*
%TD*%
D10*
%TO.C,BT4*%
X135001100Y-127253600D03*
X135001100Y-106253600D03*
%TD*%
D22*
%TO.C,R13*%
X160501100Y-129278600D03*
X160501100Y-130228600D03*
%TD*%
D12*
%TO.C,R11*%
X146501100Y-93253600D03*
X145551100Y-93253600D03*
%TD*%
%TO.C,R10*%
X146476100Y-91253600D03*
X145526100Y-91253600D03*
%TD*%
D23*
%TO.C,R7*%
X149001100Y-98753600D03*
X147501100Y-98753600D03*
%TD*%
D12*
%TO.C,R8*%
X162276100Y-87503600D03*
X161326100Y-87503600D03*
%TD*%
D22*
%TO.C,R14*%
X154501100Y-129278600D03*
X154501100Y-130228600D03*
%TD*%
D12*
%TO.C,R5*%
X143476100Y-93253600D03*
X142526100Y-93253600D03*
%TD*%
D23*
%TO.C,R12*%
X147501100Y-96503600D03*
X149001100Y-96503600D03*
%TD*%
D24*
%TO.C,L2*%
X156001100Y-93078600D03*
X156001100Y-91428600D03*
%TD*%
D12*
%TO.C,R9*%
X162276100Y-89503600D03*
X161326100Y-89503600D03*
%TD*%
M02*
