%TF.GenerationSoftware,KiCad,Pcbnew,9.99.0-1490-gab75263b91*%
%TF.CreationDate,2025-06-04T22:15:06+10:00*%
%TF.ProjectId,energy_harvesting_board,656e6572-6779-45f6-9861-727665737469,rev?*%
%TF.SameCoordinates,Original*%
%TF.FileFunction,Copper,L1,Top*%
%TF.FilePolarity,Positive*%
%FSLAX46Y46*%
G04 Gerber Fmt 4.6, Leading zero omitted, Abs format (unit mm)*
G04 Created by KiCad (PCBNEW 9.99.0-1490-gab75263b91) date 2025-06-04 22:15:06*
%MOMM*%
%LPD*%
G01*
G04 APERTURE LIST*
G04 Aperture macros list*
%AMRoundRect*
0 Rectangle with rounded corners*
0 $1 Rounding radius*
0 $2 $3 $4 $5 $6 $7 $8 $9 X,Y pos of 4 corners*
0 Add a 4 corners polygon primitive as box body*
4,1,4,$2,$3,$4,$5,$6,$7,$8,$9,$2,$3,0*
0 Add four circle primitives for the rounded corners*
1,1,$1+$1,$2,$3*
1,1,$1+$1,$4,$5*
1,1,$1+$1,$6,$7*
1,1,$1+$1,$8,$9*
0 Add four rect primitives between the rounded corners*
20,1,$1+$1,$2,$3,$4,$5,0*
20,1,$1+$1,$4,$5,$6,$7,0*
20,1,$1+$1,$6,$7,$8,$9,0*
20,1,$1+$1,$8,$9,$2,$3,0*%
G04 Aperture macros list end*
%TA.AperFunction,SMDPad,CuDef*%
%ADD10C,1.270000*%
%TD*%
%TA.AperFunction,ComponentPad*%
%ADD11R,1.400000X1.400000*%
%TD*%
%TA.AperFunction,ComponentPad*%
%ADD12C,1.400000*%
%TD*%
%TA.AperFunction,SMDPad,CuDef*%
%ADD13R,7.400000X2.000000*%
%TD*%
%TA.AperFunction,SMDPad,CuDef*%
%ADD14RoundRect,0.082550X-0.247650X0.297450X-0.247650X-0.297450X0.247650X-0.297450X0.247650X0.297450X0*%
%TD*%
%TA.AperFunction,SMDPad,CuDef*%
%ADD15R,0.700000X0.650000*%
%TD*%
%TA.AperFunction,SMDPad,CuDef*%
%ADD16R,2.200000X1.550000*%
%TD*%
%TA.AperFunction,SMDPad,CuDef*%
%ADD17R,1.000000X0.800000*%
%TD*%
%TA.AperFunction,SMDPad,CuDef*%
%ADD18RoundRect,0.082550X0.247650X-0.297450X0.247650X0.297450X-0.247650X0.297450X-0.247650X-0.297450X0*%
%TD*%
%TA.AperFunction,SMDPad,CuDef*%
%ADD19R,3.890000X1.450000*%
%TD*%
%TA.AperFunction,SMDPad,CuDef*%
%ADD20RoundRect,0.082550X-0.297450X-0.247650X0.297450X-0.247650X0.297450X0.247650X-0.297450X0.247650X0*%
%TD*%
%TA.AperFunction,SMDPad,CuDef*%
%ADD21RoundRect,0.082550X0.297450X0.247650X-0.297450X0.247650X-0.297450X-0.247650X0.297450X-0.247650X0*%
%TD*%
%TA.AperFunction,SMDPad,CuDef*%
%ADD22RoundRect,0.075000X0.337500X0.075000X-0.337500X0.075000X-0.337500X-0.075000X0.337500X-0.075000X0*%
%TD*%
%TA.AperFunction,SMDPad,CuDef*%
%ADD23RoundRect,0.075000X0.075000X0.337500X-0.075000X0.337500X-0.075000X-0.337500X0.075000X-0.337500X0*%
%TD*%
%TA.AperFunction,HeatsinkPad*%
%ADD24C,0.500000*%
%TD*%
%TA.AperFunction,HeatsinkPad*%
%ADD25R,3.150000X3.150000*%
%TD*%
%TA.AperFunction,SMDPad,CuDef*%
%ADD26R,0.650000X0.700000*%
%TD*%
%TA.AperFunction,ComponentPad*%
%ADD27C,4.000000*%
%TD*%
%TA.AperFunction,SMDPad,CuDef*%
%ADD28R,0.800000X1.000000*%
%TD*%
%TA.AperFunction,SMDPad,CuDef*%
%ADD29R,0.700000X0.950000*%
%TD*%
%TA.AperFunction,ComponentPad*%
%ADD30R,1.650000X1.650000*%
%TD*%
%TA.AperFunction,ComponentPad*%
%ADD31C,1.650000*%
%TD*%
%TA.AperFunction,ComponentPad*%
%ADD32R,1.570000X1.570000*%
%TD*%
%TA.AperFunction,ComponentPad*%
%ADD33C,1.570000*%
%TD*%
%TA.AperFunction,ViaPad*%
%ADD34C,1.270000*%
%TD*%
%TA.AperFunction,ViaPad*%
%ADD35C,0.500000*%
%TD*%
%TA.AperFunction,Conductor*%
%ADD36C,0.200000*%
%TD*%
%TA.AperFunction,Conductor*%
%ADD37C,0.250000*%
%TD*%
%ADD38C,0.000000*%
%TA.AperFunction,Conductor*%
%ADD39C,0.500000*%
%TD*%
G04 APERTURE END LIST*
D10*
%TO.P,TP3,1*%
%TO.N,VBUCK*%
X165751100Y-91253600D03*
%TD*%
D11*
%TO.P,R1,1*%
%TO.N,VBUCK*%
X138501100Y-96003600D03*
D12*
%TO.P,R1,2*%
%TO.N,NetR1_2*%
X138501100Y-98503600D03*
%TO.P,R1,3*%
%TO.N,N/C*%
X138501100Y-101003600D03*
%TD*%
D13*
%TO.P,BT2,N*%
%TO.N,NetBT2_N*%
X153001100Y-127253600D03*
%TO.P,BT2,P*%
%TO.N,V_IN*%
X153001100Y-106253600D03*
%TD*%
D14*
%TO.P,C5,1*%
%TO.N,GND*%
X152451100Y-87253600D03*
%TO.P,C5,2*%
%TO.N,LVOUT*%
X151051100Y-87253600D03*
%TD*%
D13*
%TO.P,BT1,N*%
%TO.N,NetBT1_N*%
X162001100Y-127253600D03*
%TO.P,BT1,P*%
%TO.N,V_IN*%
X162001100Y-106253600D03*
%TD*%
D15*
%TO.P,R4,1*%
%TO.N,ENHV*%
X143476100Y-91253600D03*
%TO.P,R4,2*%
%TO.N,VBUCK*%
X142526100Y-91253600D03*
%TD*%
D14*
%TO.P,C4,1*%
%TO.N,HVOUT*%
X149551100Y-87278600D03*
%TO.P,C4,2*%
%TO.N,GND*%
X148151100Y-87278600D03*
%TD*%
D16*
%TO.P,C3,1*%
%TO.N,VBATT*%
X145751100Y-89003600D03*
%TO.P,C3,2*%
%TO.N,GND*%
X145751100Y-86503600D03*
%TD*%
D17*
%TO.P,R6,1*%
%TO.N,NetR1_2*%
X145251100Y-97503600D03*
%TO.P,R6,2*%
%TO.N,VBUCK*%
X145251100Y-96003600D03*
%TD*%
D15*
%TO.P,R2,1*%
%TO.N,SRC_LVL_R0*%
X159751100Y-87503600D03*
%TO.P,R2,2*%
%TO.N,VBUCK*%
X158801100Y-87503600D03*
%TD*%
D18*
%TO.P,C2,1*%
%TO.N,NetC2_1*%
X156051100Y-94503600D03*
%TO.P,C2,2*%
%TO.N,GND*%
X157451100Y-94503600D03*
%TD*%
D15*
%TO.P,R3,1*%
%TO.N,SRC_LVL_R1*%
X159751100Y-89503600D03*
%TO.P,R3,2*%
%TO.N,VBUCK*%
X158801100Y-89503600D03*
%TD*%
D19*
%TO.P,L1,1*%
%TO.N,NetL1_1*%
X155501100Y-96528600D03*
%TO.P,L1,2*%
%TO.N,NetC1_1*%
X155501100Y-99478600D03*
%TD*%
D20*
%TO.P,C1,1*%
%TO.N,NetC1_1*%
X152251100Y-98053600D03*
%TO.P,C1,2*%
%TO.N,GND*%
X152251100Y-99453600D03*
%TD*%
D21*
%TO.P,C6,1*%
%TO.N,GND*%
X157501100Y-92953600D03*
%TO.P,C6,2*%
%TO.N,VBUCK*%
X157501100Y-91553600D03*
%TD*%
D13*
%TO.P,BT3,N*%
%TO.N,GND*%
X144001100Y-127253600D03*
%TO.P,BT3,P*%
%TO.N,NetBT1_N*%
X144001100Y-106253600D03*
%TD*%
D22*
%TO.P,U1,1,BOOST*%
%TO.N,NetC2_1*%
X153512500Y-93380000D03*
%TO.P,U1,2,SWBUCK*%
%TO.N,NetL2_1*%
X153512500Y-92880000D03*
%TO.P,U1,3,BUCK*%
%TO.N,VBUCK*%
X153512500Y-92380000D03*
%TO.P,U1,4,CFG[2]*%
X153512500Y-91880000D03*
%TO.P,U1,5,CFG[1]*%
X153512500Y-91380000D03*
%TO.P,U1,6,CFG[0]*%
X153512500Y-90880000D03*
%TO.P,U1,7,SRC_LVL_RANGE[1]*%
%TO.N,SRC_LVL_R1*%
X153512500Y-90380000D03*
D23*
%TO.P,U1,8,SRC_LVL_RANGE[0]*%
%TO.N,SRC_LVL_R0*%
X152550000Y-89417500D03*
%TO.P,U1,9,FB_PRIM_D*%
%TO.N,GND*%
X152050000Y-89417500D03*
%TO.P,U1,10,FB_PRIM_U*%
X151550000Y-89417500D03*
%TO.P,U1,11,LVOUT*%
%TO.N,LVOUT*%
X151050000Y-89417500D03*
%TO.P,U1,12,ENHV*%
%TO.N,ENHV*%
X150550000Y-89417500D03*
%TO.P,U1,13,FB_HV*%
%TO.N,unconnected-(U1-FB_HV-Pad13)*%
X150050000Y-89417500D03*
%TO.P,U1,14,HVOUT*%
%TO.N,HVOUT*%
X149550000Y-89417500D03*
D22*
%TO.P,U1,15,BAL*%
%TO.N,VBATT*%
X148587500Y-90380000D03*
%TO.P,U1,16,BATT*%
X148587500Y-90880000D03*
%TO.P,U1,17,PRIM*%
%TO.N,GND*%
X148587500Y-91380000D03*
%TO.P,U1,18,ENLV*%
%TO.N,ENLV*%
X148587500Y-91880000D03*
%TO.P,U1,19,SRC_LVL_D*%
%TO.N,SRC_LVL_D*%
X148587500Y-92380000D03*
%TO.P,U1,20,STATUS[1]*%
%TO.N,STATUS1*%
X148587500Y-92880000D03*
%TO.P,U1,21,STATUS[0]*%
%TO.N,STATUS0*%
X148587500Y-93380000D03*
D23*
%TO.P,U1,22,SET_OVCH*%
%TO.N,VBUCK*%
X149550000Y-94342500D03*
%TO.P,U1,23,SET_CHRDY*%
X150050000Y-94342500D03*
%TO.P,U1,24,SRC_LVL_U*%
%TO.N,SRC_LVL_U*%
X150550000Y-94342500D03*
%TO.P,U1,25,SET_OVDIS*%
%TO.N,VBUCK*%
X151050000Y-94342500D03*
%TO.P,U1,26,SRC*%
%TO.N,V_IN*%
X151550000Y-94342500D03*
%TO.P,U1,27,BUFSRC*%
%TO.N,NetC1_1*%
X152050000Y-94342500D03*
%TO.P,U1,28,SWBOOST*%
%TO.N,NetL1_1*%
X152550000Y-94342500D03*
D24*
%TO.P,U1,29,GND*%
%TO.N,GND*%
X152100000Y-92930000D03*
X152100000Y-92230000D03*
X152100000Y-91530000D03*
X152100000Y-90830000D03*
X151400000Y-92930000D03*
X151400000Y-92230000D03*
X151400000Y-91530000D03*
X151400000Y-90830000D03*
D25*
X151050000Y-91880000D03*
D24*
X150700000Y-92930000D03*
X150700000Y-92230000D03*
X150700000Y-91530000D03*
X150700000Y-90830000D03*
X150000000Y-92930000D03*
X150000000Y-92230000D03*
X150000000Y-91530000D03*
X150000000Y-90830000D03*
%TD*%
D13*
%TO.P,BT4,N*%
%TO.N,GND*%
X135001100Y-127253600D03*
%TO.P,BT4,P*%
%TO.N,NetBT2_N*%
X135001100Y-106253600D03*
%TD*%
D26*
%TO.P,R13,1*%
%TO.N,NetBT1_N*%
X160501100Y-129278600D03*
%TO.P,R13,2*%
%TO.N,GND*%
X160501100Y-130228600D03*
%TD*%
D15*
%TO.P,R11,1*%
%TO.N,GND*%
X146501100Y-93253600D03*
%TO.P,R11,2*%
%TO.N,ENLV*%
X145551100Y-93253600D03*
%TD*%
%TO.P,R10,1*%
%TO.N,GND*%
X146476100Y-91253600D03*
%TO.P,R10,2*%
%TO.N,ENHV*%
X145526100Y-91253600D03*
%TD*%
D27*
%TO.P,,3*%
%TO.N,GND*%
X131751100Y-78753600D03*
%TD*%
D28*
%TO.P,R7,1*%
%TO.N,SRC_LVL_U*%
X149001100Y-98753600D03*
%TO.P,R7,2*%
%TO.N,NetR1_2*%
X147501100Y-98753600D03*
%TD*%
D15*
%TO.P,R8,1*%
%TO.N,GND*%
X162276100Y-87503600D03*
%TO.P,R8,2*%
%TO.N,SRC_LVL_R0*%
X161326100Y-87503600D03*
%TD*%
D26*
%TO.P,R14,1*%
%TO.N,NetBT2_N*%
X154501100Y-129278600D03*
%TO.P,R14,2*%
%TO.N,GND*%
X154501100Y-130228600D03*
%TD*%
D27*
%TO.P,,4*%
%TO.N,GND*%
X165251100Y-78753600D03*
%TD*%
D15*
%TO.P,R5,1*%
%TO.N,ENLV*%
X143476100Y-93253600D03*
%TO.P,R5,2*%
%TO.N,VBUCK*%
X142526100Y-93253600D03*
%TD*%
D27*
%TO.P,,2*%
%TO.N,GND*%
X165251100Y-131253600D03*
%TD*%
%TO.P,,1*%
%TO.N,GND*%
X131751100Y-131253600D03*
%TD*%
D28*
%TO.P,R12,1*%
%TO.N,SRC_LVL_D*%
X147501100Y-96503600D03*
%TO.P,R12,2*%
%TO.N,SRC_LVL_U*%
X149001100Y-96503600D03*
%TD*%
D29*
%TO.P,L2,1*%
%TO.N,NetL2_1*%
X156001100Y-93078600D03*
%TO.P,L2,2*%
%TO.N,VBUCK*%
X156001100Y-91428600D03*
%TD*%
D15*
%TO.P,R9,1*%
%TO.N,GND*%
X162276100Y-89503600D03*
%TO.P,R9,2*%
%TO.N,SRC_LVL_R1*%
X161326100Y-89503600D03*
%TD*%
D30*
%TO.P,J2,1*%
%TO.N,VBATT*%
X134251100Y-84003600D03*
D31*
%TO.P,J2,2*%
%TO.N,GND*%
X134251100Y-86503600D03*
%TO.P,J2,3*%
%TO.N,N/C*%
X134251100Y-89003600D03*
%TD*%
D32*
%TO.P,J1,1*%
%TO.N,VBATT*%
X142151100Y-78753600D03*
D33*
%TO.P,J1,2*%
%TO.N,HVOUT*%
X144691100Y-78753600D03*
%TO.P,J1,3*%
%TO.N,LVOUT*%
X147231100Y-78753600D03*
%TO.P,J1,4*%
%TO.N,STATUS1*%
X149771100Y-78753600D03*
%TO.P,J1,5*%
%TO.N,STATUS0*%
X152311100Y-78753600D03*
%TO.P,J1,6*%
%TO.N,GND*%
X154851100Y-78753600D03*
%TD*%
D10*
%TO.P,TP5,1*%
%TO.N,GND*%
X165751100Y-101253590D03*
%TD*%
%TO.P,TP4,1*%
%TO.N,V_IN*%
X165751100Y-98753600D03*
%TD*%
%TO.P,TP1,1*%
%TO.N,NetC1_1*%
X165751100Y-96253590D03*
%TD*%
%TO.P,TP2,1*%
%TO.N,NetC2_1*%
X165751100Y-93753600D03*
%TD*%
D34*
%TO.N,VBUCK*%
X160501100Y-91503600D03*
X148251100Y-100753600D03*
D35*
X160501100Y-88503600D03*
X142501100Y-92253600D03*
%TO.N,SRC_LVL_D*%
X147526100Y-92430000D03*
X147501100Y-95253600D03*
%TO.N,GND*%
X148176100Y-86278600D03*
X144751100Y-85253600D03*
X161001100Y-101003600D03*
X137751100Y-92503600D03*
X158251100Y-94503600D03*
X141501100Y-90503600D03*
X146501100Y-92626600D03*
X159751100Y-102003600D03*
X156501100Y-102503600D03*
X161251100Y-92753600D03*
X161251100Y-94253600D03*
X149751100Y-101503600D03*
X147128100Y-91253600D03*
X161251100Y-99253600D03*
X158501100Y-93003600D03*
X152251100Y-100253600D03*
X153251100Y-130253600D03*
X156501100Y-101003600D03*
X158001100Y-101003600D03*
X153251100Y-87253600D03*
X152076100Y-88428600D03*
X154751100Y-98003600D03*
X135001100Y-92503600D03*
X143001100Y-89503600D03*
X159001100Y-98253600D03*
X153501100Y-102503600D03*
X159001100Y-100253600D03*
X158001100Y-102503600D03*
X155001100Y-102503600D03*
X155501100Y-130253600D03*
X161501100Y-130253600D03*
X153501100Y-101003600D03*
X150001100Y-100003600D03*
X157001100Y-98003600D03*
X162251100Y-88503600D03*
X141251100Y-93003600D03*
X159251100Y-130253600D03*
X145751100Y-85253600D03*
X132129400Y-89209690D03*
X155001100Y-101003600D03*
X132134680Y-84000930D03*
X161251100Y-96253600D03*
X146751100Y-85253600D03*
X152251100Y-102503600D03*
X159751100Y-96253600D03*
%TO.N,ENHV*%
X143501100Y-90003600D03*
X150551100Y-88453600D03*
%TD*%
%TO.N,VBUCK*%
D36*
X157501100Y-91553600D02*
X158751100Y-90303600D01*
D37*
X142513600Y-93241100D02*
X142526100Y-93253600D01*
X146751100Y-97503600D02*
X147751100Y-97503600D01*
X148601100Y-95403600D02*
X149201100Y-95403600D01*
D36*
X160501100Y-91503600D02*
X160751100Y-91253600D01*
D37*
X150051100Y-95128600D02*
X150051100Y-94953600D01*
X146251100Y-96003600D02*
X146501100Y-96253600D01*
X151050000Y-94342500D02*
X151050000Y-95629700D01*
X146501100Y-97253600D02*
X146501100Y-96253600D01*
X150051100Y-94953600D02*
X150050000Y-94952500D01*
X150001100Y-96678600D02*
X150001100Y-99178600D01*
X142501100Y-92253600D02*
X142513600Y-92266100D01*
X146501100Y-97253600D02*
X146751100Y-97503600D01*
X151050000Y-95629700D02*
X150001100Y-96678600D01*
D36*
X153512500Y-92380000D02*
X153512500Y-90880000D01*
D37*
X149351100Y-95253600D02*
X149550000Y-95054700D01*
D36*
X160751100Y-91253600D02*
X165751100Y-91253600D01*
D37*
X150001100Y-99178600D02*
X148426100Y-100753600D01*
D38*
X145251100Y-96003600D02*
X145251099Y-96003600D01*
X145251099Y-96003600D01*
X145251099Y-96003600D01*
X145251099Y-96003600D01*
X145251099Y-96003600D01*
X145251099Y-96003600D01*
X145251099Y-96003600D01*
X145251099Y-96003599D01*
X145251099Y-96003599D01*
X145251099Y-96003599D01*
X145251099Y-96003599D01*
X145251099Y-96003599D01*
X145251100Y-96003599D01*
X145251100Y-96003599D01*
X145251100Y-96003599D01*
X145251100Y-96003599D01*
X145251100Y-96003599D01*
X145251100Y-96003599D01*
X145251100Y-96003599D01*
X145251100Y-96003599D01*
X145251100Y-96003599D01*
X145251100Y-96003599D01*
X145251100Y-96003599D01*
X145251100Y-96003599D01*
X145251101Y-96003599D01*
X145251101Y-96003599D01*
X145251101Y-96003599D01*
X145251101Y-96003599D01*
X145251101Y-96003599D01*
X145251101Y-96003599D01*
X145251101Y-96003600D01*
X145251101Y-96003600D01*
X145251101Y-96003600D01*
X145251101Y-96003600D01*
X145251101Y-96003600D01*
X145251101Y-96003600D01*
X145251101Y-96003600D01*
X145251100Y-96003600D01*
X145251100Y-96003600D02*
X145251101Y-96003600D01*
X145251101Y-96003600D01*
X145251101Y-96003600D01*
X145251101Y-96003600D01*
X145251101Y-96003600D01*
X145251101Y-96003600D01*
X145251101Y-96003601D01*
X145251101Y-96003601D01*
X145251101Y-96003601D01*
X145251101Y-96003601D01*
X145251101Y-96003601D01*
X145251101Y-96003601D01*
X145251101Y-96003601D01*
X145251100Y-96003601D01*
X145251100Y-96003601D01*
X145251100Y-96003601D01*
X145251100Y-96003601D01*
X145251100Y-96003601D01*
X145251100Y-96003601D01*
X145251100Y-96003601D01*
X145251100Y-96003601D01*
X145251100Y-96003601D01*
X145251100Y-96003601D01*
X145251100Y-96003601D01*
X145251100Y-96003601D01*
X145251099Y-96003601D01*
X145251099Y-96003601D01*
X145251099Y-96003601D01*
X145251099Y-96003601D01*
X145251099Y-96003601D01*
X145251099Y-96003601D01*
X145251099Y-96003600D01*
X145251099Y-96003600D01*
X145251099Y-96003600D01*
X145251099Y-96003600D01*
X145251099Y-96003600D01*
X145251099Y-96003600D01*
X145251100Y-96003600D01*
D37*
X138251100Y-96003600D02*
X145251100Y-96003600D01*
X145251100Y-96003600D02*
X146251100Y-96003600D01*
X147751100Y-97503600D02*
X148251100Y-98003600D01*
X149550000Y-95054700D02*
X149550000Y-94342500D01*
X149776100Y-95403600D02*
X150051100Y-95128600D01*
X142501100Y-91253600D02*
X142513600Y-91266100D01*
X149201100Y-95403600D02*
X149776100Y-95403600D01*
D36*
X158801100Y-88053600D02*
X158801100Y-87503600D01*
D37*
X148251100Y-95753600D02*
X148601100Y-95403600D01*
D36*
X158801100Y-88053600D02*
X159001100Y-88253600D01*
X160251100Y-88253600D02*
X160501100Y-88503600D01*
D37*
X142513600Y-93241100D02*
X142513600Y-92266100D01*
X148251100Y-100753600D02*
X148251100Y-95753600D01*
X150050000Y-94952500D02*
X150050000Y-94342500D01*
D36*
X159001100Y-88253600D02*
X160251100Y-88253600D01*
D37*
X142513600Y-92241100D02*
X142513600Y-91266100D01*
D36*
X158751100Y-90303600D02*
X158751100Y-89503600D01*
D37*
X148426100Y-100753600D02*
X148251100Y-100753600D01*
X142501100Y-92253600D02*
X142513600Y-92241100D01*
X149201100Y-95403600D02*
X149351100Y-95253600D01*
%TO.N,VBATT*%
D36*
X142001100Y-79003600D02*
X142151100Y-78853600D01*
X142151100Y-78853600D02*
X142151100Y-78753600D01*
X142151100Y-85103600D02*
X142151100Y-78853600D01*
X142001100Y-85253600D02*
X142151100Y-85103600D01*
X142151100Y-78853600D02*
X142251100Y-78753600D01*
%TO.N,V_IN*%
D39*
X151251100Y-106253600D02*
X153001100Y-106253600D01*
X151001100Y-106003600D02*
X151251100Y-106253600D01*
D36*
X162001100Y-100753600D02*
X164001100Y-98753600D01*
X162001100Y-106253600D02*
X162001100Y-100753600D01*
D38*
X165751100Y-98753600D02*
X165751099Y-98753600D01*
X165751099Y-98753600D01*
X165751099Y-98753600D01*
X165751099Y-98753600D01*
X165751099Y-98753600D01*
X165751099Y-98753600D01*
X165751099Y-98753600D01*
X165751099Y-98753599D01*
X165751099Y-98753599D01*
X165751099Y-98753599D01*
X165751099Y-98753599D01*
X165751099Y-98753599D01*
X165751100Y-98753599D01*
X165751100Y-98753599D01*
X165751100Y-98753599D01*
X165751100Y-98753599D01*
X165751100Y-98753599D01*
X165751100Y-98753599D01*
X165751100Y-98753599D01*
X165751100Y-98753599D01*
X165751100Y-98753599D01*
X165751100Y-98753599D01*
X165751100Y-98753599D01*
X165751100Y-98753599D01*
X165751101Y-98753599D01*
X165751101Y-98753599D01*
X165751101Y-98753599D01*
X165751101Y-98753599D01*
X165751101Y-98753599D01*
X165751101Y-98753599D01*
X165751101Y-98753600D01*
X165751101Y-98753600D01*
X165751101Y-98753600D01*
X165751101Y-98753600D01*
X165751101Y-98753600D01*
X165751101Y-98753600D01*
X165751101Y-98753600D01*
X165751100Y-98753600D01*
X165751100Y-98753600D02*
X165751101Y-98753600D01*
X165751101Y-98753600D01*
X165751101Y-98753600D01*
X165751101Y-98753600D01*
X165751101Y-98753600D01*
X165751101Y-98753600D01*
X165751101Y-98753601D01*
X165751101Y-98753601D01*
X165751101Y-98753601D01*
X165751101Y-98753601D01*
X165751101Y-98753601D01*
X165751101Y-98753601D01*
X165751101Y-98753601D01*
X165751100Y-98753601D01*
X165751100Y-98753601D01*
X165751100Y-98753601D01*
X165751100Y-98753601D01*
X165751100Y-98753601D01*
X165751100Y-98753601D01*
X165751100Y-98753601D01*
X165751100Y-98753601D01*
X165751100Y-98753601D01*
X165751100Y-98753601D01*
X165751100Y-98753601D01*
X165751100Y-98753601D01*
X165751099Y-98753601D01*
X165751099Y-98753601D01*
X165751099Y-98753601D01*
X165751099Y-98753601D01*
X165751099Y-98753601D01*
X165751099Y-98753601D01*
X165751099Y-98753600D01*
X165751099Y-98753600D01*
X165751099Y-98753600D01*
X165751099Y-98753600D01*
X165751099Y-98753600D01*
X165751099Y-98753600D01*
X165751100Y-98753600D01*
D36*
X164001100Y-98753600D02*
X165751100Y-98753600D01*
%TO.N,STATUS1*%
X149001100Y-77503600D02*
X138501100Y-77503600D01*
X139001100Y-91753600D02*
X141251100Y-94003600D01*
X149751100Y-78753600D02*
X149751100Y-78253600D01*
X148024700Y-92880000D02*
X148587500Y-92880000D01*
X132751100Y-83253600D02*
X132751100Y-90253600D01*
X132751100Y-90253600D02*
X134251100Y-91753600D01*
X138501100Y-77503600D02*
X132751100Y-83253600D01*
X141251100Y-94003600D02*
X146901100Y-94003600D01*
X134251100Y-91753600D02*
X139001100Y-91753600D01*
X146901100Y-94003600D02*
X148024700Y-92880000D01*
X149751100Y-78253600D02*
X149001100Y-77503600D01*
%TO.N,STATUS0*%
X146726100Y-94753600D02*
X140501100Y-94753600D01*
X131501100Y-83253600D02*
X137652100Y-77102600D01*
X148587500Y-93380000D02*
X148099700Y-93380000D01*
X134251100Y-93253600D02*
X131501100Y-90503600D01*
X148099700Y-93380000D02*
X146726100Y-94753600D01*
X140501100Y-94753600D02*
X139001100Y-93253600D01*
X139001100Y-93253600D02*
X134251100Y-93253600D01*
X137652100Y-77102600D02*
X150660100Y-77102600D01*
X131501100Y-90503600D02*
X131501100Y-83253600D01*
X150660100Y-77102600D02*
X152311100Y-78753600D01*
%TO.N,SRC_LVL_U*%
X150551100Y-95503600D02*
X150551100Y-95056000D01*
X150550000Y-95054900D02*
X150550000Y-94342500D01*
X150551100Y-95056000D02*
X150550000Y-95054900D01*
X149001100Y-98753600D02*
X149001100Y-96503600D01*
X149001100Y-96503600D02*
X149551100Y-96503600D01*
X149551100Y-96503600D02*
X150551100Y-95503600D01*
%TO.N,SRC_LVL_R1*%
X159751100Y-89503600D02*
X161326100Y-89503600D01*
X156001100Y-88753600D02*
X154376100Y-90378600D01*
X159737200Y-88989700D02*
X159501100Y-88753600D01*
X159751100Y-88989700D02*
X159737200Y-88989700D01*
X159751100Y-89503600D02*
X159751100Y-88989700D01*
X159501100Y-88753600D02*
X156001100Y-88753600D01*
X154376100Y-90378600D02*
X153426100Y-90378600D01*
%TO.N,SRC_LVL_R0*%
X153137200Y-89417500D02*
X156051100Y-86503600D01*
X156051100Y-86503600D02*
X159251100Y-86503600D01*
X159251100Y-86503600D02*
X159737200Y-86989700D01*
X152550000Y-89417500D02*
X153137200Y-89417500D01*
X159737200Y-86989700D02*
X159751100Y-86989700D01*
X159751100Y-87503600D02*
X161251100Y-87503600D01*
X159751100Y-86989700D02*
X159751100Y-87503600D01*
%TO.N,SRC_LVL_D*%
X147501100Y-96503600D02*
X147501100Y-95253600D01*
X147576100Y-92380000D02*
X147526100Y-92430000D01*
X148587500Y-92380000D02*
X147576100Y-92380000D01*
%TO.N,NetR1_2*%
X144501100Y-97503600D02*
X145251100Y-97503600D01*
X143751100Y-98253600D02*
X144501100Y-97503600D01*
X138501100Y-98253600D02*
X143751100Y-98253600D01*
X145251100Y-98253600D02*
X145251100Y-97503600D01*
X145251100Y-98253600D02*
X145751100Y-98753600D01*
X145751100Y-98753600D02*
X147501100Y-98753600D01*
%TO.N,NetC2_1*%
X156051100Y-94503600D02*
X156801100Y-95253600D01*
X163001100Y-95253600D02*
X164501100Y-93753600D01*
X164501100Y-93753600D02*
X165751100Y-93753600D01*
X156801100Y-95253600D02*
X163001100Y-95253600D01*
%TO.N,NetC1_1*%
X159526100Y-99478600D02*
X162751100Y-96253590D01*
X162751100Y-96253590D02*
X165751100Y-96253590D01*
X155501100Y-99478600D02*
X159526100Y-99478600D01*
X165751100Y-96253590D02*
X165751100Y-96253600D01*
%TO.N,GND*%
D37*
X146476100Y-91253600D02*
X147128100Y-91253600D01*
D36*
X146501100Y-93253600D02*
X146501100Y-92626600D01*
%TO.N,ENLV*%
X143476100Y-93253600D02*
X145501100Y-93253600D01*
X147755332Y-91880000D02*
X148587500Y-91880000D01*
X145551100Y-93253600D02*
X145551100Y-92797368D01*
X146294868Y-92053600D02*
X147123268Y-92053600D01*
X147123268Y-92053600D02*
X147297868Y-91879000D01*
X147297868Y-91879000D02*
X147754332Y-91879000D01*
X147754332Y-91879000D02*
X147755332Y-91880000D01*
X145551100Y-92797368D02*
X146294868Y-92053600D01*
%TO.N,ENHV*%
X143501100Y-91253600D02*
X143501100Y-90003600D01*
X150550000Y-88453600D02*
X150550000Y-89417500D01*
X143501100Y-91253600D02*
X145501100Y-91253600D01*
X150551100Y-88428600D02*
X150576100Y-88453600D01*
X150576100Y-88453600D02*
X150550000Y-88453600D01*
X143476100Y-91253600D02*
X143501100Y-91253600D01*
%TD*%
%TA.AperFunction,Conductor*%
%TO.N,NetC1_1*%
G36*
X152257718Y-93942952D02*
G01*
X152272070Y-93977600D01*
X152272070Y-94830118D01*
X153061748Y-95619807D01*
X153076100Y-95654454D01*
X153076100Y-97103610D01*
X155078951Y-99106452D01*
X155093303Y-99141100D01*
X155078951Y-99175748D01*
X154285748Y-99968952D01*
X154251100Y-99983304D01*
X154216452Y-99968952D01*
X152751100Y-98503600D01*
X152021396Y-98503600D01*
X151986748Y-98489248D01*
X151840452Y-98342952D01*
X151826100Y-98308304D01*
X151826100Y-94711807D01*
X151827042Y-94702245D01*
X151827500Y-94699943D01*
X151827500Y-93985057D01*
X151827264Y-93982662D01*
X151828826Y-93982508D01*
X151835267Y-93950329D01*
X151866475Y-93929530D01*
X151875977Y-93928600D01*
X152223070Y-93928600D01*
X152257718Y-93942952D01*
G37*
%TD.AperFunction*%
%TD*%
%TA.AperFunction,Conductor*%
%TO.N,NetBT2_N*%
G36*
X155015452Y-127267952D02*
G01*
X155486748Y-127739248D01*
X155501100Y-127773896D01*
X155501100Y-128233304D01*
X155486748Y-128267952D01*
X155001100Y-128753599D01*
X155001100Y-129483304D01*
X154986748Y-129517952D01*
X154767952Y-129736748D01*
X154733304Y-129751100D01*
X154268896Y-129751100D01*
X154234248Y-129736748D01*
X154015452Y-129517952D01*
X154001100Y-129483304D01*
X154001100Y-128753600D01*
X153515452Y-128267952D01*
X153501100Y-128233304D01*
X153501100Y-127523896D01*
X153515452Y-127489248D01*
X153736748Y-127267952D01*
X153771396Y-127253600D01*
X154980804Y-127253600D01*
X155015452Y-127267952D01*
G37*
%TD.AperFunction*%
%TD*%
%TA.AperFunction,Conductor*%
%TO.N,NetBT1_N*%
G36*
X147736748Y-106267952D02*
G01*
X147751100Y-106302600D01*
X147751100Y-107253600D01*
X161986748Y-121489248D01*
X162001100Y-121523896D01*
X162001100Y-128204600D01*
X161986748Y-128239248D01*
X161952100Y-128253600D01*
X161501100Y-128253600D01*
X161501100Y-127516100D01*
X159501100Y-127516100D01*
X159501100Y-128253600D01*
X158300100Y-128253600D01*
X158265452Y-128239248D01*
X158251100Y-128204600D01*
X158251100Y-123003600D01*
X144015452Y-108767952D01*
X144001100Y-108733304D01*
X144001100Y-106302600D01*
X144015452Y-106267952D01*
X144050100Y-106253600D01*
X147702100Y-106253600D01*
X147736748Y-106267952D01*
G37*
%TD.AperFunction*%
%TD*%
%TA.AperFunction,Conductor*%
%TO.N,NetL1_1*%
G36*
X153290452Y-93917952D02*
G01*
X155792452Y-96419952D01*
X155806804Y-96454600D01*
X155792452Y-96489248D01*
X155757804Y-96503600D01*
X154096088Y-96503600D01*
X154061440Y-96489248D01*
X153214630Y-95642443D01*
X153201220Y-95617355D01*
X153198513Y-95603746D01*
X153184161Y-95569099D01*
X153155440Y-95526116D01*
X152426096Y-94796761D01*
X152411747Y-94762402D01*
X152407057Y-93952882D01*
X152421208Y-93918153D01*
X152455772Y-93903601D01*
X152456056Y-93903600D01*
X153255804Y-93903600D01*
X153290452Y-93917952D01*
G37*
%TD.AperFunction*%
%TD*%
%TA.AperFunction,Conductor*%
%TO.N,NetBT2_N*%
G36*
X138736748Y-106267952D02*
G01*
X138751100Y-106302600D01*
X138751100Y-107253600D01*
X152986748Y-121489248D01*
X153001100Y-121523896D01*
X153001100Y-128204600D01*
X152986748Y-128239248D01*
X152952100Y-128253600D01*
X149300100Y-128253600D01*
X149265452Y-128239248D01*
X149251100Y-128204600D01*
X149251100Y-123003600D01*
X135015452Y-108767952D01*
X135001100Y-108733304D01*
X135001100Y-106302600D01*
X135015452Y-106267952D01*
X135050100Y-106253600D01*
X138702100Y-106253600D01*
X138736748Y-106267952D01*
G37*
%TD.AperFunction*%
%TD*%
%TA.AperFunction,Conductor*%
%TO.N,NetC2_1*%
G36*
X153140179Y-93154541D02*
G01*
X153143837Y-93155268D01*
X153155056Y-93157500D01*
X153155058Y-93157500D01*
X153869942Y-93157500D01*
X153869944Y-93157500D01*
X153881162Y-93155268D01*
X153884821Y-93154541D01*
X153894379Y-93153600D01*
X154005804Y-93153600D01*
X154040452Y-93167952D01*
X154876100Y-94003600D01*
X156230804Y-94003600D01*
X156265452Y-94017952D01*
X156486748Y-94239248D01*
X156501100Y-94273896D01*
X156501100Y-94733304D01*
X156486748Y-94767952D01*
X156265452Y-94989248D01*
X156230804Y-95003600D01*
X154583780Y-95003600D01*
X154549132Y-94989248D01*
X153384141Y-93824257D01*
X153352013Y-93802790D01*
X153341159Y-93795538D01*
X153341157Y-93795537D01*
X153310691Y-93782917D01*
X153294795Y-93772295D01*
X153090452Y-93567952D01*
X153076100Y-93533304D01*
X153076100Y-93202600D01*
X153090452Y-93167952D01*
X153125100Y-93153600D01*
X153130621Y-93153600D01*
X153140179Y-93154541D01*
G37*
%TD.AperFunction*%
%TD*%
%TA.AperFunction,Conductor*%
%TO.N,V_IN*%
G36*
X151676100Y-104178600D02*
G01*
X152001100Y-104503600D01*
X164980804Y-104503600D01*
X165015452Y-104517952D01*
X165736748Y-105239248D01*
X165751100Y-105273896D01*
X165751100Y-107233304D01*
X165736748Y-107267952D01*
X165015452Y-107989248D01*
X164980804Y-108003600D01*
X150021396Y-108003600D01*
X149986748Y-107989248D01*
X149265452Y-107267952D01*
X149251100Y-107233304D01*
X149251100Y-105023896D01*
X149265452Y-104989248D01*
X149751101Y-104503599D01*
X150826100Y-103428600D01*
X150826100Y-96348896D01*
X150840452Y-96314248D01*
X151286748Y-95867952D01*
X151321396Y-95853600D01*
X151326100Y-95853600D01*
X151676100Y-95853600D01*
X151676100Y-104178600D01*
G37*
%TD.AperFunction*%
%TD*%
%TA.AperFunction,Conductor*%
%TO.N,NetL2_1*%
G36*
X156265452Y-92517952D02*
G01*
X156486748Y-92739248D01*
X156501100Y-92773896D01*
X156501100Y-93483304D01*
X156486748Y-93517952D01*
X156265452Y-93739248D01*
X156230804Y-93753600D01*
X154833780Y-93753600D01*
X154799132Y-93739248D01*
X154134141Y-93074257D01*
X154091156Y-93045536D01*
X154056518Y-93031188D01*
X154056508Y-93031185D01*
X154036059Y-93027117D01*
X154005804Y-93021100D01*
X153894379Y-93021100D01*
X153881397Y-93021738D01*
X153871836Y-93022679D01*
X153859742Y-93024471D01*
X153852561Y-93025000D01*
X153172428Y-93025000D01*
X153167507Y-93024752D01*
X153166188Y-93024618D01*
X153166023Y-93024586D01*
X153153161Y-93022679D01*
X153143603Y-93021738D01*
X153131992Y-93021167D01*
X153130740Y-93021041D01*
X153115248Y-93012712D01*
X153099354Y-93005195D01*
X153098877Y-93003911D01*
X153097708Y-93003283D01*
X153093732Y-92990059D01*
X153086676Y-92971064D01*
X153093364Y-92703702D01*
X153108577Y-92669428D01*
X153143573Y-92655947D01*
X153151907Y-92656874D01*
X153155050Y-92657499D01*
X153155053Y-92657499D01*
X153155056Y-92657500D01*
X153155057Y-92657500D01*
X153869941Y-92657500D01*
X153869944Y-92657500D01*
X153929012Y-92645751D01*
X153929014Y-92645749D01*
X153933471Y-92643904D01*
X153933670Y-92644385D01*
X153956105Y-92637580D01*
X155001099Y-92637580D01*
X155001100Y-92637580D01*
X155120728Y-92517952D01*
X155155376Y-92503600D01*
X156230804Y-92503600D01*
X156265452Y-92517952D01*
G37*
%TD.AperFunction*%
%TD*%
%TA.AperFunction,Conductor*%
%TO.N,LVOUT*%
G36*
X148036748Y-78767952D02*
G01*
X148051100Y-78802600D01*
X148051100Y-79528600D01*
X151561748Y-83039248D01*
X151576100Y-83073896D01*
X151576100Y-88133304D01*
X151561748Y-88167952D01*
X151226100Y-88503599D01*
X151226100Y-89783304D01*
X151211748Y-89817952D01*
X151190452Y-89839248D01*
X151155804Y-89853600D01*
X150946396Y-89853600D01*
X150911748Y-89839248D01*
X150890452Y-89817952D01*
X150876100Y-89783304D01*
X150876100Y-88658811D01*
X150882664Y-88634313D01*
X150902874Y-88599309D01*
X150928520Y-88503599D01*
X150928600Y-88503301D01*
X150928600Y-88403898D01*
X150902874Y-88307892D01*
X150902873Y-88307888D01*
X150853174Y-88221809D01*
X150782890Y-88151525D01*
X150696811Y-88101826D01*
X150696807Y-88101825D01*
X150615437Y-88080022D01*
X150592439Y-88066276D01*
X150489418Y-87956816D01*
X150476100Y-87923233D01*
X150476100Y-83428600D01*
X146465452Y-79417952D01*
X146451100Y-79383304D01*
X146451100Y-78802600D01*
X146465452Y-78767952D01*
X146500100Y-78753600D01*
X148002100Y-78753600D01*
X148036748Y-78767952D01*
G37*
%TD.AperFunction*%
%TD*%
%TA.AperFunction,Conductor*%
%TO.N,VBATT*%
G36*
X140265452Y-83017952D02*
G01*
X144509557Y-87262057D01*
X144522286Y-87288964D01*
X144523130Y-87288797D01*
X144530997Y-87328346D01*
X144559177Y-87370522D01*
X144580265Y-87384612D01*
X144601352Y-87398702D01*
X144615967Y-87401609D01*
X144640903Y-87406570D01*
X144640733Y-87407420D01*
X144667642Y-87420142D01*
X145251100Y-88003600D01*
X146855804Y-88003600D01*
X146890452Y-88017952D01*
X149061748Y-90189248D01*
X149076100Y-90223896D01*
X149076100Y-91029183D01*
X149061748Y-91063831D01*
X149027124Y-91078183D01*
X148196410Y-91078590D01*
X148161755Y-91064255D01*
X147351100Y-90253600D01*
X145251100Y-90253600D01*
X145021396Y-90253600D01*
X144986748Y-90239248D01*
X139751100Y-85003600D01*
X133521396Y-85003600D01*
X133486748Y-84989248D01*
X133265452Y-84767952D01*
X133251100Y-84733304D01*
X133251100Y-83273896D01*
X133265452Y-83239248D01*
X133486748Y-83017952D01*
X133521396Y-83003600D01*
X140230804Y-83003600D01*
X140265452Y-83017952D01*
G37*
%TD.AperFunction*%
%TD*%
%TA.AperFunction,Conductor*%
%TO.N,VBUCK*%
G36*
X157700032Y-90952532D02*
G01*
X158001100Y-91253600D01*
X160702100Y-91253600D01*
X160736748Y-91267952D01*
X160751100Y-91302600D01*
X160751100Y-91704600D01*
X160736748Y-91739248D01*
X160702100Y-91753600D01*
X158001100Y-91753600D01*
X157765452Y-91989248D01*
X157730804Y-92003600D01*
X155501100Y-92003600D01*
X155382668Y-92122029D01*
X155138694Y-92365998D01*
X155113608Y-92379407D01*
X155104673Y-92381184D01*
X155104666Y-92381186D01*
X155070023Y-92395536D01*
X155027038Y-92424257D01*
X155027037Y-92424258D01*
X154960568Y-92490728D01*
X154925920Y-92505080D01*
X153956102Y-92505080D01*
X153917641Y-92510784D01*
X153899520Y-92516281D01*
X153894858Y-92517448D01*
X153861630Y-92524058D01*
X153852070Y-92525000D01*
X153167602Y-92525000D01*
X153162187Y-92524700D01*
X153160051Y-92524462D01*
X153158221Y-92524259D01*
X153158220Y-92524259D01*
X153158217Y-92524259D01*
X153134740Y-92527291D01*
X153098539Y-92517496D01*
X153079868Y-92484971D01*
X153079488Y-92477178D01*
X153088204Y-92198149D01*
X153103630Y-92163967D01*
X153137180Y-92150680D01*
X153979019Y-92150680D01*
X153979020Y-92150680D01*
X155177168Y-90952532D01*
X155211816Y-90938180D01*
X157665384Y-90938180D01*
X157700032Y-90952532D01*
G37*
%TD.AperFunction*%
%TD*%
%TA.AperFunction,Conductor*%
%TO.N,GND*%
G36*
X137345718Y-77017952D02*
G01*
X137360070Y-77052600D01*
X137345718Y-77087248D01*
X131372232Y-83060735D01*
X131308236Y-83124729D01*
X131308236Y-83124730D01*
X131273600Y-83208345D01*
X131273600Y-90548854D01*
X131282966Y-90571465D01*
X131308235Y-90632468D01*
X131308236Y-90632469D01*
X131308236Y-90632470D01*
X134058235Y-93382468D01*
X134122229Y-93446463D01*
X134122230Y-93446463D01*
X134122232Y-93446465D01*
X134205847Y-93481100D01*
X138886571Y-93481100D01*
X138921219Y-93495452D01*
X140308235Y-94882468D01*
X140372229Y-94946463D01*
X140372230Y-94946463D01*
X140372232Y-94946465D01*
X140455847Y-94981100D01*
X140455849Y-94981100D01*
X146771351Y-94981100D01*
X146771353Y-94981100D01*
X146854968Y-94946465D01*
X148139702Y-93661730D01*
X148174349Y-93647379D01*
X148183908Y-93648321D01*
X148230050Y-93657499D01*
X148230053Y-93657499D01*
X148230056Y-93657500D01*
X148230057Y-93657500D01*
X148944941Y-93657500D01*
X148944944Y-93657500D01*
X149004012Y-93645751D01*
X149070994Y-93600994D01*
X149115751Y-93534012D01*
X149127500Y-93474944D01*
X149127500Y-93364692D01*
X149744910Y-93364692D01*
X149744911Y-93364693D01*
X149805460Y-93399652D01*
X149805464Y-93399653D01*
X149933644Y-93434000D01*
X150066356Y-93434000D01*
X150066356Y-93433999D01*
X150194533Y-93399654D01*
X150194539Y-93399652D01*
X150255087Y-93364693D01*
X150255088Y-93364692D01*
X150444910Y-93364692D01*
X150444911Y-93364693D01*
X150505460Y-93399652D01*
X150505464Y-93399653D01*
X150633644Y-93434000D01*
X150766356Y-93434000D01*
X150766356Y-93433999D01*
X150894533Y-93399654D01*
X150894539Y-93399652D01*
X150955087Y-93364693D01*
X150955088Y-93364692D01*
X151144910Y-93364692D01*
X151144911Y-93364693D01*
X151205460Y-93399652D01*
X151205464Y-93399653D01*
X151333644Y-93434000D01*
X151466356Y-93434000D01*
X151466356Y-93433999D01*
X151594533Y-93399654D01*
X151594539Y-93399652D01*
X151655087Y-93364693D01*
X151655088Y-93364692D01*
X151844910Y-93364692D01*
X151844911Y-93364693D01*
X151905460Y-93399652D01*
X151905464Y-93399653D01*
X152033644Y-93434000D01*
X152166356Y-93434000D01*
X152166356Y-93433999D01*
X152294533Y-93399654D01*
X152294539Y-93399652D01*
X152355087Y-93364693D01*
X152355088Y-93364692D01*
X152100000Y-93109605D01*
X151844910Y-93364692D01*
X151655088Y-93364692D01*
X151400000Y-93109605D01*
X151144910Y-93364692D01*
X150955088Y-93364692D01*
X150700000Y-93109605D01*
X150444910Y-93364692D01*
X150255088Y-93364692D01*
X150000000Y-93109605D01*
X149744910Y-93364692D01*
X149127500Y-93364692D01*
X149127500Y-93285056D01*
X149115751Y-93225988D01*
X149101460Y-93204600D01*
X149069803Y-93157223D01*
X149062486Y-93120441D01*
X149069803Y-93102777D01*
X149097895Y-93060735D01*
X149115751Y-93034012D01*
X149127500Y-92974944D01*
X149127500Y-92863644D01*
X149496000Y-92863644D01*
X149496000Y-92996355D01*
X149530346Y-93124535D01*
X149530347Y-93124539D01*
X149565305Y-93185087D01*
X149565306Y-93185088D01*
X149820394Y-92930001D01*
X149820394Y-92929999D01*
X149800504Y-92910109D01*
X149900000Y-92910109D01*
X149900000Y-92949891D01*
X149915224Y-92986645D01*
X149943355Y-93014776D01*
X149980109Y-93030000D01*
X150019891Y-93030000D01*
X150056645Y-93014776D01*
X150084776Y-92986645D01*
X150100000Y-92949891D01*
X150100000Y-92930000D01*
X150179605Y-92930000D01*
X150349999Y-93100394D01*
X150520394Y-92930000D01*
X150520394Y-92929999D01*
X150500504Y-92910109D01*
X150600000Y-92910109D01*
X150600000Y-92949891D01*
X150615224Y-92986645D01*
X150643355Y-93014776D01*
X150680109Y-93030000D01*
X150719891Y-93030000D01*
X150756645Y-93014776D01*
X150784776Y-92986645D01*
X150800000Y-92949891D01*
X150800000Y-92930000D01*
X150879605Y-92930000D01*
X151049999Y-93100394D01*
X151220394Y-92930000D01*
X151220394Y-92929999D01*
X151200504Y-92910109D01*
X151300000Y-92910109D01*
X151300000Y-92949891D01*
X151315224Y-92986645D01*
X151343355Y-93014776D01*
X151380109Y-93030000D01*
X151419891Y-93030000D01*
X151456645Y-93014776D01*
X151484776Y-92986645D01*
X151500000Y-92949891D01*
X151500000Y-92930000D01*
X151579605Y-92930000D01*
X151749999Y-93100394D01*
X151920394Y-92930000D01*
X151920394Y-92929999D01*
X151900504Y-92910109D01*
X152000000Y-92910109D01*
X152000000Y-92949891D01*
X152015224Y-92986645D01*
X152043355Y-93014776D01*
X152080109Y-93030000D01*
X152119891Y-93030000D01*
X152156645Y-93014776D01*
X152184776Y-92986645D01*
X152200000Y-92949891D01*
X152200000Y-92929999D01*
X152279605Y-92929999D01*
X152279605Y-92930000D01*
X152534692Y-93185088D01*
X152534693Y-93185087D01*
X152569652Y-93124539D01*
X152569654Y-93124533D01*
X152603999Y-92996356D01*
X152604000Y-92996356D01*
X152604000Y-92863644D01*
X152569653Y-92735464D01*
X152569652Y-92735460D01*
X152534693Y-92674911D01*
X152534692Y-92674910D01*
X152279605Y-92929999D01*
X152200000Y-92929999D01*
X152200000Y-92910109D01*
X152184776Y-92873355D01*
X152156645Y-92845224D01*
X152119891Y-92830000D01*
X152080109Y-92830000D01*
X152043355Y-92845224D01*
X152015224Y-92873355D01*
X152000000Y-92910109D01*
X151900504Y-92910109D01*
X151750001Y-92759605D01*
X151750000Y-92759605D01*
X151579605Y-92930000D01*
X151500000Y-92930000D01*
X151500000Y-92910109D01*
X151484776Y-92873355D01*
X151456645Y-92845224D01*
X151419891Y-92830000D01*
X151380109Y-92830000D01*
X151343355Y-92845224D01*
X151315224Y-92873355D01*
X151300000Y-92910109D01*
X151200504Y-92910109D01*
X151050001Y-92759605D01*
X151050000Y-92759605D01*
X150879605Y-92930000D01*
X150800000Y-92930000D01*
X150800000Y-92910109D01*
X150784776Y-92873355D01*
X150756645Y-92845224D01*
X150719891Y-92830000D01*
X150680109Y-92830000D01*
X150643355Y-92845224D01*
X150615224Y-92873355D01*
X150600000Y-92910109D01*
X150500504Y-92910109D01*
X150350001Y-92759605D01*
X150350000Y-92759605D01*
X150179605Y-92930000D01*
X150100000Y-92930000D01*
X150100000Y-92910109D01*
X150084776Y-92873355D01*
X150056645Y-92845224D01*
X150019891Y-92830000D01*
X149980109Y-92830000D01*
X149943355Y-92845224D01*
X149915224Y-92873355D01*
X149900000Y-92910109D01*
X149800504Y-92910109D01*
X149565306Y-92674910D01*
X149565305Y-92674911D01*
X149530347Y-92735463D01*
X149530345Y-92735467D01*
X149496000Y-92863644D01*
X149127500Y-92863644D01*
X149127500Y-92785056D01*
X149115751Y-92725988D01*
X149113881Y-92723189D01*
X149069803Y-92657223D01*
X149067901Y-92647663D01*
X149062486Y-92639559D01*
X149064387Y-92630000D01*
X149062486Y-92620441D01*
X149069803Y-92602777D01*
X149085022Y-92580000D01*
X149829605Y-92580000D01*
X149999999Y-92750394D01*
X150170394Y-92580000D01*
X150529605Y-92580000D01*
X150699999Y-92750394D01*
X150870394Y-92580000D01*
X151229605Y-92580000D01*
X151399999Y-92750394D01*
X151570394Y-92580000D01*
X151929605Y-92580000D01*
X152099999Y-92750394D01*
X152270394Y-92580000D01*
X152270394Y-92579999D01*
X152100001Y-92409605D01*
X152100000Y-92409605D01*
X151929605Y-92580000D01*
X151570394Y-92580000D01*
X151570394Y-92579999D01*
X151400001Y-92409605D01*
X151400000Y-92409605D01*
X151229605Y-92580000D01*
X150870394Y-92580000D01*
X150870394Y-92579999D01*
X150700001Y-92409605D01*
X150700000Y-92409605D01*
X150529605Y-92580000D01*
X150170394Y-92580000D01*
X150170394Y-92579999D01*
X150000001Y-92409605D01*
X150000000Y-92409605D01*
X149829605Y-92580000D01*
X149085022Y-92580000D01*
X149087889Y-92575709D01*
X149115751Y-92534012D01*
X149127500Y-92474944D01*
X149127500Y-92285056D01*
X149115751Y-92225988D01*
X149074093Y-92163644D01*
X149496000Y-92163644D01*
X149496000Y-92296355D01*
X149530346Y-92424535D01*
X149530347Y-92424539D01*
X149565305Y-92485087D01*
X149565306Y-92485088D01*
X149820394Y-92230001D01*
X149820394Y-92229999D01*
X149800504Y-92210109D01*
X149900000Y-92210109D01*
X149900000Y-92249891D01*
X149915224Y-92286645D01*
X149943355Y-92314776D01*
X149980109Y-92330000D01*
X150019891Y-92330000D01*
X150056645Y-92314776D01*
X150084776Y-92286645D01*
X150100000Y-92249891D01*
X150100000Y-92230000D01*
X150179605Y-92230000D01*
X150349999Y-92400394D01*
X150520394Y-92230000D01*
X150520394Y-92229999D01*
X150500504Y-92210109D01*
X150600000Y-92210109D01*
X150600000Y-92249891D01*
X150615224Y-92286645D01*
X150643355Y-92314776D01*
X150680109Y-92330000D01*
X150719891Y-92330000D01*
X150756645Y-92314776D01*
X150784776Y-92286645D01*
X150800000Y-92249891D01*
X150800000Y-92230000D01*
X150879605Y-92230000D01*
X151049999Y-92400394D01*
X151220394Y-92230000D01*
X151220394Y-92229999D01*
X151200504Y-92210109D01*
X151300000Y-92210109D01*
X151300000Y-92249891D01*
X151315224Y-92286645D01*
X151343355Y-92314776D01*
X151380109Y-92330000D01*
X151419891Y-92330000D01*
X151456645Y-92314776D01*
X151484776Y-92286645D01*
X151500000Y-92249891D01*
X151500000Y-92230000D01*
X151579605Y-92230000D01*
X151749999Y-92400394D01*
X151920394Y-92230000D01*
X151920394Y-92229999D01*
X151900504Y-92210109D01*
X152000000Y-92210109D01*
X152000000Y-92249891D01*
X152015224Y-92286645D01*
X152043355Y-92314776D01*
X152080109Y-92330000D01*
X152119891Y-92330000D01*
X152156645Y-92314776D01*
X152184776Y-92286645D01*
X152200000Y-92249891D01*
X152200000Y-92229999D01*
X152279605Y-92229999D01*
X152279605Y-92230000D01*
X152534692Y-92485088D01*
X152534693Y-92485087D01*
X152569652Y-92424539D01*
X152569654Y-92424533D01*
X152603999Y-92296356D01*
X152604000Y-92296356D01*
X152604000Y-92163644D01*
X152569653Y-92035464D01*
X152569652Y-92035460D01*
X152534693Y-91974911D01*
X152534692Y-91974910D01*
X152279605Y-92229999D01*
X152200000Y-92229999D01*
X152200000Y-92210109D01*
X152184776Y-92173355D01*
X152156645Y-92145224D01*
X152119891Y-92130000D01*
X152080109Y-92130000D01*
X152043355Y-92145224D01*
X152015224Y-92173355D01*
X152000000Y-92210109D01*
X151900504Y-92210109D01*
X151750001Y-92059605D01*
X151750000Y-92059605D01*
X151579605Y-92230000D01*
X151500000Y-92230000D01*
X151500000Y-92210109D01*
X151484776Y-92173355D01*
X151456645Y-92145224D01*
X151419891Y-92130000D01*
X151380109Y-92130000D01*
X151343355Y-92145224D01*
X151315224Y-92173355D01*
X151300000Y-92210109D01*
X151200504Y-92210109D01*
X151050001Y-92059605D01*
X151050000Y-92059605D01*
X150879605Y-92230000D01*
X150800000Y-92230000D01*
X150800000Y-92210109D01*
X150784776Y-92173355D01*
X150756645Y-92145224D01*
X150719891Y-92130000D01*
X150680109Y-92130000D01*
X150643355Y-92145224D01*
X150615224Y-92173355D01*
X150600000Y-92210109D01*
X150500504Y-92210109D01*
X150350001Y-92059605D01*
X150350000Y-92059605D01*
X150179605Y-92230000D01*
X150100000Y-92230000D01*
X150100000Y-92210109D01*
X150084776Y-92173355D01*
X150056645Y-92145224D01*
X150019891Y-92130000D01*
X149980109Y-92130000D01*
X149943355Y-92145224D01*
X149915224Y-92173355D01*
X149900000Y-92210109D01*
X149800504Y-92210109D01*
X149565306Y-91974910D01*
X149565305Y-91974911D01*
X149530347Y-92035463D01*
X149530345Y-92035467D01*
X149496000Y-92163644D01*
X149074093Y-92163644D01*
X149070994Y-92159006D01*
X149069803Y-92157223D01*
X149062487Y-92120441D01*
X149069803Y-92102777D01*
X149098650Y-92059605D01*
X149115751Y-92034012D01*
X149127500Y-91974944D01*
X149127500Y-91880000D01*
X149829605Y-91880000D01*
X149999999Y-92050394D01*
X150170394Y-91880000D01*
X150529605Y-91880000D01*
X150699999Y-92050394D01*
X150870394Y-91880000D01*
X151229605Y-91880000D01*
X151399999Y-92050394D01*
X151570394Y-91880000D01*
X151929605Y-91880000D01*
X152099999Y-92050394D01*
X152270394Y-91880000D01*
X152270394Y-91879999D01*
X152100001Y-91709605D01*
X152100000Y-91709605D01*
X151929605Y-91880000D01*
X151570394Y-91880000D01*
X151570394Y-91879999D01*
X151400001Y-91709605D01*
X151400000Y-91709605D01*
X151229605Y-91880000D01*
X150870394Y-91880000D01*
X150870394Y-91879999D01*
X150700001Y-91709605D01*
X150700000Y-91709605D01*
X150529605Y-91880000D01*
X150170394Y-91880000D01*
X150170394Y-91879999D01*
X150000001Y-91709605D01*
X150000000Y-91709605D01*
X149829605Y-91880000D01*
X149127500Y-91880000D01*
X149127500Y-91785056D01*
X149121447Y-91754625D01*
X149128763Y-91717844D01*
X149134857Y-91710417D01*
X149198658Y-91646617D01*
X149247692Y-91541464D01*
X149252228Y-91507000D01*
X147922771Y-91507000D01*
X147927307Y-91541464D01*
X147946579Y-91582792D01*
X147947048Y-91593550D01*
X147951170Y-91603500D01*
X147947834Y-91611551D01*
X147948215Y-91620259D01*
X147940939Y-91628199D01*
X147936818Y-91638148D01*
X147928766Y-91641483D01*
X147922878Y-91647909D01*
X147902170Y-91652500D01*
X147809439Y-91652500D01*
X147799881Y-91651559D01*
X147799585Y-91651500D01*
X147252615Y-91651500D01*
X147252613Y-91651500D01*
X147238130Y-91657500D01*
X147238129Y-91657500D01*
X147168999Y-91686134D01*
X147168996Y-91686136D01*
X147151755Y-91703377D01*
X147117107Y-91717728D01*
X147082459Y-91703375D01*
X147068108Y-91668727D01*
X147069050Y-91659168D01*
X147080099Y-91603619D01*
X147080100Y-91603615D01*
X147080100Y-91463644D01*
X149496000Y-91463644D01*
X149496000Y-91596355D01*
X149530346Y-91724535D01*
X149530347Y-91724539D01*
X149565305Y-91785087D01*
X149565306Y-91785088D01*
X149820394Y-91530001D01*
X149820394Y-91529999D01*
X149800504Y-91510109D01*
X149900000Y-91510109D01*
X149900000Y-91549891D01*
X149915224Y-91586645D01*
X149943355Y-91614776D01*
X149980109Y-91630000D01*
X150019891Y-91630000D01*
X150056645Y-91614776D01*
X150084776Y-91586645D01*
X150100000Y-91549891D01*
X150100000Y-91530000D01*
X150179605Y-91530000D01*
X150349999Y-91700394D01*
X150520394Y-91530000D01*
X150520394Y-91529999D01*
X150500504Y-91510109D01*
X150600000Y-91510109D01*
X150600000Y-91549891D01*
X150615224Y-91586645D01*
X150643355Y-91614776D01*
X150680109Y-91630000D01*
X150719891Y-91630000D01*
X150756645Y-91614776D01*
X150784776Y-91586645D01*
X150800000Y-91549891D01*
X150800000Y-91530000D01*
X150879605Y-91530000D01*
X151049999Y-91700394D01*
X151220394Y-91530000D01*
X151220394Y-91529999D01*
X151200504Y-91510109D01*
X151300000Y-91510109D01*
X151300000Y-91549891D01*
X151315224Y-91586645D01*
X151343355Y-91614776D01*
X151380109Y-91630000D01*
X151419891Y-91630000D01*
X151456645Y-91614776D01*
X151484776Y-91586645D01*
X151500000Y-91549891D01*
X151500000Y-91530000D01*
X151579605Y-91530000D01*
X151749999Y-91700394D01*
X151920394Y-91530000D01*
X151920394Y-91529999D01*
X151900504Y-91510109D01*
X152000000Y-91510109D01*
X152000000Y-91549891D01*
X152015224Y-91586645D01*
X152043355Y-91614776D01*
X152080109Y-91630000D01*
X152119891Y-91630000D01*
X152156645Y-91614776D01*
X152184776Y-91586645D01*
X152200000Y-91549891D01*
X152200000Y-91529999D01*
X152279605Y-91529999D01*
X152279605Y-91530000D01*
X152534692Y-91785088D01*
X152534693Y-91785087D01*
X152569652Y-91724539D01*
X152569654Y-91724533D01*
X152603999Y-91596356D01*
X152604000Y-91596356D01*
X152604000Y-91463644D01*
X152569653Y-91335464D01*
X152569652Y-91335460D01*
X152534693Y-91274911D01*
X152534692Y-91274910D01*
X152279605Y-91529999D01*
X152200000Y-91529999D01*
X152200000Y-91510109D01*
X152184776Y-91473355D01*
X152156645Y-91445224D01*
X152119891Y-91430000D01*
X152080109Y-91430000D01*
X152043355Y-91445224D01*
X152015224Y-91473355D01*
X152000000Y-91510109D01*
X151900504Y-91510109D01*
X151750001Y-91359605D01*
X151750000Y-91359605D01*
X151579605Y-91530000D01*
X151500000Y-91530000D01*
X151500000Y-91510109D01*
X151484776Y-91473355D01*
X151456645Y-91445224D01*
X151419891Y-91430000D01*
X151380109Y-91430000D01*
X151343355Y-91445224D01*
X151315224Y-91473355D01*
X151300000Y-91510109D01*
X151200504Y-91510109D01*
X151050001Y-91359605D01*
X151050000Y-91359605D01*
X150879605Y-91530000D01*
X150800000Y-91530000D01*
X150800000Y-91510109D01*
X150784776Y-91473355D01*
X150756645Y-91445224D01*
X150719891Y-91430000D01*
X150680109Y-91430000D01*
X150643355Y-91445224D01*
X150615224Y-91473355D01*
X150600000Y-91510109D01*
X150500504Y-91510109D01*
X150350001Y-91359605D01*
X150350000Y-91359605D01*
X150179605Y-91530000D01*
X150100000Y-91530000D01*
X150100000Y-91510109D01*
X150084776Y-91473355D01*
X150056645Y-91445224D01*
X150019891Y-91430000D01*
X149980109Y-91430000D01*
X149943355Y-91445224D01*
X149915224Y-91473355D01*
X149900000Y-91510109D01*
X149800504Y-91510109D01*
X149565306Y-91274910D01*
X149565305Y-91274911D01*
X149530347Y-91335463D01*
X149530345Y-91335467D01*
X149496000Y-91463644D01*
X147080100Y-91463644D01*
X147080100Y-91380600D01*
X146525100Y-91380600D01*
X146490452Y-91366248D01*
X146476100Y-91331600D01*
X146476100Y-91253600D01*
X146398100Y-91253600D01*
X146363452Y-91239248D01*
X146349100Y-91204600D01*
X146349100Y-91126600D01*
X146603100Y-91126600D01*
X147080099Y-91126600D01*
X147080099Y-90903586D01*
X147065362Y-90829493D01*
X147009224Y-90745475D01*
X146925206Y-90689337D01*
X146851114Y-90674600D01*
X146603100Y-90674600D01*
X146603100Y-91126600D01*
X146349100Y-91126600D01*
X146349100Y-90674600D01*
X146101087Y-90674600D01*
X146026993Y-90689337D01*
X145942975Y-90745475D01*
X145920360Y-90779323D01*
X145889178Y-90800158D01*
X145879618Y-90801100D01*
X145163538Y-90801100D01*
X145126353Y-90808497D01*
X145084177Y-90836677D01*
X145055997Y-90878853D01*
X145048600Y-90916038D01*
X145048600Y-90977100D01*
X145034248Y-91011748D01*
X144999600Y-91026100D01*
X144002600Y-91026100D01*
X143967952Y-91011748D01*
X143953600Y-90977100D01*
X143953600Y-90916042D01*
X143953599Y-90916038D01*
X143946202Y-90878853D01*
X143946202Y-90878852D01*
X143926562Y-90849459D01*
X143918022Y-90836677D01*
X143878259Y-90810109D01*
X143875848Y-90808498D01*
X143875847Y-90808497D01*
X143875846Y-90808497D01*
X143838661Y-90801100D01*
X143838658Y-90801100D01*
X143777600Y-90801100D01*
X143742952Y-90786748D01*
X143728600Y-90752100D01*
X143728600Y-90330261D01*
X143742952Y-90295613D01*
X143803174Y-90235391D01*
X143803175Y-90235390D01*
X143852874Y-90149309D01*
X143870749Y-90082599D01*
X143878600Y-90053301D01*
X143878600Y-89953898D01*
X143852874Y-89857892D01*
X143852873Y-89857888D01*
X143803174Y-89771809D01*
X143732890Y-89701525D01*
X143646811Y-89651826D01*
X143646807Y-89651825D01*
X143550802Y-89626100D01*
X143550799Y-89626100D01*
X143451401Y-89626100D01*
X143451398Y-89626100D01*
X143355392Y-89651825D01*
X143355388Y-89651826D01*
X143269309Y-89701525D01*
X143269309Y-89701526D01*
X143199026Y-89771809D01*
X143199025Y-89771809D01*
X143149326Y-89857888D01*
X143149325Y-89857892D01*
X143123600Y-89953898D01*
X143123600Y-90053301D01*
X143149325Y-90149307D01*
X143149326Y-90149311D01*
X143199025Y-90235390D01*
X143259248Y-90295613D01*
X143273600Y-90330261D01*
X143273600Y-90752100D01*
X143259248Y-90786748D01*
X143224600Y-90801100D01*
X143113538Y-90801100D01*
X143076353Y-90808497D01*
X143030165Y-90839359D01*
X143029150Y-90837840D01*
X143001100Y-90849459D01*
X142973049Y-90837840D01*
X142972035Y-90839359D01*
X142928259Y-90810109D01*
X142925848Y-90808498D01*
X142925847Y-90808497D01*
X142925846Y-90808497D01*
X142888661Y-90801100D01*
X142888658Y-90801100D01*
X142163542Y-90801100D01*
X142163538Y-90801100D01*
X142126353Y-90808497D01*
X142084177Y-90836677D01*
X142055997Y-90878853D01*
X142048600Y-90916038D01*
X142048600Y-91591161D01*
X142055997Y-91628346D01*
X142084177Y-91670522D01*
X142105265Y-91684612D01*
X142126352Y-91698702D01*
X142163542Y-91706100D01*
X142212100Y-91706100D01*
X142246748Y-91720452D01*
X142261100Y-91755100D01*
X142261100Y-91939439D01*
X142246748Y-91974087D01*
X142199026Y-92021809D01*
X142199025Y-92021809D01*
X142149326Y-92107888D01*
X142149325Y-92107892D01*
X142123600Y-92203898D01*
X142123600Y-92303301D01*
X142149325Y-92399307D01*
X142149326Y-92399311D01*
X142199025Y-92485390D01*
X142246748Y-92533113D01*
X142261100Y-92567761D01*
X142261100Y-92752100D01*
X142246748Y-92786748D01*
X142212100Y-92801100D01*
X142163538Y-92801100D01*
X142126353Y-92808497D01*
X142084177Y-92836677D01*
X142055997Y-92878853D01*
X142048600Y-92916038D01*
X142048600Y-93591161D01*
X142055997Y-93628346D01*
X142084177Y-93670522D01*
X142107878Y-93686358D01*
X142128713Y-93717540D01*
X142121397Y-93754323D01*
X142090215Y-93775158D01*
X142080655Y-93776100D01*
X141365630Y-93776100D01*
X141330982Y-93761748D01*
X139129971Y-91560737D01*
X139129969Y-91560736D01*
X139129968Y-91560735D01*
X139080989Y-91540446D01*
X139046354Y-91526100D01*
X139046353Y-91526100D01*
X134365629Y-91526100D01*
X134330981Y-91511748D01*
X132992952Y-90173719D01*
X132978600Y-90139071D01*
X132978600Y-88909781D01*
X133298600Y-88909781D01*
X133298600Y-89097418D01*
X133335201Y-89281424D01*
X133335204Y-89281435D01*
X133407003Y-89454774D01*
X133407005Y-89454778D01*
X133466955Y-89544500D01*
X133510963Y-89610363D01*
X133511245Y-89610784D01*
X133643916Y-89743455D01*
X133799922Y-89847695D01*
X133973266Y-89919496D01*
X133973272Y-89919497D01*
X133973275Y-89919498D01*
X134157281Y-89956099D01*
X134157284Y-89956099D01*
X134157287Y-89956100D01*
X134157288Y-89956100D01*
X134344912Y-89956100D01*
X134344913Y-89956100D01*
X134461346Y-89932940D01*
X134528924Y-89919498D01*
X134528924Y-89919497D01*
X134528934Y-89919496D01*
X134702278Y-89847695D01*
X134858284Y-89743455D01*
X134990955Y-89610784D01*
X135095195Y-89454778D01*
X135166996Y-89281434D01*
X135203600Y-89097413D01*
X135203600Y-88909787D01*
X135192777Y-88855374D01*
X135166998Y-88725775D01*
X135166995Y-88725764D01*
X135135327Y-88649311D01*
X135095195Y-88552422D01*
X134990955Y-88396416D01*
X134858284Y-88263745D01*
X134702278Y-88159505D01*
X134702275Y-88159503D01*
X134702274Y-88159503D01*
X134528935Y-88087704D01*
X134528924Y-88087701D01*
X134344918Y-88051100D01*
X134344913Y-88051100D01*
X134157287Y-88051100D01*
X134157281Y-88051100D01*
X133973275Y-88087701D01*
X133973264Y-88087704D01*
X133799925Y-88159503D01*
X133643916Y-88263744D01*
X133511244Y-88396416D01*
X133407003Y-88552425D01*
X133335204Y-88725764D01*
X133335201Y-88725775D01*
X133298600Y-88909781D01*
X132978600Y-88909781D01*
X132978600Y-86376599D01*
X133178764Y-86376599D01*
X133178765Y-86376600D01*
X133715728Y-86376600D01*
X133701100Y-86431191D01*
X133701100Y-86576009D01*
X133715728Y-86630600D01*
X133178765Y-86630600D01*
X133198668Y-86756263D01*
X133198669Y-86756266D01*
X133251151Y-86917790D01*
X133328257Y-87069118D01*
X133428086Y-87206522D01*
X133428090Y-87206527D01*
X133548173Y-87326610D01*
X133548177Y-87326613D01*
X133685581Y-87426442D01*
X133836909Y-87503548D01*
X133998433Y-87556030D01*
X133998436Y-87556031D01*
X134124099Y-87575933D01*
X134124100Y-87575933D01*
X134124100Y-87038972D01*
X134178691Y-87053600D01*
X134323509Y-87053600D01*
X134378100Y-87038972D01*
X134378100Y-87575933D01*
X134503763Y-87556031D01*
X134503766Y-87556030D01*
X134665290Y-87503548D01*
X134816618Y-87426442D01*
X134954022Y-87326613D01*
X134954027Y-87326610D01*
X135074110Y-87206527D01*
X135074113Y-87206522D01*
X135173942Y-87069118D01*
X135251048Y-86917790D01*
X135303530Y-86756266D01*
X135303531Y-86756263D01*
X135323435Y-86630600D01*
X134786472Y-86630600D01*
X134801100Y-86576009D01*
X134801100Y-86431191D01*
X134786472Y-86376600D01*
X135323435Y-86376600D01*
X135323435Y-86376599D01*
X135303531Y-86250936D01*
X135303530Y-86250933D01*
X135251048Y-86089409D01*
X135173942Y-85938081D01*
X135074113Y-85800677D01*
X135074110Y-85800673D01*
X134954027Y-85680590D01*
X134954022Y-85680586D01*
X134816618Y-85580757D01*
X134665290Y-85503651D01*
X134503766Y-85451169D01*
X134503763Y-85451168D01*
X134378100Y-85431264D01*
X134378100Y-85968227D01*
X134323509Y-85953600D01*
X134178691Y-85953600D01*
X134124100Y-85968227D01*
X134124100Y-85431264D01*
X134124099Y-85431264D01*
X133998436Y-85451168D01*
X133998433Y-85451169D01*
X133836909Y-85503651D01*
X133685581Y-85580757D01*
X133548177Y-85680586D01*
X133428086Y-85800677D01*
X133328257Y-85938081D01*
X133251151Y-86089409D01*
X133198669Y-86250933D01*
X133198668Y-86250936D01*
X133178764Y-86376599D01*
X132978600Y-86376599D01*
X132978600Y-83368128D01*
X132992951Y-83333481D01*
X133034953Y-83291479D01*
X133069600Y-83277128D01*
X133104248Y-83291480D01*
X133118600Y-83326128D01*
X133118600Y-84733304D01*
X133125292Y-84766951D01*
X133128685Y-84784008D01*
X133128688Y-84784018D01*
X133143036Y-84818656D01*
X133171757Y-84861641D01*
X133393058Y-85082942D01*
X133421584Y-85102002D01*
X133436041Y-85111662D01*
X133436042Y-85111662D01*
X133436043Y-85111663D01*
X133470681Y-85126011D01*
X133470683Y-85126011D01*
X133470689Y-85126014D01*
X133521396Y-85136100D01*
X139675920Y-85136100D01*
X139710568Y-85150452D01*
X144893058Y-90332942D01*
X144916867Y-90348850D01*
X144936041Y-90361662D01*
X144936042Y-90361662D01*
X144936043Y-90361663D01*
X144970681Y-90376011D01*
X144970683Y-90376011D01*
X144970689Y-90376014D01*
X145021396Y-90386100D01*
X147275920Y-90386100D01*
X147310568Y-90400452D01*
X147967077Y-91056961D01*
X147981429Y-91091609D01*
X147976838Y-91112317D01*
X147927307Y-91218535D01*
X147922771Y-91252999D01*
X147922772Y-91253000D01*
X149252228Y-91253000D01*
X149252228Y-91252999D01*
X149247692Y-91218535D01*
X149229915Y-91180413D01*
X149229722Y-91180000D01*
X149829605Y-91180000D01*
X149999999Y-91350394D01*
X150170394Y-91180000D01*
X150529605Y-91180000D01*
X150699999Y-91350394D01*
X150870394Y-91180000D01*
X151229605Y-91180000D01*
X151399999Y-91350394D01*
X151570394Y-91180000D01*
X151929605Y-91180000D01*
X152099999Y-91350394D01*
X152270394Y-91180000D01*
X152270394Y-91179999D01*
X152100001Y-91009605D01*
X152100000Y-91009605D01*
X151929605Y-91180000D01*
X151570394Y-91180000D01*
X151570394Y-91179999D01*
X151400001Y-91009605D01*
X151400000Y-91009605D01*
X151229605Y-91180000D01*
X150870394Y-91180000D01*
X150870394Y-91179999D01*
X150700001Y-91009605D01*
X150700000Y-91009605D01*
X150529605Y-91180000D01*
X150170394Y-91180000D01*
X150170394Y-91179999D01*
X150000001Y-91009605D01*
X150000000Y-91009605D01*
X149829605Y-91180000D01*
X149229722Y-91180000D01*
X149200338Y-91116987D01*
X149197860Y-91082045D01*
X149198513Y-91079893D01*
X149200063Y-91072100D01*
X149208600Y-91029183D01*
X149208600Y-90763644D01*
X149496000Y-90763644D01*
X149496000Y-90896355D01*
X149530346Y-91024535D01*
X149530347Y-91024539D01*
X149565305Y-91085087D01*
X149565306Y-91085088D01*
X149820394Y-90830001D01*
X149820394Y-90829999D01*
X149800504Y-90810109D01*
X149900000Y-90810109D01*
X149900000Y-90849891D01*
X149915224Y-90886645D01*
X149943355Y-90914776D01*
X149980109Y-90930000D01*
X150019891Y-90930000D01*
X150056645Y-90914776D01*
X150084776Y-90886645D01*
X150100000Y-90849891D01*
X150100000Y-90830000D01*
X150179605Y-90830000D01*
X150349999Y-91000394D01*
X150520394Y-90830000D01*
X150520394Y-90829999D01*
X150500504Y-90810109D01*
X150600000Y-90810109D01*
X150600000Y-90849891D01*
X150615224Y-90886645D01*
X150643355Y-90914776D01*
X150680109Y-90930000D01*
X150719891Y-90930000D01*
X150756645Y-90914776D01*
X150784776Y-90886645D01*
X150800000Y-90849891D01*
X150800000Y-90830000D01*
X150879605Y-90830000D01*
X151049999Y-91000394D01*
X151220394Y-90830000D01*
X151220394Y-90829999D01*
X151200504Y-90810109D01*
X151300000Y-90810109D01*
X151300000Y-90849891D01*
X151315224Y-90886645D01*
X151343355Y-90914776D01*
X151380109Y-90930000D01*
X151419891Y-90930000D01*
X151456645Y-90914776D01*
X151484776Y-90886645D01*
X151500000Y-90849891D01*
X151500000Y-90830000D01*
X151579605Y-90830000D01*
X151749999Y-91000394D01*
X151920394Y-90830000D01*
X151920394Y-90829999D01*
X151900504Y-90810109D01*
X152000000Y-90810109D01*
X152000000Y-90849891D01*
X152015224Y-90886645D01*
X152043355Y-90914776D01*
X152080109Y-90930000D01*
X152119891Y-90930000D01*
X152156645Y-90914776D01*
X152184776Y-90886645D01*
X152200000Y-90849891D01*
X152200000Y-90829999D01*
X152279605Y-90829999D01*
X152279605Y-90830000D01*
X152534692Y-91085088D01*
X152534693Y-91085087D01*
X152569652Y-91024539D01*
X152569654Y-91024533D01*
X152603999Y-90896356D01*
X152604000Y-90896356D01*
X152604000Y-90763644D01*
X152569653Y-90635464D01*
X152569652Y-90635460D01*
X152534693Y-90574911D01*
X152534692Y-90574910D01*
X152279605Y-90829999D01*
X152200000Y-90829999D01*
X152200000Y-90810109D01*
X152184776Y-90773355D01*
X152156645Y-90745224D01*
X152119891Y-90730000D01*
X152080109Y-90730000D01*
X152043355Y-90745224D01*
X152015224Y-90773355D01*
X152000000Y-90810109D01*
X151900504Y-90810109D01*
X151750001Y-90659605D01*
X151750000Y-90659605D01*
X151579605Y-90830000D01*
X151500000Y-90830000D01*
X151500000Y-90810109D01*
X151484776Y-90773355D01*
X151456645Y-90745224D01*
X151419891Y-90730000D01*
X151380109Y-90730000D01*
X151343355Y-90745224D01*
X151315224Y-90773355D01*
X151300000Y-90810109D01*
X151200504Y-90810109D01*
X151050001Y-90659605D01*
X151050000Y-90659605D01*
X150879605Y-90830000D01*
X150800000Y-90830000D01*
X150800000Y-90810109D01*
X150784776Y-90773355D01*
X150756645Y-90745224D01*
X150719891Y-90730000D01*
X150680109Y-90730000D01*
X150643355Y-90745224D01*
X150615224Y-90773355D01*
X150600000Y-90810109D01*
X150500504Y-90810109D01*
X150350001Y-90659605D01*
X150350000Y-90659605D01*
X150179605Y-90830000D01*
X150100000Y-90830000D01*
X150100000Y-90810109D01*
X150084776Y-90773355D01*
X150056645Y-90745224D01*
X150019891Y-90730000D01*
X149980109Y-90730000D01*
X149943355Y-90745224D01*
X149915224Y-90773355D01*
X149900000Y-90810109D01*
X149800504Y-90810109D01*
X149565306Y-90574910D01*
X149565305Y-90574911D01*
X149530347Y-90635463D01*
X149530345Y-90635467D01*
X149496000Y-90763644D01*
X149208600Y-90763644D01*
X149208600Y-90395306D01*
X149744910Y-90395306D01*
X149999999Y-90650394D01*
X150255088Y-90395306D01*
X150444910Y-90395306D01*
X150699999Y-90650394D01*
X150955088Y-90395306D01*
X151144910Y-90395306D01*
X151399999Y-90650394D01*
X151655088Y-90395306D01*
X151844910Y-90395306D01*
X152099999Y-90650394D01*
X152355088Y-90395306D01*
X152355087Y-90395305D01*
X152294539Y-90360347D01*
X152294535Y-90360346D01*
X152166356Y-90326000D01*
X152033644Y-90326000D01*
X151905467Y-90360345D01*
X151905463Y-90360347D01*
X151844911Y-90395305D01*
X151844910Y-90395306D01*
X151655088Y-90395306D01*
X151655087Y-90395305D01*
X151594539Y-90360347D01*
X151594535Y-90360346D01*
X151466356Y-90326000D01*
X151333644Y-90326000D01*
X151205467Y-90360345D01*
X151205463Y-90360347D01*
X151144911Y-90395305D01*
X151144910Y-90395306D01*
X150955088Y-90395306D01*
X150955087Y-90395305D01*
X150894539Y-90360347D01*
X150894535Y-90360346D01*
X150766356Y-90326000D01*
X150633644Y-90326000D01*
X150505467Y-90360345D01*
X150505463Y-90360347D01*
X150444911Y-90395305D01*
X150444910Y-90395306D01*
X150255088Y-90395306D01*
X150255087Y-90395305D01*
X150194539Y-90360347D01*
X150194535Y-90360346D01*
X150066356Y-90326000D01*
X149933644Y-90326000D01*
X149805467Y-90360345D01*
X149805463Y-90360347D01*
X149744911Y-90395305D01*
X149744910Y-90395306D01*
X149208600Y-90395306D01*
X149208600Y-90223896D01*
X149198514Y-90173189D01*
X149188622Y-90149309D01*
X149184163Y-90138543D01*
X149155442Y-90095558D01*
X146984141Y-87924257D01*
X146941156Y-87895536D01*
X146906518Y-87881188D01*
X146906508Y-87881185D01*
X146886059Y-87877117D01*
X146855804Y-87871100D01*
X146855801Y-87871100D01*
X145326280Y-87871100D01*
X145291632Y-87856748D01*
X145051131Y-87616247D01*
X145050815Y-87615483D01*
X147566900Y-87615483D01*
X147573353Y-87664500D01*
X147623512Y-87772066D01*
X147623513Y-87772068D01*
X147707431Y-87855986D01*
X147707433Y-87855987D01*
X147814999Y-87906146D01*
X147864017Y-87912600D01*
X148024100Y-87912600D01*
X148024100Y-87405600D01*
X147566900Y-87405600D01*
X147566900Y-87615483D01*
X145050815Y-87615483D01*
X145036779Y-87581599D01*
X145051131Y-87546951D01*
X145085779Y-87532599D01*
X145624100Y-87532599D01*
X145878100Y-87532599D01*
X146876113Y-87532599D01*
X146950206Y-87517862D01*
X147034224Y-87461724D01*
X147090363Y-87377704D01*
X147090752Y-87375750D01*
X147090753Y-87375745D01*
X147105100Y-87303613D01*
X147105100Y-86941716D01*
X147566900Y-86941716D01*
X147566900Y-87151600D01*
X148024100Y-87151600D01*
X148024100Y-86644600D01*
X147864017Y-86644600D01*
X147814999Y-86651053D01*
X147707433Y-86701212D01*
X147707431Y-86701213D01*
X147623513Y-86785131D01*
X147623512Y-86785133D01*
X147573353Y-86892699D01*
X147566900Y-86941716D01*
X147105100Y-86941716D01*
X147105100Y-86630600D01*
X145878100Y-86630600D01*
X145878100Y-87532599D01*
X145624100Y-87532599D01*
X145624100Y-86630600D01*
X144397100Y-86630600D01*
X144397100Y-86843920D01*
X144382748Y-86878568D01*
X144348100Y-86892920D01*
X144313452Y-86878568D01*
X143138470Y-85703586D01*
X144397100Y-85703586D01*
X144397100Y-86376600D01*
X145624100Y-86376600D01*
X145878100Y-86376600D01*
X147105099Y-86376600D01*
X147105099Y-85703586D01*
X147090362Y-85629493D01*
X147034224Y-85545475D01*
X146950206Y-85489337D01*
X146876114Y-85474600D01*
X145878100Y-85474600D01*
X145878100Y-86376600D01*
X145624100Y-86376600D01*
X145624100Y-85474600D01*
X144626086Y-85474600D01*
X144551993Y-85489337D01*
X144467975Y-85545475D01*
X144411837Y-85629493D01*
X144397100Y-85703586D01*
X143138470Y-85703586D01*
X142392952Y-84958068D01*
X142378600Y-84923420D01*
X142378600Y-79715100D01*
X142392952Y-79680452D01*
X142427600Y-79666100D01*
X142948658Y-79666100D01*
X142985848Y-79658702D01*
X143028022Y-79630522D01*
X143056202Y-79588348D01*
X143063600Y-79551158D01*
X143063600Y-78777600D01*
X143768600Y-78777600D01*
X143768600Y-79883304D01*
X143774312Y-79912020D01*
X143778685Y-79934008D01*
X143778688Y-79934018D01*
X143793036Y-79968656D01*
X143821757Y-80011641D01*
X148704248Y-84894132D01*
X148718600Y-84928780D01*
X148718600Y-86706749D01*
X148704248Y-86741397D01*
X148669600Y-86755749D01*
X148634952Y-86741397D01*
X148594768Y-86701213D01*
X148594766Y-86701212D01*
X148487200Y-86651053D01*
X148438183Y-86644600D01*
X148278100Y-86644600D01*
X148278100Y-87912600D01*
X148438183Y-87912600D01*
X148487200Y-87906146D01*
X148594766Y-87855987D01*
X148594768Y-87855986D01*
X148634952Y-87815803D01*
X148669600Y-87801451D01*
X148704248Y-87815803D01*
X148718600Y-87850451D01*
X148718600Y-89308304D01*
X148725292Y-89341951D01*
X148728685Y-89359008D01*
X148728688Y-89359018D01*
X148743036Y-89393656D01*
X148771757Y-89436641D01*
X149268058Y-89932942D01*
X149295753Y-89951447D01*
X149311041Y-89961662D01*
X149311042Y-89961662D01*
X149311043Y-89961663D01*
X149345681Y-89976011D01*
X149345683Y-89976011D01*
X149345689Y-89976014D01*
X149396396Y-89986100D01*
X149396399Y-89986100D01*
X149580801Y-89986100D01*
X149580804Y-89986100D01*
X149631511Y-89976014D01*
X149644939Y-89970452D01*
X149666153Y-89961665D01*
X149666155Y-89961663D01*
X149666159Y-89961662D01*
X149675916Y-89955141D01*
X149693577Y-89947826D01*
X149704012Y-89945751D01*
X149770994Y-89900994D01*
X149770994Y-89900993D01*
X149772776Y-89899803D01*
X149809558Y-89892486D01*
X149827222Y-89899803D01*
X149862499Y-89923374D01*
X149895985Y-89945749D01*
X149895987Y-89945750D01*
X149895986Y-89945750D01*
X149895988Y-89945751D01*
X149955056Y-89957500D01*
X149955059Y-89957500D01*
X150144941Y-89957500D01*
X150144944Y-89957500D01*
X150204012Y-89945751D01*
X150241769Y-89920522D01*
X150272777Y-89899803D01*
X150309559Y-89892486D01*
X150327223Y-89899803D01*
X150358231Y-89920522D01*
X150395985Y-89945749D01*
X150395987Y-89945750D01*
X150395986Y-89945750D01*
X150395988Y-89945751D01*
X150455056Y-89957500D01*
X150455059Y-89957500D01*
X150644941Y-89957500D01*
X150644944Y-89957500D01*
X150704012Y-89945751D01*
X150746619Y-89917280D01*
X150783400Y-89909963D01*
X150808490Y-89923374D01*
X150818058Y-89932942D01*
X150845753Y-89951447D01*
X150861041Y-89961662D01*
X150861042Y-89961662D01*
X150861043Y-89961663D01*
X150895681Y-89976011D01*
X150895683Y-89976011D01*
X150895689Y-89976014D01*
X150946396Y-89986100D01*
X150946399Y-89986100D01*
X151155803Y-89986100D01*
X151155804Y-89986100D01*
X151201030Y-89977104D01*
X151237813Y-89984420D01*
X151245239Y-89990514D01*
X151283382Y-90028658D01*
X151388536Y-90077692D01*
X151388535Y-90077692D01*
X151422999Y-90082228D01*
X151423000Y-90082228D01*
X151677000Y-90082228D01*
X151711462Y-90077692D01*
X151779291Y-90046063D01*
X151816759Y-90044427D01*
X151820709Y-90046063D01*
X151888537Y-90077692D01*
X151922999Y-90082228D01*
X151923000Y-90082228D01*
X151923000Y-89544500D01*
X151677000Y-89544500D01*
X151677000Y-90082228D01*
X151423000Y-90082228D01*
X151423000Y-88764014D01*
X151394257Y-88752770D01*
X151677000Y-88752770D01*
X151677000Y-89290500D01*
X151923000Y-89290500D01*
X151923000Y-88752770D01*
X151888532Y-88757308D01*
X151820708Y-88788935D01*
X151783240Y-88790571D01*
X151779292Y-88788935D01*
X151711467Y-88757308D01*
X151677000Y-88752770D01*
X151394257Y-88752770D01*
X151389748Y-88751006D01*
X151384629Y-88746086D01*
X151377770Y-88744248D01*
X151371602Y-88733565D01*
X151362710Y-88725018D01*
X151362569Y-88717918D01*
X151359019Y-88711769D01*
X151358600Y-88705374D01*
X151358600Y-88578779D01*
X151372952Y-88544131D01*
X151474631Y-88442452D01*
X151655440Y-88261644D01*
X151684162Y-88218659D01*
X151698514Y-88184011D01*
X151708600Y-88133304D01*
X151708600Y-87590483D01*
X151866900Y-87590483D01*
X151873353Y-87639500D01*
X151923512Y-87747066D01*
X151923513Y-87747068D01*
X152007431Y-87830986D01*
X152007433Y-87830987D01*
X152114999Y-87881146D01*
X152164017Y-87887600D01*
X152324100Y-87887600D01*
X152578100Y-87887600D01*
X152738183Y-87887600D01*
X152787200Y-87881146D01*
X152894766Y-87830987D01*
X152894768Y-87830986D01*
X152978686Y-87747068D01*
X152978687Y-87747066D01*
X153028846Y-87639500D01*
X153035300Y-87590483D01*
X153035300Y-87380600D01*
X152578100Y-87380600D01*
X152578100Y-87887600D01*
X152324100Y-87887600D01*
X152324100Y-87380600D01*
X151866900Y-87380600D01*
X151866900Y-87590483D01*
X151708600Y-87590483D01*
X151708600Y-86916716D01*
X151866900Y-86916716D01*
X151866900Y-87126600D01*
X152324100Y-87126600D01*
X152578100Y-87126600D01*
X153035300Y-87126600D01*
X153035300Y-86916716D01*
X153028846Y-86867699D01*
X152978687Y-86760133D01*
X152978686Y-86760131D01*
X152894768Y-86676213D01*
X152894766Y-86676212D01*
X152787200Y-86626053D01*
X152738183Y-86619600D01*
X152578100Y-86619600D01*
X152578100Y-87126600D01*
X152324100Y-87126600D01*
X152324100Y-86619600D01*
X152164017Y-86619600D01*
X152114999Y-86626053D01*
X152007433Y-86676212D01*
X152007431Y-86676213D01*
X151923513Y-86760131D01*
X151923512Y-86760133D01*
X151873353Y-86867699D01*
X151866900Y-86916716D01*
X151708600Y-86916716D01*
X151708600Y-83073896D01*
X151698514Y-83023189D01*
X151684162Y-82988541D01*
X151674502Y-82974084D01*
X151655442Y-82945558D01*
X148197952Y-79488068D01*
X148183600Y-79453420D01*
X148183600Y-78802603D01*
X148183600Y-78802600D01*
X148173514Y-78751893D01*
X148159162Y-78717245D01*
X148149594Y-78699723D01*
X148143600Y-78676239D01*
X148143600Y-78663728D01*
X148143599Y-78663721D01*
X148108535Y-78487443D01*
X148108532Y-78487432D01*
X148107973Y-78486083D01*
X148039747Y-78321369D01*
X147939885Y-78171915D01*
X147812785Y-78044815D01*
X147794101Y-78032331D01*
X147763414Y-78011826D01*
X147663331Y-77944953D01*
X147663328Y-77944951D01*
X147663327Y-77944951D01*
X147497267Y-77876167D01*
X147497256Y-77876164D01*
X147320978Y-77841100D01*
X147320973Y-77841100D01*
X147141227Y-77841100D01*
X147141221Y-77841100D01*
X146964943Y-77876164D01*
X146964932Y-77876167D01*
X146798872Y-77944951D01*
X146649415Y-78044814D01*
X146522314Y-78171915D01*
X146422451Y-78321372D01*
X146353667Y-78487432D01*
X146353664Y-78487443D01*
X146318600Y-78663721D01*
X146318600Y-79295419D01*
X146304248Y-79330067D01*
X146269600Y-79344419D01*
X146234952Y-79330067D01*
X146234195Y-79329293D01*
X145615093Y-78682209D01*
X145602440Y-78657894D01*
X145568535Y-78487443D01*
X145568532Y-78487432D01*
X145567973Y-78486083D01*
X145499747Y-78321369D01*
X145399885Y-78171915D01*
X145272785Y-78044815D01*
X145254101Y-78032331D01*
X145223414Y-78011826D01*
X145123331Y-77944953D01*
X145123328Y-77944951D01*
X145123327Y-77944951D01*
X144957267Y-77876167D01*
X144957256Y-77876164D01*
X144780978Y-77841100D01*
X144780973Y-77841100D01*
X144601227Y-77841100D01*
X144601221Y-77841100D01*
X144424943Y-77876164D01*
X144424932Y-77876167D01*
X144258872Y-77944951D01*
X144109415Y-78044814D01*
X143982314Y-78171915D01*
X143882451Y-78321372D01*
X143813667Y-78487432D01*
X143813664Y-78487443D01*
X143778600Y-78663721D01*
X143778600Y-78722497D01*
X143777713Y-78731501D01*
X143777741Y-78731633D01*
X143777697Y-78731864D01*
X143768600Y-78777600D01*
X143063600Y-78777600D01*
X143063600Y-77956042D01*
X143056202Y-77918852D01*
X143042112Y-77897765D01*
X143028022Y-77876677D01*
X142996461Y-77855590D01*
X142985848Y-77848498D01*
X142985847Y-77848497D01*
X142985846Y-77848497D01*
X142948661Y-77841100D01*
X142948658Y-77841100D01*
X141353542Y-77841100D01*
X141353538Y-77841100D01*
X141316353Y-77848497D01*
X141274177Y-77876677D01*
X141245997Y-77918853D01*
X141238600Y-77956038D01*
X141238600Y-79551161D01*
X141245997Y-79588346D01*
X141274177Y-79630522D01*
X141295265Y-79644612D01*
X141316352Y-79658702D01*
X141353542Y-79666100D01*
X141874600Y-79666100D01*
X141909248Y-79680452D01*
X141923600Y-79715100D01*
X141923600Y-84370420D01*
X141909248Y-84405068D01*
X141874600Y-84419420D01*
X141839952Y-84405068D01*
X140359141Y-82924257D01*
X140316156Y-82895536D01*
X140281518Y-82881188D01*
X140281508Y-82881185D01*
X140261059Y-82877117D01*
X140230804Y-82871100D01*
X133573628Y-82871100D01*
X133538980Y-82856748D01*
X133524628Y-82822100D01*
X133538980Y-82787452D01*
X137306667Y-79019767D01*
X138580982Y-77745452D01*
X138615630Y-77731100D01*
X148886571Y-77731100D01*
X148921219Y-77745452D01*
X149170350Y-77994583D01*
X149184702Y-78029231D01*
X149170350Y-78063879D01*
X149062314Y-78171915D01*
X148962451Y-78321372D01*
X148893667Y-78487432D01*
X148893664Y-78487443D01*
X148858600Y-78663721D01*
X148858600Y-78843478D01*
X148893664Y-79019756D01*
X148893667Y-79019767D01*
X148908951Y-79056666D01*
X148962453Y-79185831D01*
X149062315Y-79335285D01*
X149189415Y-79462385D01*
X149338869Y-79562247D01*
X149504934Y-79631033D01*
X149504940Y-79631034D01*
X149504943Y-79631035D01*
X149681221Y-79666099D01*
X149681224Y-79666099D01*
X149681227Y-79666100D01*
X149681228Y-79666100D01*
X149860972Y-79666100D01*
X149860973Y-79666100D01*
X150037266Y-79631033D01*
X150203331Y-79562247D01*
X150352785Y-79462385D01*
X150479885Y-79335285D01*
X150579747Y-79185831D01*
X150648533Y-79019766D01*
X150683600Y-78843473D01*
X150683600Y-78663727D01*
X150682440Y-78657894D01*
X150648535Y-78487443D01*
X150648532Y-78487432D01*
X150647973Y-78486083D01*
X150579747Y-78321369D01*
X150479885Y-78171915D01*
X150352785Y-78044815D01*
X150334101Y-78032331D01*
X150303414Y-78011826D01*
X150203331Y-77944953D01*
X150203328Y-77944951D01*
X150203327Y-77944951D01*
X150037267Y-77876167D01*
X150037256Y-77876164D01*
X149860978Y-77841100D01*
X149860973Y-77841100D01*
X149681227Y-77841100D01*
X149680629Y-77841100D01*
X149645981Y-77826748D01*
X149232981Y-77413748D01*
X149218629Y-77379100D01*
X149232981Y-77344452D01*
X149267629Y-77330100D01*
X150545571Y-77330100D01*
X150580219Y-77344452D01*
X151495920Y-78260154D01*
X151510272Y-78294802D01*
X151502962Y-78318907D01*
X151503589Y-78319242D01*
X151502454Y-78321365D01*
X151433667Y-78487432D01*
X151433664Y-78487443D01*
X151398600Y-78663721D01*
X151398600Y-78843478D01*
X151433664Y-79019756D01*
X151433667Y-79019767D01*
X151448951Y-79056666D01*
X151502453Y-79185831D01*
X151602315Y-79335285D01*
X151729415Y-79462385D01*
X151878869Y-79562247D01*
X152044934Y-79631033D01*
X152044940Y-79631034D01*
X152044943Y-79631035D01*
X152221221Y-79666099D01*
X152221224Y-79666099D01*
X152221227Y-79666100D01*
X152221228Y-79666100D01*
X152400972Y-79666100D01*
X152400973Y-79666100D01*
X152577266Y-79631033D01*
X152743331Y-79562247D01*
X152892785Y-79462385D01*
X153019885Y-79335285D01*
X153119747Y-79185831D01*
X153188533Y-79019766D01*
X153207667Y-78923572D01*
X153220735Y-78857878D01*
X153220736Y-78857871D01*
X153223600Y-78843471D01*
X153223600Y-78663728D01*
X153220736Y-78649329D01*
X153220736Y-78649326D01*
X153216215Y-78626599D01*
X153817006Y-78626599D01*
X153817007Y-78626600D01*
X154357138Y-78626600D01*
X154341100Y-78686457D01*
X154341100Y-78820743D01*
X154357138Y-78880600D01*
X153817006Y-78880600D01*
X153852025Y-79056655D01*
X153852028Y-79056666D01*
X153930348Y-79245747D01*
X154044055Y-79415923D01*
X154188776Y-79560644D01*
X154358952Y-79674351D01*
X154548033Y-79752671D01*
X154548044Y-79752674D01*
X154724099Y-79787693D01*
X154724100Y-79787693D01*
X154724100Y-79247561D01*
X154783957Y-79263600D01*
X154918243Y-79263600D01*
X154978100Y-79247561D01*
X154978100Y-79787693D01*
X155154155Y-79752674D01*
X155154166Y-79752671D01*
X155343247Y-79674351D01*
X155513423Y-79560644D01*
X155658144Y-79415923D01*
X155771851Y-79245747D01*
X155850171Y-79056666D01*
X155850174Y-79056655D01*
X155885194Y-78880600D01*
X155345062Y-78880600D01*
X155361100Y-78820743D01*
X155361100Y-78686457D01*
X155345062Y-78626600D01*
X155885193Y-78626600D01*
X155885193Y-78626599D01*
X155850174Y-78450544D01*
X155850171Y-78450533D01*
X155771851Y-78261452D01*
X155658144Y-78091276D01*
X155513423Y-77946555D01*
X155343247Y-77832848D01*
X155154172Y-77754530D01*
X155154154Y-77754525D01*
X154978100Y-77719505D01*
X154978100Y-78259638D01*
X154918243Y-78243600D01*
X154783957Y-78243600D01*
X154724100Y-78259638D01*
X154724100Y-77719505D01*
X154724099Y-77719505D01*
X154548045Y-77754525D01*
X154548027Y-77754530D01*
X154358952Y-77832848D01*
X154188776Y-77946555D01*
X154044055Y-78091276D01*
X153930348Y-78261452D01*
X153852028Y-78450533D01*
X153852025Y-78450544D01*
X153817006Y-78626599D01*
X153216215Y-78626599D01*
X153188535Y-78487443D01*
X153188532Y-78487432D01*
X153187973Y-78486083D01*
X153119747Y-78321369D01*
X153019885Y-78171915D01*
X152892785Y-78044815D01*
X152874101Y-78032331D01*
X152843414Y-78011826D01*
X152743331Y-77944953D01*
X152743328Y-77944951D01*
X152743327Y-77944951D01*
X152577267Y-77876167D01*
X152577256Y-77876164D01*
X152400978Y-77841100D01*
X152400973Y-77841100D01*
X152221227Y-77841100D01*
X152221221Y-77841100D01*
X152044943Y-77876164D01*
X152044932Y-77876167D01*
X151878865Y-77944954D01*
X151876742Y-77946089D01*
X151876249Y-77945168D01*
X151842733Y-77951829D01*
X151817654Y-77938420D01*
X151413613Y-77534379D01*
X150966480Y-77087247D01*
X150952129Y-77052600D01*
X150966481Y-77017952D01*
X151001129Y-77003600D01*
X163695166Y-77003600D01*
X163729814Y-77017952D01*
X163744166Y-77052600D01*
X163729814Y-77087248D01*
X163552822Y-77264239D01*
X163552812Y-77264251D01*
X163372955Y-77498645D01*
X163372945Y-77498660D01*
X163225212Y-77754540D01*
X163112141Y-78027517D01*
X163112137Y-78027527D01*
X163035669Y-78312911D01*
X162997100Y-78605868D01*
X162997100Y-78626600D01*
X164005633Y-78626600D01*
X164001100Y-78655223D01*
X164001100Y-78851977D01*
X164005633Y-78880600D01*
X162997100Y-78880600D01*
X162997100Y-78901331D01*
X162997099Y-78901331D01*
X163035669Y-79194288D01*
X163112137Y-79479672D01*
X163112141Y-79479682D01*
X163225212Y-79752659D01*
X163372945Y-80008539D01*
X163372955Y-80008554D01*
X163552812Y-80242948D01*
X163552822Y-80242960D01*
X163761739Y-80451877D01*
X163761751Y-80451887D01*
X163996145Y-80631744D01*
X163996160Y-80631754D01*
X164252040Y-80779487D01*
X164525017Y-80892558D01*
X164525027Y-80892562D01*
X164810411Y-80969030D01*
X165103368Y-81007600D01*
X165124100Y-81007600D01*
X165124100Y-79999066D01*
X165152723Y-80003600D01*
X165349477Y-80003600D01*
X165378100Y-79999066D01*
X165378100Y-81007600D01*
X165398831Y-81007600D01*
X165691788Y-80969030D01*
X165977172Y-80892562D01*
X165977182Y-80892558D01*
X166250159Y-80779487D01*
X166506039Y-80631754D01*
X166506054Y-80631744D01*
X166740448Y-80451887D01*
X166740460Y-80451877D01*
X166917452Y-80274886D01*
X166952100Y-80260534D01*
X166986748Y-80274886D01*
X167001100Y-80309534D01*
X167001100Y-129697666D01*
X166986748Y-129732314D01*
X166952100Y-129746666D01*
X166917452Y-129732314D01*
X166740460Y-129555322D01*
X166740448Y-129555312D01*
X166506054Y-129375455D01*
X166506039Y-129375445D01*
X166250159Y-129227712D01*
X165977182Y-129114641D01*
X165977172Y-129114637D01*
X165691788Y-129038169D01*
X165398831Y-128999600D01*
X165378100Y-128999600D01*
X165378100Y-130008133D01*
X165349477Y-130003600D01*
X165152723Y-130003600D01*
X165124100Y-130008133D01*
X165124100Y-128999600D01*
X165103369Y-128999600D01*
X164810411Y-129038169D01*
X164525027Y-129114637D01*
X164525017Y-129114641D01*
X164252040Y-129227712D01*
X163996160Y-129375445D01*
X163996145Y-129375455D01*
X163761751Y-129555312D01*
X163761739Y-129555322D01*
X163552822Y-129764239D01*
X163552812Y-129764251D01*
X163372955Y-129998645D01*
X163372945Y-129998660D01*
X163225212Y-130254540D01*
X163112141Y-130527517D01*
X163112137Y-130527527D01*
X163035669Y-130812911D01*
X162997100Y-131105868D01*
X162997100Y-131126600D01*
X164005633Y-131126600D01*
X164001100Y-131155223D01*
X164001100Y-131351977D01*
X164005633Y-131380600D01*
X162997100Y-131380600D01*
X162997100Y-131401331D01*
X162997099Y-131401331D01*
X163035669Y-131694288D01*
X163112137Y-131979672D01*
X163112141Y-131979682D01*
X163225212Y-132252659D01*
X163372945Y-132508539D01*
X163372955Y-132508554D01*
X163552812Y-132742948D01*
X163552822Y-132742960D01*
X163729814Y-132919952D01*
X163744166Y-132954600D01*
X163729814Y-132989248D01*
X163695166Y-133003600D01*
X133307034Y-133003600D01*
X133272386Y-132989248D01*
X133258034Y-132954600D01*
X133272386Y-132919952D01*
X133449377Y-132742960D01*
X133449387Y-132742948D01*
X133629244Y-132508554D01*
X133629254Y-132508539D01*
X133776987Y-132252659D01*
X133890058Y-131979682D01*
X133890062Y-131979672D01*
X133966530Y-131694288D01*
X134005100Y-131401331D01*
X134005100Y-131380600D01*
X132996567Y-131380600D01*
X133001100Y-131351977D01*
X133001100Y-131155223D01*
X132996567Y-131126600D01*
X134005100Y-131126600D01*
X134005100Y-131105868D01*
X133966530Y-130812911D01*
X133910449Y-130603613D01*
X153922101Y-130603613D01*
X153936837Y-130677706D01*
X153992975Y-130761724D01*
X154076993Y-130817862D01*
X154151086Y-130832599D01*
X154374099Y-130832599D01*
X154628100Y-130832599D01*
X154851113Y-130832599D01*
X154925206Y-130817862D01*
X155009224Y-130761724D01*
X155065362Y-130677706D01*
X155080100Y-130603613D01*
X159922101Y-130603613D01*
X159936837Y-130677706D01*
X159992975Y-130761724D01*
X160076993Y-130817862D01*
X160151086Y-130832599D01*
X160374099Y-130832599D01*
X160628100Y-130832599D01*
X160851113Y-130832599D01*
X160925206Y-130817862D01*
X161009224Y-130761724D01*
X161065362Y-130677706D01*
X161080100Y-130603613D01*
X161080100Y-130355600D01*
X160628100Y-130355600D01*
X160628100Y-130832599D01*
X160374099Y-130832599D01*
X160374100Y-130832598D01*
X160374100Y-130355600D01*
X159922101Y-130355600D01*
X159922101Y-130603613D01*
X155080100Y-130603613D01*
X155080100Y-130355600D01*
X154628100Y-130355600D01*
X154628100Y-130832599D01*
X154374099Y-130832599D01*
X154374100Y-130832598D01*
X154374100Y-130355600D01*
X153922101Y-130355600D01*
X153922101Y-130603613D01*
X133910449Y-130603613D01*
X133890062Y-130527527D01*
X133890058Y-130527517D01*
X133818208Y-130354056D01*
X133776987Y-130254540D01*
X133629254Y-129998660D01*
X133629244Y-129998645D01*
X133449387Y-129764251D01*
X133449377Y-129764239D01*
X133240460Y-129555322D01*
X133240448Y-129555312D01*
X133006054Y-129375455D01*
X133006039Y-129375445D01*
X132750159Y-129227712D01*
X132477182Y-129114641D01*
X132477172Y-129114637D01*
X132191788Y-129038169D01*
X131898831Y-128999600D01*
X131878100Y-128999600D01*
X131878100Y-130008133D01*
X131849477Y-130003600D01*
X131652723Y-130003600D01*
X131624100Y-130008133D01*
X131624100Y-128999600D01*
X131603369Y-128999600D01*
X131310411Y-129038169D01*
X131025027Y-129114637D01*
X131025017Y-129114641D01*
X130752040Y-129227712D01*
X130496160Y-129375445D01*
X130496145Y-129375455D01*
X130261751Y-129555312D01*
X130261739Y-129555322D01*
X130084748Y-129732314D01*
X130050100Y-129746666D01*
X130015452Y-129732314D01*
X130001100Y-129697666D01*
X130001100Y-128278613D01*
X131047101Y-128278613D01*
X131061837Y-128352706D01*
X131117975Y-128436724D01*
X131201993Y-128492862D01*
X131276086Y-128507599D01*
X134874100Y-128507599D01*
X135128100Y-128507599D01*
X138726113Y-128507599D01*
X138800206Y-128492862D01*
X138884224Y-128436724D01*
X138940362Y-128352706D01*
X138955100Y-128278613D01*
X140047101Y-128278613D01*
X140061837Y-128352706D01*
X140117975Y-128436724D01*
X140201993Y-128492862D01*
X140276086Y-128507599D01*
X143874100Y-128507599D01*
X144128100Y-128507599D01*
X147726113Y-128507599D01*
X147800206Y-128492862D01*
X147884224Y-128436724D01*
X147940362Y-128352706D01*
X147955100Y-128278613D01*
X147955100Y-127380600D01*
X144128100Y-127380600D01*
X144128100Y-128507599D01*
X143874100Y-128507599D01*
X143874100Y-127380600D01*
X140047101Y-127380600D01*
X140047101Y-128278613D01*
X138955100Y-128278613D01*
X138955100Y-127380600D01*
X135128100Y-127380600D01*
X135128100Y-128507599D01*
X134874100Y-128507599D01*
X134874100Y-127380600D01*
X131047101Y-127380600D01*
X131047101Y-128278613D01*
X130001100Y-128278613D01*
X130001100Y-126228586D01*
X131047100Y-126228586D01*
X131047100Y-127126600D01*
X134874100Y-127126600D01*
X135128100Y-127126600D01*
X138955099Y-127126600D01*
X138955099Y-126228586D01*
X140047100Y-126228586D01*
X140047100Y-127126600D01*
X143874100Y-127126600D01*
X144128100Y-127126600D01*
X147955099Y-127126600D01*
X147955099Y-126228586D01*
X147940362Y-126154493D01*
X147884224Y-126070475D01*
X147800206Y-126014337D01*
X147726114Y-125999600D01*
X144128100Y-125999600D01*
X144128100Y-127126600D01*
X143874100Y-127126600D01*
X143874100Y-125999600D01*
X140276086Y-125999600D01*
X140201993Y-126014337D01*
X140117975Y-126070475D01*
X140061837Y-126154493D01*
X140047100Y-126228586D01*
X138955099Y-126228586D01*
X138940362Y-126154493D01*
X138884224Y-126070475D01*
X138800206Y-126014337D01*
X138726114Y-125999600D01*
X135128100Y-125999600D01*
X135128100Y-127126600D01*
X134874100Y-127126600D01*
X134874100Y-125999600D01*
X131276086Y-125999600D01*
X131201993Y-126014337D01*
X131117975Y-126070475D01*
X131061837Y-126154493D01*
X131047100Y-126228586D01*
X130001100Y-126228586D01*
X130001100Y-105241038D01*
X131173600Y-105241038D01*
X131173600Y-107266161D01*
X131180997Y-107303346D01*
X131209177Y-107345522D01*
X131230265Y-107359612D01*
X131251352Y-107373702D01*
X131288542Y-107381100D01*
X134819600Y-107381100D01*
X134854248Y-107395452D01*
X134868600Y-107430100D01*
X134868600Y-108733304D01*
X134875292Y-108766951D01*
X134878685Y-108784008D01*
X134878688Y-108784018D01*
X134893036Y-108818656D01*
X134921757Y-108861641D01*
X149104248Y-123044132D01*
X149118600Y-123078780D01*
X149118600Y-128204600D01*
X149125292Y-128238247D01*
X149128685Y-128255304D01*
X149128687Y-128255310D01*
X149143037Y-128289954D01*
X149143038Y-128289955D01*
X149156613Y-128314815D01*
X149214745Y-128361662D01*
X149214746Y-128361662D01*
X149214747Y-128361663D01*
X149249385Y-128376011D01*
X149249387Y-128376011D01*
X149249393Y-128376014D01*
X149300100Y-128386100D01*
X149300103Y-128386100D01*
X152952098Y-128386100D01*
X152952100Y-128386100D01*
X152966762Y-128383183D01*
X152972507Y-128382041D01*
X152982065Y-128381100D01*
X153420920Y-128381100D01*
X153455568Y-128395452D01*
X153854248Y-128794132D01*
X153868600Y-128828779D01*
X153868600Y-129483304D01*
X153875292Y-129516951D01*
X153878685Y-129534008D01*
X153878688Y-129534018D01*
X153893036Y-129568656D01*
X153921757Y-129611641D01*
X153969593Y-129659477D01*
X153983945Y-129694125D01*
X153975688Y-129721347D01*
X153936837Y-129779494D01*
X153922100Y-129853586D01*
X153922100Y-130101600D01*
X155080099Y-130101600D01*
X155080099Y-129853586D01*
X155065362Y-129779493D01*
X155026511Y-129721348D01*
X155019195Y-129684565D01*
X155032601Y-129659482D01*
X155080440Y-129611644D01*
X155109162Y-129568659D01*
X155123514Y-129534011D01*
X155133600Y-129483304D01*
X155133600Y-128828779D01*
X155147952Y-128794131D01*
X155546632Y-128395452D01*
X155581280Y-128381100D01*
X156713658Y-128381100D01*
X156750848Y-128373702D01*
X156793022Y-128345522D01*
X156821202Y-128303348D01*
X156828600Y-128266158D01*
X156828600Y-126241042D01*
X156821202Y-126203852D01*
X156807112Y-126182765D01*
X156793022Y-126161677D01*
X156761461Y-126140590D01*
X156750848Y-126133498D01*
X156750847Y-126133497D01*
X156750846Y-126133497D01*
X156713661Y-126126100D01*
X156713658Y-126126100D01*
X153182600Y-126126100D01*
X153147952Y-126111748D01*
X153133600Y-126077100D01*
X153133600Y-121523899D01*
X153133600Y-121523896D01*
X153123514Y-121473189D01*
X153109162Y-121438541D01*
X153099502Y-121424084D01*
X153080442Y-121395558D01*
X138897952Y-107213068D01*
X138883600Y-107178420D01*
X138883600Y-106302603D01*
X138883600Y-106302600D01*
X138873514Y-106251893D01*
X138859162Y-106217245D01*
X138845587Y-106192385D01*
X138845586Y-106192384D01*
X138845585Y-106192382D01*
X138842492Y-106188681D01*
X138843713Y-106187659D01*
X138828880Y-106160480D01*
X138828600Y-106155252D01*
X138828600Y-105241042D01*
X138828599Y-105241038D01*
X140173600Y-105241038D01*
X140173600Y-107266161D01*
X140180997Y-107303346D01*
X140209177Y-107345522D01*
X140230265Y-107359612D01*
X140251352Y-107373702D01*
X140288542Y-107381100D01*
X143819600Y-107381100D01*
X143854248Y-107395452D01*
X143868600Y-107430100D01*
X143868600Y-108733304D01*
X143875292Y-108766951D01*
X143878685Y-108784008D01*
X143878688Y-108784018D01*
X143893036Y-108818656D01*
X143921757Y-108861641D01*
X158104248Y-123044132D01*
X158118600Y-123078780D01*
X158118600Y-128204600D01*
X158125292Y-128238247D01*
X158128685Y-128255304D01*
X158128687Y-128255310D01*
X158143037Y-128289954D01*
X158143038Y-128289955D01*
X158156613Y-128314815D01*
X158214745Y-128361662D01*
X158214746Y-128361662D01*
X158214747Y-128361663D01*
X158249385Y-128376011D01*
X158249387Y-128376011D01*
X158249393Y-128376014D01*
X158300100Y-128386100D01*
X159413420Y-128386100D01*
X159448068Y-128400452D01*
X159854248Y-128806632D01*
X159868600Y-128841280D01*
X159868600Y-129483304D01*
X159875292Y-129516951D01*
X159878685Y-129534008D01*
X159878688Y-129534018D01*
X159893036Y-129568656D01*
X159921757Y-129611641D01*
X159969593Y-129659477D01*
X159983945Y-129694125D01*
X159975688Y-129721347D01*
X159936837Y-129779494D01*
X159922100Y-129853586D01*
X159922100Y-130101600D01*
X161080099Y-130101600D01*
X161080099Y-129853586D01*
X161065362Y-129779493D01*
X161026511Y-129721348D01*
X161019195Y-129684565D01*
X161032603Y-129659478D01*
X161077486Y-129614596D01*
X161105884Y-129572386D01*
X161120232Y-129538359D01*
X161130631Y-129488556D01*
X161138902Y-128835357D01*
X161153249Y-128801332D01*
X161554132Y-128400452D01*
X161588780Y-128386100D01*
X161952098Y-128386100D01*
X161952100Y-128386100D01*
X161966762Y-128383183D01*
X161972507Y-128382041D01*
X161982065Y-128381100D01*
X165713658Y-128381100D01*
X165750848Y-128373702D01*
X165793022Y-128345522D01*
X165821202Y-128303348D01*
X165828600Y-128266158D01*
X165828600Y-126241042D01*
X165821202Y-126203852D01*
X165807112Y-126182765D01*
X165793022Y-126161677D01*
X165761461Y-126140590D01*
X165750848Y-126133498D01*
X165750847Y-126133497D01*
X165750846Y-126133497D01*
X165713661Y-126126100D01*
X165713658Y-126126100D01*
X162182600Y-126126100D01*
X162147952Y-126111748D01*
X162133600Y-126077100D01*
X162133600Y-121523899D01*
X162133600Y-121523896D01*
X162123514Y-121473189D01*
X162109162Y-121438541D01*
X162099502Y-121424084D01*
X162080442Y-121395558D01*
X147897952Y-107213068D01*
X147883600Y-107178420D01*
X147883600Y-106302603D01*
X147883600Y-106302600D01*
X147873514Y-106251893D01*
X147859162Y-106217245D01*
X147845587Y-106192385D01*
X147845586Y-106192384D01*
X147845585Y-106192382D01*
X147842492Y-106188681D01*
X147843713Y-106187659D01*
X147828880Y-106160480D01*
X147828600Y-106155252D01*
X147828600Y-105241042D01*
X147828599Y-105241038D01*
X147825048Y-105223189D01*
X147821202Y-105203852D01*
X147807112Y-105182765D01*
X147793022Y-105161677D01*
X147761461Y-105140590D01*
X147750848Y-105133498D01*
X147750847Y-105133497D01*
X147750846Y-105133497D01*
X147713661Y-105126100D01*
X147713658Y-105126100D01*
X140288542Y-105126100D01*
X140288538Y-105126100D01*
X140251353Y-105133497D01*
X140209177Y-105161677D01*
X140180997Y-105203853D01*
X140173600Y-105241038D01*
X138828599Y-105241038D01*
X138825048Y-105223189D01*
X138821202Y-105203852D01*
X138807112Y-105182765D01*
X138793022Y-105161677D01*
X138761461Y-105140590D01*
X138750848Y-105133498D01*
X138750847Y-105133497D01*
X138750846Y-105133497D01*
X138713661Y-105126100D01*
X138713658Y-105126100D01*
X131288542Y-105126100D01*
X131288538Y-105126100D01*
X131251353Y-105133497D01*
X131209177Y-105161677D01*
X131180997Y-105203853D01*
X131173600Y-105241038D01*
X130001100Y-105241038D01*
X130001100Y-100922098D01*
X137673600Y-100922098D01*
X137673600Y-101085102D01*
X137705400Y-101244973D01*
X137767779Y-101395568D01*
X137828423Y-101486328D01*
X137848315Y-101516100D01*
X137858339Y-101531101D01*
X137973599Y-101646361D01*
X138109132Y-101736921D01*
X138259727Y-101799300D01*
X138419598Y-101831100D01*
X138419601Y-101831100D01*
X138582599Y-101831100D01*
X138582602Y-101831100D01*
X138742473Y-101799300D01*
X138893068Y-101736921D01*
X139028601Y-101646361D01*
X139143861Y-101531101D01*
X139234421Y-101395568D01*
X139296800Y-101244973D01*
X139328600Y-101085102D01*
X139328600Y-100922098D01*
X139296800Y-100762227D01*
X139234421Y-100611632D01*
X139143861Y-100476099D01*
X139028601Y-100360839D01*
X138893068Y-100270279D01*
X138893065Y-100270277D01*
X138893064Y-100270277D01*
X138742476Y-100207901D01*
X138742470Y-100207899D01*
X138677999Y-100195075D01*
X138582602Y-100176100D01*
X138419598Y-100176100D01*
X138340028Y-100191927D01*
X138259729Y-100207899D01*
X138259723Y-100207901D01*
X138109135Y-100270277D01*
X137973599Y-100360838D01*
X137858338Y-100476099D01*
X137767777Y-100611635D01*
X137705401Y-100762223D01*
X137705399Y-100762229D01*
X137692178Y-100828700D01*
X137673600Y-100922098D01*
X130001100Y-100922098D01*
X130001100Y-95291038D01*
X137673600Y-95291038D01*
X137673600Y-96716161D01*
X137680997Y-96753346D01*
X137709177Y-96795522D01*
X137730265Y-96809612D01*
X137751352Y-96823702D01*
X137788542Y-96831100D01*
X139213658Y-96831100D01*
X139250848Y-96823702D01*
X139293022Y-96795522D01*
X139321202Y-96753348D01*
X139328600Y-96716158D01*
X139328600Y-96305100D01*
X139342952Y-96270452D01*
X139377600Y-96256100D01*
X144574600Y-96256100D01*
X144609248Y-96270452D01*
X144623600Y-96305100D01*
X144623600Y-96416161D01*
X144630997Y-96453346D01*
X144659177Y-96495522D01*
X144680265Y-96509612D01*
X144701352Y-96523702D01*
X144738542Y-96531100D01*
X145763658Y-96531100D01*
X145800848Y-96523702D01*
X145843022Y-96495522D01*
X145871202Y-96453348D01*
X145878600Y-96416158D01*
X145878600Y-96305100D01*
X145892952Y-96270452D01*
X145927600Y-96256100D01*
X146126215Y-96256100D01*
X146160863Y-96270452D01*
X146234248Y-96343837D01*
X146248600Y-96378485D01*
X146248600Y-97303826D01*
X146257252Y-97324714D01*
X146287041Y-97396630D01*
X146287042Y-97396631D01*
X146287043Y-97396633D01*
X146608067Y-97717657D01*
X146608068Y-97717657D01*
X146608070Y-97717659D01*
X146700875Y-97756100D01*
X146801325Y-97756100D01*
X147626215Y-97756100D01*
X147660863Y-97770452D01*
X147932863Y-98042452D01*
X147947215Y-98077100D01*
X147932863Y-98111748D01*
X147898215Y-98126100D01*
X147088538Y-98126100D01*
X147051353Y-98133497D01*
X147009177Y-98161677D01*
X146980997Y-98203853D01*
X146973600Y-98241038D01*
X146973600Y-98477100D01*
X146959248Y-98511748D01*
X146924600Y-98526100D01*
X145865630Y-98526100D01*
X145830982Y-98511748D01*
X145492952Y-98173718D01*
X145478600Y-98139070D01*
X145478600Y-98080100D01*
X145492952Y-98045452D01*
X145527600Y-98031100D01*
X145763658Y-98031100D01*
X145800848Y-98023702D01*
X145843022Y-97995522D01*
X145871202Y-97953348D01*
X145878600Y-97916158D01*
X145878600Y-97091042D01*
X145871202Y-97053852D01*
X145854215Y-97028429D01*
X145843022Y-97011677D01*
X145805769Y-96986786D01*
X145800848Y-96983498D01*
X145800847Y-96983497D01*
X145800846Y-96983497D01*
X145763661Y-96976100D01*
X145763658Y-96976100D01*
X144738542Y-96976100D01*
X144738538Y-96976100D01*
X144701353Y-96983497D01*
X144659177Y-97011677D01*
X144630997Y-97053853D01*
X144623600Y-97091038D01*
X144623600Y-97227100D01*
X144609248Y-97261748D01*
X144574600Y-97276100D01*
X144455845Y-97276100D01*
X144390066Y-97303348D01*
X144372230Y-97310735D01*
X144372229Y-97310736D01*
X143671219Y-98011748D01*
X143636571Y-98026100D01*
X139203462Y-98026100D01*
X139168814Y-98011748D01*
X139162720Y-98004323D01*
X139143863Y-97976101D01*
X139028600Y-97860838D01*
X138983828Y-97830923D01*
X138893068Y-97770279D01*
X138893065Y-97770277D01*
X138893064Y-97770277D01*
X138742476Y-97707901D01*
X138742470Y-97707899D01*
X138677999Y-97695075D01*
X138582602Y-97676100D01*
X138419598Y-97676100D01*
X138340028Y-97691927D01*
X138259729Y-97707899D01*
X138259723Y-97707901D01*
X138109135Y-97770277D01*
X137973599Y-97860838D01*
X137858338Y-97976099D01*
X137767777Y-98111635D01*
X137705401Y-98262223D01*
X137705399Y-98262229D01*
X137689427Y-98342528D01*
X137673600Y-98422098D01*
X137673600Y-98585102D01*
X137683744Y-98636100D01*
X137705399Y-98744970D01*
X137705401Y-98744976D01*
X137759678Y-98876012D01*
X137767779Y-98895568D01*
X137828423Y-98986328D01*
X137845140Y-99011348D01*
X137858339Y-99031101D01*
X137973599Y-99146361D01*
X138109132Y-99236921D01*
X138259727Y-99299300D01*
X138419598Y-99331100D01*
X138419601Y-99331100D01*
X138582599Y-99331100D01*
X138582602Y-99331100D01*
X138742473Y-99299300D01*
X138893068Y-99236921D01*
X139028601Y-99146361D01*
X139143861Y-99031101D01*
X139234421Y-98895568D01*
X139296800Y-98744973D01*
X139328600Y-98585102D01*
X139328600Y-98530100D01*
X139342952Y-98495452D01*
X139377600Y-98481100D01*
X143796351Y-98481100D01*
X143796353Y-98481100D01*
X143879968Y-98446465D01*
X144539952Y-97786481D01*
X144574600Y-97772129D01*
X144609248Y-97786481D01*
X144623600Y-97821129D01*
X144623600Y-97916161D01*
X144630997Y-97953346D01*
X144659177Y-97995522D01*
X144680265Y-98009612D01*
X144701352Y-98023702D01*
X144738542Y-98031100D01*
X144974600Y-98031100D01*
X145009248Y-98045452D01*
X145023600Y-98080100D01*
X145023600Y-98208347D01*
X145023600Y-98298853D01*
X145058235Y-98382468D01*
X145058236Y-98382469D01*
X145058237Y-98382471D01*
X145622229Y-98946464D01*
X145622231Y-98946465D01*
X145622232Y-98946466D01*
X145705847Y-98981100D01*
X146924600Y-98981100D01*
X146959248Y-98995452D01*
X146973600Y-99030100D01*
X146973600Y-99266161D01*
X146980997Y-99303346D01*
X147009177Y-99345522D01*
X147030265Y-99359612D01*
X147051352Y-99373702D01*
X147088542Y-99381100D01*
X147913658Y-99381100D01*
X147940040Y-99375852D01*
X147976822Y-99383167D01*
X147997658Y-99414350D01*
X147998600Y-99423910D01*
X147998600Y-100000124D01*
X147984248Y-100034772D01*
X147968352Y-100045394D01*
X147889924Y-100077880D01*
X147765035Y-100161327D01*
X147658827Y-100267535D01*
X147575379Y-100392426D01*
X147517903Y-100531184D01*
X147517901Y-100531193D01*
X147488600Y-100678496D01*
X147488600Y-100828703D01*
X147517901Y-100976006D01*
X147517903Y-100976015D01*
X147575379Y-101114773D01*
X147575380Y-101114775D01*
X147575382Y-101114779D01*
X147658828Y-101239665D01*
X147765035Y-101345872D01*
X147889921Y-101429318D01*
X147889926Y-101429320D01*
X148028684Y-101486796D01*
X148028685Y-101486796D01*
X148028687Y-101486797D01*
X148176000Y-101516100D01*
X148326200Y-101516100D01*
X148473513Y-101486797D01*
X148612279Y-101429318D01*
X148737165Y-101345872D01*
X148843372Y-101239665D01*
X148926818Y-101114779D01*
X148984297Y-100976013D01*
X149013600Y-100828700D01*
X149013600Y-100678500D01*
X148992940Y-100574642D01*
X149000255Y-100537863D01*
X149006345Y-100530442D01*
X150215159Y-99321630D01*
X150253600Y-99228825D01*
X150253600Y-99128375D01*
X150253600Y-96803484D01*
X150267951Y-96768837D01*
X150609952Y-96426835D01*
X150644600Y-96412484D01*
X150679248Y-96426836D01*
X150693600Y-96461484D01*
X150693600Y-103353420D01*
X150679248Y-103388068D01*
X149171758Y-104895557D01*
X149171757Y-104895558D01*
X149143036Y-104938543D01*
X149128688Y-104973181D01*
X149128685Y-104973191D01*
X149123619Y-104998660D01*
X149118600Y-105023896D01*
X149118600Y-107233304D01*
X149125135Y-107266158D01*
X149128685Y-107284008D01*
X149128688Y-107284018D01*
X149143036Y-107318656D01*
X149171757Y-107361641D01*
X149893058Y-108082942D01*
X149921584Y-108102002D01*
X149936041Y-108111662D01*
X149936042Y-108111662D01*
X149936043Y-108111663D01*
X149970681Y-108126011D01*
X149970683Y-108126011D01*
X149970689Y-108126014D01*
X150021396Y-108136100D01*
X150021399Y-108136100D01*
X164980801Y-108136100D01*
X164980804Y-108136100D01*
X165031511Y-108126014D01*
X165066159Y-108111662D01*
X165109144Y-108082940D01*
X165830440Y-107361644D01*
X165859162Y-107318659D01*
X165873514Y-107284011D01*
X165883600Y-107233304D01*
X165883600Y-105273896D01*
X165873514Y-105223189D01*
X165859162Y-105188541D01*
X165841212Y-105161677D01*
X165830442Y-105145558D01*
X165109141Y-104424257D01*
X165066156Y-104395536D01*
X165031518Y-104381188D01*
X165031508Y-104381185D01*
X165011059Y-104377117D01*
X164980804Y-104371100D01*
X164980801Y-104371100D01*
X162277600Y-104371100D01*
X162242952Y-104356748D01*
X162228600Y-104322100D01*
X162228600Y-101380590D01*
X164869944Y-101380590D01*
X164896262Y-101512895D01*
X164896263Y-101512900D01*
X164963277Y-101674685D01*
X165060568Y-101820293D01*
X165184396Y-101944121D01*
X165330004Y-102041412D01*
X165491784Y-102108424D01*
X165491790Y-102108426D01*
X165624100Y-102134743D01*
X165878100Y-102134743D01*
X166010409Y-102108426D01*
X166010415Y-102108424D01*
X166172195Y-102041412D01*
X166317803Y-101944121D01*
X166441631Y-101820293D01*
X166538922Y-101674685D01*
X166605936Y-101512900D01*
X166605937Y-101512895D01*
X166632255Y-101380590D01*
X165878100Y-101380590D01*
X165878100Y-102134743D01*
X165624100Y-102134743D01*
X165624100Y-101380590D01*
X164869944Y-101380590D01*
X162228600Y-101380590D01*
X162228600Y-101126589D01*
X164869944Y-101126589D01*
X164869944Y-101126590D01*
X165624100Y-101126590D01*
X165878100Y-101126590D01*
X166632256Y-101126590D01*
X166632255Y-101126589D01*
X166605937Y-100994284D01*
X166605936Y-100994279D01*
X166538922Y-100832494D01*
X166441631Y-100686886D01*
X166317803Y-100563058D01*
X166172195Y-100465767D01*
X166010410Y-100398753D01*
X166010405Y-100398752D01*
X165878100Y-100372434D01*
X165878100Y-101126590D01*
X165624100Y-101126590D01*
X165624100Y-100372434D01*
X165624099Y-100372434D01*
X165491794Y-100398752D01*
X165491789Y-100398753D01*
X165330004Y-100465767D01*
X165184396Y-100563058D01*
X165060568Y-100686886D01*
X164963277Y-100832494D01*
X164896263Y-100994279D01*
X164896262Y-100994284D01*
X164869944Y-101126589D01*
X162228600Y-101126589D01*
X162228600Y-100868129D01*
X162242952Y-100833481D01*
X164080981Y-98995452D01*
X164115629Y-98981100D01*
X164987269Y-98981100D01*
X165021917Y-98995452D01*
X165032539Y-99011348D01*
X165075379Y-99114773D01*
X165075382Y-99114779D01*
X165131262Y-99198409D01*
X165156994Y-99236921D01*
X165158828Y-99239665D01*
X165265035Y-99345872D01*
X165389921Y-99429318D01*
X165389926Y-99429320D01*
X165528684Y-99486796D01*
X165528685Y-99486796D01*
X165528687Y-99486797D01*
X165676000Y-99516100D01*
X165826200Y-99516100D01*
X165973513Y-99486797D01*
X166112279Y-99429318D01*
X166237165Y-99345872D01*
X166343372Y-99239665D01*
X166426818Y-99114779D01*
X166484297Y-98976013D01*
X166513600Y-98828700D01*
X166513600Y-98678500D01*
X166484297Y-98531187D01*
X166426818Y-98392421D01*
X166343372Y-98267535D01*
X166237165Y-98161328D01*
X166112279Y-98077882D01*
X166112275Y-98077880D01*
X166112273Y-98077879D01*
X165973515Y-98020403D01*
X165973506Y-98020401D01*
X165826203Y-97991100D01*
X165826200Y-97991100D01*
X165676000Y-97991100D01*
X165675996Y-97991100D01*
X165528693Y-98020401D01*
X165528684Y-98020403D01*
X165389926Y-98077879D01*
X165389922Y-98077881D01*
X165389921Y-98077882D01*
X165386602Y-98080100D01*
X165265035Y-98161327D01*
X165158827Y-98267535D01*
X165075380Y-98392424D01*
X165032539Y-98495852D01*
X165006020Y-98522370D01*
X164987269Y-98526100D01*
X163955845Y-98526100D01*
X163872230Y-98560736D01*
X163872229Y-98560736D01*
X161872232Y-100560735D01*
X161808236Y-100624729D01*
X161808236Y-100624730D01*
X161773600Y-100708345D01*
X161773600Y-104322100D01*
X161759248Y-104356748D01*
X161724600Y-104371100D01*
X152076280Y-104371100D01*
X152041632Y-104356748D01*
X151822952Y-104138068D01*
X151808600Y-104103420D01*
X151808600Y-100079768D01*
X151822952Y-100045120D01*
X151857600Y-100030768D01*
X151863997Y-100031187D01*
X151914218Y-100037800D01*
X152124100Y-100037800D01*
X152378100Y-100037800D01*
X152587983Y-100037800D01*
X152637000Y-100031346D01*
X152744566Y-99981187D01*
X152744568Y-99981186D01*
X152828486Y-99897268D01*
X152828487Y-99897266D01*
X152878646Y-99789700D01*
X152885100Y-99740683D01*
X152885100Y-99580600D01*
X152378100Y-99580600D01*
X152378100Y-100037800D01*
X152124100Y-100037800D01*
X152124100Y-99326600D01*
X152378100Y-99326600D01*
X152885100Y-99326600D01*
X152885100Y-99166516D01*
X152878646Y-99117499D01*
X152828487Y-99009933D01*
X152828486Y-99009931D01*
X152744568Y-98926013D01*
X152744566Y-98926012D01*
X152637000Y-98875853D01*
X152587983Y-98869400D01*
X152378100Y-98869400D01*
X152378100Y-99326600D01*
X152124100Y-99326600D01*
X152124100Y-98869400D01*
X151914217Y-98869400D01*
X151863996Y-98876012D01*
X151827771Y-98866306D01*
X151809019Y-98833827D01*
X151808600Y-98827431D01*
X151808600Y-98616780D01*
X151822952Y-98582132D01*
X151857600Y-98567780D01*
X151891031Y-98581628D01*
X151891203Y-98581419D01*
X151891891Y-98581984D01*
X151892248Y-98582132D01*
X151893058Y-98582942D01*
X151921584Y-98602002D01*
X151936041Y-98611662D01*
X151936042Y-98611662D01*
X151936043Y-98611663D01*
X151970681Y-98626011D01*
X151970683Y-98626011D01*
X151970689Y-98626014D01*
X152021396Y-98636100D01*
X152675920Y-98636100D01*
X152710568Y-98650452D01*
X153414248Y-99354132D01*
X153428600Y-99388780D01*
X153428600Y-100216161D01*
X153435997Y-100253346D01*
X153464177Y-100295522D01*
X153485265Y-100309612D01*
X153506352Y-100323702D01*
X153543542Y-100331100D01*
X157458658Y-100331100D01*
X157495848Y-100323702D01*
X157538022Y-100295522D01*
X157566202Y-100253348D01*
X157573600Y-100216158D01*
X157573600Y-99755100D01*
X157587952Y-99720452D01*
X157622600Y-99706100D01*
X159571351Y-99706100D01*
X159571353Y-99706100D01*
X159654968Y-99671465D01*
X162830982Y-96495441D01*
X162865630Y-96481090D01*
X164987269Y-96481090D01*
X165021917Y-96495442D01*
X165032539Y-96511338D01*
X165075379Y-96614763D01*
X165075382Y-96614769D01*
X165129726Y-96696100D01*
X165153111Y-96731100D01*
X165158828Y-96739655D01*
X165265035Y-96845862D01*
X165389921Y-96929308D01*
X165389926Y-96929310D01*
X165528684Y-96986786D01*
X165528685Y-96986786D01*
X165528687Y-96986787D01*
X165676000Y-97016090D01*
X165826200Y-97016090D01*
X165973513Y-96986787D01*
X166112279Y-96929308D01*
X166237165Y-96845862D01*
X166343372Y-96739655D01*
X166426818Y-96614769D01*
X166484297Y-96476003D01*
X166513600Y-96328690D01*
X166513600Y-96178490D01*
X166484297Y-96031177D01*
X166483578Y-96029442D01*
X166426820Y-95892416D01*
X166426819Y-95892414D01*
X166426818Y-95892411D01*
X166343372Y-95767525D01*
X166237165Y-95661318D01*
X166229354Y-95656099D01*
X166206257Y-95640666D01*
X166112279Y-95577872D01*
X166112275Y-95577870D01*
X166112273Y-95577869D01*
X165973515Y-95520393D01*
X165973506Y-95520391D01*
X165826203Y-95491090D01*
X165826200Y-95491090D01*
X165676000Y-95491090D01*
X165675996Y-95491090D01*
X165528693Y-95520391D01*
X165528684Y-95520393D01*
X165389926Y-95577869D01*
X165389922Y-95577871D01*
X165389921Y-95577872D01*
X165386346Y-95580261D01*
X165265035Y-95661317D01*
X165158827Y-95767525D01*
X165075380Y-95892414D01*
X165032539Y-95995842D01*
X165006020Y-96022360D01*
X164987269Y-96026090D01*
X162705845Y-96026090D01*
X162622230Y-96060726D01*
X162622229Y-96060726D01*
X159446218Y-99236748D01*
X159411570Y-99251100D01*
X157622600Y-99251100D01*
X157587952Y-99236748D01*
X157573600Y-99202100D01*
X157573600Y-98741042D01*
X157573599Y-98741038D01*
X157566202Y-98703853D01*
X157566202Y-98703852D01*
X157549260Y-98678496D01*
X157538022Y-98661677D01*
X157499742Y-98636100D01*
X157495848Y-98633498D01*
X157495847Y-98633497D01*
X157495846Y-98633497D01*
X157458661Y-98626100D01*
X157458658Y-98626100D01*
X154806276Y-98626100D01*
X154771628Y-98611748D01*
X154458732Y-98298853D01*
X153624622Y-97464747D01*
X153610271Y-97430100D01*
X153624623Y-97395452D01*
X153659271Y-97381100D01*
X157458658Y-97381100D01*
X157495848Y-97373702D01*
X157538022Y-97345522D01*
X157566202Y-97303348D01*
X157573600Y-97266158D01*
X157573600Y-95791042D01*
X157566202Y-95753852D01*
X157552112Y-95732765D01*
X157538022Y-95711677D01*
X157506461Y-95690590D01*
X157495848Y-95683498D01*
X157495847Y-95683497D01*
X157495846Y-95683497D01*
X157458661Y-95676100D01*
X157458658Y-95676100D01*
X155256280Y-95676100D01*
X155221632Y-95661748D01*
X154779632Y-95219748D01*
X154765280Y-95185100D01*
X154779632Y-95150452D01*
X154814280Y-95136100D01*
X156230801Y-95136100D01*
X156230804Y-95136100D01*
X156281511Y-95126014D01*
X156300949Y-95117961D01*
X156338452Y-95117960D01*
X156354350Y-95128583D01*
X156608235Y-95382468D01*
X156672229Y-95446463D01*
X156672230Y-95446463D01*
X156672232Y-95446465D01*
X156755847Y-95481100D01*
X156755849Y-95481100D01*
X163046351Y-95481100D01*
X163046353Y-95481100D01*
X163129968Y-95446465D01*
X164580981Y-93995452D01*
X164615629Y-93981100D01*
X164987269Y-93981100D01*
X165021917Y-93995452D01*
X165032539Y-94011348D01*
X165075379Y-94114773D01*
X165075382Y-94114779D01*
X165158828Y-94239665D01*
X165265035Y-94345872D01*
X165389921Y-94429318D01*
X165389926Y-94429320D01*
X165528684Y-94486796D01*
X165528685Y-94486796D01*
X165528687Y-94486797D01*
X165676000Y-94516100D01*
X165826200Y-94516100D01*
X165973513Y-94486797D01*
X166112279Y-94429318D01*
X166237165Y-94345872D01*
X166343372Y-94239665D01*
X166426818Y-94114779D01*
X166484297Y-93976013D01*
X166513600Y-93828700D01*
X166513600Y-93678500D01*
X166484297Y-93531187D01*
X166464461Y-93483300D01*
X166426820Y-93392426D01*
X166426819Y-93392424D01*
X166426818Y-93392421D01*
X166343372Y-93267535D01*
X166237165Y-93161328D01*
X166231021Y-93157223D01*
X166190279Y-93130000D01*
X166112279Y-93077882D01*
X166112275Y-93077880D01*
X166112273Y-93077879D01*
X165973515Y-93020403D01*
X165973506Y-93020401D01*
X165826203Y-92991100D01*
X165826200Y-92991100D01*
X165676000Y-92991100D01*
X165675996Y-92991100D01*
X165528693Y-93020401D01*
X165528684Y-93020403D01*
X165389926Y-93077879D01*
X165389922Y-93077881D01*
X165389921Y-93077882D01*
X165358175Y-93099093D01*
X165265035Y-93161327D01*
X165158827Y-93267535D01*
X165075380Y-93392424D01*
X165032539Y-93495852D01*
X165006020Y-93522370D01*
X164987269Y-93526100D01*
X164455845Y-93526100D01*
X164372230Y-93560736D01*
X164372229Y-93560736D01*
X162921219Y-95011748D01*
X162886571Y-95026100D01*
X158042064Y-95026100D01*
X158007416Y-95011748D01*
X157993064Y-94977100D01*
X157997655Y-94956392D01*
X158028846Y-94889500D01*
X158035300Y-94840483D01*
X158035300Y-94630600D01*
X156866900Y-94630600D01*
X156866900Y-94840483D01*
X156871890Y-94878384D01*
X156862184Y-94914609D01*
X156829705Y-94933361D01*
X156793480Y-94923655D01*
X156788661Y-94919428D01*
X156646966Y-94777733D01*
X156632614Y-94743085D01*
X156633557Y-94733518D01*
X156633600Y-94733304D01*
X156633600Y-94273896D01*
X156623514Y-94223189D01*
X156612443Y-94196463D01*
X156609163Y-94188543D01*
X156594579Y-94166716D01*
X156866900Y-94166716D01*
X156866900Y-94376600D01*
X157324100Y-94376600D01*
X157578100Y-94376600D01*
X158035300Y-94376600D01*
X158035300Y-94166716D01*
X158028846Y-94117699D01*
X157978687Y-94010133D01*
X157978686Y-94010131D01*
X157894768Y-93926213D01*
X157894766Y-93926212D01*
X157787200Y-93876053D01*
X157738183Y-93869600D01*
X157578100Y-93869600D01*
X157578100Y-94376600D01*
X157324100Y-94376600D01*
X157324100Y-93869600D01*
X157164017Y-93869600D01*
X157114999Y-93876053D01*
X157007433Y-93926212D01*
X157007431Y-93926213D01*
X156923513Y-94010131D01*
X156923512Y-94010133D01*
X156873353Y-94117699D01*
X156866900Y-94166716D01*
X156594579Y-94166716D01*
X156580442Y-94145558D01*
X156359140Y-93924256D01*
X156351786Y-93919343D01*
X156330949Y-93888161D01*
X156338264Y-93851379D01*
X156351786Y-93837857D01*
X156359140Y-93832943D01*
X156359140Y-93832942D01*
X156359144Y-93832940D01*
X156580440Y-93611644D01*
X156609162Y-93568659D01*
X156623514Y-93534011D01*
X156633600Y-93483304D01*
X156633600Y-93240683D01*
X156867100Y-93240683D01*
X156873553Y-93289700D01*
X156923712Y-93397266D01*
X156923713Y-93397268D01*
X157007631Y-93481186D01*
X157007633Y-93481187D01*
X157115199Y-93531346D01*
X157164217Y-93537800D01*
X157374100Y-93537800D01*
X157628100Y-93537800D01*
X157837983Y-93537800D01*
X157887000Y-93531346D01*
X157994566Y-93481187D01*
X157994568Y-93481186D01*
X158078486Y-93397268D01*
X158078487Y-93397266D01*
X158128646Y-93289700D01*
X158135100Y-93240683D01*
X158135100Y-93080600D01*
X157628100Y-93080600D01*
X157628100Y-93537800D01*
X157374100Y-93537800D01*
X157374100Y-93080600D01*
X156867100Y-93080600D01*
X156867100Y-93240683D01*
X156633600Y-93240683D01*
X156633600Y-92773896D01*
X156623514Y-92723189D01*
X156614068Y-92700386D01*
X156609163Y-92688543D01*
X156608222Y-92687135D01*
X156594445Y-92666516D01*
X156867100Y-92666516D01*
X156867100Y-92826600D01*
X157374100Y-92826600D01*
X157628100Y-92826600D01*
X158135100Y-92826600D01*
X158135100Y-92666516D01*
X158128646Y-92617499D01*
X158078487Y-92509933D01*
X158078486Y-92509931D01*
X157994568Y-92426013D01*
X157994566Y-92426012D01*
X157887000Y-92375853D01*
X157837983Y-92369400D01*
X157628100Y-92369400D01*
X157628100Y-92826600D01*
X157374100Y-92826600D01*
X157374100Y-92369400D01*
X157164217Y-92369400D01*
X157115199Y-92375853D01*
X157007633Y-92426012D01*
X157007631Y-92426013D01*
X156923713Y-92509931D01*
X156923712Y-92509933D01*
X156873553Y-92617499D01*
X156867100Y-92666516D01*
X156594445Y-92666516D01*
X156580442Y-92645558D01*
X156359141Y-92424257D01*
X156316156Y-92395536D01*
X156281518Y-92381188D01*
X156281508Y-92381185D01*
X156261059Y-92377117D01*
X156230804Y-92371100D01*
X156230801Y-92371100D01*
X155439277Y-92371100D01*
X155404629Y-92356748D01*
X155390277Y-92322100D01*
X155404629Y-92287452D01*
X155404629Y-92287451D01*
X155541632Y-92150451D01*
X155576280Y-92136100D01*
X157730801Y-92136100D01*
X157730804Y-92136100D01*
X157781511Y-92126014D01*
X157816159Y-92111662D01*
X157859144Y-92082940D01*
X158041632Y-91900452D01*
X158076280Y-91886100D01*
X159813437Y-91886100D01*
X159848085Y-91900452D01*
X159854178Y-91907876D01*
X159862203Y-91919887D01*
X159906911Y-91986797D01*
X159908828Y-91989665D01*
X160015035Y-92095872D01*
X160139921Y-92179318D01*
X160160058Y-92187659D01*
X160278684Y-92236796D01*
X160278685Y-92236796D01*
X160278687Y-92236797D01*
X160426000Y-92266100D01*
X160576200Y-92266100D01*
X160723513Y-92236797D01*
X160862279Y-92179318D01*
X160987165Y-92095872D01*
X161093372Y-91989665D01*
X161176818Y-91864779D01*
X161234297Y-91726013D01*
X161263600Y-91578700D01*
X161263600Y-91530100D01*
X161277952Y-91495452D01*
X161312600Y-91481100D01*
X164987269Y-91481100D01*
X165021917Y-91495452D01*
X165032539Y-91511348D01*
X165075379Y-91614773D01*
X165075382Y-91614779D01*
X165105042Y-91659168D01*
X165150951Y-91727877D01*
X165158828Y-91739665D01*
X165265035Y-91845872D01*
X165389921Y-91929318D01*
X165389926Y-91929320D01*
X165528684Y-91986796D01*
X165528685Y-91986796D01*
X165528687Y-91986797D01*
X165676000Y-92016100D01*
X165826200Y-92016100D01*
X165973513Y-91986797D01*
X166112279Y-91929318D01*
X166237165Y-91845872D01*
X166343372Y-91739665D01*
X166426818Y-91614779D01*
X166484297Y-91476013D01*
X166513600Y-91328700D01*
X166513600Y-91178500D01*
X166484297Y-91031187D01*
X166481543Y-91024539D01*
X166428448Y-90896356D01*
X166426818Y-90892421D01*
X166343372Y-90767535D01*
X166237165Y-90661328D01*
X166234586Y-90659605D01*
X166166869Y-90614358D01*
X166112279Y-90577882D01*
X166112275Y-90577880D01*
X166112273Y-90577879D01*
X165973515Y-90520403D01*
X165973506Y-90520401D01*
X165826203Y-90491100D01*
X165826200Y-90491100D01*
X165676000Y-90491100D01*
X165675996Y-90491100D01*
X165528693Y-90520401D01*
X165528684Y-90520403D01*
X165389926Y-90577879D01*
X165389922Y-90577881D01*
X165389921Y-90577882D01*
X165358175Y-90599093D01*
X165265035Y-90661327D01*
X165158827Y-90767535D01*
X165075380Y-90892424D01*
X165032539Y-90995852D01*
X165006020Y-91022370D01*
X164987269Y-91026100D01*
X161122233Y-91026100D01*
X161087585Y-91011748D01*
X160987164Y-90911327D01*
X160950224Y-90886645D01*
X160862279Y-90827882D01*
X160862275Y-90827880D01*
X160862273Y-90827879D01*
X160723515Y-90770403D01*
X160723506Y-90770401D01*
X160576203Y-90741100D01*
X160576200Y-90741100D01*
X160426000Y-90741100D01*
X160425996Y-90741100D01*
X160278693Y-90770401D01*
X160278684Y-90770403D01*
X160139926Y-90827879D01*
X160139922Y-90827881D01*
X160139921Y-90827882D01*
X160108175Y-90849093D01*
X160015035Y-90911327D01*
X159908827Y-91017535D01*
X159854179Y-91099323D01*
X159822996Y-91120158D01*
X159813437Y-91121100D01*
X158373629Y-91121100D01*
X158338981Y-91106748D01*
X158324629Y-91072100D01*
X158338981Y-91037452D01*
X158603079Y-90773355D01*
X158943966Y-90432468D01*
X158978600Y-90348853D01*
X158978600Y-90258347D01*
X158978600Y-90005100D01*
X158992952Y-89970452D01*
X159027600Y-89956100D01*
X159163658Y-89956100D01*
X159200848Y-89948702D01*
X159243022Y-89920522D01*
X159243021Y-89920522D01*
X159247035Y-89917841D01*
X159248049Y-89919359D01*
X159276100Y-89907741D01*
X159304150Y-89919359D01*
X159305165Y-89917841D01*
X159323073Y-89929806D01*
X159351352Y-89948702D01*
X159388542Y-89956100D01*
X160113658Y-89956100D01*
X160150848Y-89948702D01*
X160193022Y-89920522D01*
X160221202Y-89878348D01*
X160228600Y-89841158D01*
X160228600Y-89780100D01*
X160242952Y-89745452D01*
X160277600Y-89731100D01*
X160799600Y-89731100D01*
X160834248Y-89745452D01*
X160848600Y-89780100D01*
X160848600Y-89841161D01*
X160855997Y-89878346D01*
X160884177Y-89920522D01*
X160902763Y-89932940D01*
X160926352Y-89948702D01*
X160963542Y-89956100D01*
X161679618Y-89956100D01*
X161714266Y-89970452D01*
X161720360Y-89977877D01*
X161742975Y-90011724D01*
X161826993Y-90067862D01*
X161901086Y-90082599D01*
X162149099Y-90082599D01*
X162403100Y-90082599D01*
X162651113Y-90082599D01*
X162725206Y-90067862D01*
X162809224Y-90011724D01*
X162865362Y-89927706D01*
X162880100Y-89853613D01*
X162880100Y-89630600D01*
X162403100Y-89630600D01*
X162403100Y-90082599D01*
X162149099Y-90082599D01*
X162149100Y-90082598D01*
X162149100Y-89376600D01*
X162403100Y-89376600D01*
X162880099Y-89376600D01*
X162880099Y-89153586D01*
X162865362Y-89079493D01*
X162809224Y-88995475D01*
X162725206Y-88939337D01*
X162651114Y-88924600D01*
X162403100Y-88924600D01*
X162403100Y-89376600D01*
X162149100Y-89376600D01*
X162149100Y-88924600D01*
X161901087Y-88924600D01*
X161826993Y-88939337D01*
X161742975Y-88995475D01*
X161720360Y-89029323D01*
X161689178Y-89050158D01*
X161679618Y-89051100D01*
X160963538Y-89051100D01*
X160926353Y-89058497D01*
X160884177Y-89086677D01*
X160855997Y-89128853D01*
X160848600Y-89166038D01*
X160848600Y-89227100D01*
X160834248Y-89261748D01*
X160799600Y-89276100D01*
X160277600Y-89276100D01*
X160242952Y-89261748D01*
X160228600Y-89227100D01*
X160228600Y-89166042D01*
X160228599Y-89166038D01*
X160223618Y-89141000D01*
X160221202Y-89128852D01*
X160207112Y-89107765D01*
X160193022Y-89086677D01*
X160153184Y-89060059D01*
X160150848Y-89058498D01*
X160150847Y-89058497D01*
X160150846Y-89058497D01*
X160113661Y-89051100D01*
X160113658Y-89051100D01*
X160027600Y-89051100D01*
X159992952Y-89036748D01*
X159978600Y-89002100D01*
X159978600Y-88944449D01*
X159978599Y-88944445D01*
X159974275Y-88934006D01*
X159943965Y-88860832D01*
X159943963Y-88860830D01*
X159943963Y-88860829D01*
X159879968Y-88796834D01*
X159865242Y-88790734D01*
X159849347Y-88780113D01*
X159633982Y-88564748D01*
X159619630Y-88530100D01*
X159633982Y-88495452D01*
X159668630Y-88481100D01*
X160074600Y-88481100D01*
X160109248Y-88495452D01*
X160123600Y-88530100D01*
X160123600Y-88553301D01*
X160149325Y-88649307D01*
X160149326Y-88649311D01*
X160193474Y-88725775D01*
X160199025Y-88735390D01*
X160269310Y-88805675D01*
X160279649Y-88811644D01*
X160355388Y-88855373D01*
X160355390Y-88855373D01*
X160355391Y-88855374D01*
X160379393Y-88861805D01*
X160451398Y-88881100D01*
X160451401Y-88881100D01*
X160550801Y-88881100D01*
X160598804Y-88868237D01*
X160646809Y-88855374D01*
X160732890Y-88805675D01*
X160803175Y-88735390D01*
X160852874Y-88649309D01*
X160871773Y-88578779D01*
X160878600Y-88553301D01*
X160878600Y-88453898D01*
X160852874Y-88357892D01*
X160852873Y-88357888D01*
X160803174Y-88271809D01*
X160732890Y-88201525D01*
X160646811Y-88151826D01*
X160646807Y-88151825D01*
X160550802Y-88126100D01*
X160550799Y-88126100D01*
X160465629Y-88126100D01*
X160430981Y-88111748D01*
X160379968Y-88060735D01*
X160296354Y-88026100D01*
X160296353Y-88026100D01*
X160196545Y-88026100D01*
X160161897Y-88011748D01*
X160147545Y-87977100D01*
X160161897Y-87942452D01*
X160169322Y-87936358D01*
X160193022Y-87920522D01*
X160198315Y-87912600D01*
X160221202Y-87878348D01*
X160228600Y-87841158D01*
X160228600Y-87780100D01*
X160242952Y-87745452D01*
X160277600Y-87731100D01*
X160799600Y-87731100D01*
X160834248Y-87745452D01*
X160848600Y-87780100D01*
X160848600Y-87841161D01*
X160855997Y-87878346D01*
X160855997Y-87878347D01*
X160855998Y-87878348D01*
X160857896Y-87881188D01*
X160884177Y-87920522D01*
X160905265Y-87934612D01*
X160926352Y-87948702D01*
X160963542Y-87956100D01*
X161679618Y-87956100D01*
X161714266Y-87970452D01*
X161720360Y-87977877D01*
X161742975Y-88011724D01*
X161826993Y-88067862D01*
X161901086Y-88082599D01*
X162149099Y-88082599D01*
X162403100Y-88082599D01*
X162651113Y-88082599D01*
X162725206Y-88067862D01*
X162809224Y-88011724D01*
X162865362Y-87927706D01*
X162880100Y-87853613D01*
X162880100Y-87630600D01*
X162403100Y-87630600D01*
X162403100Y-88082599D01*
X162149099Y-88082599D01*
X162149100Y-88082598D01*
X162149100Y-87376600D01*
X162403100Y-87376600D01*
X162880099Y-87376600D01*
X162880099Y-87153586D01*
X162865362Y-87079493D01*
X162809224Y-86995475D01*
X162725206Y-86939337D01*
X162651114Y-86924600D01*
X162403100Y-86924600D01*
X162403100Y-87376600D01*
X162149100Y-87376600D01*
X162149100Y-86924600D01*
X161901087Y-86924600D01*
X161826993Y-86939337D01*
X161742975Y-86995475D01*
X161720360Y-87029323D01*
X161689178Y-87050158D01*
X161679618Y-87051100D01*
X160963538Y-87051100D01*
X160926353Y-87058497D01*
X160884177Y-87086677D01*
X160855997Y-87128853D01*
X160848600Y-87166038D01*
X160848600Y-87227100D01*
X160834248Y-87261748D01*
X160799600Y-87276100D01*
X160277600Y-87276100D01*
X160242952Y-87261748D01*
X160228600Y-87227100D01*
X160228600Y-87166042D01*
X160228599Y-87166038D01*
X160221202Y-87128853D01*
X160221202Y-87128852D01*
X160197988Y-87094110D01*
X160193022Y-87086677D01*
X160161461Y-87065590D01*
X160150848Y-87058498D01*
X160150847Y-87058497D01*
X160150846Y-87058497D01*
X160113661Y-87051100D01*
X160113658Y-87051100D01*
X160027600Y-87051100D01*
X159992952Y-87036748D01*
X159978600Y-87002100D01*
X159978600Y-86944449D01*
X159978599Y-86944445D01*
X159957256Y-86892920D01*
X159943965Y-86860832D01*
X159943963Y-86860830D01*
X159943963Y-86860829D01*
X159879968Y-86796834D01*
X159865240Y-86790733D01*
X159849345Y-86780112D01*
X159379970Y-86310736D01*
X159379965Y-86310734D01*
X159333068Y-86291308D01*
X159296354Y-86276100D01*
X159296353Y-86276100D01*
X156096353Y-86276100D01*
X156005847Y-86276100D01*
X156005845Y-86276100D01*
X156005843Y-86276101D01*
X155922231Y-86310734D01*
X155922229Y-86310735D01*
X153057319Y-89175648D01*
X153022671Y-89190000D01*
X152876500Y-89190000D01*
X152841852Y-89175648D01*
X152827500Y-89141000D01*
X152827500Y-89060059D01*
X152827500Y-89060056D01*
X152815751Y-89000988D01*
X152815150Y-89000088D01*
X152770994Y-88934005D01*
X152704012Y-88889249D01*
X152704013Y-88889249D01*
X152689245Y-88886311D01*
X152644944Y-88877500D01*
X152455056Y-88877500D01*
X152455055Y-88877500D01*
X152424623Y-88883552D01*
X152387841Y-88876234D01*
X152380418Y-88870141D01*
X152316620Y-88806343D01*
X152316618Y-88806342D01*
X152211466Y-88757308D01*
X152177000Y-88752770D01*
X152177000Y-90082228D01*
X152211464Y-90077692D01*
X152316617Y-90028658D01*
X152380417Y-89964857D01*
X152415065Y-89950505D01*
X152424623Y-89951446D01*
X152455056Y-89957500D01*
X152644941Y-89957500D01*
X152644944Y-89957500D01*
X152704012Y-89945751D01*
X152770994Y-89900994D01*
X152815751Y-89834012D01*
X152827500Y-89774944D01*
X152827500Y-89694000D01*
X152841852Y-89659352D01*
X152876500Y-89645000D01*
X153182451Y-89645000D01*
X153182453Y-89645000D01*
X153266068Y-89610365D01*
X153266070Y-89610363D01*
X153266071Y-89610363D01*
X156130982Y-86745452D01*
X156165630Y-86731100D01*
X159136571Y-86731100D01*
X159171219Y-86745452D01*
X159397390Y-86971623D01*
X159411742Y-87006271D01*
X159397390Y-87040919D01*
X159385004Y-87049922D01*
X159378954Y-87053007D01*
X159351352Y-87058498D01*
X159309178Y-87086678D01*
X159307236Y-87089584D01*
X159298362Y-87094110D01*
X159286806Y-87095023D01*
X159276100Y-87099459D01*
X159268826Y-87096446D01*
X159260976Y-87097067D01*
X159252158Y-87089541D01*
X159248049Y-87087840D01*
X159247035Y-87089359D01*
X159216742Y-87069118D01*
X159200848Y-87058498D01*
X159200847Y-87058497D01*
X159200846Y-87058497D01*
X159163661Y-87051100D01*
X159163658Y-87051100D01*
X158438542Y-87051100D01*
X158438538Y-87051100D01*
X158401353Y-87058497D01*
X158359177Y-87086677D01*
X158330997Y-87128853D01*
X158323600Y-87166038D01*
X158323600Y-87841161D01*
X158330997Y-87878346D01*
X158330997Y-87878347D01*
X158330998Y-87878348D01*
X158332896Y-87881188D01*
X158359177Y-87920522D01*
X158380265Y-87934612D01*
X158401352Y-87948702D01*
X158438542Y-87956100D01*
X158524600Y-87956100D01*
X158559248Y-87970452D01*
X158573600Y-88005100D01*
X158573600Y-88008347D01*
X158573600Y-88098853D01*
X158608235Y-88182468D01*
X158608236Y-88182469D01*
X158608237Y-88182471D01*
X158868217Y-88442452D01*
X158882569Y-88477100D01*
X158868217Y-88511748D01*
X158833569Y-88526100D01*
X155955845Y-88526100D01*
X155872230Y-88560736D01*
X155872229Y-88560736D01*
X154296219Y-90136748D01*
X154261571Y-90151100D01*
X153999026Y-90151100D01*
X153971804Y-90142842D01*
X153929012Y-90114249D01*
X153869944Y-90102500D01*
X153155056Y-90102500D01*
X153119615Y-90109549D01*
X153095986Y-90114249D01*
X153029005Y-90159005D01*
X152984249Y-90225986D01*
X152979549Y-90249615D01*
X152972500Y-90285056D01*
X152972500Y-90474944D01*
X152975714Y-90491100D01*
X152984249Y-90534013D01*
X153030196Y-90602777D01*
X153037512Y-90639559D01*
X153030196Y-90657223D01*
X152984249Y-90725986D01*
X152984249Y-90725988D01*
X152972500Y-90785056D01*
X152972500Y-90974944D01*
X152979821Y-91011748D01*
X152984249Y-91034013D01*
X153030196Y-91102777D01*
X153037512Y-91139559D01*
X153030196Y-91157223D01*
X152984249Y-91225986D01*
X152979549Y-91249615D01*
X152972500Y-91285056D01*
X152972500Y-91474944D01*
X152978876Y-91507000D01*
X152984249Y-91534013D01*
X153030196Y-91602777D01*
X153037512Y-91639559D01*
X153030196Y-91657223D01*
X152984249Y-91725986D01*
X152979549Y-91749615D01*
X152972500Y-91785056D01*
X152972500Y-91974944D01*
X152980686Y-92016099D01*
X152984249Y-92034013D01*
X152991329Y-92044608D01*
X152998646Y-92081390D01*
X152987765Y-92103750D01*
X152982859Y-92109463D01*
X152982856Y-92109468D01*
X152967433Y-92143642D01*
X152955769Y-92194010D01*
X152955768Y-92194016D01*
X152947052Y-92473042D01*
X152947144Y-92483623D01*
X152947524Y-92491423D01*
X152947525Y-92491426D01*
X152964955Y-92550933D01*
X152964958Y-92550942D01*
X152981483Y-92579728D01*
X152986286Y-92616922D01*
X152983774Y-92624000D01*
X152972256Y-92649949D01*
X152972256Y-92649950D01*
X152960906Y-92700378D01*
X152960905Y-92700386D01*
X152954217Y-92967750D01*
X152954217Y-92967753D01*
X152962468Y-93017199D01*
X152962470Y-93017207D01*
X152967222Y-93030000D01*
X152968054Y-93032239D01*
X152970819Y-93041434D01*
X152979773Y-93062651D01*
X152980060Y-93063396D01*
X152979600Y-93081405D01*
X152979720Y-93099436D01*
X152979113Y-93100465D01*
X152979103Y-93100887D01*
X152978564Y-93101399D01*
X152972481Y-93111730D01*
X152968039Y-93117242D01*
X152953687Y-93151889D01*
X152953685Y-93151895D01*
X152951809Y-93161328D01*
X152943600Y-93202600D01*
X152943600Y-93533304D01*
X152950292Y-93566951D01*
X152953685Y-93584008D01*
X152953688Y-93584018D01*
X152968036Y-93618656D01*
X152996757Y-93661641D01*
X153022568Y-93687452D01*
X153036920Y-93722100D01*
X153022568Y-93756748D01*
X152987920Y-93771100D01*
X152455628Y-93771100D01*
X152455589Y-93771101D01*
X152455336Y-93771101D01*
X152455300Y-93771102D01*
X152404361Y-93781481D01*
X152369804Y-93796030D01*
X152369796Y-93796033D01*
X152340791Y-93812090D01*
X152339781Y-93810265D01*
X152311476Y-93819293D01*
X152296834Y-93815736D01*
X152273784Y-93806188D01*
X152273774Y-93806185D01*
X152253325Y-93802117D01*
X152223070Y-93796100D01*
X151875977Y-93796100D01*
X151875965Y-93796100D01*
X151863076Y-93796729D01*
X151853570Y-93797659D01*
X151853561Y-93797661D01*
X151792997Y-93819270D01*
X151792984Y-93819277D01*
X151779418Y-93828319D01*
X151773008Y-93829586D01*
X151768105Y-93833907D01*
X151757890Y-93832574D01*
X151742627Y-93835592D01*
X151730677Y-93831543D01*
X151727737Y-93830101D01*
X151704012Y-93814249D01*
X151691046Y-93811670D01*
X151685171Y-93809236D01*
X151685160Y-93809231D01*
X151677814Y-93806188D01*
X151677804Y-93806185D01*
X151657355Y-93802117D01*
X151627100Y-93796100D01*
X151471396Y-93796100D01*
X151440971Y-93802151D01*
X151420687Y-93806186D01*
X151420680Y-93806188D01*
X151410777Y-93810290D01*
X151410580Y-93810372D01*
X151406060Y-93812245D01*
X151395988Y-93814249D01*
X151387448Y-93819954D01*
X151386041Y-93820538D01*
X151385377Y-93820981D01*
X151385376Y-93820982D01*
X151343047Y-93849265D01*
X151342549Y-93849674D01*
X151338707Y-93852522D01*
X151327225Y-93860195D01*
X151290443Y-93867514D01*
X151272777Y-93860197D01*
X151204012Y-93814249D01*
X151204013Y-93814249D01*
X151181408Y-93809753D01*
X151144944Y-93802500D01*
X150955056Y-93802500D01*
X150921216Y-93809231D01*
X150895986Y-93814249D01*
X150827223Y-93860196D01*
X150790441Y-93867512D01*
X150772777Y-93860196D01*
X150704013Y-93814249D01*
X150681408Y-93809753D01*
X150644944Y-93802500D01*
X150455056Y-93802500D01*
X150421216Y-93809231D01*
X150395986Y-93814249D01*
X150327223Y-93860196D01*
X150290441Y-93867512D01*
X150272777Y-93860196D01*
X150204013Y-93814249D01*
X150181408Y-93809753D01*
X150144944Y-93802500D01*
X149955056Y-93802500D01*
X149921216Y-93809231D01*
X149895986Y-93814249D01*
X149827223Y-93860196D01*
X149790441Y-93867512D01*
X149772777Y-93860196D01*
X149704013Y-93814249D01*
X149681408Y-93809753D01*
X149644944Y-93802500D01*
X149455056Y-93802500D01*
X149421216Y-93809231D01*
X149395986Y-93814249D01*
X149329005Y-93859005D01*
X149284249Y-93925986D01*
X149284249Y-93925988D01*
X149272500Y-93985056D01*
X149272500Y-94699944D01*
X149284249Y-94759012D01*
X149289241Y-94766483D01*
X149297500Y-94793707D01*
X149297500Y-94929815D01*
X149283148Y-94964463D01*
X149110863Y-95136748D01*
X149076215Y-95151100D01*
X148550873Y-95151100D01*
X148458068Y-95189542D01*
X148458067Y-95189542D01*
X148108070Y-95539541D01*
X148037042Y-95610567D01*
X148037042Y-95610568D01*
X148037041Y-95610569D01*
X148037041Y-95610570D01*
X148034105Y-95617659D01*
X147998600Y-95703373D01*
X147998600Y-95833289D01*
X147984248Y-95867937D01*
X147949600Y-95882289D01*
X147940041Y-95881348D01*
X147930548Y-95879459D01*
X147913658Y-95876100D01*
X147913656Y-95876100D01*
X147777600Y-95876100D01*
X147742952Y-95861748D01*
X147728600Y-95827100D01*
X147728600Y-95580261D01*
X147742952Y-95545613D01*
X147803174Y-95485391D01*
X147803175Y-95485390D01*
X147852874Y-95399309D01*
X147871047Y-95331486D01*
X147878600Y-95303301D01*
X147878600Y-95203898D01*
X147857729Y-95126010D01*
X147852874Y-95107891D01*
X147852873Y-95107890D01*
X147852873Y-95107888D01*
X147813412Y-95039541D01*
X147803175Y-95021810D01*
X147732890Y-94951525D01*
X147724126Y-94946465D01*
X147646811Y-94901826D01*
X147646807Y-94901825D01*
X147550802Y-94876100D01*
X147550799Y-94876100D01*
X147451401Y-94876100D01*
X147451398Y-94876100D01*
X147355392Y-94901825D01*
X147355388Y-94901826D01*
X147269309Y-94951525D01*
X147269309Y-94951526D01*
X147199026Y-95021809D01*
X147199025Y-95021809D01*
X147149326Y-95107888D01*
X147149325Y-95107892D01*
X147123600Y-95203898D01*
X147123600Y-95303301D01*
X147149325Y-95399307D01*
X147149326Y-95399311D01*
X147199025Y-95485390D01*
X147259248Y-95545613D01*
X147273600Y-95580261D01*
X147273600Y-95827100D01*
X147259248Y-95861748D01*
X147224600Y-95876100D01*
X147088538Y-95876100D01*
X147051353Y-95883497D01*
X147009177Y-95911677D01*
X146980997Y-95953853D01*
X146973600Y-95991038D01*
X146973600Y-97016161D01*
X146980997Y-97053346D01*
X146980997Y-97053347D01*
X146980998Y-97053348D01*
X146987499Y-97063077D01*
X147009177Y-97095522D01*
X147030265Y-97109612D01*
X147051352Y-97123702D01*
X147088542Y-97131100D01*
X147913658Y-97131100D01*
X147940040Y-97125852D01*
X147976822Y-97133167D01*
X147997658Y-97164350D01*
X147998600Y-97173910D01*
X147998600Y-97275714D01*
X147984248Y-97310362D01*
X147949600Y-97324714D01*
X147914952Y-97310362D01*
X147894133Y-97289543D01*
X147894131Y-97289542D01*
X147894130Y-97289541D01*
X147827032Y-97261748D01*
X147801326Y-97251100D01*
X147801325Y-97251100D01*
X146875985Y-97251100D01*
X146841337Y-97236748D01*
X146767952Y-97163363D01*
X146753600Y-97128715D01*
X146753600Y-96203377D01*
X146753599Y-96203373D01*
X146743292Y-96178490D01*
X146715159Y-96110570D01*
X146715157Y-96110568D01*
X146715157Y-96110567D01*
X146644130Y-96039541D01*
X146394132Y-95789542D01*
X146301326Y-95751100D01*
X146301325Y-95751100D01*
X145927600Y-95751100D01*
X145892952Y-95736748D01*
X145878600Y-95702100D01*
X145878600Y-95591042D01*
X145878599Y-95591038D01*
X145875979Y-95577869D01*
X145871202Y-95553852D01*
X145851998Y-95525111D01*
X145843022Y-95511677D01*
X145803681Y-95485391D01*
X145800848Y-95483498D01*
X145800847Y-95483497D01*
X145800846Y-95483497D01*
X145763661Y-95476100D01*
X145763658Y-95476100D01*
X144738542Y-95476100D01*
X144738538Y-95476100D01*
X144701353Y-95483497D01*
X144659177Y-95511677D01*
X144630997Y-95553853D01*
X144623600Y-95591038D01*
X144623600Y-95702100D01*
X144609248Y-95736748D01*
X144574600Y-95751100D01*
X139377600Y-95751100D01*
X139342952Y-95736748D01*
X139328600Y-95702100D01*
X139328600Y-95291042D01*
X139328599Y-95291038D01*
X139321202Y-95253853D01*
X139321202Y-95253852D01*
X139307112Y-95232765D01*
X139293022Y-95211677D01*
X139259892Y-95189541D01*
X139250848Y-95183498D01*
X139250847Y-95183497D01*
X139250846Y-95183497D01*
X139213661Y-95176100D01*
X139213658Y-95176100D01*
X137788542Y-95176100D01*
X137788538Y-95176100D01*
X137751353Y-95183497D01*
X137709177Y-95211677D01*
X137680997Y-95253853D01*
X137673600Y-95291038D01*
X130001100Y-95291038D01*
X130001100Y-80309534D01*
X130015452Y-80274886D01*
X130050100Y-80260534D01*
X130084748Y-80274886D01*
X130261739Y-80451877D01*
X130261751Y-80451887D01*
X130496145Y-80631744D01*
X130496160Y-80631754D01*
X130752040Y-80779487D01*
X131025017Y-80892558D01*
X131025027Y-80892562D01*
X131310411Y-80969030D01*
X131603368Y-81007600D01*
X131624100Y-81007600D01*
X131624100Y-79999066D01*
X131652723Y-80003600D01*
X131849477Y-80003600D01*
X131878100Y-79999066D01*
X131878100Y-81007600D01*
X131898831Y-81007600D01*
X132191788Y-80969030D01*
X132477172Y-80892562D01*
X132477182Y-80892558D01*
X132750159Y-80779487D01*
X133006039Y-80631754D01*
X133006054Y-80631744D01*
X133240448Y-80451887D01*
X133240460Y-80451877D01*
X133449377Y-80242960D01*
X133449387Y-80242948D01*
X133629244Y-80008554D01*
X133629254Y-80008539D01*
X133776987Y-79752659D01*
X133890058Y-79479682D01*
X133890062Y-79479672D01*
X133966530Y-79194288D01*
X134005100Y-78901331D01*
X134005100Y-78880600D01*
X132996567Y-78880600D01*
X133001100Y-78851977D01*
X133001100Y-78655223D01*
X132996567Y-78626600D01*
X134005100Y-78626600D01*
X134005100Y-78605868D01*
X133966530Y-78312911D01*
X133890062Y-78027527D01*
X133890058Y-78027517D01*
X133776987Y-77754540D01*
X133629254Y-77498660D01*
X133629244Y-77498645D01*
X133449387Y-77264251D01*
X133449377Y-77264239D01*
X133272386Y-77087248D01*
X133258034Y-77052600D01*
X133272386Y-77017952D01*
X133307034Y-77003600D01*
X137311070Y-77003600D01*
X137345718Y-77017952D01*
G37*
%TD.AperFunction*%
%TA.AperFunction,Conductor*%
G36*
X138269218Y-77344452D02*
G01*
X138283570Y-77379100D01*
X138269218Y-77413748D01*
X132622232Y-83060735D01*
X132558236Y-83124729D01*
X132558236Y-83124730D01*
X132523600Y-83208345D01*
X132523600Y-90298854D01*
X132527451Y-90308151D01*
X132558235Y-90382468D01*
X132558236Y-90382469D01*
X132558236Y-90382470D01*
X134058235Y-91882468D01*
X134122229Y-91946463D01*
X134122230Y-91946463D01*
X134122232Y-91946465D01*
X134205847Y-91981100D01*
X138886571Y-91981100D01*
X138921219Y-91995452D01*
X141122228Y-94196463D01*
X141122230Y-94196464D01*
X141122232Y-94196466D01*
X141181355Y-94220954D01*
X141181356Y-94220955D01*
X141181357Y-94220955D01*
X141205847Y-94231100D01*
X141205848Y-94231100D01*
X141296353Y-94231100D01*
X146808571Y-94231100D01*
X146843219Y-94245452D01*
X146857571Y-94280100D01*
X146843219Y-94314748D01*
X146646219Y-94511748D01*
X146611571Y-94526100D01*
X140615629Y-94526100D01*
X140580981Y-94511748D01*
X139129970Y-93060736D01*
X139046354Y-93026100D01*
X139046353Y-93026100D01*
X134365629Y-93026100D01*
X134330981Y-93011748D01*
X131742952Y-90423719D01*
X131728600Y-90389071D01*
X131728600Y-83368129D01*
X131742952Y-83333481D01*
X137731982Y-77344452D01*
X137766630Y-77330100D01*
X138234570Y-77330100D01*
X138269218Y-77344452D01*
G37*
%TD.AperFunction*%
%TA.AperFunction,Conductor*%
G36*
X147145971Y-92295452D02*
G01*
X147160323Y-92330100D01*
X147158653Y-92342783D01*
X147148600Y-92380299D01*
X147148600Y-92479701D01*
X147174325Y-92575707D01*
X147174326Y-92575711D01*
X147217189Y-92649950D01*
X147224025Y-92661790D01*
X147294310Y-92732075D01*
X147325815Y-92750265D01*
X147380388Y-92781773D01*
X147380390Y-92781773D01*
X147380391Y-92781774D01*
X147392651Y-92785059D01*
X147476398Y-92807500D01*
X147476401Y-92807500D01*
X147575801Y-92807500D01*
X147610771Y-92798129D01*
X147671809Y-92781774D01*
X147671812Y-92781772D01*
X147671910Y-92781746D01*
X147709092Y-92786640D01*
X147731923Y-92816393D01*
X147727029Y-92853575D01*
X147719241Y-92863724D01*
X147188381Y-93394584D01*
X147153733Y-93408936D01*
X147119085Y-93394584D01*
X147105101Y-93380600D01*
X146550100Y-93380600D01*
X146515452Y-93366248D01*
X146501100Y-93331600D01*
X146501100Y-93253600D01*
X146423100Y-93253600D01*
X146388452Y-93239248D01*
X146374100Y-93204600D01*
X146374100Y-93126600D01*
X146628100Y-93126600D01*
X147105099Y-93126600D01*
X147105099Y-92903586D01*
X147090362Y-92829493D01*
X147034224Y-92745475D01*
X146950206Y-92689337D01*
X146876114Y-92674600D01*
X146628100Y-92674600D01*
X146628100Y-93126600D01*
X146374100Y-93126600D01*
X146374100Y-92674600D01*
X146126085Y-92674600D01*
X146126078Y-92674601D01*
X146121619Y-92675488D01*
X146084838Y-92668165D01*
X146064008Y-92636979D01*
X146071331Y-92600198D01*
X146077413Y-92592787D01*
X146374750Y-92295452D01*
X146409398Y-92281100D01*
X147111323Y-92281100D01*
X147145971Y-92295452D01*
G37*
%TD.AperFunction*%
%TD*%
%TA.AperFunction,Conductor*%
%TO.N,HVOUT*%
G36*
X145489815Y-78742952D02*
G01*
X145490567Y-78743721D01*
X149887505Y-83339390D01*
X149901100Y-83373264D01*
X149901100Y-88683304D01*
X149886748Y-88717952D01*
X149701100Y-88903599D01*
X149701100Y-89733304D01*
X149686748Y-89767952D01*
X149615452Y-89839248D01*
X149580804Y-89853600D01*
X149396396Y-89853600D01*
X149361748Y-89839248D01*
X148865452Y-89342952D01*
X148851100Y-89308304D01*
X148851100Y-84853600D01*
X143915452Y-79917952D01*
X143901100Y-79883304D01*
X143901100Y-78777600D01*
X143915452Y-78742952D01*
X143950100Y-78728600D01*
X145455167Y-78728600D01*
X145489815Y-78742952D01*
G37*
%TD.AperFunction*%
%TD*%
%TA.AperFunction,Conductor*%
%TO.N,NetBT1_N*%
G36*
X161501100Y-128253600D02*
G01*
X161495587Y-128259112D01*
X161486748Y-128280452D01*
X161007350Y-128759849D01*
X161007349Y-128759851D01*
X160998142Y-129486878D01*
X160983794Y-129520905D01*
X160767952Y-129736748D01*
X160733304Y-129751100D01*
X160268896Y-129751100D01*
X160234248Y-129736748D01*
X160015452Y-129517952D01*
X160001100Y-129483304D01*
X160001100Y-128766100D01*
X159515452Y-128280452D01*
X159506612Y-128259112D01*
X159501100Y-128253600D01*
X159501100Y-127516100D01*
X161501100Y-127516100D01*
X161501100Y-128253600D01*
G37*
%TD.AperFunction*%
%TD*%
%TA.AperFunction,Conductor*%
%TO.N,V_IN*%
G36*
X151661748Y-93942952D02*
G01*
X151676100Y-93977600D01*
X151676100Y-95853600D01*
X151326100Y-95853600D01*
X151326100Y-94711807D01*
X151327042Y-94702245D01*
X151327500Y-94699943D01*
X151327500Y-94072496D01*
X151341852Y-94037848D01*
X151436748Y-93942952D01*
X151471396Y-93928600D01*
X151627100Y-93928600D01*
X151661748Y-93942952D01*
G37*
%TD.AperFunction*%
%TD*%
M02*
