M48
; DRILL file {KiCad 9.99.0-1490-gab75263b91} date 2025-06-04T22:15:45+1000
; FORMAT={-:-/ absolute / metric / decimal}
; #@! TF.CreationDate,2025-06-04T22:15:45+10:00
; #@! TF.GenerationSoftware,Kicad,Pcbnew,9.99.0-1490-gab75263b91
; #@! TF.FileFunction,Plated,1,2,PTH
FMAT,2
METRIC
; #@! TA.AperFunction,Plated,PTH,ComponentDrill
T1C0.200
; #@! TA.AperFunction,Plated,PTH,ViaDrill
T2C0.300
; #@! TA.AperFunction,Plated,PTH,ViaDrill
T3C0.711
; #@! TA.AperFunction,Plated,PTH,ComponentDrill
T4C0.900
; #@! TA.AperFunction,Plated,PTH,ComponentDrill
T5C1.020
; #@! TA.AperFunction,Plated,PTH,ComponentDrill
T6C1.100
; #@! TA.AperFunction,Plated,PTH,ComponentDrill
T7C2.500
%
G90
G05
T1
X150.0Y-90.83
X150.0Y-91.53
X150.0Y-92.23
X150.0Y-92.93
X150.7Y-90.83
X150.7Y-91.53
X150.7Y-92.23
X150.7Y-92.93
X151.4Y-90.83
X151.4Y-91.53
X151.4Y-92.23
X151.4Y-92.93
X152.1Y-90.83
X152.1Y-91.53
X152.1Y-92.23
X152.1Y-92.93
T2
X132.129Y-89.21
X132.135Y-84.001
X135.001Y-92.504
X137.751Y-92.504
X141.251Y-93.004
X141.501Y-90.504
X142.501Y-92.254
X143.001Y-89.504
X143.501Y-90.004
X144.751Y-85.254
X145.751Y-85.254
X146.501Y-92.627
X146.751Y-85.254
X147.128Y-91.254
X147.501Y-95.254
X147.526Y-92.43
X148.176Y-86.279
X149.751Y-101.504
X150.001Y-100.004
X150.551Y-88.454
X152.076Y-88.429
X152.251Y-100.254
X152.251Y-102.504
X153.251Y-87.254
X153.251Y-130.254
X153.501Y-101.004
X153.501Y-102.504
X154.751Y-98.004
X155.001Y-101.004
X155.001Y-102.504
X155.501Y-130.254
X156.501Y-101.004
X156.501Y-102.504
X157.001Y-98.004
X158.001Y-101.004
X158.001Y-102.504
X158.251Y-94.504
X158.501Y-93.004
X159.001Y-98.254
X159.001Y-100.254
X159.251Y-130.254
X159.751Y-96.254
X159.751Y-102.004
X160.501Y-88.504
X161.001Y-101.004
X161.251Y-92.754
X161.251Y-94.254
X161.251Y-96.254
X161.251Y-99.254
X161.501Y-130.254
X162.251Y-88.504
T3
X148.251Y-100.754
X160.501Y-91.504
T4
X138.501Y-96.004
X138.501Y-98.504
X138.501Y-101.004
T5
X142.151Y-78.754
X144.691Y-78.754
X147.231Y-78.754
X149.771Y-78.754
X152.311Y-78.754
X154.851Y-78.754
T6
X134.251Y-84.004
X134.251Y-86.504
X134.251Y-89.004
T7
X131.751Y-78.754
X131.751Y-131.254
X165.251Y-78.754
X165.251Y-131.254
M30
