G04*
G04 #@! TF.GenerationSoftware,Altium Limited,Altium Designer,25.6.2 (33)*
G04*
G04 Layer_Color=16711935*
%FSLAX44Y44*%
%MOMM*%
G71*
G04*
G04 #@! TF.SameCoordinates,C81FDC39-D595-45C3-B34A-221C7668EC96*
G04*
G04*
G04 #@! TF.FilePolarity,Negative*
G04*
G01*
G75*
%ADD42R,1.5700X1.5700*%
%ADD43R,1.8000X1.8000*%
%ADD44C,4.1500*%
%ADD45C,1.5700*%
%ADD46C,1.8000*%
%ADD47R,1.4000X1.4000*%
%ADD48C,1.4000*%
%ADD49C,0.6500*%
%ADD50C,1.4200*%
D42*
X126500Y547500D02*
D03*
D43*
X47500Y495000D02*
D03*
D44*
X22500Y22500D02*
D03*
X357500D02*
D03*
Y547500D02*
D03*
X22500D02*
D03*
D45*
X253500D02*
D03*
X228100D02*
D03*
X202700D02*
D03*
X177300D02*
D03*
X151900D02*
D03*
D46*
X47500Y470000D02*
D03*
Y445000D02*
D03*
D47*
X90000Y375000D02*
D03*
D48*
Y350000D02*
D03*
Y325000D02*
D03*
D49*
X205000Y335000D02*
D03*
X202500Y320000D02*
D03*
X227500Y310000D02*
D03*
X240000D02*
D03*
X255000D02*
D03*
X270000D02*
D03*
X285000D02*
D03*
X302500Y315000D02*
D03*
X315000Y325000D02*
D03*
X317500Y342500D02*
D03*
Y372500D02*
D03*
Y392500D02*
D03*
Y407500D02*
D03*
X252500Y355000D02*
D03*
X275000D02*
D03*
X302500Y372500D02*
D03*
X295000Y352500D02*
D03*
Y332500D02*
D03*
X285000Y325000D02*
D03*
X270000D02*
D03*
X255000D02*
D03*
X240000D02*
D03*
X162500Y482500D02*
D03*
X172500D02*
D03*
X152500D02*
D03*
X140000Y435000D02*
D03*
X135000Y440000D02*
D03*
X120000Y430000D02*
D03*
X170000Y408770D02*
D03*
X206610Y422390D02*
D03*
X224390D02*
D03*
Y404610D02*
D03*
X206610D02*
D03*
X180000Y417500D02*
D03*
X176270Y422500D02*
D03*
X187500Y455000D02*
D03*
X237500Y462500D02*
D03*
X327500Y450000D02*
D03*
X287500Y390000D02*
D03*
X227500Y332500D02*
D03*
X82500Y410000D02*
D03*
X55000D02*
D03*
X26283Y442939D02*
D03*
X26336Y495027D02*
D03*
X117500Y405000D02*
D03*
X237500Y32500D02*
D03*
X260000D02*
D03*
X297500D02*
D03*
X320000D02*
D03*
X225934Y448801D02*
D03*
X290000Y405000D02*
D03*
X130000Y412500D02*
D03*
X310000Y450000D02*
D03*
X180000Y405000D02*
D03*
X211426Y441610D02*
D03*
X180000Y382500D02*
D03*
D50*
X215500Y413500D02*
D03*
X310000Y420000D02*
D03*
X187500Y327500D02*
D03*
M02*
