G04*
G04 #@! TF.GenerationSoftware,Altium Limited,Altium Designer,25.6.2 (33)*
G04*
G04 Layer_Color=32768*
%FSLAX44Y44*%
%MOMM*%
G71*
G04*
G04 #@! TF.SameCoordinates,95800A15-F6E0-4F83-BAC9-5642273E7207*
G04*
G04*
G04 #@! TF.FilePolarity,Positive*
G04*
G01*
G75*
%ADD11C,0.2000*%
%ADD14C,0.1000*%
%ADD60C,0.0500*%
D11*
X64200Y300100D02*
X115800D01*
Y399900D01*
X64200D02*
X115800D01*
X64200Y300100D02*
Y399900D01*
D14*
X250000Y34750D02*
Y40250D01*
X247250Y37500D02*
X252750D01*
X310000Y34750D02*
Y40250D01*
X307250Y37500D02*
X312750D01*
X157500Y457500D02*
X167500D01*
X162500Y452500D02*
Y462500D01*
X153000Y367500D02*
X162000D01*
X157500Y363000D02*
Y372000D01*
X210500Y413500D02*
X220500D01*
X215500Y408500D02*
Y418500D01*
X238410Y379130D02*
X281590D01*
X238410Y330870D02*
Y379130D01*
Y330870D02*
X281590D01*
Y379130D01*
X187500Y343000D02*
Y352000D01*
X183000Y347500D02*
X192000D01*
X295000Y460000D02*
X300500D01*
X297750Y457250D02*
Y462750D01*
X135000Y399750D02*
Y405250D01*
X132250Y402500D02*
X137750D01*
X135000Y419750D02*
Y425250D01*
X132250Y422500D02*
X137750D01*
X297750Y437250D02*
Y442750D01*
X295000Y440000D02*
X300500D01*
X165250Y399750D02*
Y405250D01*
X162500Y402500D02*
X168000D01*
X165000Y419750D02*
Y425250D01*
X162250Y422500D02*
X167750D01*
X323000Y437250D02*
Y442750D01*
X320250Y440000D02*
X325750D01*
X323000Y457250D02*
Y462750D01*
X320250Y460000D02*
X325750D01*
X183000Y370000D02*
X192000D01*
X187500Y365500D02*
Y374500D01*
X265000Y410000D02*
Y415000D01*
X262500Y412500D02*
X267500D01*
D60*
X244500Y48000D02*
X255500D01*
X244500Y27000D02*
X255500D01*
Y48000D01*
X244500Y27000D02*
Y48000D01*
X304500D02*
X315500D01*
X304500Y27000D02*
X315500D01*
Y48000D01*
X304500Y27000D02*
Y48000D01*
X178500Y436000D02*
Y479000D01*
X146500Y436000D02*
Y479000D01*
X178500D01*
X146500Y436000D02*
X178500D01*
X167500Y351000D02*
Y384000D01*
X147500Y351000D02*
Y384000D01*
X167500D01*
X147500Y351000D02*
X167500D01*
X282500Y285000D02*
X367500D01*
X282500Y50000D02*
Y285000D01*
Y50000D02*
X367500D01*
Y285000D01*
X241250Y387750D02*
Y439250D01*
X189750Y387750D02*
Y439250D01*
Y387750D02*
X241250D01*
X189750Y439250D02*
X241250D01*
X102500Y285000D02*
X187500D01*
X102500Y50000D02*
Y285000D01*
Y50000D02*
X187500D01*
Y285000D01*
X171000Y357500D02*
X204000D01*
X171000Y337500D02*
X204000D01*
X171000D02*
Y357500D01*
X204000Y337500D02*
Y357500D01*
X308250Y454500D02*
Y465500D01*
X287250Y454500D02*
Y465500D01*
Y454500D02*
X308250D01*
X287250Y465500D02*
X308250D01*
X277500Y50000D02*
Y285000D01*
X192500Y50000D02*
X277500D01*
X192500D02*
Y285000D01*
X277500D01*
X97500Y50000D02*
Y285000D01*
X12500Y50000D02*
X97500D01*
X12500D02*
Y285000D01*
X97500D01*
X124500Y408000D02*
X145500D01*
X124500Y397000D02*
X145500D01*
X124500D02*
Y408000D01*
X145500Y397000D02*
Y408000D01*
X124500Y428000D02*
X145500D01*
X124500Y417000D02*
X145500D01*
X124500D02*
Y428000D01*
X145500Y417000D02*
Y428000D01*
X287250Y445500D02*
X308250D01*
X287250Y434500D02*
X308250D01*
X287250D02*
Y445500D01*
X308250Y434500D02*
Y445500D01*
X154750Y408000D02*
X175750D01*
X154750Y397000D02*
X175750D01*
X154750D02*
Y408000D01*
X175750Y397000D02*
Y408000D01*
X154500Y428000D02*
X175500D01*
X154500Y417000D02*
X175500D01*
X154500D02*
Y428000D01*
X175500Y417000D02*
Y428000D01*
X312500Y445500D02*
X333500D01*
X312500Y434500D02*
X333500D01*
X312500D02*
Y445500D01*
X333500Y434500D02*
Y445500D01*
X312500Y465500D02*
X333500D01*
X312500Y454500D02*
X333500D01*
X312500D02*
Y465500D01*
X333500Y454500D02*
Y465500D01*
X171000Y360000D02*
Y380000D01*
X204000Y360000D02*
Y380000D01*
X171000D02*
X204000D01*
X171000Y360000D02*
X204000D01*
X221500Y359500D02*
X233500D01*
X221500Y335500D02*
X233500D01*
Y359500D01*
X221500Y335500D02*
Y359500D01*
X227500Y342750D02*
Y352250D01*
X222750Y347500D02*
X232250D01*
X260500Y384000D02*
Y396000D01*
X284500Y384000D02*
Y396000D01*
X260500D02*
X284500D01*
X260500Y384000D02*
X284500D01*
X267750Y390000D02*
X277250D01*
X272500Y385250D02*
Y394750D01*
X207000Y456500D02*
Y468500D01*
X183000Y456500D02*
Y468500D01*
Y456500D02*
X207000D01*
X183000Y468500D02*
X207000D01*
X190250Y462500D02*
X199750D01*
X195000Y457750D02*
Y467250D01*
X260000Y398500D02*
Y426500D01*
X270000D01*
Y398500D02*
Y426500D01*
X260000Y398500D02*
X270000D01*
X234500Y456500D02*
Y468500D01*
X210500Y456500D02*
Y468500D01*
Y456500D02*
X234500D01*
X210500Y468500D02*
X234500D01*
X217750Y462500D02*
X227250D01*
X222500Y457750D02*
Y467250D01*
X274000Y400500D02*
X286000D01*
X274000Y424500D02*
X286000D01*
X274000Y400500D02*
Y424500D01*
X286000Y400500D02*
Y424500D01*
X280000Y407750D02*
Y417250D01*
X275250Y412500D02*
X284750D01*
M02*
