G04*
G04 #@! TF.GenerationSoftware,Altium Limited,Altium Designer,25.6.2 (33)*
G04*
G04 Layer_Color=32768*
%FSLAX44Y44*%
%MOMM*%
G71*
G04*
G04 #@! TF.SameCoordinates,C81FDC39-D595-45C3-B34A-221C7668EC96*
G04*
G04*
G04 #@! TF.FilePolarity,Positive*
G04*
G01*
G75*
G36*
X359960Y368065D02*
X356957D01*
X356965Y368056D01*
X356986Y368035D01*
X357015Y367998D01*
X357057Y367944D01*
X357107Y367881D01*
X357161Y367802D01*
X357219Y367715D01*
X357282Y367615D01*
Y367611D01*
X357290Y367602D01*
X357298Y367590D01*
X357307Y367569D01*
X357323Y367544D01*
X357336Y367515D01*
X357373Y367448D01*
X357411Y367373D01*
X357452Y367290D01*
X357490Y367202D01*
X357523Y367119D01*
X357069D01*
X357065Y367123D01*
X357061Y367136D01*
X357048Y367156D01*
X357036Y367186D01*
X357019Y367219D01*
X356994Y367261D01*
X356969Y367307D01*
X356944Y367352D01*
X356878Y367461D01*
X356798Y367577D01*
X356715Y367698D01*
X356619Y367811D01*
X356615Y367815D01*
X356607Y367823D01*
X356594Y367840D01*
X356573Y367860D01*
X356548Y367881D01*
X356523Y367910D01*
X356453Y367973D01*
X356378Y368044D01*
X356290Y368115D01*
X356199Y368177D01*
X356103Y368231D01*
Y368535D01*
X359960D01*
Y368065D01*
D02*
G37*
G36*
X357315Y366298D02*
X357356Y366294D01*
X357402Y366286D01*
X357457Y366278D01*
X357519Y366265D01*
X357581Y366248D01*
X357648Y366228D01*
X357715Y366203D01*
X357786Y366169D01*
X357856Y366136D01*
X357927Y366094D01*
X357994Y366044D01*
X358060Y365990D01*
X358065Y365986D01*
X358073Y365974D01*
X358090Y365957D01*
X358115Y365928D01*
X358140Y365894D01*
X358169Y365849D01*
X358198Y365794D01*
X358227Y365732D01*
X358260Y365657D01*
X358290Y365578D01*
X358319Y365482D01*
X358344Y365382D01*
X358365Y365265D01*
X358381Y365140D01*
X358394Y365007D01*
X358398Y364857D01*
Y363874D01*
X359960D01*
Y363366D01*
X356115D01*
Y364949D01*
X356119Y365032D01*
X356124Y365128D01*
X356132Y365224D01*
X356140Y365315D01*
X356144Y365361D01*
X356153Y365399D01*
Y365403D01*
X356157Y365411D01*
Y365428D01*
X356161Y365444D01*
X356169Y365469D01*
X356174Y365499D01*
X356194Y365565D01*
X356219Y365640D01*
X356253Y365719D01*
X356290Y365798D01*
X356336Y365873D01*
Y365878D01*
X356340Y365882D01*
X356361Y365907D01*
X356390Y365940D01*
X356432Y365986D01*
X356482Y366032D01*
X356548Y366086D01*
X356619Y366136D01*
X356707Y366182D01*
X356711D01*
X356719Y366186D01*
X356732Y366194D01*
X356748Y366203D01*
X356769Y366211D01*
X356798Y366219D01*
X356861Y366244D01*
X356940Y366265D01*
X357028Y366286D01*
X357127Y366298D01*
X357232Y366302D01*
X357236D01*
X357252D01*
X357277D01*
X357315Y366298D01*
D02*
G37*
G36*
X356569Y361575D02*
X359960D01*
Y361066D01*
X356569D01*
Y359800D01*
X356115D01*
Y362841D01*
X356569D01*
Y361575D01*
D02*
G37*
G36*
X228279Y360196D02*
X228334Y360192D01*
X228396Y360187D01*
X228463Y360179D01*
X228538Y360171D01*
X228617Y360158D01*
X228700Y360146D01*
X228879Y360104D01*
X228967Y360075D01*
X229054Y360046D01*
X229146Y360013D01*
X229229Y359971D01*
X229233Y359967D01*
X229250Y359958D01*
X229271Y359946D01*
X229304Y359929D01*
X229342Y359904D01*
X229383Y359875D01*
X229429Y359842D01*
X229483Y359804D01*
X229533Y359758D01*
X229592Y359713D01*
X229646Y359659D01*
X229704Y359600D01*
X229758Y359538D01*
X229812Y359471D01*
X229862Y359396D01*
X229908Y359321D01*
X229912Y359317D01*
X229917Y359300D01*
X229929Y359279D01*
X229946Y359246D01*
X229962Y359209D01*
X229983Y359159D01*
X230004Y359104D01*
X230025Y359046D01*
X230046Y358979D01*
X230067Y358904D01*
X230087Y358829D01*
X230104Y358746D01*
X230133Y358575D01*
X230137Y358484D01*
X230142Y358388D01*
Y358334D01*
X230137Y358292D01*
X230133Y358242D01*
X230125Y358184D01*
X230117Y358121D01*
X230104Y358051D01*
X230087Y357976D01*
X230071Y357896D01*
X230046Y357817D01*
X230016Y357734D01*
X229983Y357651D01*
X229942Y357571D01*
X229900Y357492D01*
X229846Y357417D01*
X229842Y357413D01*
X229833Y357401D01*
X229817Y357380D01*
X229792Y357355D01*
X229762Y357322D01*
X229725Y357284D01*
X229683Y357247D01*
X229633Y357201D01*
X229579Y357155D01*
X229517Y357109D01*
X229450Y357063D01*
X229375Y357022D01*
X229296Y356976D01*
X229208Y356938D01*
X229117Y356901D01*
X229021Y356867D01*
X228904Y357367D01*
X228909D01*
X228921Y357376D01*
X228946Y357380D01*
X228975Y357392D01*
X229009Y357405D01*
X229046Y357426D01*
X229138Y357467D01*
X229238Y357522D01*
X229342Y357592D01*
X229438Y357667D01*
X229479Y357713D01*
X229517Y357759D01*
X229521Y357763D01*
X229525Y357771D01*
X229533Y357784D01*
X229546Y357805D01*
X229562Y357830D01*
X229579Y357859D01*
X229596Y357892D01*
X229613Y357934D01*
X229629Y357980D01*
X229646Y358026D01*
X229679Y358134D01*
X229700Y358259D01*
X229708Y358326D01*
Y358438D01*
X229704Y358471D01*
X229700Y358509D01*
X229696Y358555D01*
X229692Y358605D01*
X229683Y358655D01*
X229654Y358775D01*
X229617Y358900D01*
X229592Y358963D01*
X229562Y359025D01*
X229529Y359084D01*
X229492Y359142D01*
X229487Y359146D01*
X229483Y359155D01*
X229471Y359171D01*
X229454Y359192D01*
X229433Y359213D01*
X229404Y359242D01*
X229375Y359271D01*
X229342Y359304D01*
X229300Y359338D01*
X229258Y359375D01*
X229163Y359442D01*
X229050Y359504D01*
X228921Y359558D01*
X228917D01*
X228904Y359563D01*
X228883Y359571D01*
X228859Y359575D01*
X228825Y359584D01*
X228788Y359596D01*
X228742Y359604D01*
X228696Y359617D01*
X228642Y359629D01*
X228584Y359638D01*
X228459Y359659D01*
X228325Y359671D01*
X228184Y359675D01*
X228179D01*
X228163D01*
X228138D01*
X228100Y359671D01*
X228059D01*
X228009Y359667D01*
X227955Y359663D01*
X227892Y359659D01*
X227825Y359650D01*
X227759Y359642D01*
X227613Y359617D01*
X227467Y359579D01*
X227326Y359534D01*
X227321D01*
X227309Y359525D01*
X227292Y359517D01*
X227267Y359509D01*
X227234Y359492D01*
X227201Y359471D01*
X227121Y359425D01*
X227030Y359363D01*
X226942Y359288D01*
X226855Y359196D01*
X226817Y359146D01*
X226780Y359092D01*
Y359088D01*
X226772Y359080D01*
X226763Y359063D01*
X226751Y359038D01*
X226738Y359009D01*
X226721Y358975D01*
X226709Y358938D01*
X226692Y358896D01*
X226659Y358800D01*
X226630Y358688D01*
X226609Y358567D01*
X226605Y358505D01*
X226601Y358438D01*
Y358396D01*
X226605Y358367D01*
X226609Y358330D01*
X226613Y358288D01*
X226622Y358238D01*
X226630Y358188D01*
X226659Y358071D01*
X226680Y358013D01*
X226705Y357951D01*
X226734Y357888D01*
X226767Y357830D01*
X226805Y357771D01*
X226847Y357713D01*
X226851Y357709D01*
X226859Y357701D01*
X226871Y357684D01*
X226892Y357663D01*
X226917Y357642D01*
X226951Y357613D01*
X226988Y357584D01*
X227030Y357551D01*
X227080Y357517D01*
X227134Y357484D01*
X227192Y357451D01*
X227259Y357417D01*
X227330Y357388D01*
X227409Y357359D01*
X227492Y357330D01*
X227580Y357309D01*
X227451Y356801D01*
X227442D01*
X227421Y356809D01*
X227392Y356818D01*
X227346Y356834D01*
X227296Y356851D01*
X227234Y356876D01*
X227167Y356901D01*
X227096Y356934D01*
X227017Y356972D01*
X226942Y357013D01*
X226859Y357059D01*
X226780Y357113D01*
X226705Y357172D01*
X226630Y357234D01*
X226559Y357305D01*
X226492Y357380D01*
X226488Y357384D01*
X226480Y357401D01*
X226463Y357422D01*
X226442Y357455D01*
X226418Y357492D01*
X226388Y357542D01*
X226359Y357597D01*
X226330Y357663D01*
X226301Y357734D01*
X226272Y357809D01*
X226243Y357892D01*
X226217Y357984D01*
X226197Y358080D01*
X226180Y358180D01*
X226172Y358284D01*
X226168Y358396D01*
Y358455D01*
X226172Y358501D01*
X226176Y358550D01*
X226180Y358613D01*
X226188Y358680D01*
X226201Y358755D01*
X226213Y358834D01*
X226230Y358917D01*
X226251Y359000D01*
X226272Y359084D01*
X226301Y359171D01*
X226334Y359254D01*
X226372Y359334D01*
X226418Y359409D01*
X226422Y359413D01*
X226430Y359425D01*
X226442Y359446D01*
X226463Y359471D01*
X226492Y359504D01*
X226522Y359542D01*
X226559Y359584D01*
X226605Y359629D01*
X226655Y359675D01*
X226709Y359725D01*
X226767Y359771D01*
X226834Y359821D01*
X226905Y359871D01*
X226980Y359917D01*
X227063Y359958D01*
X227151Y360000D01*
X227155Y360004D01*
X227171Y360008D01*
X227201Y360017D01*
X227234Y360029D01*
X227280Y360046D01*
X227330Y360063D01*
X227392Y360079D01*
X227459Y360100D01*
X227534Y360117D01*
X227613Y360137D01*
X227696Y360154D01*
X227788Y360167D01*
X227980Y360192D01*
X228079Y360196D01*
X228179Y360200D01*
X228188D01*
X228204D01*
X228238D01*
X228279Y360196D01*
D02*
G37*
G36*
X229125Y356001D02*
X229129Y355989D01*
X229142Y355968D01*
X229154Y355939D01*
X229171Y355905D01*
X229196Y355864D01*
X229221Y355818D01*
X229246Y355772D01*
X229312Y355664D01*
X229392Y355547D01*
X229475Y355426D01*
X229571Y355314D01*
X229575Y355310D01*
X229583Y355301D01*
X229596Y355285D01*
X229617Y355264D01*
X229642Y355243D01*
X229667Y355214D01*
X229737Y355151D01*
X229812Y355080D01*
X229900Y355010D01*
X229991Y354947D01*
X230087Y354893D01*
Y354589D01*
X226230D01*
Y355060D01*
X229233D01*
X229225Y355068D01*
X229204Y355089D01*
X229175Y355126D01*
X229133Y355181D01*
X229083Y355243D01*
X229029Y355322D01*
X228971Y355410D01*
X228909Y355510D01*
Y355514D01*
X228900Y355522D01*
X228892Y355535D01*
X228883Y355555D01*
X228867Y355580D01*
X228854Y355610D01*
X228817Y355676D01*
X228779Y355751D01*
X228738Y355835D01*
X228700Y355922D01*
X228667Y356005D01*
X229121D01*
X229125Y356001D01*
D02*
G37*
G36*
X359960Y391694D02*
X359952D01*
X359931D01*
X359898D01*
X359856Y391698D01*
X359806Y391702D01*
X359752Y391715D01*
X359693Y391727D01*
X359635Y391748D01*
X359631D01*
X359623Y391752D01*
X359610Y391757D01*
X359589Y391765D01*
X359568Y391777D01*
X359539Y391790D01*
X359473Y391823D01*
X359394Y391865D01*
X359306Y391919D01*
X359214Y391982D01*
X359123Y392057D01*
X359119Y392061D01*
X359110Y392065D01*
X359098Y392077D01*
X359077Y392098D01*
X359056Y392119D01*
X359027Y392148D01*
X358994Y392177D01*
X358956Y392215D01*
X358914Y392256D01*
X358873Y392302D01*
X358823Y392352D01*
X358773Y392411D01*
X358719Y392469D01*
X358665Y392536D01*
X358606Y392602D01*
X358544Y392677D01*
X358540Y392686D01*
X358519Y392706D01*
X358494Y392735D01*
X358456Y392777D01*
X358415Y392827D01*
X358365Y392885D01*
X358311Y392952D01*
X358248Y393019D01*
X358119Y393160D01*
X357981Y393298D01*
X357915Y393364D01*
X357848Y393427D01*
X357786Y393481D01*
X357727Y393527D01*
X357723Y393531D01*
X357715Y393535D01*
X357698Y393548D01*
X357677Y393560D01*
X357648Y393581D01*
X357619Y393598D01*
X357544Y393639D01*
X357457Y393681D01*
X357361Y393718D01*
X357261Y393744D01*
X357211Y393748D01*
X357161Y393752D01*
X357157D01*
X357148D01*
X357132D01*
X357115Y393748D01*
X357090D01*
X357061Y393739D01*
X356998Y393727D01*
X356923Y393702D01*
X356844Y393664D01*
X356802Y393644D01*
X356765Y393614D01*
X356727Y393585D01*
X356690Y393548D01*
X356686Y393544D01*
X356682Y393539D01*
X356673Y393527D01*
X356661Y393510D01*
X356644Y393489D01*
X356628Y393464D01*
X356590Y393406D01*
X356557Y393327D01*
X356523Y393240D01*
X356503Y393135D01*
X356494Y393077D01*
Y392985D01*
X356498Y392960D01*
Y392931D01*
X356507Y392898D01*
X356519Y392823D01*
X356544Y392735D01*
X356582Y392644D01*
X356607Y392598D01*
X356632Y392552D01*
X356665Y392510D01*
X356702Y392469D01*
X356707Y392465D01*
X356711Y392461D01*
X356723Y392452D01*
X356740Y392435D01*
X356761Y392423D01*
X356786Y392406D01*
X356815Y392385D01*
X356848Y392369D01*
X356886Y392348D01*
X356927Y392331D01*
X357028Y392298D01*
X357136Y392273D01*
X357198Y392269D01*
X357265Y392265D01*
X357215Y391782D01*
X357207D01*
X357190Y391786D01*
X357165Y391790D01*
X357127Y391794D01*
X357082Y391802D01*
X357028Y391815D01*
X356969Y391827D01*
X356907Y391848D01*
X356844Y391869D01*
X356773Y391894D01*
X356707Y391927D01*
X356640Y391961D01*
X356569Y392002D01*
X356507Y392048D01*
X356444Y392098D01*
X356390Y392156D01*
X356386Y392161D01*
X356378Y392173D01*
X356365Y392190D01*
X356344Y392215D01*
X356324Y392248D01*
X356298Y392290D01*
X356273Y392336D01*
X356244Y392390D01*
X356219Y392448D01*
X356194Y392515D01*
X356169Y392585D01*
X356148Y392665D01*
X356128Y392748D01*
X356115Y392835D01*
X356107Y392931D01*
X356103Y393031D01*
Y393085D01*
X356107Y393123D01*
X356111Y393169D01*
X356119Y393223D01*
X356128Y393285D01*
X356140Y393348D01*
X356157Y393419D01*
X356178Y393489D01*
X356203Y393564D01*
X356232Y393635D01*
X356269Y393710D01*
X356311Y393781D01*
X356357Y393848D01*
X356411Y393910D01*
X356415Y393914D01*
X356423Y393923D01*
X356444Y393939D01*
X356465Y393960D01*
X356494Y393985D01*
X356532Y394014D01*
X356573Y394044D01*
X356623Y394073D01*
X356673Y394102D01*
X356732Y394131D01*
X356794Y394160D01*
X356861Y394185D01*
X356936Y394206D01*
X357011Y394223D01*
X357090Y394231D01*
X357173Y394235D01*
X357177D01*
X357182D01*
X357194D01*
X357211D01*
X357257Y394231D01*
X357315Y394223D01*
X357386Y394210D01*
X357461Y394193D01*
X357544Y394173D01*
X357627Y394139D01*
X357631D01*
X357636Y394135D01*
X357648Y394131D01*
X357665Y394123D01*
X357711Y394098D01*
X357769Y394064D01*
X357840Y394019D01*
X357919Y393964D01*
X358002Y393902D01*
X358094Y393823D01*
X358098Y393819D01*
X358106Y393814D01*
X358119Y393798D01*
X358140Y393781D01*
X358165Y393756D01*
X358194Y393727D01*
X358231Y393694D01*
X358269Y393652D01*
X358315Y393602D01*
X358365Y393548D01*
X358423Y393489D01*
X358481Y393423D01*
X358548Y393352D01*
X358615Y393273D01*
X358689Y393185D01*
X358769Y393094D01*
X358773Y393089D01*
X358785Y393077D01*
X358802Y393052D01*
X358827Y393027D01*
X358856Y392990D01*
X358890Y392952D01*
X358965Y392865D01*
X359044Y392773D01*
X359127Y392686D01*
X359164Y392644D01*
X359198Y392606D01*
X359231Y392573D01*
X359256Y392548D01*
X359260Y392544D01*
X359277Y392527D01*
X359302Y392506D01*
X359335Y392477D01*
X359373Y392444D01*
X359414Y392411D01*
X359506Y392344D01*
Y394239D01*
X359960D01*
Y391694D01*
D02*
G37*
G36*
X357315Y391298D02*
X357356Y391294D01*
X357402Y391286D01*
X357457Y391278D01*
X357519Y391265D01*
X357581Y391248D01*
X357648Y391227D01*
X357715Y391203D01*
X357786Y391169D01*
X357856Y391136D01*
X357927Y391094D01*
X357994Y391044D01*
X358060Y390990D01*
X358065Y390986D01*
X358073Y390973D01*
X358090Y390957D01*
X358115Y390928D01*
X358140Y390894D01*
X358169Y390848D01*
X358198Y390794D01*
X358227Y390732D01*
X358260Y390657D01*
X358290Y390578D01*
X358319Y390482D01*
X358344Y390382D01*
X358365Y390265D01*
X358381Y390140D01*
X358394Y390007D01*
X358398Y389857D01*
Y388874D01*
X359960D01*
Y388366D01*
X356115D01*
Y389949D01*
X356119Y390032D01*
X356124Y390128D01*
X356132Y390224D01*
X356140Y390315D01*
X356144Y390361D01*
X356153Y390399D01*
Y390403D01*
X356157Y390411D01*
Y390428D01*
X356161Y390444D01*
X356169Y390469D01*
X356174Y390499D01*
X356194Y390565D01*
X356219Y390640D01*
X356253Y390719D01*
X356290Y390798D01*
X356336Y390873D01*
Y390878D01*
X356340Y390882D01*
X356361Y390907D01*
X356390Y390940D01*
X356432Y390986D01*
X356482Y391032D01*
X356548Y391086D01*
X356619Y391136D01*
X356707Y391182D01*
X356711D01*
X356719Y391186D01*
X356732Y391194D01*
X356748Y391203D01*
X356769Y391211D01*
X356798Y391219D01*
X356861Y391244D01*
X356940Y391265D01*
X357028Y391286D01*
X357127Y391298D01*
X357232Y391302D01*
X357236D01*
X357252D01*
X357277D01*
X357315Y391298D01*
D02*
G37*
G36*
X356569Y386575D02*
X359960D01*
Y386066D01*
X356569D01*
Y384800D01*
X356115D01*
Y387841D01*
X356569D01*
Y386575D01*
D02*
G37*
G36*
X261708Y392637D02*
X261758Y392633D01*
X261816Y392625D01*
X261879Y392617D01*
X261950Y392604D01*
X262024Y392587D01*
X262104Y392571D01*
X262183Y392546D01*
X262266Y392517D01*
X262349Y392483D01*
X262428Y392442D01*
X262508Y392400D01*
X262583Y392346D01*
X262587Y392342D01*
X262599Y392333D01*
X262620Y392317D01*
X262645Y392292D01*
X262678Y392262D01*
X262716Y392225D01*
X262753Y392183D01*
X262799Y392133D01*
X262845Y392079D01*
X262891Y392017D01*
X262937Y391950D01*
X262978Y391875D01*
X263024Y391796D01*
X263062Y391708D01*
X263099Y391617D01*
X263132Y391521D01*
X262633Y391404D01*
Y391409D01*
X262624Y391421D01*
X262620Y391446D01*
X262608Y391475D01*
X262595Y391508D01*
X262574Y391546D01*
X262533Y391638D01*
X262479Y391738D01*
X262408Y391842D01*
X262333Y391937D01*
X262287Y391979D01*
X262241Y392017D01*
X262237Y392021D01*
X262229Y392025D01*
X262216Y392033D01*
X262195Y392046D01*
X262170Y392062D01*
X262141Y392079D01*
X262108Y392096D01*
X262066Y392113D01*
X262020Y392129D01*
X261975Y392146D01*
X261866Y392179D01*
X261741Y392200D01*
X261674Y392208D01*
X261562D01*
X261529Y392204D01*
X261491Y392200D01*
X261445Y392196D01*
X261395Y392192D01*
X261346Y392183D01*
X261225Y392154D01*
X261100Y392117D01*
X261037Y392092D01*
X260975Y392062D01*
X260916Y392029D01*
X260858Y391992D01*
X260854Y391987D01*
X260846Y391983D01*
X260829Y391971D01*
X260808Y391954D01*
X260787Y391933D01*
X260758Y391904D01*
X260729Y391875D01*
X260696Y391842D01*
X260662Y391800D01*
X260625Y391758D01*
X260558Y391663D01*
X260496Y391550D01*
X260441Y391421D01*
Y391417D01*
X260437Y391404D01*
X260429Y391384D01*
X260425Y391358D01*
X260417Y391325D01*
X260404Y391288D01*
X260396Y391242D01*
X260383Y391196D01*
X260371Y391142D01*
X260362Y391084D01*
X260341Y390959D01*
X260329Y390825D01*
X260325Y390684D01*
Y390680D01*
Y390663D01*
Y390638D01*
X260329Y390600D01*
Y390559D01*
X260333Y390509D01*
X260337Y390455D01*
X260341Y390392D01*
X260350Y390325D01*
X260358Y390259D01*
X260383Y390113D01*
X260421Y389967D01*
X260466Y389826D01*
Y389821D01*
X260475Y389809D01*
X260483Y389792D01*
X260492Y389767D01*
X260508Y389734D01*
X260529Y389701D01*
X260575Y389621D01*
X260637Y389530D01*
X260712Y389442D01*
X260804Y389355D01*
X260854Y389317D01*
X260908Y389280D01*
X260912D01*
X260921Y389272D01*
X260937Y389263D01*
X260962Y389251D01*
X260991Y389238D01*
X261025Y389221D01*
X261062Y389209D01*
X261104Y389192D01*
X261200Y389159D01*
X261312Y389130D01*
X261433Y389109D01*
X261495Y389105D01*
X261562Y389101D01*
X261604D01*
X261633Y389105D01*
X261670Y389109D01*
X261712Y389113D01*
X261762Y389122D01*
X261812Y389130D01*
X261929Y389159D01*
X261987Y389180D01*
X262049Y389205D01*
X262112Y389234D01*
X262170Y389267D01*
X262229Y389305D01*
X262287Y389347D01*
X262291Y389351D01*
X262299Y389359D01*
X262316Y389371D01*
X262337Y389392D01*
X262358Y389417D01*
X262387Y389451D01*
X262416Y389488D01*
X262449Y389530D01*
X262483Y389580D01*
X262516Y389634D01*
X262549Y389692D01*
X262583Y389759D01*
X262612Y389830D01*
X262641Y389909D01*
X262670Y389992D01*
X262691Y390080D01*
X263199Y389950D01*
Y389942D01*
X263191Y389921D01*
X263183Y389892D01*
X263166Y389846D01*
X263149Y389796D01*
X263124Y389734D01*
X263099Y389667D01*
X263066Y389596D01*
X263028Y389517D01*
X262987Y389442D01*
X262941Y389359D01*
X262887Y389280D01*
X262828Y389205D01*
X262766Y389130D01*
X262695Y389059D01*
X262620Y388992D01*
X262616Y388988D01*
X262599Y388980D01*
X262579Y388963D01*
X262545Y388942D01*
X262508Y388918D01*
X262458Y388888D01*
X262404Y388859D01*
X262337Y388830D01*
X262266Y388801D01*
X262191Y388772D01*
X262108Y388742D01*
X262016Y388717D01*
X261920Y388697D01*
X261820Y388680D01*
X261716Y388672D01*
X261604Y388667D01*
X261545D01*
X261500Y388672D01*
X261450Y388676D01*
X261387Y388680D01*
X261320Y388688D01*
X261245Y388701D01*
X261166Y388713D01*
X261083Y388730D01*
X261000Y388751D01*
X260916Y388772D01*
X260829Y388801D01*
X260746Y388834D01*
X260667Y388872D01*
X260592Y388918D01*
X260587Y388922D01*
X260575Y388930D01*
X260554Y388942D01*
X260529Y388963D01*
X260496Y388992D01*
X260458Y389022D01*
X260417Y389059D01*
X260371Y389105D01*
X260325Y389155D01*
X260275Y389209D01*
X260229Y389267D01*
X260179Y389334D01*
X260129Y389405D01*
X260083Y389480D01*
X260042Y389563D01*
X260000Y389651D01*
X259996Y389655D01*
X259992Y389671D01*
X259983Y389701D01*
X259971Y389734D01*
X259954Y389780D01*
X259937Y389830D01*
X259921Y389892D01*
X259900Y389959D01*
X259883Y390034D01*
X259862Y390113D01*
X259846Y390196D01*
X259833Y390288D01*
X259808Y390480D01*
X259804Y390579D01*
X259800Y390680D01*
Y390688D01*
Y390704D01*
Y390738D01*
X259804Y390779D01*
X259808Y390834D01*
X259813Y390896D01*
X259821Y390963D01*
X259829Y391038D01*
X259842Y391117D01*
X259854Y391200D01*
X259896Y391379D01*
X259925Y391467D01*
X259954Y391554D01*
X259988Y391646D01*
X260029Y391729D01*
X260033Y391733D01*
X260042Y391750D01*
X260054Y391771D01*
X260071Y391804D01*
X260096Y391842D01*
X260125Y391883D01*
X260158Y391929D01*
X260196Y391983D01*
X260242Y392033D01*
X260287Y392092D01*
X260341Y392146D01*
X260400Y392204D01*
X260462Y392258D01*
X260529Y392312D01*
X260604Y392362D01*
X260679Y392408D01*
X260683Y392412D01*
X260700Y392417D01*
X260721Y392429D01*
X260754Y392446D01*
X260791Y392462D01*
X260841Y392483D01*
X260896Y392504D01*
X260954Y392525D01*
X261021Y392546D01*
X261096Y392566D01*
X261171Y392587D01*
X261254Y392604D01*
X261425Y392633D01*
X261516Y392637D01*
X261612Y392641D01*
X261666D01*
X261708Y392637D01*
D02*
G37*
G36*
X264999Y392583D02*
X265044Y392579D01*
X265099Y392571D01*
X265161Y392562D01*
X265224Y392550D01*
X265294Y392533D01*
X265365Y392512D01*
X265440Y392487D01*
X265511Y392458D01*
X265586Y392421D01*
X265657Y392379D01*
X265723Y392333D01*
X265786Y392279D01*
X265790Y392275D01*
X265798Y392267D01*
X265815Y392246D01*
X265836Y392225D01*
X265861Y392196D01*
X265890Y392158D01*
X265919Y392117D01*
X265948Y392067D01*
X265978Y392017D01*
X266007Y391958D01*
X266036Y391896D01*
X266061Y391829D01*
X266082Y391754D01*
X266098Y391679D01*
X266107Y391600D01*
X266111Y391517D01*
Y391513D01*
Y391508D01*
Y391496D01*
Y391479D01*
X266107Y391433D01*
X266098Y391375D01*
X266086Y391304D01*
X266069Y391229D01*
X266048Y391146D01*
X266015Y391063D01*
Y391059D01*
X266011Y391054D01*
X266007Y391042D01*
X265998Y391025D01*
X265973Y390979D01*
X265940Y390921D01*
X265894Y390850D01*
X265840Y390771D01*
X265778Y390688D01*
X265699Y390596D01*
X265694Y390592D01*
X265690Y390584D01*
X265674Y390571D01*
X265657Y390550D01*
X265632Y390525D01*
X265603Y390496D01*
X265569Y390459D01*
X265528Y390421D01*
X265478Y390375D01*
X265424Y390325D01*
X265365Y390267D01*
X265299Y390209D01*
X265228Y390142D01*
X265149Y390075D01*
X265061Y390000D01*
X264970Y389921D01*
X264965Y389917D01*
X264953Y389905D01*
X264928Y389888D01*
X264903Y389863D01*
X264865Y389834D01*
X264828Y389801D01*
X264740Y389726D01*
X264649Y389646D01*
X264561Y389563D01*
X264520Y389526D01*
X264482Y389492D01*
X264449Y389459D01*
X264424Y389434D01*
X264420Y389430D01*
X264403Y389413D01*
X264382Y389388D01*
X264353Y389355D01*
X264320Y389317D01*
X264286Y389276D01*
X264220Y389184D01*
X266115D01*
Y388730D01*
X263570D01*
Y388738D01*
Y388759D01*
Y388792D01*
X263574Y388834D01*
X263578Y388884D01*
X263591Y388938D01*
X263603Y388997D01*
X263624Y389055D01*
Y389059D01*
X263628Y389067D01*
X263632Y389080D01*
X263641Y389101D01*
X263653Y389122D01*
X263666Y389151D01*
X263699Y389217D01*
X263741Y389296D01*
X263795Y389384D01*
X263857Y389476D01*
X263932Y389567D01*
X263937Y389571D01*
X263941Y389580D01*
X263953Y389592D01*
X263974Y389613D01*
X263995Y389634D01*
X264024Y389663D01*
X264053Y389696D01*
X264091Y389734D01*
X264132Y389776D01*
X264178Y389817D01*
X264228Y389867D01*
X264286Y389917D01*
X264345Y389971D01*
X264411Y390025D01*
X264478Y390084D01*
X264553Y390146D01*
X264561Y390150D01*
X264582Y390171D01*
X264611Y390196D01*
X264653Y390234D01*
X264703Y390275D01*
X264761Y390325D01*
X264828Y390380D01*
X264895Y390442D01*
X265036Y390571D01*
X265174Y390709D01*
X265240Y390775D01*
X265303Y390842D01*
X265357Y390905D01*
X265403Y390963D01*
X265407Y390967D01*
X265411Y390975D01*
X265424Y390992D01*
X265436Y391013D01*
X265457Y391042D01*
X265474Y391071D01*
X265515Y391146D01*
X265557Y391233D01*
X265594Y391329D01*
X265619Y391429D01*
X265623Y391479D01*
X265628Y391529D01*
Y391534D01*
Y391542D01*
Y391558D01*
X265623Y391575D01*
Y391600D01*
X265615Y391629D01*
X265603Y391692D01*
X265578Y391767D01*
X265540Y391846D01*
X265519Y391888D01*
X265490Y391925D01*
X265461Y391963D01*
X265424Y392000D01*
X265419Y392004D01*
X265415Y392008D01*
X265403Y392017D01*
X265386Y392029D01*
X265365Y392046D01*
X265340Y392062D01*
X265282Y392100D01*
X265203Y392133D01*
X265115Y392167D01*
X265011Y392188D01*
X264953Y392196D01*
X264861D01*
X264836Y392192D01*
X264807D01*
X264774Y392183D01*
X264699Y392171D01*
X264611Y392146D01*
X264520Y392108D01*
X264474Y392083D01*
X264428Y392058D01*
X264386Y392025D01*
X264345Y391987D01*
X264340Y391983D01*
X264336Y391979D01*
X264328Y391967D01*
X264311Y391950D01*
X264299Y391929D01*
X264282Y391904D01*
X264261Y391875D01*
X264245Y391842D01*
X264224Y391804D01*
X264207Y391763D01*
X264174Y391663D01*
X264149Y391554D01*
X264145Y391492D01*
X264141Y391425D01*
X263657Y391475D01*
Y391483D01*
X263661Y391500D01*
X263666Y391525D01*
X263670Y391563D01*
X263678Y391608D01*
X263691Y391663D01*
X263703Y391721D01*
X263724Y391783D01*
X263745Y391846D01*
X263770Y391917D01*
X263803Y391983D01*
X263836Y392050D01*
X263878Y392121D01*
X263924Y392183D01*
X263974Y392246D01*
X264032Y392300D01*
X264036Y392304D01*
X264049Y392312D01*
X264066Y392325D01*
X264091Y392346D01*
X264124Y392367D01*
X264166Y392392D01*
X264211Y392417D01*
X264265Y392446D01*
X264324Y392471D01*
X264391Y392496D01*
X264461Y392521D01*
X264541Y392542D01*
X264624Y392562D01*
X264711Y392575D01*
X264807Y392583D01*
X264907Y392587D01*
X264961D01*
X264999Y392583D01*
D02*
G37*
G36*
X358877Y419273D02*
X358910D01*
X358956Y419264D01*
X359006Y419256D01*
X359060Y419248D01*
X359123Y419231D01*
X359189Y419210D01*
X359256Y419185D01*
X359327Y419156D01*
X359398Y419118D01*
X359473Y419077D01*
X359543Y419027D01*
X359614Y418973D01*
X359681Y418906D01*
X359685Y418902D01*
X359698Y418889D01*
X359714Y418868D01*
X359735Y418839D01*
X359760Y418806D01*
X359789Y418760D01*
X359823Y418710D01*
X359852Y418652D01*
X359885Y418589D01*
X359918Y418519D01*
X359948Y418444D01*
X359972Y418360D01*
X359993Y418273D01*
X360010Y418181D01*
X360023Y418085D01*
X360027Y417981D01*
Y417960D01*
X360023Y417931D01*
Y417898D01*
X360018Y417852D01*
X360010Y417802D01*
X360002Y417748D01*
X359989Y417686D01*
X359972Y417619D01*
X359952Y417552D01*
X359931Y417481D01*
X359902Y417411D01*
X359864Y417340D01*
X359827Y417273D01*
X359781Y417202D01*
X359727Y417140D01*
X359723Y417136D01*
X359714Y417127D01*
X359698Y417111D01*
X359673Y417086D01*
X359644Y417061D01*
X359606Y417032D01*
X359564Y417002D01*
X359514Y416969D01*
X359464Y416936D01*
X359402Y416902D01*
X359339Y416869D01*
X359268Y416840D01*
X359194Y416815D01*
X359114Y416790D01*
X359031Y416773D01*
X358944Y416761D01*
X358881Y417231D01*
X358885D01*
X358898Y417236D01*
X358919Y417240D01*
X358948Y417248D01*
X358981Y417256D01*
X359019Y417265D01*
X359106Y417294D01*
X359202Y417331D01*
X359298Y417377D01*
X359385Y417435D01*
X359423Y417469D01*
X359460Y417502D01*
Y417506D01*
X359468Y417510D01*
X359477Y417523D01*
X359489Y417536D01*
X359514Y417577D01*
X359548Y417635D01*
X359581Y417706D01*
X359606Y417785D01*
X359627Y417881D01*
X359635Y417981D01*
Y418015D01*
X359631Y418040D01*
X359627Y418064D01*
X359623Y418102D01*
X359606Y418177D01*
X359581Y418269D01*
X359539Y418364D01*
X359510Y418410D01*
X359481Y418456D01*
X359448Y418502D01*
X359406Y418548D01*
X359402Y418552D01*
X359394Y418556D01*
X359381Y418569D01*
X359364Y418585D01*
X359343Y418602D01*
X359314Y418619D01*
X359285Y418639D01*
X359248Y418664D01*
X359164Y418706D01*
X359069Y418739D01*
X358956Y418769D01*
X358898Y418773D01*
X358835Y418777D01*
X358831D01*
X358823D01*
X358802D01*
X358781Y418773D01*
X358752Y418769D01*
X358723Y418764D01*
X358648Y418752D01*
X358560Y418723D01*
X358473Y418685D01*
X358427Y418660D01*
X358385Y418631D01*
X358344Y418598D01*
X358302Y418560D01*
X358298Y418556D01*
X358294Y418552D01*
X358281Y418539D01*
X358269Y418523D01*
X358252Y418502D01*
X358236Y418477D01*
X358194Y418414D01*
X358156Y418335D01*
X358123Y418244D01*
X358098Y418139D01*
X358094Y418081D01*
X358090Y418023D01*
Y417998D01*
X358094Y417969D01*
Y417931D01*
X358102Y417881D01*
X358111Y417827D01*
X358123Y417761D01*
X358140Y417690D01*
X357727Y417740D01*
Y417748D01*
X357731Y417769D01*
X357736Y417794D01*
Y417848D01*
X357731Y417869D01*
Y417898D01*
X357727Y417927D01*
X357715Y417998D01*
X357698Y418081D01*
X357669Y418173D01*
X357631Y418269D01*
X357577Y418360D01*
Y418364D01*
X357569Y418373D01*
X357561Y418381D01*
X357548Y418398D01*
X357511Y418439D01*
X357457Y418485D01*
X357390Y418527D01*
X357307Y418569D01*
X357261Y418585D01*
X357207Y418594D01*
X357152Y418602D01*
X357094Y418606D01*
X357090D01*
X357082D01*
X357069D01*
X357048Y418602D01*
X357002Y418598D01*
X356940Y418585D01*
X356873Y418564D01*
X356802Y418531D01*
X356727Y418485D01*
X356694Y418460D01*
X356661Y418427D01*
X356653Y418419D01*
X356636Y418394D01*
X356607Y418356D01*
X356573Y418306D01*
X356544Y418240D01*
X356515Y418160D01*
X356498Y418073D01*
X356490Y417973D01*
Y417948D01*
X356494Y417927D01*
Y417902D01*
X356498Y417877D01*
X356511Y417810D01*
X356532Y417740D01*
X356565Y417660D01*
X356607Y417585D01*
X356665Y417510D01*
X356673Y417502D01*
X356698Y417481D01*
X356736Y417448D01*
X356794Y417415D01*
X356865Y417373D01*
X356957Y417336D01*
X357061Y417302D01*
X357182Y417277D01*
X357098Y416806D01*
X357094D01*
X357077Y416811D01*
X357052Y416815D01*
X357019Y416823D01*
X356982Y416836D01*
X356936Y416848D01*
X356886Y416865D01*
X356832Y416886D01*
X356711Y416940D01*
X356653Y416969D01*
X356590Y417006D01*
X356532Y417048D01*
X356473Y417094D01*
X356415Y417144D01*
X356365Y417198D01*
X356361Y417202D01*
X356353Y417211D01*
X356340Y417231D01*
X356324Y417252D01*
X356303Y417286D01*
X356282Y417319D01*
X356257Y417361D01*
X356232Y417411D01*
X356211Y417461D01*
X356186Y417519D01*
X356165Y417581D01*
X356144Y417648D01*
X356128Y417723D01*
X356115Y417798D01*
X356107Y417877D01*
X356103Y417960D01*
Y418015D01*
X356107Y418044D01*
X356111Y418073D01*
X356119Y418152D01*
X356136Y418240D01*
X356161Y418340D01*
X356194Y418439D01*
X356240Y418539D01*
Y418544D01*
X356244Y418552D01*
X356253Y418564D01*
X356265Y418585D01*
X356294Y418631D01*
X356336Y418689D01*
X356390Y418756D01*
X356453Y418823D01*
X356523Y418889D01*
X356607Y418948D01*
X356611D01*
X356615Y418952D01*
X356632Y418960D01*
X356648Y418969D01*
X356669Y418981D01*
X356694Y418993D01*
X356757Y419019D01*
X356832Y419044D01*
X356915Y419068D01*
X357007Y419085D01*
X357102Y419089D01*
X357107D01*
X357115D01*
X357127D01*
X357144D01*
X357194Y419081D01*
X357252Y419073D01*
X357323Y419056D01*
X357398Y419031D01*
X357477Y418998D01*
X357556Y418952D01*
X357561D01*
X357565Y418948D01*
X357590Y418927D01*
X357627Y418898D01*
X357673Y418852D01*
X357727Y418798D01*
X357781Y418727D01*
X357831Y418648D01*
X357881Y418556D01*
Y418560D01*
X357886Y418573D01*
X357890Y418589D01*
X357898Y418614D01*
X357906Y418639D01*
X357919Y418673D01*
X357952Y418752D01*
X357998Y418835D01*
X358052Y418923D01*
X358123Y419010D01*
X358210Y419085D01*
X358215Y419089D01*
X358223Y419093D01*
X358236Y419102D01*
X358256Y419114D01*
X358277Y419131D01*
X358306Y419148D01*
X358340Y419164D01*
X358381Y419181D01*
X358423Y419198D01*
X358469Y419214D01*
X358573Y419248D01*
X358694Y419268D01*
X358760Y419277D01*
X358827D01*
X358831D01*
X358848D01*
X358877Y419273D01*
D02*
G37*
G36*
X357315Y416298D02*
X357356Y416294D01*
X357402Y416286D01*
X357457Y416278D01*
X357519Y416265D01*
X357581Y416248D01*
X357648Y416227D01*
X357715Y416203D01*
X357786Y416169D01*
X357856Y416136D01*
X357927Y416094D01*
X357994Y416044D01*
X358060Y415990D01*
X358065Y415986D01*
X358073Y415973D01*
X358090Y415957D01*
X358115Y415928D01*
X358140Y415894D01*
X358169Y415848D01*
X358198Y415794D01*
X358227Y415732D01*
X358260Y415657D01*
X358290Y415578D01*
X358319Y415482D01*
X358344Y415382D01*
X358365Y415265D01*
X358381Y415140D01*
X358394Y415007D01*
X358398Y414857D01*
Y413874D01*
X359960D01*
Y413366D01*
X356115D01*
Y414949D01*
X356119Y415032D01*
X356124Y415128D01*
X356132Y415224D01*
X356140Y415315D01*
X356144Y415361D01*
X356153Y415399D01*
Y415403D01*
X356157Y415411D01*
Y415428D01*
X356161Y415444D01*
X356169Y415469D01*
X356174Y415499D01*
X356194Y415565D01*
X356219Y415640D01*
X356253Y415719D01*
X356290Y415798D01*
X356336Y415873D01*
Y415878D01*
X356340Y415882D01*
X356361Y415907D01*
X356390Y415940D01*
X356432Y415986D01*
X356482Y416032D01*
X356548Y416086D01*
X356619Y416136D01*
X356707Y416182D01*
X356711D01*
X356719Y416186D01*
X356732Y416194D01*
X356748Y416203D01*
X356769Y416211D01*
X356798Y416219D01*
X356861Y416244D01*
X356940Y416265D01*
X357028Y416286D01*
X357127Y416298D01*
X357232Y416302D01*
X357236D01*
X357252D01*
X357277D01*
X357315Y416298D01*
D02*
G37*
G36*
X356569Y411575D02*
X359960D01*
Y411066D01*
X356569D01*
Y409800D01*
X356115D01*
Y412841D01*
X356569D01*
Y411575D01*
D02*
G37*
G36*
X206000Y463828D02*
X206050Y463824D01*
X206113Y463820D01*
X206180Y463812D01*
X206255Y463799D01*
X206334Y463787D01*
X206417Y463770D01*
X206500Y463749D01*
X206584Y463728D01*
X206671Y463699D01*
X206754Y463666D01*
X206834Y463628D01*
X206909Y463583D01*
X206913Y463578D01*
X206925Y463570D01*
X206946Y463558D01*
X206971Y463537D01*
X207004Y463508D01*
X207042Y463478D01*
X207083Y463441D01*
X207129Y463395D01*
X207175Y463345D01*
X207225Y463291D01*
X207271Y463233D01*
X207321Y463166D01*
X207371Y463095D01*
X207417Y463020D01*
X207458Y462937D01*
X207500Y462849D01*
X207504Y462845D01*
X207508Y462829D01*
X207517Y462799D01*
X207529Y462766D01*
X207546Y462720D01*
X207563Y462670D01*
X207579Y462608D01*
X207600Y462541D01*
X207617Y462466D01*
X207638Y462387D01*
X207654Y462304D01*
X207667Y462212D01*
X207692Y462020D01*
X207696Y461921D01*
X207700Y461820D01*
Y461812D01*
Y461796D01*
Y461762D01*
X207696Y461721D01*
X207692Y461666D01*
X207687Y461604D01*
X207679Y461537D01*
X207671Y461462D01*
X207658Y461383D01*
X207646Y461300D01*
X207604Y461121D01*
X207575Y461033D01*
X207546Y460946D01*
X207513Y460854D01*
X207471Y460771D01*
X207467Y460767D01*
X207458Y460750D01*
X207446Y460729D01*
X207429Y460696D01*
X207404Y460658D01*
X207375Y460617D01*
X207342Y460571D01*
X207304Y460517D01*
X207258Y460467D01*
X207213Y460408D01*
X207159Y460354D01*
X207100Y460296D01*
X207038Y460242D01*
X206971Y460188D01*
X206896Y460138D01*
X206821Y460092D01*
X206817Y460088D01*
X206800Y460084D01*
X206779Y460071D01*
X206746Y460054D01*
X206709Y460038D01*
X206659Y460017D01*
X206604Y459996D01*
X206546Y459975D01*
X206479Y459954D01*
X206404Y459934D01*
X206329Y459913D01*
X206246Y459896D01*
X206075Y459867D01*
X205984Y459863D01*
X205888Y459859D01*
X205834D01*
X205792Y459863D01*
X205742Y459867D01*
X205684Y459875D01*
X205621Y459883D01*
X205551Y459896D01*
X205476Y459913D01*
X205396Y459929D01*
X205317Y459954D01*
X205234Y459983D01*
X205151Y460017D01*
X205072Y460059D01*
X204992Y460100D01*
X204917Y460154D01*
X204913Y460158D01*
X204901Y460167D01*
X204880Y460183D01*
X204855Y460208D01*
X204822Y460238D01*
X204784Y460275D01*
X204747Y460317D01*
X204701Y460367D01*
X204655Y460421D01*
X204609Y460483D01*
X204563Y460550D01*
X204522Y460625D01*
X204476Y460704D01*
X204438Y460792D01*
X204401Y460883D01*
X204368Y460979D01*
X204867Y461096D01*
Y461091D01*
X204876Y461079D01*
X204880Y461054D01*
X204892Y461025D01*
X204905Y460992D01*
X204926Y460954D01*
X204967Y460862D01*
X205021Y460762D01*
X205092Y460658D01*
X205167Y460563D01*
X205213Y460521D01*
X205259Y460483D01*
X205263Y460479D01*
X205271Y460475D01*
X205284Y460467D01*
X205305Y460454D01*
X205330Y460438D01*
X205359Y460421D01*
X205392Y460404D01*
X205434Y460387D01*
X205480Y460371D01*
X205526Y460354D01*
X205634Y460321D01*
X205759Y460300D01*
X205826Y460292D01*
X205938D01*
X205971Y460296D01*
X206009Y460300D01*
X206055Y460304D01*
X206105Y460308D01*
X206155Y460317D01*
X206275Y460346D01*
X206400Y460383D01*
X206463Y460408D01*
X206525Y460438D01*
X206584Y460471D01*
X206642Y460508D01*
X206646Y460513D01*
X206654Y460517D01*
X206671Y460529D01*
X206692Y460546D01*
X206713Y460567D01*
X206742Y460596D01*
X206771Y460625D01*
X206804Y460658D01*
X206838Y460700D01*
X206875Y460742D01*
X206942Y460837D01*
X207004Y460950D01*
X207059Y461079D01*
Y461083D01*
X207063Y461096D01*
X207071Y461116D01*
X207075Y461142D01*
X207083Y461175D01*
X207096Y461212D01*
X207104Y461258D01*
X207117Y461304D01*
X207129Y461358D01*
X207138Y461417D01*
X207159Y461541D01*
X207171Y461675D01*
X207175Y461816D01*
Y461820D01*
Y461837D01*
Y461862D01*
X207171Y461900D01*
Y461941D01*
X207167Y461991D01*
X207163Y462046D01*
X207159Y462108D01*
X207150Y462175D01*
X207142Y462241D01*
X207117Y462387D01*
X207079Y462533D01*
X207034Y462674D01*
Y462679D01*
X207025Y462691D01*
X207017Y462708D01*
X207008Y462733D01*
X206992Y462766D01*
X206971Y462799D01*
X206925Y462879D01*
X206863Y462970D01*
X206788Y463058D01*
X206696Y463145D01*
X206646Y463183D01*
X206592Y463220D01*
X206588D01*
X206579Y463228D01*
X206563Y463237D01*
X206538Y463249D01*
X206509Y463262D01*
X206475Y463279D01*
X206438Y463291D01*
X206396Y463308D01*
X206300Y463341D01*
X206188Y463370D01*
X206067Y463391D01*
X206005Y463395D01*
X205938Y463399D01*
X205896D01*
X205867Y463395D01*
X205830Y463391D01*
X205788Y463387D01*
X205738Y463378D01*
X205688Y463370D01*
X205571Y463341D01*
X205513Y463320D01*
X205451Y463295D01*
X205388Y463266D01*
X205330Y463233D01*
X205271Y463195D01*
X205213Y463153D01*
X205209Y463149D01*
X205201Y463141D01*
X205184Y463129D01*
X205163Y463108D01*
X205142Y463083D01*
X205113Y463049D01*
X205084Y463012D01*
X205051Y462970D01*
X205017Y462920D01*
X204984Y462866D01*
X204951Y462808D01*
X204917Y462741D01*
X204888Y462670D01*
X204859Y462591D01*
X204830Y462508D01*
X204809Y462420D01*
X204301Y462550D01*
Y462558D01*
X204309Y462579D01*
X204317Y462608D01*
X204334Y462654D01*
X204351Y462704D01*
X204376Y462766D01*
X204401Y462833D01*
X204434Y462904D01*
X204472Y462983D01*
X204513Y463058D01*
X204559Y463141D01*
X204613Y463220D01*
X204672Y463295D01*
X204734Y463370D01*
X204805Y463441D01*
X204880Y463508D01*
X204884Y463512D01*
X204901Y463520D01*
X204922Y463537D01*
X204955Y463558D01*
X204992Y463583D01*
X205042Y463612D01*
X205096Y463641D01*
X205163Y463670D01*
X205234Y463699D01*
X205309Y463728D01*
X205392Y463758D01*
X205484Y463783D01*
X205580Y463803D01*
X205680Y463820D01*
X205784Y463828D01*
X205896Y463833D01*
X205955D01*
X206000Y463828D01*
D02*
G37*
G36*
X202351Y462849D02*
X204026D01*
Y462416D01*
X202268Y459925D01*
X201881D01*
Y462416D01*
X201360D01*
Y462849D01*
X201881D01*
Y463770D01*
X202351D01*
Y462849D01*
D02*
G37*
G36*
X359039Y343744D02*
X359960D01*
Y343273D01*
X359039D01*
Y341598D01*
X358606D01*
X356115Y343356D01*
Y343744D01*
X358606D01*
Y344264D01*
X359039D01*
Y343744D01*
D02*
G37*
G36*
X357315Y341298D02*
X357356Y341294D01*
X357402Y341286D01*
X357457Y341278D01*
X357519Y341265D01*
X357581Y341248D01*
X357648Y341227D01*
X357715Y341203D01*
X357786Y341169D01*
X357856Y341136D01*
X357927Y341094D01*
X357994Y341044D01*
X358060Y340990D01*
X358065Y340986D01*
X358073Y340973D01*
X358090Y340957D01*
X358115Y340928D01*
X358140Y340894D01*
X358169Y340849D01*
X358198Y340794D01*
X358227Y340732D01*
X358260Y340657D01*
X358290Y340578D01*
X358319Y340482D01*
X358344Y340382D01*
X358365Y340265D01*
X358381Y340140D01*
X358394Y340007D01*
X358398Y339857D01*
Y338874D01*
X359960D01*
Y338366D01*
X356115D01*
Y339949D01*
X356119Y340032D01*
X356124Y340128D01*
X356132Y340224D01*
X356140Y340315D01*
X356144Y340361D01*
X356153Y340399D01*
Y340403D01*
X356157Y340411D01*
Y340428D01*
X356161Y340444D01*
X356169Y340469D01*
X356174Y340499D01*
X356194Y340565D01*
X356219Y340640D01*
X356253Y340719D01*
X356290Y340798D01*
X356336Y340873D01*
Y340878D01*
X356340Y340882D01*
X356361Y340907D01*
X356390Y340940D01*
X356432Y340986D01*
X356482Y341032D01*
X356548Y341086D01*
X356619Y341136D01*
X356707Y341182D01*
X356711D01*
X356719Y341186D01*
X356732Y341194D01*
X356748Y341203D01*
X356769Y341211D01*
X356798Y341219D01*
X356861Y341244D01*
X356940Y341265D01*
X357028Y341286D01*
X357127Y341298D01*
X357232Y341302D01*
X357236D01*
X357252D01*
X357277D01*
X357315Y341298D01*
D02*
G37*
G36*
X356569Y336575D02*
X359960D01*
Y336066D01*
X356569D01*
Y334800D01*
X356115D01*
Y337841D01*
X356569D01*
Y336575D01*
D02*
G37*
G36*
X230218Y463828D02*
X230264Y463824D01*
X230314Y463816D01*
X230372Y463807D01*
X230435Y463795D01*
X230501Y463783D01*
X230572Y463762D01*
X230643Y463737D01*
X230714Y463708D01*
X230784Y463674D01*
X230855Y463637D01*
X230922Y463591D01*
X230989Y463541D01*
X230993Y463537D01*
X231001Y463528D01*
X231018Y463512D01*
X231039Y463487D01*
X231068Y463458D01*
X231097Y463424D01*
X231126Y463383D01*
X231159Y463333D01*
X231193Y463283D01*
X231226Y463224D01*
X231255Y463158D01*
X231284Y463091D01*
X231313Y463016D01*
X231334Y462937D01*
X231351Y462849D01*
X231364Y462762D01*
X230868Y462724D01*
Y462729D01*
X230864Y462741D01*
X230860Y462758D01*
X230855Y462783D01*
X230851Y462812D01*
X230839Y462849D01*
X230818Y462929D01*
X230784Y463016D01*
X230739Y463108D01*
X230685Y463191D01*
X230651Y463228D01*
X230618Y463266D01*
X230614D01*
X230609Y463274D01*
X230597Y463283D01*
X230580Y463295D01*
X230539Y463324D01*
X230480Y463354D01*
X230410Y463387D01*
X230326Y463416D01*
X230235Y463437D01*
X230185Y463441D01*
X230131Y463445D01*
X230097D01*
X230072Y463441D01*
X230043Y463437D01*
X230010Y463433D01*
X229930Y463412D01*
X229839Y463383D01*
X229793Y463362D01*
X229743Y463337D01*
X229693Y463308D01*
X229647Y463274D01*
X229601Y463237D01*
X229556Y463191D01*
X229552Y463187D01*
X229547Y463178D01*
X229535Y463166D01*
X229518Y463145D01*
X229501Y463116D01*
X229481Y463087D01*
X229460Y463049D01*
X229435Y463008D01*
X229414Y462962D01*
X229393Y462912D01*
X229372Y462854D01*
X229356Y462795D01*
X229339Y462729D01*
X229326Y462658D01*
X229322Y462587D01*
X229318Y462508D01*
Y462504D01*
Y462491D01*
Y462470D01*
X229322Y462441D01*
X229326Y462408D01*
X229331Y462366D01*
X229339Y462325D01*
X229347Y462275D01*
X229372Y462175D01*
X229414Y462066D01*
X229439Y462016D01*
X229472Y461966D01*
X229506Y461916D01*
X229547Y461870D01*
X229552Y461866D01*
X229556Y461862D01*
X229572Y461850D01*
X229589Y461833D01*
X229610Y461816D01*
X229639Y461796D01*
X229668Y461775D01*
X229706Y461750D01*
X229747Y461729D01*
X229789Y461708D01*
X229893Y461671D01*
X229947Y461654D01*
X230010Y461641D01*
X230072Y461637D01*
X230139Y461633D01*
X230176D01*
X230222Y461637D01*
X230276Y461646D01*
X230343Y461658D01*
X230414Y461679D01*
X230485Y461704D01*
X230555Y461741D01*
X230564Y461745D01*
X230585Y461758D01*
X230618Y461783D01*
X230660Y461812D01*
X230701Y461854D01*
X230751Y461900D01*
X230797Y461954D01*
X230839Y462012D01*
X231280Y461950D01*
X230909Y459975D01*
X228997D01*
Y460425D01*
X230534D01*
X230739Y461458D01*
X230735Y461454D01*
X230722Y461446D01*
X230705Y461437D01*
X230680Y461421D01*
X230647Y461404D01*
X230609Y461383D01*
X230568Y461358D01*
X230518Y461337D01*
X230468Y461316D01*
X230410Y461292D01*
X230289Y461254D01*
X230222Y461237D01*
X230156Y461225D01*
X230085Y461221D01*
X230014Y461217D01*
X229993D01*
X229964Y461221D01*
X229930D01*
X229889Y461229D01*
X229839Y461233D01*
X229781Y461246D01*
X229722Y461258D01*
X229656Y461279D01*
X229589Y461300D01*
X229518Y461329D01*
X229447Y461362D01*
X229377Y461404D01*
X229306Y461450D01*
X229235Y461504D01*
X229168Y461566D01*
X229164Y461571D01*
X229152Y461583D01*
X229135Y461604D01*
X229114Y461629D01*
X229085Y461662D01*
X229056Y461708D01*
X229027Y461754D01*
X228993Y461808D01*
X228960Y461870D01*
X228931Y461941D01*
X228897Y462012D01*
X228873Y462095D01*
X228852Y462179D01*
X228835Y462270D01*
X228822Y462366D01*
X228818Y462466D01*
Y462470D01*
Y462491D01*
Y462516D01*
X228822Y462554D01*
X228827Y462599D01*
X228835Y462649D01*
X228843Y462708D01*
X228856Y462774D01*
X228873Y462841D01*
X228893Y462916D01*
X228918Y462991D01*
X228947Y463066D01*
X228981Y463141D01*
X229022Y463220D01*
X229068Y463295D01*
X229122Y463366D01*
X229127Y463370D01*
X229139Y463387D01*
X229160Y463408D01*
X229189Y463437D01*
X229226Y463474D01*
X229272Y463512D01*
X229326Y463558D01*
X229389Y463599D01*
X229456Y463641D01*
X229531Y463687D01*
X229614Y463724D01*
X229706Y463758D01*
X229801Y463791D01*
X229905Y463812D01*
X230014Y463828D01*
X230131Y463833D01*
X230180D01*
X230218Y463828D01*
D02*
G37*
G36*
X233500D02*
X233550Y463824D01*
X233613Y463820D01*
X233680Y463812D01*
X233755Y463799D01*
X233834Y463787D01*
X233917Y463770D01*
X234000Y463749D01*
X234084Y463728D01*
X234171Y463699D01*
X234254Y463666D01*
X234334Y463628D01*
X234408Y463583D01*
X234413Y463578D01*
X234425Y463570D01*
X234446Y463558D01*
X234471Y463537D01*
X234504Y463508D01*
X234542Y463478D01*
X234583Y463441D01*
X234629Y463395D01*
X234675Y463345D01*
X234725Y463291D01*
X234771Y463233D01*
X234821Y463166D01*
X234871Y463095D01*
X234917Y463020D01*
X234958Y462937D01*
X235000Y462849D01*
X235004Y462845D01*
X235008Y462829D01*
X235017Y462799D01*
X235029Y462766D01*
X235046Y462720D01*
X235063Y462670D01*
X235079Y462608D01*
X235100Y462541D01*
X235117Y462466D01*
X235138Y462387D01*
X235154Y462304D01*
X235167Y462212D01*
X235192Y462020D01*
X235196Y461921D01*
X235200Y461820D01*
Y461812D01*
Y461796D01*
Y461762D01*
X235196Y461721D01*
X235192Y461666D01*
X235187Y461604D01*
X235179Y461537D01*
X235171Y461462D01*
X235158Y461383D01*
X235146Y461300D01*
X235104Y461121D01*
X235075Y461033D01*
X235046Y460946D01*
X235013Y460854D01*
X234971Y460771D01*
X234967Y460767D01*
X234958Y460750D01*
X234946Y460729D01*
X234929Y460696D01*
X234904Y460658D01*
X234875Y460617D01*
X234842Y460571D01*
X234804Y460517D01*
X234758Y460467D01*
X234713Y460408D01*
X234659Y460354D01*
X234600Y460296D01*
X234538Y460242D01*
X234471Y460188D01*
X234396Y460138D01*
X234321Y460092D01*
X234317Y460088D01*
X234300Y460084D01*
X234279Y460071D01*
X234246Y460054D01*
X234209Y460038D01*
X234159Y460017D01*
X234104Y459996D01*
X234046Y459975D01*
X233979Y459954D01*
X233904Y459934D01*
X233829Y459913D01*
X233746Y459896D01*
X233575Y459867D01*
X233484Y459863D01*
X233388Y459859D01*
X233334D01*
X233292Y459863D01*
X233242Y459867D01*
X233184Y459875D01*
X233121Y459883D01*
X233051Y459896D01*
X232976Y459913D01*
X232896Y459929D01*
X232817Y459954D01*
X232734Y459983D01*
X232651Y460017D01*
X232572Y460059D01*
X232492Y460100D01*
X232417Y460154D01*
X232413Y460158D01*
X232401Y460167D01*
X232380Y460183D01*
X232355Y460208D01*
X232322Y460238D01*
X232284Y460275D01*
X232247Y460317D01*
X232201Y460367D01*
X232155Y460421D01*
X232109Y460483D01*
X232063Y460550D01*
X232022Y460625D01*
X231976Y460704D01*
X231938Y460792D01*
X231901Y460883D01*
X231868Y460979D01*
X232367Y461096D01*
Y461091D01*
X232376Y461079D01*
X232380Y461054D01*
X232392Y461025D01*
X232405Y460992D01*
X232426Y460954D01*
X232467Y460862D01*
X232521Y460762D01*
X232592Y460658D01*
X232667Y460563D01*
X232713Y460521D01*
X232759Y460483D01*
X232763Y460479D01*
X232771Y460475D01*
X232784Y460467D01*
X232805Y460454D01*
X232830Y460438D01*
X232859Y460421D01*
X232892Y460404D01*
X232934Y460387D01*
X232980Y460371D01*
X233026Y460354D01*
X233134Y460321D01*
X233259Y460300D01*
X233326Y460292D01*
X233438D01*
X233471Y460296D01*
X233509Y460300D01*
X233555Y460304D01*
X233605Y460308D01*
X233655Y460317D01*
X233775Y460346D01*
X233900Y460383D01*
X233963Y460408D01*
X234025Y460438D01*
X234084Y460471D01*
X234142Y460508D01*
X234146Y460513D01*
X234154Y460517D01*
X234171Y460529D01*
X234192Y460546D01*
X234213Y460567D01*
X234242Y460596D01*
X234271Y460625D01*
X234304Y460658D01*
X234338Y460700D01*
X234375Y460742D01*
X234442Y460837D01*
X234504Y460950D01*
X234559Y461079D01*
Y461083D01*
X234563Y461096D01*
X234571Y461116D01*
X234575Y461142D01*
X234583Y461175D01*
X234596Y461212D01*
X234604Y461258D01*
X234617Y461304D01*
X234629Y461358D01*
X234638Y461417D01*
X234659Y461541D01*
X234671Y461675D01*
X234675Y461816D01*
Y461820D01*
Y461837D01*
Y461862D01*
X234671Y461900D01*
Y461941D01*
X234667Y461991D01*
X234663Y462046D01*
X234659Y462108D01*
X234650Y462175D01*
X234642Y462241D01*
X234617Y462387D01*
X234579Y462533D01*
X234534Y462674D01*
Y462679D01*
X234525Y462691D01*
X234517Y462708D01*
X234508Y462733D01*
X234492Y462766D01*
X234471Y462799D01*
X234425Y462879D01*
X234363Y462970D01*
X234288Y463058D01*
X234196Y463145D01*
X234146Y463183D01*
X234092Y463220D01*
X234088D01*
X234079Y463228D01*
X234063Y463237D01*
X234038Y463249D01*
X234009Y463262D01*
X233975Y463279D01*
X233938Y463291D01*
X233896Y463308D01*
X233800Y463341D01*
X233688Y463370D01*
X233567Y463391D01*
X233505Y463395D01*
X233438Y463399D01*
X233396D01*
X233367Y463395D01*
X233330Y463391D01*
X233288Y463387D01*
X233238Y463378D01*
X233188Y463370D01*
X233071Y463341D01*
X233013Y463320D01*
X232951Y463295D01*
X232888Y463266D01*
X232830Y463233D01*
X232771Y463195D01*
X232713Y463153D01*
X232709Y463149D01*
X232701Y463141D01*
X232684Y463129D01*
X232663Y463108D01*
X232642Y463083D01*
X232613Y463049D01*
X232584Y463012D01*
X232551Y462970D01*
X232517Y462920D01*
X232484Y462866D01*
X232451Y462808D01*
X232417Y462741D01*
X232388Y462670D01*
X232359Y462591D01*
X232330Y462508D01*
X232309Y462420D01*
X231801Y462550D01*
Y462558D01*
X231809Y462579D01*
X231817Y462608D01*
X231834Y462654D01*
X231851Y462704D01*
X231876Y462766D01*
X231901Y462833D01*
X231934Y462904D01*
X231972Y462983D01*
X232013Y463058D01*
X232059Y463141D01*
X232113Y463220D01*
X232172Y463295D01*
X232234Y463370D01*
X232305Y463441D01*
X232380Y463508D01*
X232384Y463512D01*
X232401Y463520D01*
X232422Y463537D01*
X232455Y463558D01*
X232492Y463583D01*
X232542Y463612D01*
X232596Y463641D01*
X232663Y463670D01*
X232734Y463699D01*
X232809Y463728D01*
X232892Y463758D01*
X232984Y463783D01*
X233080Y463803D01*
X233180Y463820D01*
X233284Y463828D01*
X233396Y463833D01*
X233455D01*
X233500Y463828D01*
D02*
G37*
G36*
X280083Y406148D02*
X280112D01*
X280149Y406144D01*
X280195Y406140D01*
X280241Y406132D01*
X280345Y406115D01*
X280458Y406086D01*
X280574Y406048D01*
X280695Y405994D01*
X280699D01*
X280708Y405986D01*
X280724Y405978D01*
X280745Y405965D01*
X280770Y405948D01*
X280799Y405932D01*
X280870Y405882D01*
X280945Y405824D01*
X281024Y405748D01*
X281103Y405661D01*
X281170Y405565D01*
Y405561D01*
X281178Y405553D01*
X281187Y405536D01*
X281195Y405515D01*
X281208Y405490D01*
X281220Y405461D01*
X281237Y405424D01*
X281249Y405386D01*
X281283Y405294D01*
X281308Y405186D01*
X281324Y405070D01*
X281332Y404944D01*
Y404920D01*
X281328Y404886D01*
X281324Y404845D01*
X281320Y404795D01*
X281308Y404736D01*
X281295Y404674D01*
X281278Y404603D01*
X281253Y404528D01*
X281228Y404449D01*
X281191Y404370D01*
X281149Y404291D01*
X281099Y404207D01*
X281041Y404132D01*
X280974Y404053D01*
X280899Y403982D01*
X280895Y403978D01*
X280879Y403966D01*
X280854Y403949D01*
X280816Y403924D01*
X280770Y403895D01*
X280712Y403866D01*
X280641Y403832D01*
X280558Y403799D01*
X280466Y403761D01*
X280362Y403728D01*
X280245Y403699D01*
X280116Y403670D01*
X279974Y403645D01*
X279820Y403628D01*
X279654Y403616D01*
X279475Y403611D01*
X279471D01*
X279462D01*
X279445D01*
X279425D01*
X279400D01*
X279366Y403616D01*
X279333D01*
X279291Y403620D01*
X279200Y403624D01*
X279096Y403632D01*
X278979Y403645D01*
X278854Y403661D01*
X278721Y403686D01*
X278587Y403712D01*
X278454Y403745D01*
X278321Y403787D01*
X278192Y403832D01*
X278067Y403886D01*
X277954Y403953D01*
X277854Y404024D01*
X277850Y404028D01*
X277833Y404041D01*
X277813Y404061D01*
X277783Y404091D01*
X277750Y404124D01*
X277713Y404170D01*
X277675Y404220D01*
X277633Y404278D01*
X277592Y404345D01*
X277554Y404420D01*
X277517Y404499D01*
X277484Y404586D01*
X277454Y404678D01*
X277433Y404778D01*
X277417Y404882D01*
X277413Y404995D01*
Y405040D01*
X277417Y405070D01*
X277421Y405107D01*
X277425Y405153D01*
X277433Y405203D01*
X277446Y405257D01*
X277475Y405378D01*
X277496Y405436D01*
X277521Y405503D01*
X277550Y405565D01*
X277588Y405624D01*
X277625Y405682D01*
X277671Y405740D01*
X277675Y405744D01*
X277683Y405753D01*
X277696Y405769D01*
X277717Y405786D01*
X277742Y405811D01*
X277775Y405836D01*
X277813Y405865D01*
X277854Y405894D01*
X277900Y405923D01*
X277954Y405953D01*
X278013Y405982D01*
X278075Y406011D01*
X278142Y406036D01*
X278213Y406057D01*
X278288Y406078D01*
X278371Y406090D01*
X278408Y405619D01*
X278404D01*
X278396Y405615D01*
X278383Y405611D01*
X278362Y405607D01*
X278312Y405594D01*
X278254Y405574D01*
X278188Y405549D01*
X278121Y405515D01*
X278058Y405482D01*
X278004Y405440D01*
X278000Y405436D01*
X277996Y405432D01*
X277983Y405419D01*
X277971Y405407D01*
X277938Y405365D01*
X277900Y405307D01*
X277863Y405240D01*
X277833Y405157D01*
X277808Y405065D01*
X277804Y405015D01*
X277800Y404965D01*
Y404928D01*
X277808Y404882D01*
X277817Y404828D01*
X277833Y404765D01*
X277854Y404699D01*
X277888Y404632D01*
X277929Y404566D01*
Y404561D01*
X277938Y404557D01*
X277946Y404545D01*
X277958Y404528D01*
X277996Y404491D01*
X278050Y404440D01*
X278117Y404382D01*
X278200Y404324D01*
X278296Y404270D01*
X278404Y404216D01*
X278408D01*
X278417Y404211D01*
X278437Y404203D01*
X278462Y404195D01*
X278492Y404186D01*
X278533Y404174D01*
X278579Y404161D01*
X278629Y404149D01*
X278687Y404136D01*
X278754Y404128D01*
X278829Y404116D01*
X278908Y404103D01*
X278991Y404095D01*
X279083Y404091D01*
X279183Y404086D01*
X279283Y404082D01*
X279283Y404082D01*
X279287D01*
X279283Y404082D01*
X279275Y404091D01*
X279262Y404099D01*
X279245Y404111D01*
X279200Y404149D01*
X279141Y404195D01*
X279079Y404257D01*
X279016Y404328D01*
X278958Y404407D01*
X278904Y404495D01*
Y404499D01*
X278900Y404507D01*
X278892Y404520D01*
X278883Y404536D01*
X278875Y404561D01*
X278862Y404586D01*
X278837Y404653D01*
X278817Y404732D01*
X278796Y404820D01*
X278779Y404915D01*
X278775Y405015D01*
Y405036D01*
X278779Y405061D01*
Y405094D01*
X278787Y405136D01*
X278792Y405182D01*
X278804Y405236D01*
X278817Y405294D01*
X278837Y405353D01*
X278858Y405419D01*
X278887Y405486D01*
X278921Y405553D01*
X278962Y405624D01*
X279008Y405690D01*
X279062Y405757D01*
X279125Y405819D01*
X279129Y405824D01*
X279141Y405832D01*
X279158Y405849D01*
X279187Y405873D01*
X279221Y405899D01*
X279262Y405923D01*
X279312Y405957D01*
X279366Y405986D01*
X279429Y406015D01*
X279496Y406048D01*
X279571Y406073D01*
X279650Y406103D01*
X279733Y406123D01*
X279825Y406140D01*
X279920Y406148D01*
X280020Y406153D01*
X280025D01*
X280037D01*
X280054D01*
X280083Y406148D01*
D02*
G37*
G36*
X280079Y403191D02*
X280108Y403182D01*
X280154Y403166D01*
X280204Y403149D01*
X280266Y403124D01*
X280333Y403099D01*
X280404Y403066D01*
X280483Y403028D01*
X280558Y402987D01*
X280641Y402941D01*
X280720Y402887D01*
X280795Y402828D01*
X280870Y402766D01*
X280941Y402695D01*
X281008Y402620D01*
X281012Y402616D01*
X281020Y402599D01*
X281037Y402579D01*
X281058Y402545D01*
X281083Y402508D01*
X281112Y402458D01*
X281141Y402403D01*
X281170Y402337D01*
X281199Y402266D01*
X281228Y402191D01*
X281257Y402108D01*
X281283Y402016D01*
X281303Y401920D01*
X281320Y401820D01*
X281328Y401716D01*
X281332Y401604D01*
Y401545D01*
X281328Y401500D01*
X281324Y401450D01*
X281320Y401387D01*
X281312Y401320D01*
X281299Y401245D01*
X281287Y401166D01*
X281270Y401083D01*
X281249Y401000D01*
X281228Y400916D01*
X281199Y400829D01*
X281166Y400746D01*
X281128Y400667D01*
X281083Y400592D01*
X281078Y400587D01*
X281070Y400575D01*
X281058Y400554D01*
X281037Y400529D01*
X281008Y400496D01*
X280978Y400458D01*
X280941Y400416D01*
X280895Y400371D01*
X280845Y400325D01*
X280791Y400275D01*
X280733Y400229D01*
X280666Y400179D01*
X280595Y400129D01*
X280520Y400083D01*
X280437Y400042D01*
X280349Y400000D01*
X280345Y399996D01*
X280329Y399992D01*
X280299Y399983D01*
X280266Y399971D01*
X280220Y399954D01*
X280170Y399938D01*
X280108Y399921D01*
X280041Y399900D01*
X279966Y399883D01*
X279887Y399863D01*
X279804Y399846D01*
X279712Y399833D01*
X279520Y399808D01*
X279421Y399804D01*
X279321Y399800D01*
X279312D01*
X279296D01*
X279262D01*
X279221Y399804D01*
X279166Y399808D01*
X279104Y399813D01*
X279037Y399821D01*
X278962Y399829D01*
X278883Y399842D01*
X278800Y399854D01*
X278621Y399896D01*
X278533Y399925D01*
X278446Y399954D01*
X278354Y399987D01*
X278271Y400029D01*
X278267Y400033D01*
X278250Y400042D01*
X278229Y400054D01*
X278196Y400071D01*
X278158Y400096D01*
X278117Y400125D01*
X278071Y400158D01*
X278017Y400196D01*
X277967Y400242D01*
X277908Y400287D01*
X277854Y400341D01*
X277796Y400400D01*
X277742Y400462D01*
X277688Y400529D01*
X277638Y400604D01*
X277592Y400679D01*
X277588Y400683D01*
X277584Y400700D01*
X277571Y400721D01*
X277554Y400754D01*
X277538Y400791D01*
X277517Y400841D01*
X277496Y400896D01*
X277475Y400954D01*
X277454Y401021D01*
X277433Y401096D01*
X277413Y401171D01*
X277396Y401254D01*
X277367Y401425D01*
X277363Y401516D01*
X277358Y401612D01*
Y401666D01*
X277363Y401708D01*
X277367Y401758D01*
X277375Y401816D01*
X277383Y401879D01*
X277396Y401950D01*
X277413Y402024D01*
X277429Y402104D01*
X277454Y402183D01*
X277484Y402266D01*
X277517Y402349D01*
X277558Y402429D01*
X277600Y402508D01*
X277654Y402583D01*
X277658Y402587D01*
X277667Y402599D01*
X277683Y402620D01*
X277708Y402645D01*
X277738Y402678D01*
X277775Y402716D01*
X277817Y402753D01*
X277867Y402799D01*
X277921Y402845D01*
X277983Y402891D01*
X278050Y402937D01*
X278125Y402978D01*
X278204Y403024D01*
X278292Y403062D01*
X278383Y403099D01*
X278479Y403133D01*
X278596Y402633D01*
X278591D01*
X278579Y402624D01*
X278554Y402620D01*
X278525Y402608D01*
X278492Y402595D01*
X278454Y402574D01*
X278362Y402533D01*
X278263Y402478D01*
X278158Y402408D01*
X278062Y402333D01*
X278021Y402287D01*
X277983Y402241D01*
X277979Y402237D01*
X277975Y402229D01*
X277967Y402216D01*
X277954Y402195D01*
X277938Y402170D01*
X277921Y402141D01*
X277904Y402108D01*
X277888Y402066D01*
X277871Y402020D01*
X277854Y401974D01*
X277821Y401866D01*
X277800Y401741D01*
X277792Y401674D01*
Y401562D01*
X277796Y401529D01*
X277800Y401491D01*
X277804Y401445D01*
X277808Y401395D01*
X277817Y401345D01*
X277846Y401225D01*
X277883Y401100D01*
X277908Y401037D01*
X277938Y400975D01*
X277971Y400916D01*
X278008Y400858D01*
X278013Y400854D01*
X278017Y400846D01*
X278029Y400829D01*
X278046Y400808D01*
X278067Y400787D01*
X278096Y400758D01*
X278125Y400729D01*
X278158Y400696D01*
X278200Y400662D01*
X278242Y400625D01*
X278337Y400558D01*
X278450Y400496D01*
X278579Y400442D01*
X278583D01*
X278596Y400437D01*
X278617Y400429D01*
X278641Y400425D01*
X278675Y400416D01*
X278712Y400404D01*
X278758Y400396D01*
X278804Y400383D01*
X278858Y400371D01*
X278916Y400362D01*
X279041Y400341D01*
X279175Y400329D01*
X279316Y400325D01*
X279321D01*
X279337D01*
X279362D01*
X279400Y400329D01*
X279441D01*
X279491Y400333D01*
X279545Y400337D01*
X279608Y400341D01*
X279675Y400350D01*
X279741Y400358D01*
X279887Y400383D01*
X280033Y400421D01*
X280175Y400466D01*
X280179D01*
X280191Y400475D01*
X280208Y400483D01*
X280233Y400491D01*
X280266Y400508D01*
X280299Y400529D01*
X280379Y400575D01*
X280470Y400637D01*
X280558Y400712D01*
X280645Y400804D01*
X280683Y400854D01*
X280720Y400908D01*
Y400912D01*
X280728Y400921D01*
X280737Y400937D01*
X280749Y400962D01*
X280762Y400991D01*
X280779Y401025D01*
X280791Y401062D01*
X280808Y401104D01*
X280841Y401200D01*
X280870Y401312D01*
X280891Y401433D01*
X280895Y401495D01*
X280899Y401562D01*
Y401604D01*
X280895Y401633D01*
X280891Y401670D01*
X280887Y401712D01*
X280879Y401762D01*
X280870Y401812D01*
X280841Y401929D01*
X280820Y401987D01*
X280795Y402049D01*
X280766Y402112D01*
X280733Y402170D01*
X280695Y402229D01*
X280653Y402287D01*
X280649Y402291D01*
X280641Y402299D01*
X280629Y402316D01*
X280608Y402337D01*
X280583Y402358D01*
X280549Y402387D01*
X280512Y402416D01*
X280470Y402449D01*
X280420Y402483D01*
X280366Y402516D01*
X280308Y402549D01*
X280241Y402583D01*
X280170Y402612D01*
X280091Y402641D01*
X280008Y402670D01*
X279920Y402691D01*
X280049Y403199D01*
X280058D01*
X280079Y403191D01*
D02*
G37*
G36*
X358744Y319302D02*
X358789Y319298D01*
X358839Y319289D01*
X358898Y319281D01*
X358965Y319268D01*
X359031Y319252D01*
X359106Y319231D01*
X359181Y319206D01*
X359256Y319177D01*
X359331Y319144D01*
X359410Y319102D01*
X359485Y319056D01*
X359556Y319002D01*
X359560Y318998D01*
X359577Y318985D01*
X359598Y318964D01*
X359627Y318935D01*
X359664Y318898D01*
X359702Y318852D01*
X359748Y318798D01*
X359789Y318735D01*
X359831Y318669D01*
X359877Y318594D01*
X359914Y318510D01*
X359948Y318419D01*
X359981Y318323D01*
X360002Y318219D01*
X360018Y318110D01*
X360023Y317994D01*
Y317944D01*
X360018Y317906D01*
X360014Y317861D01*
X360006Y317810D01*
X359997Y317752D01*
X359985Y317690D01*
X359972Y317623D01*
X359952Y317552D01*
X359927Y317481D01*
X359898Y317411D01*
X359864Y317340D01*
X359827Y317269D01*
X359781Y317202D01*
X359731Y317136D01*
X359727Y317132D01*
X359718Y317123D01*
X359702Y317106D01*
X359677Y317086D01*
X359648Y317057D01*
X359614Y317027D01*
X359573Y316998D01*
X359523Y316965D01*
X359473Y316931D01*
X359414Y316898D01*
X359348Y316869D01*
X359281Y316840D01*
X359206Y316811D01*
X359127Y316790D01*
X359039Y316773D01*
X358952Y316761D01*
X358914Y317257D01*
X358919D01*
X358931Y317261D01*
X358948Y317265D01*
X358973Y317269D01*
X359002Y317273D01*
X359039Y317286D01*
X359119Y317306D01*
X359206Y317340D01*
X359298Y317386D01*
X359381Y317440D01*
X359418Y317473D01*
X359456Y317506D01*
Y317511D01*
X359464Y317515D01*
X359473Y317527D01*
X359485Y317544D01*
X359514Y317586D01*
X359543Y317644D01*
X359577Y317715D01*
X359606Y317798D01*
X359627Y317890D01*
X359631Y317940D01*
X359635Y317994D01*
Y318027D01*
X359631Y318052D01*
X359627Y318081D01*
X359623Y318115D01*
X359602Y318194D01*
X359573Y318285D01*
X359552Y318331D01*
X359527Y318381D01*
X359498Y318431D01*
X359464Y318477D01*
X359427Y318523D01*
X359381Y318569D01*
X359377Y318573D01*
X359369Y318577D01*
X359356Y318589D01*
X359335Y318606D01*
X359306Y318623D01*
X359277Y318644D01*
X359239Y318664D01*
X359198Y318689D01*
X359152Y318710D01*
X359102Y318731D01*
X359044Y318752D01*
X358985Y318769D01*
X358919Y318785D01*
X358848Y318798D01*
X358777Y318802D01*
X358698Y318806D01*
X358694D01*
X358681D01*
X358660D01*
X358631Y318802D01*
X358598Y318798D01*
X358556Y318794D01*
X358515Y318785D01*
X358465Y318777D01*
X358365Y318752D01*
X358256Y318710D01*
X358206Y318685D01*
X358156Y318652D01*
X358106Y318619D01*
X358060Y318577D01*
X358056Y318573D01*
X358052Y318569D01*
X358040Y318552D01*
X358023Y318535D01*
X358006Y318514D01*
X357985Y318485D01*
X357965Y318456D01*
X357940Y318419D01*
X357919Y318377D01*
X357898Y318335D01*
X357861Y318231D01*
X357844Y318177D01*
X357831Y318115D01*
X357827Y318052D01*
X357823Y317985D01*
Y317948D01*
X357827Y317902D01*
X357836Y317848D01*
X357848Y317781D01*
X357869Y317710D01*
X357894Y317640D01*
X357931Y317569D01*
X357936Y317561D01*
X357948Y317540D01*
X357973Y317506D01*
X358002Y317465D01*
X358044Y317423D01*
X358090Y317373D01*
X358144Y317327D01*
X358202Y317286D01*
X358140Y316844D01*
X356165Y317215D01*
Y319127D01*
X356615D01*
Y317590D01*
X357648Y317386D01*
X357644Y317390D01*
X357636Y317402D01*
X357627Y317419D01*
X357611Y317444D01*
X357594Y317477D01*
X357573Y317515D01*
X357548Y317556D01*
X357527Y317606D01*
X357506Y317656D01*
X357481Y317715D01*
X357444Y317836D01*
X357427Y317902D01*
X357415Y317969D01*
X357411Y318040D01*
X357407Y318110D01*
Y318131D01*
X357411Y318160D01*
Y318194D01*
X357419Y318235D01*
X357423Y318285D01*
X357436Y318344D01*
X357448Y318402D01*
X357469Y318469D01*
X357490Y318535D01*
X357519Y318606D01*
X357552Y318677D01*
X357594Y318748D01*
X357640Y318819D01*
X357694Y318889D01*
X357756Y318956D01*
X357761Y318960D01*
X357773Y318973D01*
X357794Y318989D01*
X357819Y319010D01*
X357852Y319039D01*
X357898Y319069D01*
X357944Y319098D01*
X357998Y319131D01*
X358060Y319164D01*
X358131Y319193D01*
X358202Y319227D01*
X358285Y319252D01*
X358369Y319273D01*
X358460Y319289D01*
X358556Y319302D01*
X358656Y319306D01*
X358660D01*
X358681D01*
X358706D01*
X358744Y319302D01*
D02*
G37*
G36*
X357315Y316298D02*
X357356Y316294D01*
X357402Y316286D01*
X357457Y316278D01*
X357519Y316265D01*
X357581Y316248D01*
X357648Y316228D01*
X357715Y316203D01*
X357786Y316169D01*
X357856Y316136D01*
X357927Y316094D01*
X357994Y316044D01*
X358060Y315990D01*
X358065Y315986D01*
X358073Y315973D01*
X358090Y315957D01*
X358115Y315928D01*
X358140Y315894D01*
X358169Y315849D01*
X358198Y315794D01*
X358227Y315732D01*
X358260Y315657D01*
X358290Y315578D01*
X358319Y315482D01*
X358344Y315382D01*
X358365Y315265D01*
X358381Y315140D01*
X358394Y315007D01*
X358398Y314857D01*
Y313874D01*
X359960D01*
Y313366D01*
X356115D01*
Y314949D01*
X356119Y315032D01*
X356124Y315128D01*
X356132Y315224D01*
X356140Y315315D01*
X356144Y315361D01*
X356153Y315399D01*
Y315403D01*
X356157Y315411D01*
Y315428D01*
X356161Y315444D01*
X356169Y315469D01*
X356174Y315499D01*
X356194Y315565D01*
X356219Y315640D01*
X356253Y315719D01*
X356290Y315798D01*
X356336Y315874D01*
Y315878D01*
X356340Y315882D01*
X356361Y315907D01*
X356390Y315940D01*
X356432Y315986D01*
X356482Y316032D01*
X356548Y316086D01*
X356619Y316136D01*
X356707Y316182D01*
X356711D01*
X356719Y316186D01*
X356732Y316194D01*
X356748Y316203D01*
X356769Y316211D01*
X356798Y316219D01*
X356861Y316244D01*
X356940Y316265D01*
X357028Y316286D01*
X357127Y316298D01*
X357232Y316303D01*
X357236D01*
X357252D01*
X357277D01*
X357315Y316298D01*
D02*
G37*
G36*
X356569Y311575D02*
X359960D01*
Y311066D01*
X356569D01*
Y309800D01*
X356115D01*
Y312841D01*
X356569D01*
Y311575D01*
D02*
G37*
%LPC*%
G36*
X357244Y365778D02*
X357240D01*
X357232D01*
X357219D01*
X357202D01*
X357157Y365769D01*
X357102Y365761D01*
X357036Y365748D01*
X356969Y365723D01*
X356898Y365694D01*
X356832Y365653D01*
X356823Y365648D01*
X356802Y365632D01*
X356773Y365603D01*
X356740Y365569D01*
X356702Y365519D01*
X356665Y365465D01*
X356632Y365403D01*
X356607Y365332D01*
Y365328D01*
X356603Y365307D01*
X356594Y365274D01*
X356586Y365224D01*
Y365195D01*
X356582Y365161D01*
X356578Y365120D01*
X356573Y365078D01*
Y365028D01*
X356569Y364978D01*
Y363874D01*
X357944D01*
Y364911D01*
X357940Y364945D01*
Y364986D01*
X357936Y365032D01*
X357927Y365086D01*
X357919Y365140D01*
X357898Y365257D01*
X357865Y365374D01*
X357844Y365428D01*
X357819Y365478D01*
X357794Y365528D01*
X357761Y365569D01*
X357756Y365574D01*
X357752Y365578D01*
X357740Y365590D01*
X357727Y365603D01*
X357686Y365636D01*
X357627Y365673D01*
X357552Y365711D01*
X357465Y365744D01*
X357361Y365769D01*
X357307Y365774D01*
X357244Y365778D01*
D02*
G37*
G36*
Y390778D02*
X357240D01*
X357232D01*
X357219D01*
X357202D01*
X357157Y390769D01*
X357102Y390761D01*
X357036Y390748D01*
X356969Y390723D01*
X356898Y390694D01*
X356832Y390653D01*
X356823Y390648D01*
X356802Y390632D01*
X356773Y390603D01*
X356740Y390569D01*
X356702Y390519D01*
X356665Y390465D01*
X356632Y390403D01*
X356607Y390332D01*
Y390328D01*
X356603Y390307D01*
X356594Y390274D01*
X356586Y390224D01*
Y390194D01*
X356582Y390161D01*
X356578Y390120D01*
X356573Y390078D01*
Y390028D01*
X356569Y389978D01*
Y388874D01*
X357944D01*
Y389911D01*
X357940Y389944D01*
Y389986D01*
X357936Y390032D01*
X357927Y390086D01*
X357919Y390140D01*
X357898Y390257D01*
X357865Y390374D01*
X357844Y390428D01*
X357819Y390478D01*
X357794Y390528D01*
X357761Y390569D01*
X357756Y390574D01*
X357752Y390578D01*
X357740Y390590D01*
X357727Y390603D01*
X357686Y390636D01*
X357627Y390673D01*
X357552Y390711D01*
X357465Y390744D01*
X357361Y390769D01*
X357307Y390774D01*
X357244Y390778D01*
D02*
G37*
G36*
Y415778D02*
X357240D01*
X357232D01*
X357219D01*
X357202D01*
X357157Y415769D01*
X357102Y415761D01*
X357036Y415748D01*
X356969Y415723D01*
X356898Y415694D01*
X356832Y415653D01*
X356823Y415648D01*
X356802Y415632D01*
X356773Y415603D01*
X356740Y415569D01*
X356702Y415519D01*
X356665Y415465D01*
X356632Y415403D01*
X356607Y415332D01*
Y415328D01*
X356603Y415307D01*
X356594Y415274D01*
X356586Y415224D01*
Y415194D01*
X356582Y415161D01*
X356578Y415120D01*
X356573Y415078D01*
Y415028D01*
X356569Y414978D01*
Y413874D01*
X357944D01*
Y414911D01*
X357940Y414944D01*
Y414986D01*
X357936Y415032D01*
X357927Y415086D01*
X357919Y415140D01*
X357898Y415257D01*
X357865Y415374D01*
X357844Y415428D01*
X357819Y415478D01*
X357794Y415528D01*
X357761Y415569D01*
X357756Y415574D01*
X357752Y415578D01*
X357740Y415590D01*
X357727Y415603D01*
X357686Y415636D01*
X357627Y415673D01*
X357552Y415711D01*
X357465Y415744D01*
X357361Y415769D01*
X357307Y415774D01*
X357244Y415778D01*
D02*
G37*
G36*
X203564Y462416D02*
X202351D01*
Y460683D01*
X203564Y462416D01*
D02*
G37*
G36*
X358606Y343273D02*
X356873D01*
X358606Y342061D01*
Y343273D01*
D02*
G37*
G36*
X357244Y340778D02*
X357240D01*
X357232D01*
X357219D01*
X357202D01*
X357157Y340769D01*
X357102Y340761D01*
X357036Y340748D01*
X356969Y340723D01*
X356898Y340694D01*
X356832Y340653D01*
X356823Y340648D01*
X356802Y340632D01*
X356773Y340603D01*
X356740Y340569D01*
X356702Y340519D01*
X356665Y340465D01*
X356632Y340403D01*
X356607Y340332D01*
Y340328D01*
X356603Y340307D01*
X356594Y340274D01*
X356586Y340224D01*
Y340195D01*
X356582Y340161D01*
X356578Y340120D01*
X356573Y340078D01*
Y340028D01*
X356569Y339978D01*
Y338874D01*
X357944D01*
Y339911D01*
X357940Y339944D01*
Y339986D01*
X357936Y340032D01*
X357927Y340086D01*
X357919Y340140D01*
X357898Y340257D01*
X357865Y340374D01*
X357844Y340428D01*
X357819Y340478D01*
X357794Y340528D01*
X357761Y340569D01*
X357756Y340574D01*
X357752Y340578D01*
X357740Y340590D01*
X357727Y340603D01*
X357686Y340636D01*
X357627Y340673D01*
X357552Y340711D01*
X357465Y340744D01*
X357361Y340769D01*
X357307Y340774D01*
X357244Y340778D01*
D02*
G37*
G36*
X280049Y405669D02*
X280045D01*
X280033D01*
X280012D01*
X279983Y405665D01*
X279949Y405661D01*
X279912Y405657D01*
X279870Y405653D01*
X279825Y405644D01*
X279725Y405619D01*
X279620Y405582D01*
X279566Y405557D01*
X279516Y405528D01*
X279471Y405494D01*
X279425Y405457D01*
X279421Y405453D01*
X279416Y405449D01*
X279404Y405436D01*
X279387Y405419D01*
X279370Y405399D01*
X279350Y405374D01*
X279308Y405311D01*
X279266Y405232D01*
X279229Y405140D01*
X279200Y405036D01*
X279196Y404978D01*
X279191Y404920D01*
Y404890D01*
X279196Y404865D01*
X279200Y404840D01*
X279204Y404807D01*
X279221Y404732D01*
X279250Y404645D01*
X279291Y404553D01*
X279316Y404507D01*
X279345Y404461D01*
X279383Y404416D01*
X279425Y404374D01*
X279429Y404370D01*
X279437Y404366D01*
X279450Y404353D01*
X279466Y404341D01*
X279487Y404324D01*
X279516Y404303D01*
X279550Y404282D01*
X279587Y404266D01*
X279625Y404245D01*
X279670Y404224D01*
X279775Y404186D01*
X279891Y404161D01*
X279958Y404157D01*
X280025Y404153D01*
X280029D01*
X280037D01*
X280049D01*
X280066D01*
X280087Y404157D01*
X280112D01*
X280175Y404166D01*
X280245Y404178D01*
X280324Y404195D01*
X280408Y404220D01*
X280491Y404253D01*
X280495D01*
X280499Y404257D01*
X280512Y404266D01*
X280529Y404274D01*
X280566Y404295D01*
X280616Y404328D01*
X280670Y404370D01*
X280724Y404420D01*
X280779Y404474D01*
X280828Y404540D01*
Y404545D01*
X280833Y404549D01*
X280845Y404574D01*
X280866Y404611D01*
X280887Y404661D01*
X280908Y404720D01*
X280928Y404786D01*
X280941Y404861D01*
X280945Y404936D01*
Y404965D01*
X280941Y404986D01*
X280937Y405015D01*
X280933Y405045D01*
X280916Y405115D01*
X280887Y405195D01*
X280866Y405240D01*
X280845Y405282D01*
X280816Y405328D01*
X280787Y405369D01*
X280749Y405411D01*
X280708Y405453D01*
X280704Y405457D01*
X280695Y405461D01*
X280683Y405474D01*
X280662Y405486D01*
X280637Y405503D01*
X280608Y405519D01*
X280574Y405540D01*
X280533Y405561D01*
X280491Y405582D01*
X280441Y405603D01*
X280387Y405619D01*
X280329Y405636D01*
X280266Y405648D01*
X280195Y405661D01*
X280124Y405665D01*
X280049Y405669D01*
D02*
G37*
G36*
X357244Y315778D02*
X357240D01*
X357232D01*
X357219D01*
X357202D01*
X357157Y315769D01*
X357102Y315761D01*
X357036Y315749D01*
X356969Y315723D01*
X356898Y315694D01*
X356832Y315653D01*
X356823Y315648D01*
X356802Y315632D01*
X356773Y315603D01*
X356740Y315569D01*
X356702Y315519D01*
X356665Y315465D01*
X356632Y315403D01*
X356607Y315332D01*
Y315328D01*
X356603Y315307D01*
X356594Y315274D01*
X356586Y315224D01*
Y315194D01*
X356582Y315161D01*
X356578Y315119D01*
X356573Y315078D01*
Y315028D01*
X356569Y314978D01*
Y313874D01*
X357944D01*
Y314911D01*
X357940Y314945D01*
Y314986D01*
X357936Y315032D01*
X357927Y315086D01*
X357919Y315140D01*
X357898Y315257D01*
X357865Y315374D01*
X357844Y315428D01*
X357819Y315478D01*
X357794Y315528D01*
X357761Y315569D01*
X357756Y315574D01*
X357752Y315578D01*
X357740Y315590D01*
X357727Y315603D01*
X357686Y315636D01*
X357627Y315674D01*
X357552Y315711D01*
X357465Y315744D01*
X357361Y315769D01*
X357307Y315774D01*
X357244Y315778D01*
D02*
G37*
%LPD*%
M02*
