G04*
G04 #@! TF.GenerationSoftware,Altium Limited,Altium Designer,25.6.2 (33)*
G04*
G04 Layer_Color=128*
%FSLAX44Y44*%
%MOMM*%
G71*
G04*
G04 #@! TF.SameCoordinates,C81FDC39-D595-45C3-B34A-221C7668EC96*
G04*
G04*
G04 #@! TF.FilePolarity,Positive*
G04*
G01*
G75*
%ADD13C,0.1270*%
D13*
X121400Y547500D02*
X131600D01*
X126500Y542400D02*
Y552600D01*
X42000Y495000D02*
X53000D01*
X47500Y489500D02*
Y500500D01*
X10000Y22500D02*
X35000D01*
X22500Y10000D02*
Y35000D01*
X345000Y22500D02*
X370000D01*
X357500Y10000D02*
Y35000D01*
X345000Y547500D02*
X370000D01*
X357500Y535000D02*
Y560000D01*
X10000Y547500D02*
X35000D01*
X22500Y535000D02*
Y560000D01*
X248400Y547500D02*
X258600D01*
X253500Y542400D02*
Y552600D01*
X42000Y470000D02*
X53000D01*
X47500Y464500D02*
Y475500D01*
X42000Y445000D02*
X53000D01*
X47500Y439500D02*
Y450500D01*
X223000Y547500D02*
X233200D01*
X228100Y542400D02*
Y552600D01*
X197600Y547500D02*
X207800D01*
X202700Y542400D02*
Y552600D01*
X172200Y547500D02*
X182400D01*
X177300Y542400D02*
Y552600D01*
X146800Y547500D02*
X157000D01*
X151900Y542400D02*
Y552600D01*
X85500Y375000D02*
X94500D01*
X90000Y370500D02*
Y379500D01*
X85500Y350000D02*
X94500D01*
X90000Y345500D02*
Y354500D01*
X85500Y325000D02*
X94500D01*
X90000Y320500D02*
Y329500D01*
X203500Y335000D02*
X206500D01*
X205000Y333500D02*
Y336500D01*
X201000Y320000D02*
X204000D01*
X202500Y318500D02*
Y321500D01*
X226000Y310000D02*
X229000D01*
X227500Y308500D02*
Y311500D01*
X238500Y310000D02*
X241500D01*
X240000Y308500D02*
Y311500D01*
X253500Y310000D02*
X256500D01*
X255000Y308500D02*
Y311500D01*
X268500Y310000D02*
X271500D01*
X270000Y308500D02*
Y311500D01*
X283500Y310000D02*
X286500D01*
X285000Y308500D02*
Y311500D01*
X301000Y315000D02*
X304000D01*
X302500Y313500D02*
Y316500D01*
X313500Y325000D02*
X316500D01*
X315000Y323500D02*
Y326500D01*
X316000Y342500D02*
X319000D01*
X317500Y341000D02*
Y344000D01*
X316000Y372500D02*
X319000D01*
X317500Y371000D02*
Y374000D01*
X316000Y392500D02*
X319000D01*
X317500Y391000D02*
Y394000D01*
X316000Y407500D02*
X319000D01*
X317500Y406000D02*
Y409000D01*
X251000Y355000D02*
X254000D01*
X252500Y353500D02*
Y356500D01*
X273500Y355000D02*
X276500D01*
X275000Y353500D02*
Y356500D01*
X301000Y372500D02*
X304000D01*
X302500Y371000D02*
Y374000D01*
X293500Y352500D02*
X296500D01*
X295000Y351000D02*
Y354000D01*
X293500Y332500D02*
X296500D01*
X295000Y331000D02*
Y334000D01*
X283500Y325000D02*
X286500D01*
X285000Y323500D02*
Y326500D01*
X268500Y325000D02*
X271500D01*
X270000Y323500D02*
Y326500D01*
X253500Y325000D02*
X256500D01*
X255000Y323500D02*
Y326500D01*
X238500Y325000D02*
X241500D01*
X240000Y323500D02*
Y326500D01*
X161000Y482500D02*
X164000D01*
X162500Y481000D02*
Y484000D01*
X171000Y482500D02*
X174000D01*
X172500Y481000D02*
Y484000D01*
X151000Y482500D02*
X154000D01*
X152500Y481000D02*
Y484000D01*
X138500Y435000D02*
X141500D01*
X140000Y433500D02*
Y436500D01*
X133500Y440000D02*
X136500D01*
X135000Y438500D02*
Y441500D01*
X118500Y430000D02*
X121500D01*
X120000Y428500D02*
Y431500D01*
X168500Y408770D02*
X171500D01*
X170000Y407270D02*
Y410270D01*
X211944Y413500D02*
X219056D01*
X215500Y409944D02*
Y417056D01*
X205610Y422390D02*
X207610D01*
X206610Y421390D02*
Y423390D01*
X223390Y422390D02*
X225390D01*
X224390Y421390D02*
Y423390D01*
X223390Y404610D02*
X225390D01*
X224390Y403610D02*
Y405610D01*
X205610Y404610D02*
X207610D01*
X206610Y403610D02*
Y405610D01*
X178500Y417500D02*
X181500D01*
X180000Y416000D02*
Y419000D01*
X174770Y422500D02*
X177770D01*
X176270Y421000D02*
Y424000D01*
X186000Y455000D02*
X189000D01*
X187500Y453500D02*
Y456500D01*
X236000Y462500D02*
X239000D01*
X237500Y461000D02*
Y464000D01*
X326000Y450000D02*
X329000D01*
X327500Y448500D02*
Y451500D01*
X286000Y390000D02*
X289000D01*
X287500Y388500D02*
Y391500D01*
X226000Y332500D02*
X229000D01*
X227500Y331000D02*
Y334000D01*
X81000Y410000D02*
X84000D01*
X82500Y408500D02*
Y411500D01*
X53500Y410000D02*
X56500D01*
X55000Y408500D02*
Y411500D01*
X24783Y442939D02*
X27783D01*
X26283Y441439D02*
Y444439D01*
X24836Y495027D02*
X27836D01*
X26336Y493527D02*
Y496527D01*
X116000Y405000D02*
X119000D01*
X117500Y403500D02*
Y406500D01*
X236000Y32500D02*
X239000D01*
X237500Y31000D02*
Y34000D01*
X258500Y32500D02*
X261500D01*
X260000Y31000D02*
Y34000D01*
X296000Y32500D02*
X299000D01*
X297500Y31000D02*
Y34000D01*
X318500Y32500D02*
X321500D01*
X320000Y31000D02*
Y34000D01*
X224434Y448801D02*
X227434D01*
X225934Y447301D02*
Y450302D01*
X288500Y405000D02*
X291500D01*
X290000Y403500D02*
Y406500D01*
X128500Y412500D02*
X131500D01*
X130000Y411000D02*
Y414000D01*
X308500Y450000D02*
X311500D01*
X310000Y448500D02*
Y451500D01*
X306444Y420000D02*
X313556D01*
X310000Y416444D02*
Y423556D01*
X178500Y405000D02*
X181500D01*
X180000Y403500D02*
Y406500D01*
X209926Y441610D02*
X212926D01*
X211426Y440110D02*
Y443110D01*
X178500Y382500D02*
X181500D01*
X180000Y381000D02*
Y384000D01*
X183944Y327500D02*
X191056D01*
X187500Y323944D02*
Y331056D01*
M02*
