G04*
G04 #@! TF.GenerationSoftware,Altium Limited,Altium Designer,25.6.2 (33)*
G04*
G04 Layer_Color=8388736*
%FSLAX44Y44*%
%MOMM*%
G71*
G04*
G04 #@! TF.SameCoordinates,C81FDC39-D595-45C3-B34A-221C7668EC96*
G04*
G04*
G04 #@! TF.FilePolarity,Positive*
G04*
G01*
G75*
%ADD59C,0.0100*%
D59*
X258500Y402500D02*
X259000D01*
Y402833D01*
X258667Y403083D02*
Y403250D01*
X258750Y403333D01*
X259000D01*
Y403083D01*
X258917Y403000D01*
X258833Y403083D01*
Y403333D01*
X259000Y403500D02*
X258667D01*
Y403750D01*
X258750Y403833D01*
X259000D01*
X258500Y404333D02*
X259000D01*
Y404083D01*
X258917Y403999D01*
X258750D01*
X258667Y404083D01*
Y404333D01*
X259000Y404999D02*
X258500D01*
Y405249D01*
X258584Y405332D01*
X258750D01*
X258833Y405249D01*
Y404999D01*
X258667Y405582D02*
Y405749D01*
X258750Y405832D01*
X259000D01*
Y405582D01*
X258917Y405499D01*
X258833Y405582D01*
Y405832D01*
X258584Y406082D02*
X258667D01*
Y405999D01*
Y406166D01*
Y406082D01*
X258917D01*
X259000Y406166D01*
X258584Y406499D02*
X258667D01*
Y406415D01*
Y406582D01*
Y406499D01*
X258917D01*
X259000Y406582D01*
Y407082D02*
Y406915D01*
X258917Y406832D01*
X258750D01*
X258667Y406915D01*
Y407082D01*
X258750Y407165D01*
X258833D01*
Y406832D01*
X258667Y407332D02*
X259000D01*
X258833D01*
X258750Y407415D01*
X258667Y407499D01*
Y407582D01*
X259000Y407832D02*
X258667D01*
Y408082D01*
X258750Y408165D01*
X259000D01*
Y408831D02*
X258667D01*
X258500Y408998D01*
X258667Y409165D01*
X259000D01*
X258750D01*
Y408831D01*
X258500Y409664D02*
X259000D01*
Y409414D01*
X258917Y409331D01*
X258750D01*
X258667Y409414D01*
Y409664D01*
Y409914D02*
Y410081D01*
X258750Y410164D01*
X259000D01*
Y409914D01*
X258917Y409831D01*
X258833Y409914D01*
Y410164D01*
X259167Y410331D02*
X258667D01*
Y410581D01*
X258750Y410664D01*
X258917D01*
X259000Y410581D01*
Y410331D01*
X258584Y410914D02*
X258667D01*
Y410831D01*
Y410997D01*
Y410914D01*
X258917D01*
X259000Y410997D01*
Y411497D02*
Y411331D01*
X258917Y411247D01*
X258750D01*
X258667Y411331D01*
Y411497D01*
X258750Y411581D01*
X258833D01*
Y411247D01*
X258500Y412080D02*
X259000D01*
Y411830D01*
X258917Y411747D01*
X258750D01*
X258667Y411830D01*
Y412080D01*
X259000Y412830D02*
X258584D01*
X258750D01*
Y412747D01*
Y412914D01*
Y412830D01*
X258584D01*
X258500Y412914D01*
X259000Y413247D02*
Y413413D01*
X258917Y413497D01*
X258750D01*
X258667Y413413D01*
Y413247D01*
X258750Y413163D01*
X258917D01*
X259000Y413247D01*
X258667Y413663D02*
X259000D01*
X258833D01*
X258750Y413746D01*
X258667Y413830D01*
Y413913D01*
X258500Y414996D02*
Y414663D01*
X258750D01*
Y414829D01*
Y414663D01*
X259000D01*
Y415163D02*
Y415329D01*
Y415246D01*
X258500D01*
Y415163D01*
X259000Y415663D02*
Y415829D01*
X258917Y415913D01*
X258750D01*
X258667Y415829D01*
Y415663D01*
X258750Y415579D01*
X258917D01*
X259000Y415663D01*
X258667Y416079D02*
X258917D01*
X259000Y416162D01*
X258917Y416246D01*
X259000Y416329D01*
X258917Y416412D01*
X258667D01*
X258584Y417412D02*
X258500Y417329D01*
Y417162D01*
X258584Y417079D01*
X258667D01*
X258750Y417162D01*
Y417329D01*
X258833Y417412D01*
X258917D01*
X259000Y417329D01*
Y417162D01*
X258917Y417079D01*
X259000Y417662D02*
Y417829D01*
X258917Y417912D01*
X258750D01*
X258667Y417829D01*
Y417662D01*
X258750Y417579D01*
X258917D01*
X259000Y417662D01*
Y418078D02*
Y418245D01*
Y418162D01*
X258500D01*
Y418078D01*
Y418828D02*
X259000D01*
Y418578D01*
X258917Y418495D01*
X258750D01*
X258667Y418578D01*
Y418828D01*
X259000Y419245D02*
Y419078D01*
X258917Y418995D01*
X258750D01*
X258667Y419078D01*
Y419245D01*
X258750Y419328D01*
X258833D01*
Y418995D01*
X258667Y419495D02*
X259000D01*
X258833D01*
X258750Y419578D01*
X258667Y419661D01*
Y419745D01*
X259000Y419995D02*
Y420161D01*
Y420078D01*
X258667D01*
Y419995D01*
X259000Y420411D02*
X258667D01*
Y420661D01*
X258750Y420744D01*
X259000D01*
X259167Y421078D02*
Y421161D01*
X259083Y421244D01*
X258667D01*
Y420994D01*
X258750Y420911D01*
X258917D01*
X259000Y420994D01*
Y421244D01*
M02*
