M48
;Layer_Color=9474304
;FILE_FORMAT=4:4
METRIC,LZ
;TYPE=PLATED
T01F00S00C0.2000
T02F00S00C0.3000
T03F00S00C0.7112
T04F00S00C0.9000
T05F00S00C1.0200
T06F00S00C1.1000
T07F00S00C2.5000
%
T01
X0020661Y0040461
Y0042239
X0022439
Y0040461
T02
X002375Y000325
X0026
X002975
X0032
X00315Y00325
X003175Y003425
Y003725
X003025
X00295Y003525
Y003325
X00285Y00325
X0027
X00255
X0024
Y0031
X002275
Y003325
X00205Y00335
X002025Y0032
X00255Y0031
X0027
X00285
X003025Y00315
X00275Y00355
X002525
X002875Y0039
X0029Y00405
X003175Y004075
Y003925
X0031Y0045
X003275
X002375Y004625
X00225934Y00448801
X00211426Y0044161
X001875Y00455
X001725Y004825
X001625
X001525
X0014Y00435
X0017627Y004225
X0018Y004175
X0018Y00405
X0017Y0040877
X0018Y003825
X0013Y004125
X001175Y00405
X0012Y0043
X00135Y0044
X000825Y0041
X00055
X00026283Y00442939
X00026336Y00495027
T03
X001875Y003275
X002155Y004135
X0031Y0042
T04
X0009Y00325
Y0035
Y00375
T05
X001265Y005475
X001519
X001773
X002027
X002281
X002535
T06
X000475Y00445
Y0047
Y00495
T07
X000225Y000225
X003575
X000225Y005475
X003575
M30
