G04*
G04 #@! TF.GenerationSoftware,Altium Limited,Altium Designer,25.6.2 (33)*
G04*
G04 Layer_Color=32896*
%FSLAX44Y44*%
%MOMM*%
G71*
G04*
G04 #@! TF.SameCoordinates,95800A15-F6E0-4F83-BAC9-5642273E7207*
G04*
G04*
G04 #@! TF.FilePolarity,Positive*
G04*
G01*
G75*
%ADD10C,0.2500*%
%ADD11C,0.2000*%
D10*
X127750Y566000D02*
G03*
X127750Y566000I-1250J0D01*
G01*
D11*
X24500Y420500D02*
X139500D01*
Y519500D01*
X47500D02*
X139500D01*
X139200Y533800D02*
Y561200D01*
X112550Y533800D02*
Y561200D01*
X267450D01*
Y533800D02*
Y561200D01*
X112550Y533800D02*
X267450D01*
X280000Y544998D02*
X283332D01*
X281666D01*
Y536668D01*
X283332Y535002D01*
X284998D01*
X286665Y536668D01*
X276668Y535002D02*
X273335D01*
X275002D01*
Y544998D01*
X276668Y543332D01*
X131666Y414998D02*
X134998D01*
X133332D01*
Y406668D01*
X134998Y405002D01*
X136664D01*
X138331Y406668D01*
X121669Y405002D02*
X128334D01*
X121669Y411666D01*
Y413332D01*
X123336Y414998D01*
X126668D01*
X128334Y413332D01*
M02*
