G04*
G04 #@! TF.GenerationSoftware,Altium Limited,Altium Designer,25.6.2 (33)*
G04*
G04 Layer_Color=16711935*
%FSLAX44Y44*%
%MOMM*%
G71*
G04*
G04 #@! TF.SameCoordinates,C81FDC39-D595-45C3-B34A-221C7668EC96*
G04*
G04*
G04 #@! TF.FilePolarity,Positive*
G04*
G01*
G75*
%ADD11C,0.2000*%
%ADD13C,0.1270*%
%ADD14C,0.1000*%
%ADD60C,0.0500*%
%ADD61R,3.0000X0.4977*%
G36*
X91882Y358300D02*
X86883D01*
X86897Y358286D01*
X86931Y358252D01*
X86980Y358189D01*
X87049Y358099D01*
X87133Y357995D01*
X87223Y357863D01*
X87320Y357718D01*
X87424Y357551D01*
Y357544D01*
X87438Y357531D01*
X87451Y357510D01*
X87465Y357475D01*
X87493Y357434D01*
X87514Y357385D01*
X87576Y357274D01*
X87639Y357149D01*
X87708Y357010D01*
X87771Y356865D01*
X87826Y356726D01*
X87070D01*
X87063Y356733D01*
X87056Y356754D01*
X87035Y356789D01*
X87015Y356837D01*
X86987Y356893D01*
X86945Y356962D01*
X86904Y357038D01*
X86862Y357114D01*
X86751Y357295D01*
X86619Y357489D01*
X86481Y357690D01*
X86321Y357877D01*
X86314Y357884D01*
X86300Y357898D01*
X86280Y357926D01*
X86245Y357961D01*
X86203Y357995D01*
X86162Y358044D01*
X86044Y358148D01*
X85919Y358266D01*
X85773Y358383D01*
X85621Y358488D01*
X85461Y358578D01*
Y359084D01*
X91882D01*
Y358300D01*
D02*
G37*
G36*
Y354570D02*
X90551Y353724D01*
X90544Y353717D01*
X90523Y353710D01*
X90496Y353689D01*
X90454Y353661D01*
X90406Y353633D01*
X90350Y353592D01*
X90225Y353509D01*
X90080Y353412D01*
X89934Y353315D01*
X89795Y353210D01*
X89670Y353114D01*
X89663D01*
X89657Y353100D01*
X89622Y353072D01*
X89566Y353030D01*
X89504Y352968D01*
X89435Y352905D01*
X89365Y352829D01*
X89296Y352753D01*
X89247Y352683D01*
X89241Y352677D01*
X89227Y352649D01*
X89206Y352614D01*
X89178Y352566D01*
X89150Y352503D01*
X89123Y352441D01*
X89095Y352371D01*
X89074Y352295D01*
Y352288D01*
X89067Y352267D01*
X89060Y352233D01*
X89053Y352184D01*
Y352115D01*
X89046Y352032D01*
X89039Y351935D01*
Y350846D01*
X91882D01*
Y350000D01*
X85482D01*
Y352975D01*
X85489Y353051D01*
Y353127D01*
X85496Y353218D01*
X85503Y353321D01*
X85524Y353530D01*
X85559Y353745D01*
X85600Y353952D01*
X85628Y354043D01*
X85655Y354133D01*
Y354140D01*
X85662Y354154D01*
X85676Y354174D01*
X85690Y354209D01*
X85732Y354292D01*
X85794Y354389D01*
X85877Y354507D01*
X85988Y354625D01*
X86113Y354743D01*
X86266Y354847D01*
X86273D01*
X86286Y354861D01*
X86307Y354875D01*
X86342Y354889D01*
X86384Y354909D01*
X86432Y354930D01*
X86488Y354958D01*
X86550Y354986D01*
X86696Y355034D01*
X86855Y355076D01*
X87035Y355104D01*
X87230Y355117D01*
X87236D01*
X87257D01*
X87299D01*
X87340Y355111D01*
X87403Y355104D01*
X87472Y355097D01*
X87549Y355083D01*
X87632Y355062D01*
X87812Y355006D01*
X87909Y354972D01*
X88006Y354930D01*
X88103Y354882D01*
X88200Y354819D01*
X88291Y354750D01*
X88381Y354674D01*
X88388Y354667D01*
X88401Y354653D01*
X88422Y354625D01*
X88457Y354590D01*
X88492Y354542D01*
X88533Y354486D01*
X88582Y354417D01*
X88630Y354334D01*
X88679Y354244D01*
X88727Y354147D01*
X88776Y354036D01*
X88825Y353911D01*
X88866Y353779D01*
X88908Y353633D01*
X88942Y353474D01*
X88970Y353308D01*
Y353315D01*
X88977Y353321D01*
X88998Y353363D01*
X89032Y353425D01*
X89074Y353502D01*
X89123Y353585D01*
X89171Y353668D01*
X89234Y353751D01*
X89289Y353821D01*
X89296Y353828D01*
X89303Y353835D01*
X89324Y353855D01*
X89352Y353883D01*
X89386Y353918D01*
X89428Y353959D01*
X89525Y354050D01*
X89650Y354154D01*
X89795Y354272D01*
X89962Y354396D01*
X90142Y354521D01*
X91882Y355631D01*
Y354570D01*
D02*
G37*
%LPC*%
G36*
X87230Y354244D02*
X87223D01*
X87209D01*
X87188D01*
X87153Y354237D01*
X87119D01*
X87070Y354230D01*
X86966Y354202D01*
X86848Y354160D01*
X86723Y354105D01*
X86606Y354022D01*
X86543Y353966D01*
X86488Y353911D01*
X86481Y353904D01*
X86474Y353897D01*
X86460Y353876D01*
X86439Y353848D01*
X86418Y353814D01*
X86391Y353765D01*
X86363Y353717D01*
X86335Y353654D01*
X86307Y353585D01*
X86286Y353509D01*
X86259Y353425D01*
X86238Y353335D01*
X86217Y353231D01*
X86203Y353120D01*
X86189Y353003D01*
Y350846D01*
X88304D01*
Y352760D01*
X88298Y352808D01*
Y352864D01*
X88291Y352996D01*
X88277Y353141D01*
X88256Y353294D01*
X88228Y353439D01*
X88187Y353571D01*
Y353578D01*
X88180Y353585D01*
X88166Y353627D01*
X88138Y353682D01*
X88096Y353758D01*
X88041Y353835D01*
X87978Y353918D01*
X87895Y354001D01*
X87805Y354070D01*
X87791Y354077D01*
X87757Y354098D01*
X87708Y354126D01*
X87632Y354160D01*
X87549Y354188D01*
X87451Y354216D01*
X87340Y354237D01*
X87230Y354244D01*
D02*
G37*
%LPD*%
D11*
X240500Y374500D02*
X279500D01*
X240500Y335500D02*
Y374500D01*
Y335500D02*
X279500D01*
Y374500D01*
X64200Y300100D02*
X115800D01*
Y399900D01*
X64200D02*
X115800D01*
X64200Y300100D02*
Y399900D01*
D13*
X325000Y37500D02*
Y47500D01*
X320000Y292500D02*
X330000D01*
X325000Y287500D02*
Y297500D01*
X285000Y282500D02*
X365000D01*
X285000Y52500D02*
Y282500D01*
Y52500D02*
X365000D01*
Y282500D01*
X145000Y37500D02*
Y47500D01*
X140000Y292500D02*
X150000D01*
X145000Y287500D02*
Y297500D01*
X105000Y282500D02*
X185000D01*
X105000Y52500D02*
Y282500D01*
Y52500D02*
X185000D01*
Y282500D01*
X275000Y52500D02*
Y282500D01*
X195000Y52500D02*
X275000D01*
X195000D02*
Y282500D01*
X275000D01*
X235000Y287500D02*
Y297500D01*
X230000Y292500D02*
X240000D01*
X235000Y37500D02*
Y47500D01*
X95000Y52500D02*
Y282500D01*
X15000Y52500D02*
X95000D01*
X15000D02*
Y282500D01*
X95000D01*
X55000Y287500D02*
Y297500D01*
X50000Y292500D02*
X60000D01*
X55000Y37500D02*
Y47500D01*
D14*
X231750Y402250D02*
G03*
X231750Y402250I-5000J0D01*
G01*
X247250Y42750D02*
X252750D01*
X247250Y32250D02*
X252750D01*
Y42750D01*
X247250Y32250D02*
Y42750D01*
X307250D02*
X312750D01*
X307250Y32250D02*
X312750D01*
Y42750D01*
X307250Y32250D02*
Y42750D01*
X177500Y439000D02*
Y476000D01*
X147500Y439000D02*
Y476000D01*
X177500D01*
X147500Y439000D02*
X177500D01*
X162000Y359000D02*
Y376000D01*
X153000Y359000D02*
Y376000D01*
X162000D01*
X153000Y359000D02*
X162000D01*
X235750Y393250D02*
Y433750D01*
X195250Y393250D02*
Y433750D01*
Y393250D02*
X235750D01*
X195250Y433750D02*
X235750D01*
X179000Y352000D02*
X196000D01*
X179000Y343000D02*
X196000D01*
X179000D02*
Y352000D01*
X196000Y343000D02*
Y352000D01*
X303000Y457250D02*
Y462750D01*
X292500Y457250D02*
Y462750D01*
Y457250D02*
X303000D01*
X292500Y462750D02*
X303000D01*
X129750Y405250D02*
X140250D01*
X129750Y399750D02*
X140250D01*
X129750D02*
Y405250D01*
X140250Y399750D02*
Y405250D01*
X129750Y425250D02*
X140250D01*
X129750Y419750D02*
X140250D01*
X129750D02*
Y425250D01*
X140250Y419750D02*
Y425250D01*
X292500Y442750D02*
X303000D01*
X292500Y437250D02*
X303000D01*
X292500D02*
Y442750D01*
X303000Y437250D02*
Y442750D01*
X160000Y405250D02*
X170500D01*
X160000Y399750D02*
X170500D01*
X160000D02*
Y405250D01*
X170500Y399750D02*
Y405250D01*
X159750Y425250D02*
X170250D01*
X159750Y419750D02*
X170250D01*
X159750D02*
Y425250D01*
X170250Y419750D02*
Y425250D01*
X317750Y442750D02*
X328250D01*
X317750Y437250D02*
X328250D01*
X317750D02*
Y442750D01*
X328250Y437250D02*
Y442750D01*
X317750Y462750D02*
X328250D01*
X317750Y457250D02*
X328250D01*
X317750D02*
Y462750D01*
X328250Y457250D02*
Y462750D01*
X179000Y365500D02*
Y374500D01*
X196000Y365500D02*
Y374500D01*
X179000D02*
X196000D01*
X179000Y365500D02*
X196000D01*
X222750Y338750D02*
Y356250D01*
X232250Y338750D02*
Y356250D01*
X222750Y338750D02*
X232250D01*
X222750Y356250D02*
X232250D01*
X263750Y385250D02*
X281250D01*
X263750Y394750D02*
X281250D01*
Y385250D02*
Y394750D01*
X263750Y385250D02*
Y394750D01*
X186250Y467250D02*
X203750D01*
X186250Y457750D02*
X203750D01*
X186250D02*
Y467250D01*
X203750Y457750D02*
Y467250D01*
X261000Y404500D02*
Y420500D01*
Y404500D02*
X269000D01*
Y420500D01*
X261000D02*
X269000D01*
X213750Y467250D02*
X231250D01*
X213750Y457750D02*
X231250D01*
X213750D02*
Y467250D01*
X231250Y457750D02*
Y467250D01*
X284750Y403750D02*
Y421250D01*
X275250Y403750D02*
Y421250D01*
X284750D01*
X275250Y403750D02*
X284750D01*
D60*
X367500Y367500D02*
Y377500D01*
X357500D02*
X367500D01*
X357500Y367500D02*
Y377500D01*
Y367500D02*
X367500D01*
Y392500D02*
Y402500D01*
X357500D02*
X367500D01*
X357500Y392500D02*
Y402500D01*
Y392500D02*
X367500D01*
Y417500D02*
Y427500D01*
X357500D02*
X367500D01*
X357500Y417500D02*
Y427500D01*
Y417500D02*
X367500D01*
Y342500D02*
Y352500D01*
X357500D02*
X367500D01*
X357500Y342500D02*
Y352500D01*
Y342500D02*
X367500D01*
Y317500D02*
Y327500D01*
X357500D02*
X367500D01*
X357500Y317500D02*
Y327500D01*
Y317500D02*
X367500D01*
D61*
X162499Y441487D02*
D03*
M02*
