G04*
G04 #@! TF.GenerationSoftware,Altium Limited,Altium Designer,25.6.2 (33)*
G04*
G04 Layer_Color=8388736*
%FSLAX44Y44*%
%MOMM*%
G71*
G04*
G04 #@! TF.SameCoordinates,C81FDC39-D595-45C3-B34A-221C7668EC96*
G04*
G04*
G04 #@! TF.FilePolarity,Positive*
G04*
G01*
G75*
%ADD11C,0.2000*%
%ADD14C,0.1000*%
G36*
X197544Y542857D02*
X197038D01*
X196948Y543017D01*
X196844Y543169D01*
X196726Y543315D01*
X196608Y543440D01*
X196504Y543558D01*
X196456Y543599D01*
X196421Y543641D01*
X196386Y543676D01*
X196359Y543696D01*
X196345Y543710D01*
X196338Y543717D01*
X196151Y543877D01*
X195949Y544015D01*
X195755Y544147D01*
X195575Y544258D01*
X195499Y544300D01*
X195422Y544341D01*
X195353Y544383D01*
X195298Y544411D01*
X195249Y544431D01*
X195215Y544452D01*
X195194Y544459D01*
X195187Y544466D01*
Y545222D01*
X195326Y545166D01*
X195471Y545104D01*
X195610Y545035D01*
X195735Y544972D01*
X195846Y544910D01*
X195894Y544889D01*
X195936Y544861D01*
X195970Y544847D01*
X195991Y544834D01*
X196005Y544820D01*
X196012D01*
X196178Y544716D01*
X196324Y544619D01*
X196456Y544529D01*
X196560Y544445D01*
X196650Y544376D01*
X196712Y544327D01*
X196747Y544293D01*
X196761Y544279D01*
Y549278D01*
X197544D01*
Y542857D01*
D02*
G37*
G36*
X191928Y549375D02*
X192115Y549348D01*
X192281Y549313D01*
X192427Y549265D01*
X192489Y549244D01*
X192545Y549223D01*
X192593Y549209D01*
X192628Y549188D01*
X192663Y549174D01*
X192684Y549160D01*
X192697Y549154D01*
X192704D01*
X192850Y549057D01*
X192982Y548952D01*
X193086Y548842D01*
X193169Y548738D01*
X193238Y548641D01*
X193287Y548557D01*
X193301Y548530D01*
X193314Y548509D01*
X193321Y548495D01*
Y548488D01*
X193356Y548398D01*
X193391Y548308D01*
X193439Y548106D01*
X193474Y547898D01*
X193495Y547697D01*
X193509Y547607D01*
X193516Y547517D01*
Y547441D01*
X193523Y547371D01*
Y547316D01*
Y547274D01*
Y547247D01*
Y547240D01*
Y542878D01*
X192677D01*
Y547288D01*
Y547385D01*
X192670Y547482D01*
X192663Y547642D01*
X192649Y547781D01*
X192635Y547892D01*
X192614Y547975D01*
X192600Y548037D01*
X192593Y548072D01*
X192586Y548086D01*
X192545Y548176D01*
X192496Y548252D01*
X192441Y548321D01*
X192392Y548377D01*
X192337Y548419D01*
X192302Y548453D01*
X192274Y548474D01*
X192261Y548481D01*
X192170Y548530D01*
X192080Y548564D01*
X191990Y548592D01*
X191900Y548606D01*
X191824Y548620D01*
X191768Y548627D01*
X191713D01*
X191560Y548613D01*
X191428Y548585D01*
X191311Y548543D01*
X191213Y548495D01*
X191137Y548446D01*
X191082Y548405D01*
X191047Y548377D01*
X191033Y548363D01*
X190992Y548308D01*
X190950Y548245D01*
X190915Y548169D01*
X190888Y548093D01*
X190839Y547926D01*
X190804Y547760D01*
X190784Y547607D01*
X190777Y547538D01*
X190770Y547476D01*
Y547427D01*
X190763Y547392D01*
Y547365D01*
Y547358D01*
X190000Y547469D01*
Y547642D01*
X190014Y547801D01*
X190035Y547954D01*
X190056Y548093D01*
X190090Y548224D01*
X190125Y548342D01*
X190166Y548446D01*
X190201Y548543D01*
X190243Y548627D01*
X190284Y548703D01*
X190319Y548765D01*
X190354Y548814D01*
X190381Y548855D01*
X190402Y548883D01*
X190416Y548897D01*
X190423Y548904D01*
X190513Y548987D01*
X190610Y549063D01*
X190707Y549126D01*
X190818Y549181D01*
X190922Y549230D01*
X191033Y549265D01*
X191137Y549299D01*
X191241Y549320D01*
X191338Y549341D01*
X191428Y549355D01*
X191512Y549369D01*
X191581Y549375D01*
X191637Y549382D01*
X191720D01*
X191928Y549375D01*
D02*
G37*
D11*
X111550Y532800D02*
Y562200D01*
X268450D01*
Y532800D02*
Y562200D01*
X111550Y532800D02*
X268450D01*
D14*
X24500Y519500D02*
X139500D01*
Y420500D02*
Y519500D01*
X24500Y420500D02*
X139500D01*
X24500D02*
Y519500D01*
M02*
