G04*
G04 #@! TF.GenerationSoftware,Altium Limited,Altium Designer,25.6.2 (33)*
G04*
G04 Layer_Color=8421504*
%FSLAX44Y44*%
%MOMM*%
G71*
G04*
G04 #@! TF.SameCoordinates,C81FDC39-D595-45C3-B34A-221C7668EC96*
G04*
G04*
G04 #@! TF.FilePolarity,Positive*
G04*
G01*
G75*
%ADD15R,0.6500X0.7000*%
%ADD16R,2.2000X1.5500*%
%ADD17O,0.8500X0.2000*%
%ADD18R,7.4000X2.0000*%
%ADD19R,2.6000X2.6000*%
%ADD20O,0.2000X0.8500*%
%ADD21R,0.7000X0.6500*%
G04:AMPARAMS|DCode=22|XSize=0.76mm|YSize=0.6604mm|CornerRadius=0.0825mm|HoleSize=0mm|Usage=FLASHONLY|Rotation=0.000|XOffset=0mm|YOffset=0mm|HoleType=Round|Shape=RoundedRectangle|*
%AMROUNDEDRECTD22*
21,1,0.7600,0.4953,0,0,0.0*
21,1,0.5949,0.6604,0,0,0.0*
1,1,0.1651,0.2975,-0.2477*
1,1,0.1651,-0.2975,-0.2477*
1,1,0.1651,-0.2975,0.2477*
1,1,0.1651,0.2975,0.2477*
%
%ADD22ROUNDEDRECTD22*%
G04:AMPARAMS|DCode=23|XSize=0.76mm|YSize=0.6604mm|CornerRadius=0.0825mm|HoleSize=0mm|Usage=FLASHONLY|Rotation=90.000|XOffset=0mm|YOffset=0mm|HoleType=Round|Shape=RoundedRectangle|*
%AMROUNDEDRECTD23*
21,1,0.7600,0.4953,0,0,90.0*
21,1,0.5949,0.6604,0,0,90.0*
1,1,0.1651,0.2477,0.2975*
1,1,0.1651,0.2477,-0.2975*
1,1,0.1651,-0.2477,-0.2975*
1,1,0.1651,-0.2477,0.2975*
%
%ADD23ROUNDEDRECTD23*%
%ADD24R,1.0000X0.8000*%
%ADD25R,3.8900X1.4500*%
%ADD26R,0.8000X1.0000*%
%ADD27R,0.7000X0.9500*%
D15*
X250000Y42250D02*
D03*
Y32750D02*
D03*
X310000Y42250D02*
D03*
Y32750D02*
D03*
D16*
X162500Y470000D02*
D03*
Y445000D02*
D03*
D17*
X196500Y425500D02*
D03*
Y421500D02*
D03*
Y417500D02*
D03*
X234500Y401500D02*
D03*
Y405500D02*
D03*
Y409500D02*
D03*
Y413500D02*
D03*
Y417500D02*
D03*
Y421500D02*
D03*
Y425500D02*
D03*
X196500Y413500D02*
D03*
Y409500D02*
D03*
Y405500D02*
D03*
Y401500D02*
D03*
D18*
X145000Y62500D02*
D03*
X55000D02*
D03*
X325000Y272500D02*
D03*
Y62500D02*
D03*
X145000Y272500D02*
D03*
X235000D02*
D03*
Y62500D02*
D03*
X55000Y272500D02*
D03*
D19*
X215500Y413500D02*
D03*
D20*
X219500Y432500D02*
D03*
X223500D02*
D03*
X227500D02*
D03*
X215500D02*
D03*
X211500D02*
D03*
X207500D02*
D03*
X203500D02*
D03*
Y394500D02*
D03*
X207500D02*
D03*
X211500D02*
D03*
X215500D02*
D03*
X219500D02*
D03*
X223500D02*
D03*
X227500D02*
D03*
D21*
X170000Y402500D02*
D03*
X169750Y422500D02*
D03*
X327750Y440000D02*
D03*
Y460000D02*
D03*
X302500D02*
D03*
X293000D02*
D03*
X130250Y402500D02*
D03*
X139750D02*
D03*
X130250Y422500D02*
D03*
X139750D02*
D03*
X293000Y440000D02*
D03*
X302500D02*
D03*
X160500Y402500D02*
D03*
X160250Y422500D02*
D03*
X318250Y440000D02*
D03*
Y460000D02*
D03*
D22*
X227500Y340500D02*
D03*
X280000Y405500D02*
D03*
X227500Y354500D02*
D03*
X280000Y419500D02*
D03*
D23*
X279500Y390000D02*
D03*
X188000Y462500D02*
D03*
X229500D02*
D03*
X265500Y390000D02*
D03*
X202000Y462500D02*
D03*
X215500D02*
D03*
D24*
X157500Y375000D02*
D03*
Y360000D02*
D03*
D25*
X260000Y340250D02*
D03*
Y369750D02*
D03*
D26*
X180000Y347500D02*
D03*
X195000D02*
D03*
X180000Y370000D02*
D03*
X195000D02*
D03*
D27*
X265000Y404250D02*
D03*
Y420750D02*
D03*
M02*
